<svg width="184" height="184" viewBox="0 0 184 184" fill="none" xmlns="http://www.w3.org/2000/svg">
<g clip-path="url(#clip0_2_42444)">
<path d="M131.277 78.5386L131.138 83.9292C152.984 84.483 170.523 102.367 170.523 124.347C170.523 146.677 152.422 164.779 130.094 164.779L108.531 180.945H130.094C158.377 180.945 181.305 158.018 181.305 129.734C181.305 101.847 159.013 79.1675 131.277 78.5386Z" fill="#98B6D1"/>
<path d="M175.914 124.344C175.914 99.4333 156.036 79.166 131.277 78.5385C130.883 78.5295 130.489 78.5234 130.094 78.5234V83.9141C149.445 83.9141 165.133 99.6015 165.133 118.953C165.133 138.305 149.445 153.992 130.094 153.992L117.156 170.164H130.094C155.4 170.164 175.914 149.65 175.914 124.344Z" fill="#A8CAE0"/>
<path d="M64.6875 180.945H108.531C116.511 180.945 123.473 176.607 127.202 170.164L84.0938 159.383L64.6875 180.945Z" fill="#A8CAE0"/>
<path d="M130.094 153.992H86.25L73.3125 170.164H127.202C129.038 166.992 130.094 163.312 130.094 159.383V153.992Z" fill="#B9DFF0"/>
<path d="M37.7344 159.383L2.69531 118.953C2.69531 153.19 30.4502 180.945 64.6875 180.945C72.6674 180.945 79.6296 176.607 83.3581 170.164L37.7344 159.383Z" fill="#B9DFF0"/>
<path d="M86.25 153.992H43.125C23.7734 153.992 8.08594 138.305 8.08594 118.953H2.69531C2.69531 147.236 25.6234 170.164 53.9062 170.164H83.3581C85.1938 166.992 86.25 163.312 86.25 159.383V153.992Z" fill="#C2F0FC"/>
<path d="M130.094 78.5235H56.6016C50.6471 78.5235 45.8203 73.6967 45.8203 67.7422C45.8203 61.7877 50.6471 56.961 56.6016 56.961H108.617C117.072 56.961 125.409 59.1176 132.716 63.3711V7.42578C125.409 11.6793 117.072 13.836 108.617 13.836H107.105C104.144 10.5283 99.8434 8.44533 95.0547 8.44533C90.266 8.44533 85.965 10.5283 83.0041 13.836H56.6016C26.8299 13.836 2.69531 37.9705 2.69531 67.7422C2.69531 97.5139 26.8299 121.648 56.6016 121.648H130.094C134.559 121.648 138.18 125.268 138.18 129.734C138.18 134.2 134.559 137.82 130.094 137.82H32.3438C21.9237 137.82 13.4766 129.373 13.4766 118.953C13.4766 115.976 11.063 113.563 8.08594 113.563C5.10887 113.563 2.69531 115.976 2.69531 118.953C2.69531 141.282 20.7963 159.383 43.125 159.383H130.094C152.422 159.383 170.523 141.282 170.523 118.953C170.523 96.6245 152.422 78.5235 130.094 78.5235Z" fill="#87A1C1"/>
<path d="M95.0547 30.0078C98.0318 30.0078 100.445 27.5943 100.445 24.6172C100.445 21.64 98.0318 19.2266 95.0547 19.2266C92.0775 19.2266 89.6641 21.64 89.6641 24.6172C89.6641 27.5943 92.0775 30.0078 95.0547 30.0078Z" fill="#515985"/>
<path d="M148.961 67.7422C166.824 67.7422 181.305 53.2614 181.305 35.3984C181.305 17.5355 166.824 3.05469 148.961 3.05469C131.098 3.05469 116.617 17.5355 116.617 35.3984C116.617 53.2614 131.098 67.7422 148.961 67.7422Z" fill="#E5FAFF"/>
<path d="M148.961 13.8359C146.101 13.8359 143.373 14.398 140.875 15.4093V55.3876C143.373 56.3989 146.101 56.9609 148.961 56.9609C160.87 56.9609 170.523 47.307 170.523 35.3984C170.523 23.4898 160.87 13.8359 148.961 13.8359Z" fill="#FF7D6D"/>
<path d="M154.352 35.3985C154.352 26.3501 148.776 18.6088 140.875 15.4093C132.974 18.6088 127.398 26.3501 127.398 35.3985C127.398 44.4468 132.974 52.1881 140.875 55.3876C148.776 52.1881 154.352 44.4468 154.352 35.3985Z" fill="#FF9A87"/>
<path d="M148.961 40.7891C151.938 40.7891 154.352 38.3756 154.352 35.3984C154.352 32.4213 151.938 30.0078 148.961 30.0078C145.984 30.0078 143.57 32.4213 143.57 35.3984C143.57 38.3756 145.984 40.7891 148.961 40.7891Z" fill="#FA3834"/>
<path d="M62.7109 48.875C64.1995 48.875 65.4062 47.6683 65.4062 46.1797C65.4062 44.6911 64.1995 43.4844 62.7109 43.4844C61.2224 43.4844 60.0156 44.6911 60.0156 46.1797C60.0156 47.6683 61.2224 48.875 62.7109 48.875Z" fill="black"/>
<path d="M95.0547 48.875C96.5433 48.875 97.75 47.6683 97.75 46.1797C97.75 44.6911 96.5433 43.4844 95.0547 43.4844C93.5661 43.4844 92.3594 44.6911 92.3594 46.1797C92.3594 47.6683 93.5661 48.875 95.0547 48.875Z" fill="black"/>
<path d="M73.4922 48.875C74.9808 48.875 76.1875 47.6683 76.1875 46.1797C76.1875 44.6911 74.9808 43.4844 73.4922 43.4844C72.0036 43.4844 70.7969 44.6911 70.7969 46.1797C70.7969 47.6683 72.0036 48.875 73.4922 48.875Z" fill="black"/>
<path d="M84.2734 48.875C85.762 48.875 86.9688 47.6683 86.9688 46.1797C86.9688 44.6911 85.762 43.4844 84.2734 43.4844C82.7849 43.4844 81.5781 44.6911 81.5781 46.1797C81.5781 47.6683 82.7849 48.875 84.2734 48.875Z" fill="black"/>
<path d="M103.141 24.6172C103.141 20.1584 99.5135 16.5312 95.0547 16.5312C90.5959 16.5312 86.9688 20.1584 86.9688 24.6172C86.9688 29.076 90.5959 32.7031 95.0547 32.7031C99.5135 32.7031 103.141 29.076 103.141 24.6172ZM95.0547 27.3125C93.5683 27.3125 92.3594 26.1036 92.3594 24.6172C92.3594 23.1308 93.5683 21.9219 95.0547 21.9219C96.5411 21.9219 97.75 23.1308 97.75 24.6172C97.75 26.1036 96.5411 27.3125 95.0547 27.3125Z" fill="black"/>
<path d="M148.961 59.6562C162.337 59.6562 173.219 48.7744 173.219 35.3984C173.219 22.0225 162.337 11.1406 148.961 11.1406C135.585 11.1406 124.703 22.0225 124.703 35.3984C124.703 48.7744 135.585 59.6562 148.961 59.6562ZM130.094 35.3984C130.094 34.3052 130.193 33.2354 130.372 32.1925L132.748 32.9644C134.163 33.4244 135.684 32.6496 136.144 31.234C136.604 29.8184 135.829 28.2975 134.414 27.8379L132.039 27.0663C132.998 25.1286 134.279 23.3791 135.812 21.8863L137.275 23.8995C138.15 25.1038 139.836 25.3708 141.04 24.4957C142.244 23.6206 142.511 21.9352 141.636 20.7309L140.17 18.7123C142.039 17.7233 144.093 17.0394 146.266 16.7271V19.2266C146.266 20.7151 147.473 21.9219 148.961 21.9219C150.45 21.9219 151.657 20.7151 151.657 19.2266V16.7267C153.83 17.039 155.884 17.7229 157.753 18.7119L156.286 20.7305C155.411 21.9348 155.678 23.6206 156.883 24.4954C158.087 25.3704 159.772 25.1034 160.647 23.8992L162.11 21.8859C163.644 23.3788 164.925 25.1279 165.883 27.066L163.509 27.8375C162.093 28.2975 161.318 29.8181 161.778 31.2336C162.238 32.6492 163.759 33.424 165.175 32.964L167.551 32.1921C167.729 33.2354 167.828 34.3052 167.828 35.3984C167.828 36.4917 167.729 37.5615 167.55 38.6044L165.174 37.8325C163.759 37.3725 162.238 38.1473 161.778 39.5629C161.318 40.9785 162.093 42.4993 163.508 42.959L165.882 43.7305C164.924 45.6683 163.643 47.4177 162.109 48.9106L160.647 46.8974C159.772 45.6931 158.086 45.4261 156.882 46.3012C155.678 47.1762 155.411 48.8617 156.286 50.066L157.752 52.0846C155.883 53.0736 153.829 53.7575 151.656 54.0698V51.5703C151.656 50.0818 150.449 48.875 148.961 48.875C147.472 48.875 146.265 50.0818 146.265 51.5703V54.0701C144.092 53.7578 142.038 53.0739 140.169 52.0849L141.635 50.0663C142.511 48.8621 142.243 47.1762 141.039 46.3015C139.835 45.4268 138.149 45.6935 137.274 46.8977L135.812 48.9109C134.278 47.4181 132.997 45.669 132.039 43.7309L134.413 42.9593C135.829 42.4993 136.603 40.9788 136.143 39.5632C135.683 38.1477 134.163 37.3728 132.747 37.8328L130.371 38.6048C130.193 37.5615 130.094 36.4917 130.094 35.3984Z" fill="black"/>
<path d="M148.961 43.4844C153.42 43.4844 157.047 39.8572 157.047 35.3984C157.047 30.9397 153.42 27.3125 148.961 27.3125C144.502 27.3125 140.875 30.9397 140.875 35.3984C140.875 39.8572 144.502 43.4844 148.961 43.4844ZM148.961 32.7031C150.447 32.7031 151.656 33.9121 151.656 35.3984C151.656 36.8848 150.447 38.0938 148.961 38.0938C147.475 38.0938 146.266 36.8848 146.266 35.3984C146.266 33.9121 147.475 32.7031 148.961 32.7031Z" fill="black"/>
<path d="M130.094 75.8281H56.6016C52.1428 75.8281 48.5156 72.201 48.5156 67.7422C48.5156 63.2834 52.1428 59.6562 56.6016 59.6562H108.617C116.703 59.6562 124.567 61.7464 131.359 65.7006L131.349 65.6794C136.527 68.7024 142.545 70.4375 148.961 70.4375C168.282 70.4375 184 54.7192 184 35.3984C184 16.0777 168.282 0.359375 148.961 0.359375C142.64 0.359375 136.704 2.04233 131.578 4.98345C131.505 5.01795 131.431 5.05461 131.359 5.0963C124.568 9.0505 116.703 11.1406 108.617 11.1406H108.255C104.741 7.70069 99.9968 5.75 95.0547 5.75C90.1126 5.75 85.3685 7.70069 81.8545 11.1406H56.6016C43.5713 11.1406 30.8495 15.6785 20.7801 23.9186C19.628 24.8612 19.4584 26.5592 20.4014 27.7114C20.9343 28.3626 21.7084 28.6997 22.489 28.6997C23.0891 28.6997 23.6936 28.5002 24.1946 28.0902C33.3029 20.6364 44.8123 16.5312 56.6016 16.5312H83.0041C83.7707 16.5312 84.5009 16.2049 85.0123 15.6335C87.5682 12.7783 91.2288 11.1406 95.0547 11.1406C98.8806 11.1406 102.541 12.7783 105.097 15.6335C105.608 16.2046 106.339 16.5312 107.105 16.5312H108.617C112.605 16.5312 116.546 16.0709 120.36 15.1782C116.307 20.8948 113.922 27.8731 113.922 35.3984C113.922 42.9216 116.306 49.8981 120.357 55.6136C116.544 54.7235 112.604 54.2656 108.617 54.2656H56.6016C49.1704 54.2656 43.125 60.311 43.125 67.7422C43.125 75.1733 49.1704 81.2188 56.6016 81.2188H130.094C150.9 81.2188 167.828 98.1464 167.828 118.953C167.828 127.303 165.154 135.216 160.096 141.837C159.192 143.02 159.418 144.712 160.601 145.616C161.09 145.989 161.665 146.169 162.236 146.169C163.047 146.169 163.849 145.805 164.38 145.11C170.162 137.541 173.219 128.496 173.219 118.953C173.219 112.752 171.901 106.853 169.533 101.52C175.241 109.476 178.609 119.218 178.609 129.734C178.609 156.486 156.845 178.25 130.094 178.25H123.755C128.621 174.316 131.942 168.543 132.646 161.996C141.246 161.499 149.361 158.503 156.251 153.239C157.434 152.335 157.66 150.644 156.756 149.461C155.852 148.278 154.16 148.051 152.978 148.956C146.357 154.014 138.444 156.688 130.094 156.688H43.125C22.6435 156.688 5.9207 140.285 5.40284 119.926C5.39781 119.602 5.39062 119.278 5.39062 118.953C5.39062 117.467 6.59956 116.258 8.08594 116.258C9.57231 116.258 10.7812 117.467 10.7812 118.953C10.7812 130.843 20.4542 140.516 32.3438 140.516H130.094C136.039 140.516 140.875 135.679 140.875 129.734C140.875 123.79 136.039 118.953 130.094 118.953H56.6016C28.3637 118.953 5.39062 95.9801 5.39062 67.7422C5.39062 55.9529 9.49577 44.4435 16.9499 35.3348C17.8926 34.1827 17.7229 32.4846 16.5711 31.542C15.4193 30.5993 13.7209 30.769 12.7783 31.9208C4.53783 41.9905 0 54.712 0 67.7422C0 98.9525 25.3913 124.344 56.6016 124.344H130.094C133.066 124.344 135.484 126.762 135.484 129.734C135.484 132.707 133.066 135.125 130.094 135.125H32.3438C23.4266 135.125 16.1719 127.87 16.1719 118.953C16.1719 114.494 12.5447 110.867 8.08594 110.867C3.62717 110.867 0 114.494 0 118.953C0 154.622 29.0188 183.641 64.6875 183.641H130.094C159.818 183.641 184 159.458 184 129.734C184 100.01 159.818 75.8281 130.094 75.8281ZM119.312 35.3984C119.312 19.0501 132.613 5.75 148.961 5.75C165.309 5.75 178.609 19.0501 178.609 35.3984C178.609 51.7468 165.309 65.0469 148.961 65.0469C132.613 65.0469 119.312 51.7468 119.312 35.3984ZM64.6875 178.25C44.2315 178.25 26.1621 167.838 15.4998 152.035C22.9878 158.299 32.6219 162.078 43.125 162.078H83.3592C82.0467 171.209 74.1757 178.25 64.6875 178.25ZM108.531 178.25H79.911C84.7572 174.332 88.0684 168.591 88.7919 162.078H127.203C125.89 171.209 118.019 178.25 108.531 178.25Z" fill="black"/>
</g>
<defs>
<clipPath id="clip0_2_42444">
<rect width="184" height="184" fill="white"/>
</clipPath>
</defs>
</svg>
