<svg width="184" height="185" viewBox="0 0 184 185" fill="none" xmlns="http://www.w3.org/2000/svg">
<g clip-path="url(#clip0_2_42210)">
<path d="M131.277 73.5454L131.138 78.9653C152.984 79.5221 170.523 97.5029 170.523 119.603C170.523 142.054 152.422 160.254 130.094 160.254L37.7344 154.829L2.69531 114.18C2.69531 148.603 30.4502 176.509 64.6875 176.509H130.094C158.377 176.509 181.305 153.456 181.305 125.019C181.305 96.9804 159.013 74.1777 131.277 73.5454Z" fill="#FEF1D4"/>
<path d="M131.277 73.5455C130.883 73.5364 130.489 73.5303 130.094 73.5303V78.9502C149.445 78.9502 165.133 94.7229 165.133 114.18C165.133 133.636 149.445 149.409 130.094 149.409H43.125C23.7734 149.409 8.08594 133.636 8.08594 114.18H2.69531C2.69531 142.616 25.6234 165.669 53.9062 165.669H64.6875C68.2094 165.669 71.4653 164.534 74.1211 162.612C76.7769 164.534 80.0328 165.669 83.5547 165.669H92.3594C95.8812 165.669 99.1372 164.534 101.793 162.612C104.449 164.534 107.705 165.669 111.227 165.669C114.748 165.669 118.004 164.534 120.66 162.612C123.316 164.534 126.572 165.669 130.094 165.669C155.4 165.669 175.914 145.043 175.914 119.6C175.914 94.5538 156.036 74.1763 131.277 73.5455Z" fill="#FED4BA"/>
<path d="M56.6016 51.8506C50.6471 51.8506 45.8203 56.7036 45.8203 62.6904C45.8203 68.6773 50.6471 73.5303 56.6016 73.5303H130.094C152.422 73.5303 170.523 91.7296 170.523 114.18C170.523 136.63 152.422 154.829 130.094 154.829H43.125C20.7963 154.829 2.69531 136.63 2.69531 114.18C2.69531 111.186 5.10887 108.76 8.08594 108.76C11.063 108.76 13.4766 111.186 13.4766 114.18C13.4766 124.656 21.9237 133.149 32.3438 133.149H130.094C134.559 133.149 138.18 129.509 138.18 125.02C138.18 120.529 134.559 116.89 130.094 116.89H56.6016C26.8299 116.89 2.69531 92.6239 2.69531 62.6904C2.69531 32.7569 26.8299 8.49121 56.6016 8.49121H146.266C158.174 8.49121 167.828 18.1976 167.828 30.1709C167.828 42.1442 158.174 51.8506 146.266 51.8506H56.6016Z" fill="#FF9A87"/>
<path d="M175.914 38.3008C171.456 38.3008 167.828 34.6535 167.828 30.1709C167.828 25.6883 171.456 22.041 175.914 22.041C178.891 22.041 181.305 19.6143 181.305 16.6211C181.305 13.6279 178.891 11.2012 175.914 11.2012C165.511 11.2012 157.047 19.7112 157.047 30.1709C157.047 40.6306 165.511 49.1406 175.914 49.1406C178.891 49.1406 181.305 46.7139 181.305 43.7207C181.305 40.7275 178.891 38.3008 175.914 38.3008Z" fill="#FEB7A0"/>
<path d="M62.7109 43.7207C64.1995 43.7207 65.4062 42.5074 65.4062 41.0107C65.4062 39.5141 64.1995 38.3008 62.7109 38.3008C61.2224 38.3008 60.0156 39.5141 60.0156 41.0107C60.0156 42.5074 61.2224 43.7207 62.7109 43.7207Z" fill="black"/>
<path d="M95.0547 43.7207C96.5433 43.7207 97.75 42.5074 97.75 41.0107C97.75 39.5141 96.5433 38.3008 95.0547 38.3008C93.5661 38.3008 92.3594 39.5141 92.3594 41.0107C92.3594 42.5074 93.5661 43.7207 95.0547 43.7207Z" fill="black"/>
<path d="M73.4922 43.7207C74.9808 43.7207 76.1875 42.5074 76.1875 41.0107C76.1875 39.5141 74.9808 38.3008 73.4922 38.3008C72.0036 38.3008 70.7969 39.5141 70.7969 41.0107C70.7969 42.5074 72.0036 43.7207 73.4922 43.7207Z" fill="black"/>
<path d="M84.2734 43.7207C85.762 43.7207 86.9688 42.5074 86.9688 41.0107C86.9688 39.5141 85.762 38.3008 84.2734 38.3008C82.7849 38.3008 81.5781 39.5141 81.5781 41.0107C81.5781 42.5074 82.7849 43.7207 84.2734 43.7207Z" fill="black"/>
<path d="M56.6016 54.5605H146.266C152.641 54.5605 158.671 52.0721 163.18 47.6534C166.862 50.3764 171.295 51.8506 175.914 51.8506C180.373 51.8506 184 48.2037 184 43.7207C184 39.2377 180.373 35.5908 175.914 35.5908C172.942 35.5908 170.523 33.1594 170.523 30.1709C170.523 27.1824 172.942 24.751 175.914 24.751C180.373 24.751 184 21.1041 184 16.6211C184 12.1381 180.373 8.49121 175.914 8.49121C171.295 8.49121 166.862 9.96615 163.18 12.6884C158.671 8.26936 152.641 5.78125 146.266 5.78125H56.6016C43.5713 5.78125 30.8495 10.3437 20.7805 18.6286C19.6283 19.5764 19.4587 21.2837 20.4014 22.4421C21.3444 23.6001 23.042 23.7711 24.1942 22.8229C33.3029 15.3286 44.8123 11.2012 56.6016 11.2012H146.266C151.933 11.2012 157.251 13.7308 160.853 18.1416C161.328 18.7229 162.022 19.0799 162.77 19.1265C163.517 19.1717 164.25 18.9054 164.792 18.3869C167.815 15.5006 171.765 13.9111 175.914 13.9111C177.4 13.9111 178.609 15.1266 178.609 16.6211C178.609 18.1155 177.4 19.3311 175.914 19.3311C169.969 19.3311 165.133 24.1938 165.133 30.1709C165.133 36.148 169.969 41.0107 175.914 41.0107C177.4 41.0107 178.609 42.2262 178.609 43.7207C178.609 45.2152 177.4 46.4307 175.914 46.4307C171.765 46.4307 167.815 44.8412 164.792 41.9553C164.249 41.4371 163.516 41.169 162.77 41.2156C162.023 41.2622 161.328 41.6189 160.853 42.2006C157.251 46.611 151.933 49.1406 146.266 49.1406H56.6016C49.1704 49.1406 43.125 55.2189 43.125 62.6904C43.125 70.162 49.1704 76.2402 56.6016 76.2402H130.094C150.9 76.2402 167.828 93.2599 167.828 114.18C167.828 122.575 165.154 130.531 160.096 137.188C159.192 138.378 159.418 140.079 160.601 140.987C161.09 141.362 161.665 141.544 162.236 141.544C163.047 141.544 163.849 141.177 164.38 140.479C170.162 132.869 173.219 123.774 173.219 114.18C173.219 107.944 171.899 102.013 169.531 96.6495C175.24 104.649 178.609 114.445 178.609 125.02C178.609 151.916 156.845 173.799 130.094 173.799C127.255 173.799 124.537 172.918 122.235 171.252C121.294 170.571 120.026 170.571 119.086 171.252C116.783 172.918 114.066 173.799 111.227 173.799C108.387 173.799 105.67 172.918 103.367 171.252C102.427 170.571 101.159 170.571 100.219 171.252C97.916 172.918 95.1984 173.799 92.3594 173.799H83.5547C80.7156 173.799 77.998 172.918 75.6955 171.252C74.7554 170.571 73.4868 170.571 72.5467 171.252C70.2442 172.918 67.5266 173.799 64.6875 173.799C44.238 173.799 26.1733 163.337 15.5095 147.457C22.9957 153.748 32.628 157.539 43.125 157.539H130.094C139.637 157.539 148.682 154.466 156.251 148.652C157.434 147.743 157.66 146.042 156.756 144.853C155.852 143.664 154.16 143.436 152.978 144.345C146.357 149.431 138.444 152.119 130.094 152.119H43.125C22.3183 152.119 5.39062 135.1 5.39062 114.18C5.39062 112.685 6.59956 111.47 8.08594 111.47C9.57231 111.47 10.7812 112.685 10.7812 114.18C10.7812 126.134 20.4542 135.859 32.3438 135.859H130.094C136.039 135.859 140.875 130.997 140.875 125.02C140.875 119.042 136.039 114.18 130.094 114.18H56.6016C28.3637 114.18 5.39062 91.0818 5.39062 62.6904C5.39062 50.8371 9.49577 39.2652 16.9499 30.1069C17.8926 28.9485 17.7229 27.2412 16.5711 26.2935C15.4193 25.3457 13.7209 25.5163 12.7783 26.6747C4.53783 36.7984 0 49.5894 0 62.6904C0 94.0703 25.3913 119.6 56.6016 119.6H130.094C133.066 119.6 135.484 122.031 135.484 125.02C135.484 128.008 133.066 130.439 130.094 130.439H32.3438C23.4266 130.439 16.1719 123.145 16.1719 114.18C16.1719 109.697 12.5447 106.05 8.08594 106.05C3.62717 106.05 0 109.697 0 114.18C0 150.042 29.0188 179.219 64.6875 179.219C68.034 179.219 71.2605 178.345 74.1211 176.677C76.9817 178.345 80.2082 179.219 83.5547 179.219H92.3594C95.7059 179.219 98.9323 178.345 101.793 176.677C104.654 178.345 107.88 179.219 111.227 179.219C114.573 179.219 117.8 178.345 120.66 176.677C123.521 178.345 126.747 179.219 130.094 179.219C159.818 179.219 184 154.905 184 125.02C184 95.1341 159.818 70.8203 130.094 70.8203H56.6016C52.1428 70.8203 48.5156 67.1734 48.5156 62.6904C48.5156 58.2074 52.1428 54.5605 56.6016 54.5605Z" fill="black"/>
</g>
<defs>
<clipPath id="clip0_2_42210">
<rect width="184" height="185" fill="white"/>
</clipPath>
</defs>
</svg>
