<svg width="184" height="185" viewBox="0 0 184 185" fill="none" xmlns="http://www.w3.org/2000/svg">
<g clip-path="url(#clip0_2_42939)">
<path d="M116.617 67.9297L84.2734 122.129C108.091 122.129 127.398 102.716 127.398 78.7695V67.9297H116.617Z" fill="#7587B3"/>
<path d="M95.0547 78.7694C89.1002 78.7694 84.2734 83.6224 84.2734 89.6093V104.371C84.2734 107.503 83.0516 110.57 80.7131 112.639C79.5908 113.632 78.8828 115.087 78.8828 116.708C78.8828 119.702 81.2964 122.128 84.2734 122.128C102.137 122.128 116.617 102.716 116.617 78.769V67.9292L95.0547 78.7694Z" fill="#87A1C1"/>
<path d="M114.357 67.9297V94.7222C121.79 93.2559 127.398 86.6725 127.398 78.7695V67.9297H114.357Z" fill="#636DA4"/>
<path d="M116.617 75.1562L111.227 78.7695C106.761 78.7695 103.141 82.4096 103.141 86.8994C103.141 91.3893 106.761 95.0293 111.227 95.0293C112.298 95.0293 113.344 94.922 114.357 94.7222C115.815 89.7846 116.617 84.4026 116.617 78.7695V75.1562Z" fill="#7587B3"/>
<path d="M95.0547 2.89062L116.617 39.0234L127.398 35.4102C127.398 17.45 112.918 2.89062 95.0547 2.89062Z" fill="#7587B3"/>
<path d="M95.0547 2.89062C92.0776 2.89062 89.6641 5.3173 89.6641 8.31055C89.6641 9.93183 90.372 11.3869 91.4944 12.3802C93.8325 14.4495 95.0547 17.5157 95.0547 20.6477V46.25L116.617 39.0234V35.4102C116.617 17.45 106.963 2.89062 95.0547 2.89062Z" fill="#87A1C1"/>
<path d="M111.227 154.648V143.809C117.181 143.809 122.008 138.956 122.008 132.969H111.227L95.0547 143.809V154.648L111.227 165.488H122.008C122.008 159.501 117.181 154.648 111.227 154.648Z" fill="#A8CAE0"/>
<path d="M100.445 154.648V143.809C106.4 143.809 111.227 138.956 111.227 132.969H95.0547C89.1002 132.969 84.2734 137.822 84.2734 143.809C84.2734 137.822 79.4467 132.969 73.4922 132.969H72.7734C57.8878 132.969 45.8203 120.836 45.8203 105.869C45.8203 90.9026 57.8878 78.7695 72.7734 78.7695L84.2734 35.4102C84.2734 29.4233 79.4467 24.5703 73.4922 24.5703H72.7734C34.0702 24.5703 2.69531 56.1157 2.69531 95.0293C2.69531 133.943 34.0702 165.488 72.7734 165.488H73.4922C79.4467 165.488 84.2734 160.635 84.2734 154.648C84.2734 160.635 89.1002 165.488 95.0547 165.488H111.227C111.227 159.501 106.4 154.648 100.445 154.648Z" fill="#B9DFF0"/>
<path d="M116.617 143.809V154.648C132.789 154.648 132.789 149.229 148.961 149.229C132.789 149.229 132.789 143.809 116.617 143.809Z" fill="#87A1C1"/>
<path d="M116.617 154.648C119.594 154.648 122.008 152.222 122.008 149.229C122.008 146.235 119.594 143.809 116.617 143.809H72.7734C54.9103 143.809 40.4297 129.249 40.4297 111.289C40.4297 93.3289 54.9103 78.7695 72.7734 78.7695H138.18L127.398 57.0898C127.398 45.1165 117.745 35.4102 105.836 35.4102H72.7734C40.0247 35.4102 13.4766 62.1025 13.4766 95.0293C13.4766 127.956 40.0247 154.648 72.7734 154.648H116.617Z" fill="#98B6D1"/>
<path d="M177.55 59.7083C173.62 56.3093 170.569 52.0345 168.243 47.3762H148.961L148.673 78.7695H170.523C176.478 78.7695 181.305 73.9165 181.305 67.9296C181.305 64.6419 179.849 61.6964 177.55 59.7083Z" fill="#A8CAE0"/>
<path d="M168.243 47.3763C164.697 40.2819 157.396 35.4102 148.961 35.4102H105.836C111.79 35.4102 116.617 40.2632 116.617 46.25V57.0898C116.617 69.0632 126.271 78.7695 138.18 78.7695H148.673C160.741 78.7695 170.523 68.9338 170.523 56.8008C170.523 53.5369 169.701 50.2925 168.243 47.3763Z" fill="#B9DFF0"/>
<path d="M148.961 62.5098C151.938 62.5098 154.352 60.0832 154.352 57.0898C154.352 54.0965 151.938 51.6699 148.961 51.6699C145.984 51.6699 143.57 54.0965 143.57 57.0898C143.57 60.0832 145.984 62.5098 148.961 62.5098Z" fill="#515985"/>
<path d="M148.961 65.2197C144.503 65.2197 140.875 61.5728 140.875 57.0898C140.875 52.6068 144.503 48.96 148.961 48.96C153.419 48.96 157.047 52.6068 157.047 57.0898C157.047 61.5728 153.419 65.2197 148.961 65.2197ZM148.961 54.3799C147.475 54.3799 146.266 55.5954 146.266 57.0898C146.266 58.5843 147.475 59.7998 148.961 59.7998C150.447 59.7998 151.656 58.5843 151.656 57.0898C151.656 55.5954 150.447 54.3799 148.961 54.3799Z" fill="black"/>
<path d="M164.953 146.519H148.961C141.312 146.519 137.586 145.27 133.642 143.948C130.415 142.866 127.102 141.757 121.837 141.307C123.63 139.006 124.703 136.112 124.703 132.969C124.703 131.472 123.497 130.259 122.008 130.259H95.0547C90.6513 130.259 86.7341 132.393 84.2734 135.687C81.8128 132.393 77.8956 130.259 73.4922 130.259H72.7734C59.3975 130.259 48.5156 119.318 48.5156 105.869C48.5156 92.4205 59.3975 81.4795 72.7734 81.4795H84.2806C82.5847 83.7457 81.5781 86.5612 81.5781 89.6094V104.371C81.5781 106.845 80.6136 109.117 78.9324 110.605C77.188 112.149 76.1875 114.373 76.1875 116.709C76.1875 121.192 79.8147 124.839 84.2734 124.839C108.634 124.839 128.612 105.626 130.012 81.4795H170.523C177.955 81.4795 184 75.4012 184 67.9297C184 63.9782 182.29 60.233 179.308 57.6539C175.901 54.7076 172.989 50.8407 170.652 46.1604C166.506 37.8578 158.195 32.7002 148.961 32.7002H129.991C128.61 14.5359 113.468 0.180664 95.0547 0.180664C90.5959 0.180664 86.9688 3.82755 86.9688 8.31055C86.9688 10.6462 87.9693 12.8709 89.7137 14.4145C91.3948 15.9028 92.3594 18.1748 92.3594 20.6481V32.7002H86.6974C85.4454 26.5229 80.0005 21.8604 73.4922 21.8604H72.7734C32.646 21.8604 0 54.6838 0 95.0293C0 112.488 6.21898 129.394 17.5113 142.634C18.0442 143.259 18.7989 143.58 19.5586 143.58C20.1796 143.58 20.8035 143.365 21.312 142.927C22.4419 141.953 22.5723 140.242 21.6035 139.106C11.1482 126.848 5.39062 111.194 5.39062 95.0293C5.39062 57.6723 35.6184 27.2803 72.7734 27.2803H73.4922C77.0062 27.2803 80.0019 29.5462 81.1145 32.7002H72.7734C58.2975 32.7002 44.2096 37.8264 33.1045 47.1338C31.961 48.092 31.8068 49.8008 32.7603 50.9505C33.7133 52.1003 35.4128 52.2553 36.5563 51.2967C46.6943 42.7997 59.5563 38.1201 72.7734 38.1201H105.836C110.294 38.1201 113.922 41.767 113.922 46.25V57.0898C113.922 64.7453 117.451 71.5849 122.956 76.0596H72.7734C53.4527 76.0596 37.7344 91.8633 37.7344 111.289C37.7344 130.715 53.4527 146.519 72.7734 146.519H116.617C124.266 146.519 127.992 147.767 131.937 149.089C132.075 149.136 132.213 149.182 132.352 149.229C132.213 149.275 132.075 149.321 131.937 149.368C127.992 150.69 124.266 151.938 116.617 151.938H72.7734C41.5632 151.938 16.1719 126.409 16.1719 95.0293C16.1719 81.7404 20.8261 68.8084 29.2772 58.6154C30.2303 57.4656 30.0761 55.7569 28.9329 54.7987C27.7898 53.8404 26.0903 53.9954 25.1368 55.1448C15.8797 66.3102 10.7812 80.4746 10.7812 95.0293C10.7812 129.398 38.5908 157.358 72.7734 157.358H81.1145C80.0019 160.512 77.0062 162.778 73.4922 162.778H72.7734C56.6957 162.778 41.1269 156.989 28.9354 146.477C27.8052 145.503 26.1039 145.634 25.1347 146.77C24.1655 147.906 24.2963 149.617 25.4261 150.592C38.5944 161.945 55.4092 168.198 72.7734 168.198H73.4922C77.8956 168.198 81.8128 166.064 84.2734 162.77C86.7341 166.064 90.6513 168.198 95.0547 168.198H122.008C123.497 168.198 124.703 166.985 124.703 165.488C124.703 162.345 123.63 159.451 121.837 157.15C127.101 156.7 130.415 155.591 133.642 154.509C137.586 153.187 141.312 151.938 148.961 151.938H164.953C172.483 151.938 178.609 158.098 178.609 165.669C178.609 173.24 172.483 179.399 164.953 179.399C163.464 179.399 162.258 180.613 162.258 182.109C162.258 183.606 163.464 184.819 164.953 184.819C175.456 184.819 184 176.228 184 165.669C184 155.109 175.456 146.519 164.953 146.519ZM95.0547 135.679H118.851C117.738 138.833 114.741 141.099 111.227 141.099H87.4323C88.545 137.945 91.5407 135.679 95.0547 135.679ZM97.75 32.7002V20.6481C97.75 16.6182 96.1192 12.8633 93.2751 10.3463C92.6932 9.83102 92.3594 9.08921 92.3594 8.31055C92.3594 6.81609 93.5683 5.60059 95.0547 5.60059C110.494 5.60059 123.208 17.5291 124.575 32.7002H97.75ZM119.312 57.0898V46.25C119.312 43.2018 118.306 40.3864 116.61 38.1201H148.961C156.143 38.1201 162.609 42.1327 165.834 48.5921C168.492 53.9156 171.843 58.3469 175.793 61.7629C177.583 63.3112 178.609 65.5587 178.609 67.9297C178.609 72.4127 174.982 76.0596 170.523 76.0596H138.18C127.776 76.0596 119.312 67.5499 119.312 57.0898ZM124.432 81.4795C123.18 87.6568 117.735 92.3193 111.227 92.3193C108.254 92.3193 105.836 89.888 105.836 86.8994C105.836 83.9109 108.254 81.4795 111.227 81.4795H124.432ZM101.896 81.4795C100.975 83.0751 100.445 84.9258 100.445 86.8994C100.445 92.8765 105.282 97.7393 111.227 97.7393C115.003 97.7393 118.521 96.6137 121.474 94.685C115.303 109.212 100.952 119.419 84.2734 119.419C82.7871 119.419 81.5781 118.203 81.5781 116.709C81.5781 115.93 81.912 115.189 82.4942 114.673C85.3379 112.157 86.9688 108.402 86.9688 104.371V89.6094C86.9688 85.1264 90.5959 81.4795 95.0547 81.4795H101.896ZM43.125 111.289C43.125 110.375 43.1724 109.472 43.2529 108.579C44.62 123.75 57.334 135.679 72.7734 135.679H73.4922C77.0062 135.679 80.0019 137.945 81.1145 141.099H72.7734C56.4251 141.099 43.125 127.726 43.125 111.289ZM95.0547 162.778C91.5407 162.778 88.545 160.512 87.4323 157.358H111.227C114.741 157.358 117.738 159.624 118.851 162.778H95.0547Z" fill="black"/>
</g>
<defs>
<clipPath id="clip0_2_42939">
<rect width="184" height="185" fill="white"/>
</clipPath>
</defs>
</svg>
