<svg width="185" height="184" viewBox="0 0 185 184" fill="none" xmlns="http://www.w3.org/2000/svg">
<g clip-path="url(#clip0_2_43213)">
<path d="M159.9 134.327C140.685 127.804 120.841 123.251 100.849 121.86C116.805 121.86 131.814 115.679 143.099 104.456C154.383 93.2288 160.598 78.3079 160.598 62.4343C160.598 36.937 147.821 11.8562 113.607 4.65076C104.349 6.48968 101.242 23.2128 106.666 34.9529C118.883 40.7891 128.772 49.9496 128.772 64.3171C124.7 82.8249 111.378 91.2019 95.1403 95.1583L92.3978 103.693C79.8474 108.423 83.7512 118.14 87.104 121.867C81.5142 124.828 85.0787 140.314 96.8598 139.875L107.284 164.37C99.1702 169.017 101.195 179.004 111.273 179.892C127.656 178.077 143.886 174.501 159.774 169.204C167.315 166.688 172.399 159.688 172.42 151.778C172.438 143.89 167.409 136.878 159.9 134.327Z" fill="#8697A6"/>
<path d="M111.273 179.892C102.843 180.826 94.3739 181.297 85.8935 181.297H76.1991C56.7994 181.617 39.7379 172.043 28.8438 157.798C10.734 134.115 27.2359 99.9638 57.1318 98.9971C69.7024 98.591 83.2089 98.0699 95.1396 95.1589L92.3971 103.694C86.0991 112.484 89.044 118.141 92.3971 121.868C86.8073 124.829 89.2608 135.66 96.8595 139.876L107.284 164.371C102.815 171.015 104.73 177.197 111.273 179.892Z" fill="#6B7D8E"/>
<path d="M106.666 34.9532C86.9415 25.534 61.1575 24.7865 61.1575 24.7865C61.1575 24.7865 66.5485 19.3024 72.3008 13.1823C78.9962 6.06305 88.51 2.25727 98.298 2.73524C103.819 3.00477 108.914 3.65883 113.607 4.6507C108.365 9.14685 105.452 20.3877 106.666 34.9532Z" fill="#6B7D8E"/>
<path d="M155.59 156.791C146.058 159.968 136.327 162.509 126.471 164.371C65.5121 168.634 46.8701 142.539 46.8701 120.693C46.8701 98.6665 59.5722 81.4722 84.7268 75.5302H100.849C104.488 75.5302 107.776 74.064 110.161 71.6957C112.542 69.3238 114.016 66.0535 114.016 62.4346C114.016 55.2004 108.123 49.3354 100.849 49.3354H92.3978C76.6605 45.7532 73.4718 20.4866 87.2995 16.0972H100.849C113.716 16.0972 125.362 21.2829 133.791 29.6708C142.221 38.055 147.435 49.6376 147.435 62.4346C147.435 88.0254 126.579 108.768 100.849 108.768H76.1998C72.5613 108.768 69.2696 110.235 66.8884 112.607C64.5037 114.975 63.0294 118.249 63.0294 121.868C63.0294 129.102 68.9263 134.967 76.1998 134.967H84.6838C108.857 134.945 132.83 138.974 155.648 146.718C160.493 148.364 160.442 155.174 155.59 156.791Z" fill="#EAAA83"/>
<path d="M61.9163 49.3354C63.105 44.1999 65.0092 38.7195 65.0092 32.0746C65.0092 25.9365 63.6651 19.996 62.9605 16.0968H87.2996C78.3711 24.9949 81.5111 42.0616 92.3979 49.335H61.9163V49.3354Z" fill="#DF8A57"/>
<path d="M126.471 164.371C113.037 166.922 99.364 168.223 85.6267 168.205H76.1996C63.3327 168.205 51.6871 163.019 43.2577 154.632C34.8243 146.247 29.6104 134.665 29.6104 121.868C29.6104 96.277 50.4698 75.5303 76.1996 75.5303H84.727C62.8269 85.8192 50.9576 98.6668 50.9576 120.693C50.9573 142.539 68.1745 161.334 126.471 164.371Z" fill="#DF8A57"/>
<path d="M69.6631 32.0746C69.6631 38.7195 66.6533 45.296 61.9163 49.3354H46.7369C41.176 49.3354 35.6911 48.4441 30.4771 46.7263C25.2667 45.0121 20.3274 42.4713 15.8686 39.1723C11.4712 35.9235 11.4857 29.3721 15.8975 26.1413L15.9264 26.1198C24.8151 19.6079 35.5646 16.0968 46.6064 16.0968H62.9601C67.0905 20.0575 69.6631 25.9365 69.6631 32.0746Z" fill="#C76D33"/>
<path d="M72.5913 46.626C70.6076 50.4181 65.9085 51.8927 62.0961 49.9197C58.2834 47.9467 51.0922 40.319 53.0759 36.5269C55.0596 32.7347 65.4673 34.2143 69.2801 36.1873C73.0928 38.1602 74.575 42.8343 72.5913 46.626Z" fill="#6B7D8E"/>
<path d="M160.77 131.783C146.953 127.093 133.437 123.646 120.387 121.478C129.567 118.482 137.979 113.362 145.01 106.37C156.806 94.6371 163.303 79.038 163.303 62.4461C163.303 48.4869 159.597 35.8074 152.586 25.778C151.732 24.5557 150.043 24.2538 148.815 25.1034C147.586 25.9533 147.282 27.633 148.136 28.8549C154.512 37.9766 157.883 49.5923 157.883 62.4461C157.883 77.598 151.95 91.8436 141.178 102.558C130.406 113.272 116.083 119.172 100.849 119.172H77.9718C76.4752 119.172 75.2619 120.379 75.2619 121.868C75.2619 123.356 76.4752 124.563 77.9718 124.563H100.742C119.108 125.847 138.715 129.992 159.02 136.885C165.427 139.059 169.72 145.044 169.701 151.776C169.683 158.526 165.346 164.503 158.908 166.65C135.127 174.58 110.563 178.601 85.8965 178.601H76.2028C58.6296 178.902 42.144 170.73 31.0089 156.169C23.2787 146.06 21.9855 133.158 26.9125 122.103C27.0368 149.032 49.0992 170.902 76.2028 170.902H85.6266C109.548 170.931 133.372 167.045 156.447 159.35C159.787 158.236 161.951 155.256 161.96 151.756C161.97 148.274 159.834 145.297 156.52 144.172C133.205 136.258 109.039 132.256 84.6868 132.277H76.2031C70.4363 132.277 65.7448 127.611 65.7448 121.875C65.7448 116.14 70.4363 111.473 76.2031 111.473H100.849C128.029 111.473 150.142 89.48 150.142 62.4468C150.142 35.4135 128.028 13.419 100.848 13.419H75.9148C82.3233 7.81243 90.1688 4.94965 98.1639 5.44811C115.823 6.31528 129.943 11.2107 140.133 19.9985C140.646 20.4405 141.278 20.6572 141.907 20.6572C142.665 20.6572 143.42 20.3424 143.956 19.7279C144.936 18.6034 144.814 16.901 143.684 15.9257C132.555 6.32857 117.33 0.991856 98.4671 0.0661064C87.2645 -0.632519 76.3361 4.22156 68.2944 13.419H46.6129C34.9134 13.419 23.7498 17.066 14.2997 23.9868C11.4983 26.0385 9.88713 29.1999 9.87918 32.66C9.87123 36.12 11.4683 39.2887 14.2603 41.3525C23.5862 48.2472 35.1216 52.0439 46.7415 52.0439H60.3419C63.6372 54.0047 67.7882 53.963 71.0361 52.0439H100.848C106.615 52.0439 111.307 56.7101 111.307 62.4457C111.307 68.181 106.615 72.8475 100.848 72.8475H76.2028C65.4171 72.8475 55.1724 76.2507 46.5768 82.6889C45.3811 83.5845 45.1419 85.2743 46.0423 86.4634C46.5749 87.1671 47.3872 87.5376 48.2092 87.5376C48.7765 87.5376 49.3492 87.3608 49.8374 86.9953C57.4856 81.2665 66.603 78.2384 76.2028 78.2384H100.848C109.604 78.2384 116.726 71.1541 116.726 62.4461C116.726 53.738 109.604 46.6537 100.848 46.6537H75.5423C77.1881 42.1888 75.5621 37.1342 71.6041 34.4518C72.1588 28.9947 70.746 23.3903 67.7614 18.8097H100.848C125.04 18.8097 144.722 38.3848 144.722 62.4461C144.722 86.5069 125.04 106.082 100.848 106.082H76.2028C67.4474 106.082 60.3246 113.166 60.3246 121.874C60.3246 130.582 67.4474 137.667 76.2028 137.667H84.6886C108.443 137.647 132.021 141.552 154.768 149.273C156.417 149.833 156.541 151.303 156.54 151.741C156.539 152.185 156.405 153.678 154.724 154.239C132.206 161.747 108.967 165.54 85.6298 165.511H76.2028C52.0108 165.511 32.3292 145.936 32.3292 121.874C32.3292 118.434 32.7314 115.06 33.505 111.794C33.5209 111.734 33.5342 111.675 33.5458 111.615C34.9619 105.748 37.5974 100.235 41.3762 95.3368C42.2871 94.1559 42.0634 92.4636 40.8761 91.5576C39.6884 90.6512 37.9876 90.8741 37.0763 92.055C32.9352 97.423 30.0102 103.446 28.3918 109.855C22.7248 116.393 19.2831 124.658 18.6941 133.222C18.0434 142.673 20.8101 151.736 26.695 159.432C32.4495 166.956 39.8495 173.172 48.0947 177.405C56.9129 181.936 66.4057 184.154 76.2244 183.992H85.8965C111.149 183.992 136.294 179.877 160.631 171.761C169.274 168.879 175.097 160.853 175.121 151.79C175.146 142.745 169.378 134.705 160.77 131.783ZM63.3514 47.5435C61.1466 46.8082 54.7204 39.6703 55.4853 37.7875C57.1955 35.9688 66.1235 37.3275 68.0328 38.5951C70.5133 39.8787 71.4813 42.9302 70.191 45.3977C68.9 47.8641 65.8319 48.8272 63.3514 47.5435ZM66.2955 32.3595C60.9114 31.064 53.0669 30.7312 50.6775 35.2992C48.9413 38.0855 50.8791 43.0466 54.1578 46.6537H46.7419C36.2785 46.6537 25.8911 43.2346 17.4938 37.0264C16.0951 35.9925 15.2955 34.4055 15.2991 32.6722C15.3031 30.9389 16.1103 29.3555 17.5422 28.3065C26.0255 22.0936 36.078 18.8097 46.6129 18.8097H60.8293C64.3299 22.2931 66.3475 27.3822 66.2955 32.3595Z" fill="black"/>
<path d="M37.178 24.5162C35.6814 24.5162 34.468 25.723 34.468 27.2115V31.1384C34.468 32.627 35.6814 33.8338 37.178 33.8338C38.6746 33.8338 39.8879 32.627 39.8879 31.1384V27.2115C39.8879 25.723 38.6746 24.5162 37.178 24.5162Z" fill="black"/>
</g>
<defs>
<clipPath id="clip0_2_43213">
<rect width="185" height="184" fill="white"/>
</clipPath>
</defs>
</svg>
