<svg width="184" height="185" viewBox="0 0 184 185" fill="none" xmlns="http://www.w3.org/2000/svg">
<path d="M61.9922 81.6602C61.9922 93.6335 71.6461 103.34 83.5547 103.34L40.4297 108.76V49.1406L83.5547 59.9805C71.6461 59.9805 61.9922 69.6868 61.9922 81.6602Z" fill="#E5FAFF"/>
<path d="M89.0775 152.119C89.08 152.124 88.9453 141.282 88.9453 141.282L78.2963 152.119C78.2963 164.102 87.943 173.799 99.8613 173.799L89.0775 152.119Z" fill="#87A1C1"/>
<path d="M102.875 163.885C101.162 162.72 99.8861 161 99.1408 159.06C97.5822 155.003 93.6654 152.125 89.0808 152.125C89.0776 164.102 93.9018 173.799 99.8613 173.799C102.838 173.799 105.252 171.372 105.252 168.379C105.252 166.508 104.309 164.858 102.875 163.885Z" fill="#7587B3"/>
<path d="M178.269 29.2466C172.127 24.33 165.453 20.4197 158.465 17.5125L158.699 53.5658C165.602 50.6701 172.196 46.7966 178.269 41.9353C182.317 38.6953 182.317 32.4862 178.269 29.2466Z" fill="#87A1C1"/>
<path d="M122.789 103.34H95.8356V152.119H122.789C143.961 152.119 165.133 143.989 181.305 127.729C165.133 111.47 143.961 103.34 122.789 103.34Z" fill="#87A1C1"/>
<path d="M95.8356 103.34H85.0543V152.119H95.8356C117.008 152.119 138.18 143.989 154.352 127.729C138.18 111.47 117.008 103.34 95.8356 103.34Z" fill="#98B6D1"/>
<path d="M85.0544 103.34H72.7734C60.8648 103.34 51.2109 93.6335 51.2109 81.6602C51.2109 69.6868 60.8648 59.9805 72.7734 59.9805H94.3381L102.425 70.8203L110.512 59.9805H126.818C131.482 59.9805 136.147 59.5844 140.758 58.7942L138.152 31.2834C137.195 20.1614 127.904 11.2427 116.617 11.2012H72.7734C34.0705 11.2012 2.69531 42.7466 2.69531 81.6602C2.69531 120.574 34.0702 152.119 72.7734 152.119H85.0544C106.227 152.119 127.398 143.989 143.57 127.729C127.398 111.47 106.227 103.34 85.0544 103.34Z" fill="#A8CAE0"/>
<path d="M138.152 31.2834H132.789C132.789 28.2902 130.375 25.8635 127.398 25.8635C124.421 25.8635 122.008 28.2902 122.008 31.2834V42.7412C122.008 53.2739 130.443 60.5192 140.757 58.7939C145.355 58.0058 149.899 56.8261 154.336 55.2547L138.152 31.2834Z" fill="#87A1C1"/>
<path d="M126.817 11.2012H116.617C125.526 11.2341 132.789 18.6651 132.789 27.6221V39.9188C132.789 51.1391 143.811 58.9471 154.336 55.255C155.803 54.7358 157.258 54.1736 158.699 53.5683C165.889 50.5494 170.524 43.4248 170.524 35.5912C170.524 27.6644 165.75 20.5462 158.465 17.5147C148.355 13.3066 137.586 11.2012 126.817 11.2012Z" fill="#98B6D1"/>
<path d="M110.512 54.5605C107.535 54.5605 105.121 56.9872 105.121 59.9805L83.5547 92.5C101.432 92.5 115.902 77.9551 115.902 59.9805C115.902 56.9872 113.489 54.5605 110.512 54.5605Z" fill="#7587B3"/>
<path d="M105.121 59.9805H94.3381C88.3861 59.9805 83.5601 64.8302 83.5568 70.8145L83.5547 74.7429C83.5547 77.8749 82.3328 80.9411 79.9944 83.0104C78.872 84.0037 78.1641 85.4588 78.1641 87.0801C78.1641 90.0733 80.5776 92.5 83.5547 92.5C95.4737 92.5 105.121 77.9551 105.121 59.9805Z" fill="#87A1C1"/>
<path d="M95.8356 141.279C98.8127 141.279 101.226 138.853 101.226 135.859C101.226 132.866 98.8127 130.439 95.8356 130.439C92.8584 130.439 90.4449 132.866 90.4449 135.859C90.4449 138.853 92.8584 141.279 95.8356 141.279Z" fill="#98B6D1"/>
<path d="M72.7734 125.02C75.7506 125.02 78.1641 122.593 78.1641 119.6C78.1641 116.606 75.7506 114.18 72.7734 114.18C69.7963 114.18 67.3828 116.606 67.3828 119.6C67.3828 122.593 69.7963 125.02 72.7734 125.02Z" fill="#98B6D1"/>
<path d="M18.8672 87.0801C21.8443 87.0801 24.2578 84.6535 24.2578 81.6602C24.2578 78.6668 21.8443 76.2402 18.8672 76.2402C15.89 76.2402 13.4766 78.6668 13.4766 81.6602C13.4766 84.6535 15.89 87.0801 18.8672 87.0801Z" fill="#98B6D1"/>
<path d="M148.961 33.9934C150.45 33.9934 151.656 32.7801 151.656 31.2834C151.656 29.7868 150.45 28.5735 148.961 28.5735C147.472 28.5735 146.266 29.7868 146.266 31.2834C146.266 32.7801 147.472 33.9934 148.961 33.9934Z" fill="black"/>
<path d="M72.7734 143.989C74.262 143.989 75.4688 142.776 75.4688 141.279C75.4688 139.783 74.262 138.569 72.7734 138.569C71.2849 138.569 70.0781 139.783 70.0781 141.279C70.0781 142.776 71.2849 143.989 72.7734 143.989Z" fill="black"/>
<path d="M61.9922 138.569C63.4808 138.569 64.6875 137.356 64.6875 135.859C64.6875 134.363 63.4808 133.149 61.9922 133.149C60.5036 133.149 59.2969 134.363 59.2969 135.859C59.2969 137.356 60.5036 138.569 61.9922 138.569Z" fill="black"/>
<path d="M26.8115 103.34C28.3001 103.34 29.5068 102.127 29.5068 100.63C29.5068 99.1332 28.3001 97.9199 26.8115 97.9199C25.3229 97.9199 24.1162 99.1332 24.1162 100.63C24.1162 102.127 25.3229 103.34 26.8115 103.34Z" fill="black"/>
<path d="M126.992 130.439C128.48 130.439 129.687 129.226 129.687 127.729C129.687 126.233 128.48 125.02 126.992 125.02C125.503 125.02 124.296 126.233 124.296 127.729C124.296 129.226 125.503 130.439 126.992 130.439Z" fill="black"/>
<path d="M95.8356 122.31C97.3242 122.31 98.5309 121.096 98.5309 119.6C98.5309 118.103 97.3242 116.89 95.8356 116.89C94.347 116.89 93.1403 118.103 93.1403 119.6C93.1403 121.096 94.347 122.31 95.8356 122.31Z" fill="black"/>
<path d="M21.4209 114.18C22.9095 114.18 24.1162 112.966 24.1162 111.47C24.1162 109.973 22.9095 108.76 21.4209 108.76C19.9323 108.76 18.7256 109.973 18.7256 111.47C18.7256 112.966 19.9323 114.18 21.4209 114.18Z" fill="black"/>
<path d="M95.8356 138.569C94.347 138.569 93.1403 139.783 93.1403 141.279C93.1403 142.776 94.347 143.989 95.8356 143.989C100.294 143.989 103.922 140.342 103.922 135.859C103.922 131.376 100.294 127.729 95.8356 127.729C94.347 127.729 93.1403 128.943 93.1403 130.439C93.1403 131.936 94.347 133.149 95.8356 133.149C97.3219 133.149 98.5309 134.365 98.5309 135.859C98.5309 137.354 97.3219 138.569 95.8356 138.569Z" fill="black"/>
<path d="M72.7734 122.31C71.2849 122.31 70.0781 123.523 70.0781 125.02C70.0781 126.516 71.2849 127.729 72.7734 127.729C77.2322 127.729 80.8594 124.083 80.8594 119.6C80.8594 115.117 77.2322 111.47 72.7734 111.47C71.2849 111.47 70.0781 112.683 70.0781 114.18C70.0781 115.676 71.2849 116.89 72.7734 116.89C74.2598 116.89 75.4688 118.105 75.4688 119.6C75.4688 121.094 74.2598 122.31 72.7734 122.31Z" fill="black"/>
<path d="M18.8672 84.3701C17.3808 84.3701 16.1719 83.1546 16.1719 81.6602C16.1719 80.1635 14.9651 78.9502 13.4766 78.9502C11.988 78.9502 10.7812 80.1635 10.7812 81.6602C10.7812 86.1432 14.4084 89.79 18.8672 89.79C23.326 89.79 26.9531 86.1432 26.9531 81.6602C26.9531 80.1635 25.7463 78.9502 24.2578 78.9502C22.7693 78.9502 21.5625 80.1635 21.5625 81.6602C21.5625 83.1546 20.3536 84.3701 18.8672 84.3701Z" fill="black"/>
<path d="M122.789 100.63H83.5547C73.1511 100.63 64.6875 92.1202 64.6875 81.6602C64.6875 71.2001 73.1511 62.6904 83.5547 62.6904C81.8692 64.9549 80.863 67.7682 80.8615 70.8131L80.8594 74.7425C80.8594 77.2158 79.8948 79.4879 78.2137 80.9758C76.4693 82.5198 75.4688 84.7445 75.4688 87.0801C75.4688 91.5631 79.0959 95.21 83.5547 95.21C101.971 95.21 117.114 80.8548 118.495 62.6904H126.817C146.066 62.6904 164.935 56.0723 179.948 44.0553C182.523 41.9939 184 38.9089 184 35.5908C184 32.2727 182.523 29.1877 179.948 27.1263C164.935 15.1093 146.066 8.49121 126.817 8.49121H72.7734C55.4092 8.49121 38.5944 14.744 25.4261 26.0976C24.2959 27.0718 24.1658 28.7827 25.1347 29.9191C26.1036 31.0554 27.8056 31.1862 28.9354 30.2121C41.1269 19.7 56.6957 13.9111 72.7734 13.9111H116.607C122.642 13.9332 127.763 17.9403 129.48 23.4278C128.815 23.2497 128.118 23.1535 127.398 23.1535C122.94 23.1535 119.312 26.8004 119.312 31.2834V42.7411C119.312 48.5654 121.544 53.7082 125.594 57.2701H118.134C117.021 54.1161 114.026 51.8502 110.512 51.8502C106.998 51.8502 104 54.1157 102.888 57.2701H72.7734C59.3975 57.2701 48.5156 68.2112 48.5156 81.6598C48.5156 95.1084 59.3975 106.049 72.7734 106.049H95.8356C116.293 106.049 135.588 113.727 150.475 127.729C135.588 141.731 116.293 149.409 95.8356 149.409H72.7734C35.6184 149.409 5.39062 119.017 5.39062 81.6602C5.39062 65.4947 11.1482 49.8416 21.6035 37.5839C22.5723 36.4475 22.4419 34.737 21.312 33.7625C20.1818 32.7884 18.4805 32.9195 17.5113 34.0555C6.21898 47.295 0 64.2015 0 81.6602C0 122.006 32.646 154.829 72.7734 154.829H75.7541C77.1 167.007 87.3953 176.509 99.8613 176.509C104.32 176.509 107.947 172.862 107.947 168.379C107.947 165.674 106.615 163.155 104.384 161.639C103.195 160.831 102.225 159.569 101.655 158.084C101.201 156.901 100.581 155.813 99.839 154.829H122.789C132.163 154.829 141.413 153.294 150.284 150.267C151.693 149.786 152.448 148.248 151.97 146.83C151.491 145.413 149.961 144.654 148.552 145.135C141.245 147.628 133.663 149.04 125.968 149.345C137.202 145.092 147.509 138.441 156.257 129.646C156.763 129.138 157.047 128.448 157.047 127.729C157.047 127.011 156.763 126.321 156.257 125.813C147.511 117.02 137.207 110.371 125.977 106.117C145.245 106.872 163.317 114.457 177.428 127.729C171.671 133.143 165.21 137.643 158.187 141.127C156.852 141.789 156.304 143.414 156.963 144.756C157.432 145.712 158.388 146.267 159.382 146.267C159.782 146.267 160.189 146.177 160.572 145.987C168.936 141.838 176.553 136.339 183.21 129.646C183.716 129.138 184 128.448 184 127.729C184 127.011 183.716 126.321 183.21 125.813C167.058 109.573 145.6 100.63 122.789 100.63ZM176.59 31.3665C177.873 32.3938 178.609 33.9334 178.609 35.5908C178.609 37.2482 177.873 38.7879 176.59 39.8151C169.401 45.5696 161.266 49.9988 152.623 52.9573C148.676 54.0753 144.547 53.3689 141.166 50.9635C137.555 48.3945 135.484 44.3689 135.484 39.9188V27.4609C135.484 22.1931 133.321 17.416 129.84 13.9722C146.818 14.6237 163.315 20.7399 176.59 31.3665ZM124.703 42.7415V31.2838C124.703 29.7893 125.912 28.5738 127.398 28.5738C128.885 28.5738 130.094 29.7893 130.094 31.2838V39.9188C130.094 46.1514 132.995 51.7899 138.052 55.388C138.484 55.6951 138.925 55.9813 139.374 56.2487C135.567 56.6573 132.027 55.6467 129.315 53.3472C126.341 50.8262 124.703 47.0597 124.703 42.7415ZM86.2522 70.816C86.2543 66.3355 89.8819 62.6904 94.3381 62.6904H105.121C106.61 62.6904 107.816 61.4771 107.816 59.9805C107.816 58.486 109.025 57.2705 110.512 57.2705C111.998 57.2705 113.207 58.486 113.207 59.9805C113.207 76.4176 99.9052 89.79 83.5547 89.79C82.0683 89.79 80.8594 88.5745 80.8594 87.0801C80.8594 86.3014 81.1932 85.5596 81.7754 85.0444C84.6192 82.5277 86.25 78.7728 86.25 74.744L86.2522 70.816ZM53.9062 81.6602C53.9062 73.0725 59.6128 65.804 67.4123 63.4752C62.4367 67.9449 59.2969 74.4394 59.2969 81.6602C59.2969 88.8809 62.4367 95.3755 67.4123 99.8451C59.6128 97.5163 53.9062 90.2478 53.9062 81.6602ZM101.366 166.13C102.112 166.636 102.557 167.477 102.557 168.379C102.557 169.873 101.348 171.089 99.8613 171.089C90.3717 171.089 82.4992 164.009 81.1871 154.829H89.0801C92.3982 154.835 95.4309 156.925 96.6262 160.037C97.6037 162.581 99.2428 164.688 101.366 166.13Z" fill="black"/>
</svg>
