<svg width="184" height="185" viewBox="0 0 184 185" fill="none" xmlns="http://www.w3.org/2000/svg">
<path d="M75.9048 148.99C69.7605 151.771 62.5375 149.017 59.7717 142.839C57.006 136.662 55.6817 120.323 61.8259 117.543C67.9701 114.762 79.2567 126.591 82.0224 132.769C84.7878 138.947 82.049 146.209 75.9048 148.99Z" fill="#495560"/>
<path d="M90.7441 38.4436C96.7464 43.6605 97.4062 52.7818 92.2176 58.8167C87.0289 64.8516 70.3341 74.3813 64.3319 69.1644C58.3296 63.9476 65.2925 45.9599 70.4811 39.925C75.6694 33.8898 84.7415 33.2267 90.7441 38.4436Z" fill="#495560"/>
<path d="M135.29 71.7202C133.889 72.8909 131.524 74.188 128.904 75.1997C122.58 72.2705 121.575 59.1167 126.234 55.6627C129.806 54.4053 133.932 55.4206 136.494 58.5172C139.79 62.4954 139.251 68.4068 135.29 71.7202Z" fill="#546370"/>
<path d="M128.904 75.1997C124.114 77.0497 118.472 77.9494 116.34 75.3732C113.049 71.3913 119.402 60.6165 123.363 57.3031C124.243 56.5697 125.217 56.024 126.234 55.6627C123.593 61.7294 125.965 69.2812 128.904 75.1997Z" fill="#495560"/>
<path d="M141.137 134.862C139.614 135.552 138.043 136.181 136.43 136.734C116.46 136.326 108.091 116.219 120.186 101.949L127.88 104.214C131.118 110.722 136.293 115.452 141.975 118.772C148.303 122.469 147.807 131.834 141.137 134.862Z" fill="#546370"/>
<path d="M136.43 136.734C131.061 138.584 125.217 139.646 119.047 139.737C108.251 139.899 100.039 129.746 102.781 119.246C105.552 108.648 116.323 100.811 116.323 100.811L120.186 101.949C114.317 115.918 120.423 132.987 136.43 136.734Z" fill="#495560"/>
<path d="M181.305 93.1993C181.305 104.031 175.333 112.812 167.967 112.812C160.6 112.812 141.623 104.031 141.623 93.1993C141.623 82.3674 160.6 73.5864 167.967 73.5864C175.333 73.5864 181.305 82.3674 181.305 93.1993Z" fill="#546370"/>
<path d="M156.335 93.2011C156.335 104.269 128.344 113.945 101.441 119.202C71.354 110.462 75.3187 71.3111 88.4351 64.9813C118.418 69.3209 156.335 80.3197 156.335 93.2011Z" fill="#8697A6"/>
<path d="M101.441 119.202C87.8063 121.869 74.4519 123.397 65.162 123.397C57.7122 123.397 50.2875 121.97 43.4163 119.676C46.5536 113.84 53.8345 105.779 58.3231 99.4809C63.0202 92.8903 63.2394 84.0847 58.9449 77.2195C56.3717 73.1112 54.6827 68.6705 54.158 63.9949C57.7769 63.3553 61.4677 63.0012 65.162 63.0012C71.4475 63.0012 79.5981 63.7022 88.4352 64.9813C80.5649 74.5095 79.652 104.814 101.441 119.202Z" fill="#6B7D8E"/>
<path d="M77.1364 109.696C70.6493 106.298 70.9138 96.6438 77.1759 93.1541C83.8962 91.6799 89.8582 91.3185 90.922 93.2516C94.372 99.5026 82.5917 109.62 77.1364 109.696Z" fill="#546370"/>
<path d="M77.1365 109.696C77.1149 109.699 77.0933 109.699 77.0718 109.699C71.6452 109.699 55.804 108.586 55.804 103.13C55.804 99.8856 67.3075 95.3148 77.176 93.1541C73.6721 97.6273 73.7044 105.526 77.1365 109.696Z" fill="#495560"/>
<path d="M63.631 99.4809C59.1424 105.779 52.9432 113.32 43.4162 119.676C24.8113 113.475 10.2603 100.933 10.2603 93.201C10.2603 84.1967 30.7338 68.1321 54.1579 63.9949C58.2188 68.3055 61.6796 73.1112 64.2528 77.2195C68.5473 84.0847 68.3281 92.8903 63.631 99.4809Z" fill="#C5CFF1"/>
<path d="M44.6682 87.1387V82.8027C44.6682 81.3061 43.4614 80.0928 41.9729 80.0928C40.4844 80.0928 39.2776 81.3061 39.2776 82.8027V87.1387C39.2776 88.6353 40.4844 89.8486 41.9729 89.8486C43.4614 89.8486 44.6682 88.6353 44.6682 87.1387Z" fill="black"/>
<path d="M177.448 75.1487C174.673 72.313 171.374 70.8308 167.966 70.8735C163.095 70.8735 154.23 74.0127 147.515 79.1699C144.482 77.4323 140.853 75.7427 136.631 74.103C139.313 72.051 140.992 68.9855 141.297 65.6133C141.591 62.3985 140.621 59.2615 138.568 56.7795C134.329 51.6566 126.735 50.9553 121.64 55.2171C118.896 57.5123 115.477 62.4502 113.79 67.1287C106.706 65.4073 99.2606 63.9284 92.0651 62.7916C92.9079 62.0361 93.6475 61.2943 94.257 60.5854C100.409 53.4293 99.6242 42.5753 92.5187 36.4002C88.9052 33.2231 84.0665 31.7489 79.2441 32.3577C74.3907 32.9694 70.0337 35.6194 67.2898 39.628C66.446 40.8608 66.7558 42.5482 67.982 43.3966C69.2082 44.2454 70.8861 43.9332 71.7303 42.7007C73.603 39.9647 76.5861 38.1548 79.9147 37.7353C83.2127 37.3195 86.5132 38.32 88.9817 40.4901C93.8502 44.7213 94.3871 52.1458 90.1788 57.0407C88.9727 58.4438 86.976 60.1232 84.6225 61.7264C77.2402 60.7906 70.5562 60.2692 64.8612 60.2909C65.1041 58.2201 65.6536 55.8516 66.4888 53.3696C66.9657 51.9522 66.2092 50.414 64.799 49.9345C63.3892 49.455 61.859 50.2153 61.3824 51.6335C60.5839 54.007 59.6855 57.2767 59.4105 60.563C47.7287 61.6961 36.3124 65.636 25.9613 71.8812C24.5048 72.7676 23.0324 73.7363 21.5874 74.7675C20.1661 73.3782 19.1731 71.2644 18.845 68.8182C18.4518 65.8875 19.1713 63.6494 20.0058 62.8101C21.0584 61.7517 21.0584 60.0358 20.0058 58.9778C18.9532 57.9195 17.2465 57.9195 16.1943 58.9778C13.927 61.2571 12.9211 65.2068 13.5029 69.5431C13.9528 72.8958 15.3141 75.8967 17.3062 78.1C11.825 82.7691 7.56638 88.201 7.56638 93.1963C7.56638 95.5395 8.48314 97.9695 10.0119 100.368C10.8906 107.269 7.70941 112.914 1.97702 114.511C0.542392 114.911 -0.298186 116.404 0.0992825 117.846C0.492079 119.301 2.02086 120.135 3.41631 119.734C9.63961 118.001 13.9111 112.978 15.1621 106.56C19.1562 111.64 18.0353 116.92 16.7427 123.002C15.046 130.985 13.1234 140.033 23.3469 148.813C23.8547 149.249 24.4771 149.462 25.0963 149.462C25.8575 149.462 26.614 149.14 27.1469 148.512C28.1136 147.375 27.98 145.664 26.8479 144.692C19.0657 138.008 20.432 131.579 22.014 124.134C22.773 120.563 23.579 116.738 23.2409 112.847C29.135 116.785 35.6131 119.893 42.287 122.144C46.4892 123.562 50.7866 124.619 55.0129 125.283C54.2018 131.709 55.3855 139.638 57.3147 143.947C59.7954 149.488 65.2346 152.776 70.9195 152.776C72.9604 152.776 75.0333 152.352 77.012 151.456C80.6403 149.815 83.415 146.85 84.8259 143.11C86.2364 139.369 86.1139 135.3 84.4809 131.652C83.6108 129.709 82.1076 127.43 80.2521 125.177C86.3561 124.521 92.9532 123.541 99.5861 122.303C99.3306 126.745 100.663 131.148 103.46 134.823C107.157 139.68 112.721 142.446 118.762 142.446C118.87 142.446 118.979 142.445 119.087 142.443C127.243 142.322 135.035 140.601 142.246 137.329C146.262 135.506 148.897 131.622 149.123 127.19C149.348 122.77 147.129 118.644 143.33 116.425C141.097 115.12 139.071 113.651 137.268 112.037C141.218 110.476 144.637 108.871 147.515 107.222C154.231 112.379 163.095 115.518 167.967 115.518C172.823 115.518 177.35 112.551 180.386 107.377C181.143 106.089 180.717 104.427 179.435 103.666C178.153 102.906 176.501 103.334 175.744 104.623C173.701 108.102 170.867 110.098 167.967 110.098C164.802 110.098 157.958 107.838 152.341 104.032C156.785 100.585 159.03 96.9679 159.03 93.1952C159.03 89.4226 156.785 85.805 152.341 82.3583C157.959 78.5524 164.806 76.2923 167.997 76.2923C170.468 76.2775 172.405 77.7217 173.606 78.9488C176.845 82.2596 178.759 87.9083 178.6 93.691C178.56 95.1872 179.733 96.4331 181.22 96.4747C181.245 96.4754 181.271 96.4757 181.296 96.4757C182.75 96.4757 183.948 95.3112 183.989 93.8406C184.189 86.5269 181.744 79.5392 177.448 75.1487ZM125.087 59.384C127.898 57.0339 132.086 57.4201 134.423 60.2457C136.761 63.0713 136.377 67.2826 133.566 69.633C132.768 70.3008 131.517 71.0505 130.055 71.7486C126.669 70.6238 122.729 69.4502 119.047 68.4699C120.433 64.939 123.095 61.0504 125.087 59.384ZM12.9563 93.196C12.9563 89.6835 18.3818 82.8269 28.7512 76.5181C36.3588 71.8899 44.8641 68.5938 53.2275 66.9339C56.2667 70.2646 59.0706 74.0257 61.9714 78.6604C65.7402 84.6383 65.4631 92.2887 61.4399 97.8994C56.2631 105.124 51.1855 110.914 42.9095 116.636C38.0137 114.906 33.2218 112.656 28.7472 109.944C18.3807 103.662 12.9563 96.7634 12.9563 93.196ZM65.8218 101.057C66.326 100.35 66.7849 99.6204 67.1993 98.8735C76.8348 95.2989 86.4797 94.0071 88.6974 94.849C89.1596 96.0851 88.4847 97.6811 87.8051 98.8417C85.2183 103.26 79.3717 106.987 77.0706 106.987C73.3475 106.987 67.058 106.498 62.6949 105.257C63.8168 103.824 64.8522 102.417 65.8218 101.057ZM79.5646 133.878C80.6068 136.206 80.6848 138.802 79.7849 141.189C78.8847 143.576 77.1141 145.467 74.799 146.515C70.0204 148.679 64.3814 146.529 62.2302 141.723C60.6784 138.257 59.7056 131.193 60.3693 125.915C61.984 126.04 63.584 126.104 65.1612 126.104C67.7081 126.104 70.5163 125.992 73.5081 125.782C76.1822 128.467 78.5537 131.62 79.5646 133.878ZM140.62 121.111C142.696 122.324 143.862 124.493 143.738 126.914C143.614 129.344 142.227 131.391 140.028 132.389C133.493 135.355 126.421 136.914 119.002 137.025C114.547 137.099 110.454 135.094 107.74 131.53C105.449 128.52 104.528 124.834 105.119 121.214C114.2 119.328 123.223 116.992 131.634 114.11C134.186 116.76 137.199 119.112 140.62 121.111ZM131.615 108.365C110.798 115.548 86.2206 120.247 65.1612 120.684C60.0732 120.684 54.7297 119.964 49.3983 118.606C53.1714 115.691 56.2955 112.679 58.9656 109.712C65.7251 112.372 76.5646 112.407 77.0709 112.407C81.8053 112.407 89.1362 107.252 92.4508 101.592C95.0713 97.116 94.3486 93.8698 93.2805 91.9346C91.8161 89.2802 87.9456 88.5977 80.7326 89.7207C77.2686 90.2598 73.3521 91.1931 69.5931 92.3523C70.7122 86.7679 69.7063 80.8403 66.5348 75.7742C64.2121 72.0637 61.9384 68.8695 59.5611 65.9894C61.4536 65.8037 63.3248 65.7086 65.162 65.7086C85.5137 66.066 109.763 70.7535 129.444 77.2661C147.095 83.2981 153.64 89.2875 153.64 93.1963C153.639 96.9408 147.635 102.594 131.615 108.365Z" fill="black"/>
</svg>
