<svg width="185" height="184" viewBox="0 0 185 184" fill="none" xmlns="http://www.w3.org/2000/svg">
<g clip-path="url(#clip0_2_42854)">
<path d="M78.5889 135.125L67.749 124.344V135.125L46.0693 181.305C64.0295 181.305 78.5889 166.824 78.5889 148.961V145.906C81.5821 145.906 84.0088 143.493 84.0088 140.516C84.0088 137.539 81.5821 135.125 78.5889 135.125Z" fill="#87A1C1"/>
<path d="M67.749 148.961V145.906C70.7423 145.906 73.1689 143.493 73.1689 140.516C73.1689 137.539 70.7423 135.125 67.749 135.125C55.7757 135.125 46.0693 144.779 46.0693 156.688V163.643C46.0693 166.758 44.8408 169.808 42.4897 171.866C41.3612 172.854 40.6494 174.301 40.6494 175.914C40.6494 178.891 43.0761 181.304 46.0693 181.304C58.0427 181.305 67.749 166.824 67.749 148.961Z" fill="#98B6D1"/>
<path d="M78.5889 48.875L67.749 59.6562V48.875L46.0693 2.69531C64.0295 2.69531 78.5889 17.176 78.5889 35.0391V38.0938C81.5821 38.0938 84.0088 40.5073 84.0088 43.4844C84.0088 46.4614 81.5821 48.875 78.5889 48.875Z" fill="#87A1C1"/>
<path d="M67.749 35.0391V38.0938C70.7423 38.0938 73.1689 40.5073 73.1689 43.4844C73.1689 46.4614 70.7423 48.875 67.749 48.875C55.7757 48.875 46.0693 39.2211 46.0693 27.3125V20.3568C46.0693 17.2417 44.8408 14.1921 42.4897 12.1339C41.3612 11.146 40.6494 9.69882 40.6494 8.0863C40.6494 5.10924 43.0761 2.69568 46.0693 2.69568C58.0427 2.69532 67.749 17.176 67.749 35.0391Z" fill="#98B6D1"/>
<path d="M46.0693 48.875C40.0001 48.875 34.6008 51.7133 31.1284 56.1243C25.5372 55.4472 19.7014 57.2377 15.4096 61.506C11.1181 65.7743 9.31793 71.5785 9.99867 77.1398C5.56373 80.5934 2.70996 85.9636 2.70996 92C2.70996 98.0364 5.56373 103.407 9.99867 106.86C9.31793 112.421 11.1181 118.225 15.4096 122.494C19.7011 126.762 25.5369 128.553 31.1284 127.876C34.6008 132.287 40.0001 135.125 46.0693 135.125H78.5889V48.875H46.0693Z" fill="#B9DFF0"/>
<path d="M182.29 92C182.29 85.2021 178.072 79.3859 172.098 76.9947C169.727 76.0459 167.734 74.3259 166.551 72.0727C159.316 58.2867 144.809 48.875 128.091 48.875H117.251V135.125H128.091C140.491 135.125 151.673 129.945 159.575 121.644C161.213 119.923 163.494 118.953 165.877 118.953C168.307 118.94 170.549 117.481 171.22 115.157C172.277 111.498 169.544 108.172 166.03 108.172C175.01 108.172 182.29 100.932 182.29 92Z" fill="#B9DFF0"/>
<path d="M160.61 92C160.61 68.1828 141.198 48.875 117.251 48.875H78.5889C78.5889 54.8295 73.7359 59.6562 67.749 59.6562H62.3291C44.3689 59.6562 29.8096 74.1369 29.8096 92C29.8096 109.863 44.3689 124.344 62.3291 124.344H67.749C73.7359 124.344 78.5889 129.171 78.5889 135.125H117.251C141.198 135.125 160.61 115.817 160.61 92Z" fill="#C2F0FC"/>
<path d="M103.701 86.6094C103.701 82.1438 107.341 78.5234 111.831 78.5234C116.321 78.5234 119.961 82.1438 119.961 86.6094C119.961 91.075 116.321 94.6953 111.831 94.6953H109.121L103.701 86.6094Z" fill="#A8CAE0"/>
<path d="M109.121 89.3047C109.121 80.3731 101.841 73.1328 92.8613 73.1328C86.8745 73.1328 82.0215 77.9596 82.0215 83.9141C82.0215 89.8685 86.8745 94.6953 92.8613 94.6953H103.701L109.121 89.3047Z" fill="#87A1C1"/>
<path d="M103.701 83.9141C100.708 83.9141 98.2812 86.3276 98.2812 89.3047C98.2812 92.2817 100.708 94.6953 103.701 94.6953H109.121V89.3047C109.121 86.3276 106.694 83.9141 103.701 83.9141Z" fill="#636DA4"/>
<path d="M147.061 75.8281C140.505 75.8281 135.038 80.458 133.782 86.6094C135.038 92.7608 140.505 97.3906 147.061 97.3906C153.616 97.3906 159.083 92.7608 160.339 86.6094C159.083 80.458 153.616 75.8281 147.061 75.8281Z" fill="white"/>
<path d="M62.3291 116.258C63.8258 116.258 65.0391 115.051 65.0391 113.562C65.0391 112.074 63.8258 110.867 62.3291 110.867C60.8324 110.867 59.6191 112.074 59.6191 113.562C59.6191 115.051 60.8324 116.258 62.3291 116.258Z" fill="black"/>
<path d="M51.4893 110.867C52.9859 110.867 54.1992 109.66 54.1992 108.172C54.1992 106.683 52.9859 105.477 51.4893 105.477C49.9926 105.477 48.7793 106.683 48.7793 108.172C48.7793 109.66 49.9926 110.867 51.4893 110.867Z" fill="black"/>
<path d="M62.3291 73.1328C63.8258 73.1328 65.0391 71.9261 65.0391 70.4375C65.0391 68.9489 63.8258 67.7422 62.3291 67.7422C60.8324 67.7422 59.6191 68.9489 59.6191 70.4375C59.6191 71.9261 60.8324 73.1328 62.3291 73.1328Z" fill="black"/>
<path d="M147.061 89.3047C148.557 89.3047 149.771 88.098 149.771 86.6094C149.771 85.1208 148.557 83.9141 147.061 83.9141C145.564 83.9141 144.351 85.1208 144.351 86.6094C144.351 88.098 145.564 89.3047 147.061 89.3047Z" fill="black"/>
<path d="M122.671 86.6094C122.671 80.6646 117.808 75.8281 111.831 75.8281C110.197 75.8281 108.596 76.1958 107.144 76.8894C103.561 72.822 98.3391 70.4375 92.8613 70.4375C89.1718 70.4375 85.7226 71.8861 83.1492 74.5168C80.5765 77.1467 79.2154 80.6179 79.3169 84.291C79.5157 91.5141 85.6929 97.3906 93.0868 97.3906H111.831C117.808 97.3906 122.671 92.5542 122.671 86.6094ZM106.147 92H93.0868C88.6005 92 84.8539 88.4756 84.7347 84.1433C84.674 81.9375 85.4906 79.8538 87.0338 78.2762C88.5781 76.6975 90.6478 75.8281 92.8613 75.8281C97.1839 75.8281 101.285 77.9075 103.83 81.3909C106.058 84.4388 106.866 88.2212 106.147 92ZM111.831 92H111.64C112.145 88.3671 111.627 84.7489 110.134 81.4904C110.677 81.3118 111.25 81.2188 111.831 81.2188C114.82 81.2188 117.251 83.637 117.251 86.6094C117.251 89.5818 114.82 92 111.831 92Z" fill="black"/>
<path d="M147.061 100.086C154.763 100.086 161.464 94.6436 162.994 87.1456C163.067 86.7916 163.067 86.4268 162.994 86.0732C161.464 78.5752 154.763 73.1328 147.061 73.1328C139.358 73.1328 132.657 78.5752 131.127 86.0732C131.054 86.4272 131.054 86.7919 131.127 87.1456C132.657 94.6436 139.358 100.086 147.061 100.086ZM147.061 78.5234C152.01 78.5234 156.339 81.8922 157.559 86.6094C156.339 91.3265 152.011 94.6953 147.061 94.6953C142.11 94.6953 137.782 91.3265 136.562 86.6094C137.782 81.8922 142.111 78.5234 147.061 78.5234Z" fill="black"/>
<path d="M62.3291 56.9609C54.9587 56.9609 47.8995 59.2016 41.9148 63.4405C40.6957 64.304 40.411 65.987 41.2792 67.1995C41.8078 67.938 42.6422 68.3316 43.4891 68.3316C44.0329 68.3316 44.5821 68.1691 45.0587 67.8317C50.1202 64.2465 56.0922 62.3516 62.3291 62.3516C63.8257 62.3516 65.0391 61.1448 65.0391 59.6562C65.0391 58.1677 63.8257 56.9609 62.3291 56.9609Z" fill="black"/>
<path d="M37.3938 71.0638C36.1747 70.2006 34.4823 70.4834 33.6144 71.696C29.3525 77.6483 27.0996 84.6698 27.0996 91.9999C27.0996 111.321 42.9034 127.039 62.3291 127.039C63.8257 127.039 65.0391 125.832 65.0391 124.344C65.0391 122.855 63.8257 121.648 62.3291 121.648C45.8919 121.648 32.5195 108.348 32.5195 91.9999C32.5195 85.7968 34.4248 79.857 38.0294 74.8229C38.8977 73.6104 38.613 71.9274 37.3938 71.0638Z" fill="black"/>
<path d="M185 92C185 84.2565 180.333 77.3849 173.11 74.4945C171.289 73.7657 169.813 72.4626 168.954 70.8256C160.975 55.6233 145.318 46.1797 128.091 46.1797H86.2526C86.5536 45.3362 86.7188 44.4292 86.7188 43.4844C86.7188 39.9704 84.4532 36.9725 81.2988 35.8602V35.0391C81.2988 15.7183 65.4951 0 46.0693 0C41.5863 0 37.9395 3.62717 37.9395 8.08594C37.9395 10.4089 38.9454 12.6216 40.6993 14.1569C42.3896 15.6371 43.3594 17.8969 43.3594 20.3568V27.3125C43.3594 34.9266 46.9076 41.7292 52.4428 46.1797H46.0693C39.8642 46.1797 34.0732 48.7636 29.9599 53.3183C23.8159 52.9924 17.881 55.2363 13.4934 59.6002C9.10583 63.9641 6.84789 69.8639 7.17742 75.9776C2.59795 80.0687 0 85.8285 0 92C0 98.1715 2.59795 103.931 7.17742 108.022C6.84789 114.136 9.10583 120.036 13.4934 124.399C17.8814 128.764 23.8173 131.011 29.9599 130.681C34.0732 135.236 39.8642 137.82 46.0693 137.82H52.4428C46.9076 142.271 43.3594 149.073 43.3594 156.688V163.643C43.3594 166.103 42.3896 168.363 40.6993 169.843C38.9454 171.378 37.9395 173.591 37.9395 175.914C37.9395 180.373 41.5863 184 46.0693 184C65.4951 184 81.2988 168.282 81.2988 148.961V148.14C84.4532 147.027 86.7188 144.03 86.7188 140.516C86.7188 139.571 86.5533 138.664 86.2526 137.82H106.411C107.908 137.82 109.121 136.614 109.121 135.125C109.121 133.636 107.908 132.43 106.411 132.43H46.0693C41.0396 132.43 36.3717 130.164 33.2621 126.214C32.6767 125.471 31.7434 125.085 30.8007 125.2C25.7945 125.806 20.8822 124.126 17.3257 120.588C13.7691 117.051 12.0788 112.166 12.6888 107.186C12.8037 106.249 12.417 105.32 11.6695 104.738C7.69773 101.645 5.41992 97.0025 5.41992 92C5.41992 86.9975 7.69773 82.3547 11.6691 79.2619C12.4167 78.6798 12.8033 77.7511 12.6884 76.8139C12.0788 71.8337 13.7691 66.9487 17.3253 63.4117C20.8819 59.8747 25.7934 58.1943 30.8003 58.7999C31.7427 58.9152 32.6763 58.5296 33.2617 57.7861C36.3713 53.8358 41.0393 51.5707 46.069 51.5707H128.09C143.291 51.5707 157.108 59.9046 164.149 73.3204C165.605 76.0948 168.068 78.2877 171.086 79.4959C176.246 81.5602 179.58 86.4685 179.58 92C179.58 99.4312 173.502 105.477 166.03 105.477C160.084 105.477 154.314 107.824 150.2 111.918C149.142 112.971 149.143 114.677 150.201 115.73C151.26 116.782 152.975 116.781 154.033 115.729C157.138 112.639 161.511 110.868 166.03 110.868C166.778 110.868 167.475 111.164 167.992 111.703C168.508 112.241 168.772 112.949 168.737 113.697C168.67 115.109 167.387 116.258 165.877 116.258C162.758 116.258 159.744 117.546 157.607 119.791C149.848 127.941 139.366 132.43 128.091 132.43H117.251C115.754 132.43 114.541 133.636 114.541 135.125C114.541 136.614 115.754 137.82 117.251 137.82H128.091C140.87 137.82 152.75 132.734 161.543 123.497C162.661 122.322 164.241 121.648 165.877 121.648C170.312 121.648 173.947 118.267 174.15 113.95C174.226 112.369 173.848 110.847 173.073 109.518C180.056 106.732 185 99.9296 185 92ZM67.749 137.82H78.5889C80.0833 137.82 81.2988 139.029 81.2988 140.516C81.2988 142.002 80.0833 143.211 78.5889 143.211C77.0922 143.211 75.8789 144.418 75.8789 145.906V148.961C75.8789 165.309 62.5065 178.609 46.0693 178.609C44.5749 178.609 43.3594 177.4 43.3594 175.914C43.3594 175.14 43.695 174.402 44.2804 173.889C47.1396 171.386 48.7793 167.652 48.7793 163.643V156.688C48.7793 146.284 57.2889 137.82 67.749 137.82ZM78.5889 46.1797H67.749C57.2889 46.1797 48.7793 37.716 48.7793 27.3125V20.3568C48.7793 16.3487 47.1396 12.6141 44.28 10.1107C43.695 9.59819 43.3594 8.86039 43.3594 8.08594C43.3594 6.59956 44.5749 5.39062 46.0693 5.39062C62.5065 5.39062 75.8789 18.6907 75.8789 35.0391V38.0938C75.8789 39.5823 77.0922 40.7891 78.5889 40.7891C80.0833 40.7891 81.2988 41.998 81.2988 43.4844C81.2988 44.9707 80.0833 46.1797 78.5889 46.1797Z" fill="black"/>
</g>
<defs>
<clipPath id="clip0_2_42854">
<rect width="185" height="184" fill="white"/>
</clipPath>
</defs>
</svg>
