<svg width="185" height="185" viewBox="0 0 185 185" fill="none" xmlns="http://www.w3.org/2000/svg">
<g clip-path="url(#clip0_2_43325)">
<path d="M149.629 177.835C143.588 176.747 137.46 175.313 131.372 173.553C96.7194 155.552 87.5258 113.808 101.042 88.8903C104.684 89.4937 108.228 91.145 111.531 94.1765C136.752 117.327 142.139 135.418 139.729 158.684C139.317 162.666 141.297 166.522 144.824 168.419C147.082 169.636 149.369 170.829 151.693 171.999C154.952 173.643 153.225 178.485 149.629 177.835Z" fill="#F6CA56"/>
<path d="M131.372 173.553C97.9127 163.891 65.6244 144.34 55.0845 117.414C55.0845 117.414 79.7596 85.3493 101.042 88.8903C97.4105 114.396 102.303 152.199 131.372 173.553Z" fill="#F1B70B"/>
<path d="M151.693 8.59237C149.37 9.76307 147.082 10.9555 144.824 12.1695C141.298 14.0665 139.317 17.9219 139.729 21.9037C142.139 45.1696 136.752 63.2649 111.531 86.4116C111.116 86.791 110.697 87.1451 110.274 87.4775C90.6321 67.7161 85.166 29.824 115.365 11.8805C126.1 7.79744 137.587 4.57078 149.63 2.7533C153.239 2.2077 154.952 6.94832 151.693 8.59237Z" fill="#F6CA56"/>
<path d="M110.274 87.4776C87.5137 105.132 49.9536 51.4748 49.9536 51.4748C64.3489 39.0488 87.2969 22.5469 115.365 11.8805C93.4178 32.6424 98.5631 66.6578 110.274 87.4776Z" fill="#F1B70B"/>
<path d="M126.559 90.2948L158.421 121.145C162.487 125.082 169.289 122.201 169.289 116.541V64.0494C169.289 58.3892 162.487 55.5072 158.421 59.445L126.559 90.2948Z" fill="#F6CA56"/>
<path d="M134.804 97.1503C129.764 104.326 120.799 115.77 109.428 124.723C81.9205 129.142 62.3004 114.343 59.0846 98.7257C59.4495 95.9832 59.6591 93.1685 59.6591 90.2959C59.6591 74.9033 51.699 58.7086 49.9863 51.4495C58.0729 46.2103 67.1024 42.6006 76.6271 42.6006C102.982 42.6006 125.536 70.2422 134.804 83.4379C137.691 87.5498 137.691 93.0384 134.804 97.1503Z" fill="#FFEAB7"/>
<path d="M109.428 124.723C99.8857 132.232 88.6521 137.988 76.6271 137.988C67.1024 137.988 58.0729 134.378 49.9863 129.142C52.9673 121.258 57.4983 110.682 59.0846 98.7257C70.0256 111.332 86.7623 121.554 109.428 124.723Z" fill="#FAD989"/>
<path d="M68.0199 90.2958C68.0199 95.5134 67.1925 100.586 65.6749 105.378C44.169 98.7256 35.6221 72.0231 43.7097 55.9552C45.7296 54.3654 47.8253 52.8478 49.986 51.4495C60.8114 60.7609 68.0199 74.9033 68.0199 90.2958Z" fill="#FAD989"/>
<path d="M65.675 105.378C62.7157 114.722 57.1404 122.985 49.9861 129.142C34.7417 119.271 22.8576 103.632 17.3293 95.5351C15.1721 92.3735 15.1721 88.2146 17.3293 85.053C22.0735 78.1046 31.4969 65.6027 43.7098 55.9552C42.1236 71.4273 49.361 90.9282 65.675 105.378Z" fill="#F6CA56"/>
<path d="M88.6123 108.651C88.6123 115.434 87.0044 120.958 81.9205 121.215C68.9307 117.938 68.0202 103.039 74.8854 97.5297C77.4725 96.6011 79.9043 96.0771 81.5447 96.0771C86.9249 96.0771 88.6123 101.707 88.6123 108.651Z" fill="#F6CA56"/>
<path d="M81.9204 121.215C81.7976 121.222 81.6711 121.226 81.5446 121.226C76.1645 121.226 62.3003 115.596 62.3003 108.651C62.3003 103.824 68.9957 99.6362 74.8854 97.5297C72.0056 104.146 72.2332 116.012 81.9204 121.215Z" fill="#F1B70B"/>
<path d="M45.7656 87.4313C47.2626 87.4313 48.4756 86.2179 48.4756 84.7213V80.3846C48.4756 78.888 47.2626 77.6747 45.7656 77.6747C44.2686 77.6747 43.0557 78.888 43.0557 80.3846V84.7213C43.0557 86.2179 44.269 87.4313 45.7656 87.4313Z" fill="black"/>
<path d="M169.296 96.9161C170.793 96.9161 172.006 95.7028 172.006 94.2061V64.0486C172.006 60.323 169.875 57.1053 166.444 55.6521C163.013 54.1981 159.22 54.9056 156.543 57.4974L134.697 78.6499C133.049 76.4241 131.168 74.0032 129.069 71.4873C134.922 63.7386 138.81 56.0253 140.928 47.9681C142.999 40.0908 143.477 31.7202 142.431 21.6254C142.128 18.6987 143.574 15.9237 146.115 14.5553C148.321 13.3673 150.61 12.1749 152.919 11.0111C155.523 9.69764 156.734 6.87025 155.862 4.135C154.956 1.2917 152.233 -0.379799 149.232 0.0733063C132.031 2.66909 114.499 8.3264 97.1212 16.8888C95.7785 17.5504 95.2264 19.1749 95.888 20.5173C96.5496 21.8599 98.1745 22.4121 99.5164 21.7505C116.393 13.4349 133.392 7.94484 150.041 5.43253C150.277 5.24536 151.154 5.87949 150.478 6.17144C148.127 7.35696 145.794 8.57211 143.545 9.78328C139.063 12.1969 136.509 17.0644 137.039 22.1841C138.912 40.2609 135.536 53.565 125.435 67.2977C122.001 63.4871 118.132 59.6075 113.883 56.004C101.278 45.3116 88.7449 39.8906 76.6335 39.8906C73.6569 39.8906 70.732 40.2241 67.8688 40.829C73.8462 36.5349 80.7664 31.9833 88.4826 27.6004C89.7841 26.8611 90.2397 25.2069 89.5004 23.9054C88.7608 22.6036 87.1063 22.1483 85.8055 22.8876C69.2653 32.2821 56.2936 42.4369 48.2956 49.3296C32.8442 59.4113 20.8661 75.0756 15.0983 83.5257C12.2915 87.6372 12.2915 92.9505 15.0983 97.0624C18.1732 101.567 23.0121 108.122 29.2013 114.788C24.7555 131.913 24.2391 156.314 45.2525 178.134C46.2917 179.212 48.0077 179.243 49.0841 178.206C50.1623 177.167 50.1944 175.452 49.1563 174.374C31.1611 155.689 30.3817 134.892 33.6835 119.384C34.9193 120.588 36.1966 121.781 37.5133 122.952C38.4209 136.535 42.0172 148.504 48.2255 158.533C55.7766 170.731 66.9532 179.581 81.4446 184.836C82.8144 185.344 84.4075 184.633 84.9159 183.212C85.4261 181.805 84.6991 180.251 83.2921 179.741C54.1076 169.158 45.6457 144.81 43.4325 127.826C50.15 132.928 57.783 137.218 65.9079 139.302C74.9974 149.277 87.7733 158.377 102.92 165.653C117.124 172.476 133.113 177.611 149.156 180.502C152.027 181.048 154.893 179.45 155.828 176.577C156.76 173.789 155.564 170.911 152.919 169.577C150.612 168.414 148.323 167.222 146.115 166.033C143.574 164.664 142.128 161.889 142.431 158.962C143.477 148.868 142.999 140.497 140.929 132.62C138.811 124.563 134.922 116.849 129.07 109.101C131.169 106.585 133.05 104.164 134.697 101.938L156.544 123.091C159.234 125.703 163.065 126.377 166.445 124.936C169.875 123.482 172.006 120.265 172.006 116.539V106.852C172.006 105.356 170.793 104.142 169.296 104.142C167.799 104.142 166.586 105.356 166.586 106.852V116.539C166.586 118.073 165.743 119.347 164.33 119.945C162.917 120.544 161.416 120.264 160.314 119.197L137.83 97.4274C140.294 93.0065 140.294 87.5808 137.83 83.1603L160.314 61.3907C161.416 60.3237 162.917 60.0437 164.33 60.642C165.743 61.2404 166.586 62.5141 166.586 64.0483V94.2058C166.586 95.7028 167.799 96.9161 169.296 96.9161ZM132.594 84.9959C134.819 88.1651 134.819 92.4237 132.594 95.5926C124.215 107.525 101.988 135.278 76.6335 135.278C68.7345 135.269 61.2923 132.654 54.4306 128.717C58.1068 125.155 61.2843 121.055 63.8089 116.611C68.0603 120.508 76.7882 123.964 81.5519 123.936C85.2031 123.936 91.3284 121.95 91.3284 108.652C91.3284 95.3526 85.2031 93.3671 81.5519 93.3671C78.6761 93.3671 74.2968 94.6087 70.3797 96.4789C70.6167 94.4291 70.737 92.3627 70.737 90.2944C70.737 75.7282 64.8351 61.9233 54.4335 51.8697C61.3262 47.9048 68.8198 45.3105 76.6339 45.3105C101.989 45.3105 124.215 73.0634 132.594 84.9959ZM65.7106 110.68C65.3402 110.062 64.9959 109.333 65.0186 108.652C66.0072 102.83 77.4534 98.9493 81.5523 98.7867C84.4433 98.7867 85.9092 102.105 85.9092 108.652C85.9092 115.197 84.4433 118.516 81.5523 118.516C77.4516 118.516 68.2883 114.67 65.7106 110.68ZM34.3842 112.42C28.0667 105.8 22.6717 98.5714 19.5751 94.007C18.0355 91.7516 18.0355 88.8368 19.5751 86.5818C24.9134 78.7608 35.8324 64.4071 49.7027 54.86C59.6482 63.9615 65.3171 76.7627 65.3171 90.2944C65.3171 93.6638 64.9612 97.0256 64.266 100.304C61.2012 102.865 59.5987 105.697 59.5987 108.652C59.5987 109.727 59.8144 110.785 60.2307 111.821C57.6132 117.024 54.0082 121.779 49.7023 125.728C44.1545 121.91 38.968 117.237 34.3842 112.42ZM137.04 158.404C136.509 163.523 139.063 168.391 143.545 170.805C145.796 172.017 148.128 173.232 150.478 174.417C151.052 174.597 150.448 175.39 150.117 175.169C120.423 169.817 92.429 156.861 74.8966 140.656C88.0392 141.131 100.593 135.744 113.883 124.584C118.132 120.981 122.001 117.101 125.435 113.291C135.537 127.023 138.912 140.327 137.04 158.404Z" fill="black"/>
</g>
<defs>
<clipPath id="clip0_2_43325">
<rect width="185" height="185" fill="white"/>
</clipPath>
</defs>
</svg>
