<svg width="185" height="184" viewBox="0 0 185 184" fill="none" xmlns="http://www.w3.org/2000/svg">
<g clip-path="url(#clip0_2_42543)">
<path d="M100.254 93.8673L96.527 132.052C105.011 129.127 111.094 121.114 111.094 111.674V93.8673H100.254Z" fill="#515985"/>
<path d="M100.254 93.8673H89.4139V126.931C89.4139 130.601 93.0406 133.253 96.527 132.052C98.6975 129.127 100.254 121.114 100.254 111.674V93.8673Z" fill="#636DA4"/>
<path d="M97.0784 102.416L84.6838 99.4966L54.1931 118.387L66.3168 121.618C71.9441 123.118 77.9479 121.509 82.0555 117.4L97.0784 102.416Z" fill="#515985"/>
<path d="M63.9443 94.6116L56.2794 102.235C51.8579 101.068 47.3178 103.766 46.2876 108.241C45.3066 112.502 48.0397 116.747 52.2853 117.879L54.1931 118.387C59.8042 119.882 65.7914 118.287 69.899 114.201L84.6838 99.4966L63.9443 94.6116Z" fill="#636DA4"/>
<path d="M50.5928 68.3851L56.0127 85.5259L71.0808 74.0611C65.7028 68.7452 57.9397 66.6062 50.5928 68.3851Z" fill="#515985"/>
<path d="M52.911 78.9205L60.2409 82.3575V76.0498C60.2409 71.0081 55.518 67.1901 50.5928 68.3825C50.4807 68.4095 50.3687 68.4375 50.2571 68.4666C47.9052 69.0754 46.1632 71.1314 46.0917 73.5475C45.9844 77.1757 49.4152 79.8513 52.911 78.9205Z" fill="#636DA4"/>
<path d="M29.8117 75.3925L13.5498 66.0541C10.2541 64.158 6.51547 63.1619 2.70996 63.1619C2.70996 66.9468 3.71156 70.6653 5.61468 73.9431C5.61974 73.9431 10.7943 82.8542 15.0081 90.1114L5.61829 106.287C3.71192 109.565 2.71032 113.283 2.71032 117.068C6.51583 117.068 10.2545 116.072 13.5502 114.179C13.5502 114.175 20.6846 110.076 29.8143 104.832L29.8117 75.3925Z" fill="#7587B3"/>
<path d="M50.0068 100.529L50.0043 79.695C44.4503 81.1753 38.5328 80.4005 33.5533 77.5409L29.8118 75.3922C25.3346 78.8117 22.6055 84.138 22.6055 90.1111C22.6055 96.0854 25.3353 101.412 29.8136 104.832C31.0291 104.134 32.2789 103.416 33.553 102.684C38.5332 99.8243 44.4521 99.0484 50.0068 100.529Z" fill="#636DA4"/>
<path d="M128.8 96.95V123.903C137.787 123.903 145.06 116.67 145.06 107.731V96.95H128.8Z" fill="#636DA4"/>
<path d="M111.602 48.5656C110.586 47.5546 109.207 46.9868 107.77 46.9868L113.19 77.0288L144.879 81.6626L111.602 48.5656Z" fill="#515985"/>
<path d="M107.77 46.9868C104.776 46.9868 102.35 49.4004 102.35 52.3774L102.342 59.975C102.337 64.7292 106.225 68.5522 111.005 68.5493H111.093L119.619 77.0288L109.169 48.5656C108.798 47.5546 108.295 46.9868 107.77 46.9868Z" fill="#636DA4"/>
<path d="M33.4456 90.1118C33.4456 93.3724 35.3891 96.6334 39.2759 97.6695L70.1807 105.906C83.1643 109.659 96.8915 111.674 111.093 111.674C122.682 111.674 133.952 110.326 144.762 107.793C144.762 107.793 153.195 85.2337 153.119 84.7212L33.4456 90.1118Z" fill="#B9DFF0"/>
<path d="M133.469 70.2423C126.174 69.1286 118.702 68.549 111.093 68.549C96.892 68.549 83.1644 70.5643 70.1808 74.3176L39.2757 82.5538C35.3885 83.5895 33.445 86.8505 33.4453 90.1115H136.93L142.544 98.1974L153.119 90.1115C151.627 80.0676 143.784 71.8969 133.469 70.2423Z" fill="#7587B3"/>
<path d="M153.384 93.5887C153.384 92.9404 153.353 92.2986 153.302 91.6621H142.544C142.544 88.685 140.117 86.2715 137.124 86.2715C134.131 86.2715 131.704 88.685 131.704 91.6621V97.2418C131.704 104.106 138.057 109.187 144.763 107.793C148.792 106.848 152.76 105.744 156.654 104.476L153.384 93.5887Z" fill="#A8CAE0"/>
<path d="M179.422 85.3591C175.181 83.1277 170.814 81.1019 166.339 79.286V84.2454L156.788 104.431C164.646 101.864 172.214 98.657 179.422 94.8646C183.246 92.8521 183.246 87.3712 179.422 85.3591Z" fill="#515985"/>
<path d="M166.339 79.286C155.927 75.0608 144.918 71.99 133.469 70.2423C138.702 71.0815 142.544 75.5999 142.544 80.8805V94.1968C142.544 101.497 149.679 106.667 156.655 104.476C156.699 104.461 156.743 104.447 156.787 104.432C164.483 101.918 169.644 94.7147 169.644 86.6582V84.245L166.339 79.286Z" fill="#636DA4"/>
<path d="M164.223 89.6345C167.216 89.6345 169.642 87.2211 169.642 84.2439C169.642 81.2667 167.216 78.8533 164.223 78.8533C161.229 78.8533 158.803 81.2667 158.803 84.2439C158.803 87.2211 161.229 89.6345 164.223 89.6345Z" fill="#515985"/>
<path d="M111.093 103.588C112.59 103.588 113.803 102.382 113.803 100.893C113.803 99.4045 112.59 98.1978 111.093 98.1978C109.597 98.1978 108.383 99.4045 108.383 100.893C108.383 102.382 109.597 103.588 111.093 103.588Z" fill="black"/>
<path d="M52.7998 92.8071C54.2965 92.8071 55.5098 91.6004 55.5098 90.1118C55.5098 88.6232 54.2965 87.4165 52.7998 87.4165C51.3031 87.4165 50.0898 88.6232 50.0898 90.1118C50.0898 91.6004 51.3031 92.8071 52.7998 92.8071Z" fill="black"/>
<path d="M63.6396 92.8071C65.1363 92.8071 66.3496 91.6004 66.3496 90.1118C66.3496 88.6232 65.1363 87.4165 63.6396 87.4165C62.143 87.4165 60.9297 88.6232 60.9297 90.1118C60.9297 91.6004 62.143 92.8071 63.6396 92.8071Z" fill="black"/>
<path d="M86.7036 84.7212C88.2003 84.7212 89.4136 83.5145 89.4136 82.0259C89.4136 80.5373 88.2003 79.3306 86.7036 79.3306C85.2069 79.3306 83.9937 80.5373 83.9937 82.0259C83.9937 83.5145 85.2069 84.7212 86.7036 84.7212Z" fill="black"/>
<path d="M180.689 82.9764C166.355 75.4346 150.762 70.2905 134.705 67.7317L113.518 46.6594C111.982 45.1321 109.941 44.2911 107.77 44.2911C103.287 44.2911 99.6398 47.9183 99.6398 52.3742L99.6319 59.9717C99.6294 62.2063 100.279 64.341 101.49 66.1631C91.4334 66.8013 81.4947 68.4397 71.8161 71.0621C65.7158 65.7825 57.2748 63.8052 49.4051 65.9025C45.8601 66.8469 43.3825 70.0558 43.3792 73.7053C43.3778 75.1528 43.7561 76.5357 44.4556 77.7443C41.1368 77.7601 37.8589 76.9062 34.9079 75.2118L31.1671 73.0631C29.8724 72.3192 28.2136 72.7597 27.4653 74.0488C26.7166 75.3379 27.1603 76.9864 28.4564 77.731L32.1976 79.8797C33.2194 80.4665 34.2727 80.9729 35.3484 81.4027C32.4979 83.3067 30.7349 86.5004 30.7349 90.1114C30.7349 93.7271 32.5022 96.9248 35.3592 98.8277C34.2796 99.2583 33.223 99.7661 32.1979 100.355L12.1927 111.843C10.1689 113.007 7.94705 113.785 5.64937 114.144C6.01033 111.859 6.79188 109.649 7.96114 107.635L7.93585 107.62C8.19998 107.227 8.48579 106.736 8.83736 106.131L17.3542 91.4663C17.8384 90.6322 17.8384 89.6047 17.3542 88.771L7.96403 72.5937C6.79369 70.5812 6.01142 68.3711 5.65009 66.0862C7.94705 66.4452 10.1699 67.2225 12.1948 68.3851C12.3665 68.4846 12.5298 68.5788 12.6776 68.6639L19.0698 72.3389C20.3652 73.0835 22.0233 72.6426 22.772 71.3535C23.5207 70.0644 23.0773 68.416 21.7812 67.6714C17.4746 65.1967 15.1761 63.8753 14.9467 63.7412C14.933 63.733 14.9189 63.7247 14.9048 63.7168C11.2023 61.5904 6.9852 60.467 2.70996 60.467C1.21298 60.467 0 61.6737 0 63.1623C0 67.4176 1.13168 71.6123 3.27146 75.2912L11.8787 90.119C6.6918 99.0527 3.51139 104.527 3.29387 104.895C3.2852 104.91 3.27616 104.925 3.26785 104.939C1.12987 108.622 0 112.816 0 117.069C0 118.557 1.21298 119.764 2.70996 119.764C6.98809 119.764 11.2059 118.639 14.9048 116.51L34.9083 105.024C38.4309 103.001 42.4206 102.174 46.3888 102.6C45.1653 103.865 44.2309 105.438 43.7435 107.248C42.9952 110.025 43.3789 112.926 44.8246 115.416C46.2699 117.907 48.6037 119.688 51.3964 120.432L65.6154 124.222C72.1619 125.966 79.1984 124.08 83.9773 119.3L86.7036 116.573V126.93C86.7036 129.551 87.9877 132.025 90.1384 133.548C91.5349 134.536 93.1439 135.044 94.7796 135.044C95.6602 135.044 96.5483 134.897 97.4144 134.598C106.363 131.513 112.629 123.566 113.653 114.344C117.811 114.272 121.961 114.027 126.09 113.611V123.903C126.09 125.392 127.303 126.598 128.8 126.598C138.542 126.598 146.588 119.256 147.648 109.843C152.254 108.688 156.802 107.316 161.272 105.731C159.306 121.816 145.494 134.317 128.8 134.317C127.303 134.317 126.091 135.524 126.091 137.013C126.091 138.501 127.303 139.708 128.8 139.708C149.21 139.708 165.924 123.679 166.889 103.613C168.726 102.878 170.548 102.107 172.354 101.298V101.781C172.354 108.98 170.534 116.112 167.091 122.408C166.376 123.716 166.862 125.352 168.177 126.063C168.588 126.286 169.032 126.391 169.469 126.391C170.43 126.391 171.361 125.882 171.853 124.983C175.726 117.9 177.773 109.877 177.773 101.781V98.7343C178.75 98.2481 179.723 97.7546 180.689 97.2468C183.348 95.8478 185 93.114 185 90.1118C185 87.11 183.348 84.3758 180.689 82.9764ZM164.224 81.5497C165.718 81.5497 166.934 82.7586 166.934 84.245C166.934 85.7314 165.718 86.9403 164.224 86.9403C162.729 86.9403 161.514 85.7314 161.514 84.245C161.514 82.7586 162.729 81.5497 164.224 81.5497ZM105.06 52.3774C105.06 50.8911 106.276 49.6821 107.77 49.6821C108.494 49.6821 109.175 49.9624 109.686 50.4717L125.895 66.5932C120.983 66.1052 116.042 65.854 111.094 65.854H111C109.399 65.854 107.898 65.2377 106.773 64.1179C105.662 63.0117 105.05 61.5419 105.052 59.9779L105.06 52.3774ZM50.8078 71.1099C55.6536 69.8183 60.7772 70.5126 65.0579 72.8927L52.2069 76.3176C51.3863 76.5346 50.531 76.365 49.8582 75.8511C49.1843 75.3361 48.7981 74.5563 48.7988 73.7107C48.8006 72.4942 49.6263 71.4247 50.8078 71.1099ZM95.6392 129.505C94.8421 129.78 93.9825 129.652 93.2812 129.156C92.5455 128.635 92.1235 127.824 92.1235 126.93V113.169C97.4459 113.843 102.812 114.235 108.19 114.338C107.2 121.26 102.407 127.172 95.6392 129.505ZM111.093 108.979C99.6796 108.979 88.3014 107.636 77.2744 104.988C75.8204 104.638 74.3555 105.528 74.004 106.975C73.6524 108.422 74.5471 109.879 76.0018 110.228C78.5712 110.845 81.1597 111.39 83.762 111.87L80.1339 115.5C76.7197 118.914 71.6933 120.261 67.0181 119.015L52.7991 115.226C51.4051 114.854 50.2398 113.965 49.5182 112.722C48.7966 111.479 48.6051 110.031 48.9784 108.644C49.748 105.788 52.7095 104.082 55.5835 104.841L55.6001 104.811L65.4662 107.44C66.9122 107.825 68.398 106.972 68.7853 105.534C69.1727 104.097 68.3149 102.618 66.8692 102.233L39.977 95.0662C37.159 94.3154 36.1549 92.0147 36.1549 90.1122C36.1549 88.2096 37.159 85.9089 39.977 85.1582L70.8817 76.922C70.9002 76.917 70.9186 76.912 70.9367 76.9066C83.9315 73.1497 97.4415 71.245 111.092 71.245C118.618 71.245 126.126 71.8405 133.532 73.0041C137.162 73.8264 139.834 77.1132 139.834 80.8809V84.0398C138.986 83.7405 138.074 83.5762 137.124 83.5762C132.641 83.5762 128.994 87.2034 128.994 91.6622V97.2418C128.994 101.087 130.609 104.677 133.452 107.23C126.072 108.386 118.592 108.979 111.093 108.979ZM131.51 120.937V112.969C134.997 112.49 138.463 111.886 141.902 111.165C140.598 116.085 136.561 119.913 131.51 120.937ZM143.712 105.243C141.504 105.564 139.276 104.978 137.503 103.585C135.54 102.042 134.414 99.7298 134.414 97.2414V91.6622C134.414 90.1758 135.63 88.9668 137.124 88.9668C138.618 88.9668 139.834 90.1758 139.834 91.6622V94.1975C139.834 98.4551 141.775 102.335 145.164 104.903C144.681 105.02 144.196 105.132 143.712 105.243ZM178.155 92.4819C170.839 96.3308 163.182 99.5289 155.3 102.056C152.979 102.619 150.576 102.157 148.615 100.745C146.479 99.2062 145.254 96.8199 145.254 94.1972V80.8809C145.254 78.7857 144.781 76.7998 143.931 75.027C148.686 76.1339 153.379 77.4834 157.99 79.0617C156.808 80.4662 156.094 82.2742 156.094 84.2454C156.094 88.7041 159.741 92.3313 164.224 92.3313C168.501 92.3313 172.014 89.0287 172.328 84.8531C174.292 85.7727 176.236 86.7322 178.155 87.7414C179.047 88.2111 179.58 89.0973 179.58 90.1118C179.58 91.1263 179.047 92.0122 178.155 92.4819Z" fill="black"/>
</g>
<defs>
<clipPath id="clip0_2_42543">
<rect width="185" height="184" fill="white"/>
</clipPath>
</defs>
</svg>
