<svg width="185" height="184" viewBox="0 0 185 184" fill="none" xmlns="http://www.w3.org/2000/svg">
<g clip-path="url(#clip0_2_43248)">
<path d="M160.196 104.116C158.528 100.401 160.4 96.0261 164.243 94.6317C168.487 93.0918 171.147 90.8845 171.147 88.4314C171.147 86.0196 168.576 83.8454 164.456 82.3098C160.648 80.8903 158.784 76.5731 160.413 72.8672C164.299 64.0273 173.595 58.4146 181.256 46.5725C184.285 41.8384 180.216 35.7959 174.649 36.7094C145.242 41.5347 129.596 58.9048 118.439 75.3818V102.072C129.596 118.549 145.242 135.919 174.648 140.744C180.219 141.658 184.288 135.619 181.256 130.882C173.956 119.473 164.13 112.883 160.196 104.116Z" fill="#FAD989"/>
<path d="M62.1841 111.795C52.511 126.729 54.3762 145.282 58.4863 156.687C60.2583 161.604 65.9004 163.983 70.6757 161.809C75.3954 159.66 79.7161 155.881 83.1813 151.491C87.9895 145.4 85.811 136.423 78.746 133.168C70.2024 129.233 62.4103 122.788 62.1841 111.795Z" fill="#F1B70B"/>
<path d="M103.441 145.87C102.776 148.137 101.942 150.362 100.926 152.468C83.7997 154.924 75.832 137.875 80.9303 127.807C84.4208 129.036 88.193 129.622 91.9292 129.809C100.07 130.219 105.714 138.089 103.441 145.87Z" fill="#FAD989"/>
<path d="M100.926 152.468C99.4448 155.569 97.584 158.412 95.3582 160.751C91.5751 164.719 85.1615 164.604 81.5085 160.518C73.0353 151.044 63.9298 133.762 67.4492 115.502C70.2675 122.068 75.225 125.802 80.9303 127.807C81.0387 139.412 88.4785 148.777 100.926 152.468Z" fill="#F6CA56"/>
<path d="M107.643 60.766C104.37 64.9168 100.561 67.6193 96.984 69.3802C67.3934 63.2507 70.4495 28.3827 83.9039 23.5276C91.4159 28.124 101.352 36.0267 108.51 48.461C110.754 52.3638 110.436 57.2298 107.643 60.766Z" fill="#FAD989"/>
<path d="M96.9841 69.3802C90.3032 72.6721 84.446 72.6721 84.446 72.6721L46.6331 58.2324C48.5264 48.0082 61.0681 32.1777 68.2188 23.815C71.2359 20.286 76.3306 19.3121 80.4245 21.5222C81.5048 22.1044 82.6719 22.7728 83.9041 23.5275C76.3776 34.625 78.6901 56.148 96.9841 69.3802Z" fill="#F6CA56"/>
<path d="M132.188 88.7289C132.188 95.5858 126.277 101.476 117.84 104.017C112.608 105.594 107.968 108.753 104.749 113.148C102.05 116.836 98.6462 120.03 94.5849 122.586C54.4399 117.716 50.6947 60.6776 73.1039 48.3208C87.4378 49.2552 98.1657 55.3214 104.749 64.3094C107.968 68.7046 112.608 71.8599 117.84 73.4375C126.281 75.9819 132.188 81.8685 132.188 88.7289Z" fill="#FFB88C"/>
<path d="M94.5848 122.586C87.8677 126.805 79.3367 129.263 69.1689 129.263C58.3291 129.263 45.7657 126.47 34.5031 121.723C39.6459 114.131 46.0129 102.198 46.0129 88.7289C46.0129 75.2559 37.0241 61.9813 34.4995 55.7311C45.7657 50.9837 58.3291 48.1914 69.1689 48.1914C70.5095 48.1914 71.8211 48.2345 73.1038 48.3208C59.1421 69.1681 62.5422 107.639 94.5848 122.586Z" fill="#FF9A5C"/>
<path d="M51.8072 88.7289C51.8072 102.198 44.7649 114.457 34.5032 121.723C17.0511 114.374 2.70996 102.335 2.70996 88.7289C2.70996 75.123 17.0475 63.0839 34.4996 55.7311C44.7649 62.994 51.8072 75.2559 51.8072 88.7289Z" fill="#FF7E27"/>
<path d="M76.6703 97.6091C74.5562 90.7623 66.3862 87.888 60.36 91.7621C51.1877 99.6238 59.422 116.309 72.9017 118.137C75.4346 117.163 77.4327 114.942 77.9458 112.067C78.7624 107.503 78.1626 102.396 76.6703 97.6091Z" fill="#FAD989"/>
<path d="M72.9015 118.137C71.3694 118.726 69.6387 118.859 67.9224 118.402C59.8106 116.25 49.2453 110.974 41.9899 101.975C39.9194 99.4059 41.914 95.5678 45.2165 95.8409C50.5064 96.2794 55.7203 94.4142 60.3562 91.7656C56.1069 99.352 60.32 112.149 72.9015 118.137Z" fill="#F6CA56"/>
<path d="M33.2656 83.873V79.5598C33.2656 78.0713 32.0526 76.8645 30.5557 76.8645C29.0587 76.8645 27.8457 78.0713 27.8457 79.5598V83.873C27.8457 85.3616 29.0587 86.5683 30.5557 86.5683C32.0526 86.5683 33.2656 85.3616 33.2656 83.873Z" fill="black"/>
<path d="M183.541 129.429C179.984 123.87 175.832 119.394 172.169 115.445C168.094 111.053 164.575 107.26 162.668 103.012C162.173 101.909 162.164 100.682 162.644 99.5562C163.124 98.4263 164.022 97.5746 165.17 97.1581C172.727 94.4164 173.856 90.5104 173.856 88.426C173.856 86.3736 172.758 82.5215 165.405 79.7805C164.256 79.3521 163.36 78.4954 162.881 77.3684C162.407 76.2558 162.413 75.0389 162.895 73.9414C164.763 69.6911 168.143 66.12 172.055 61.9846C175.682 58.1526 179.792 53.8092 183.541 48.0143C185.516 44.9283 185.482 41.1139 183.454 38.06C181.41 34.983 177.867 33.4445 174.207 34.045C168.075 35.0513 162.213 36.6526 156.786 38.8042C155.396 39.3555 154.718 40.9231 155.272 42.306C155.827 43.6888 157.404 44.3627 158.793 43.8114C163.858 41.8032 169.341 40.3068 175.089 39.3634C176.636 39.1108 178.07 39.7336 178.932 41.0309C179.778 42.3049 179.792 43.8337 178.976 45.1087C175.504 50.4753 171.745 54.4478 168.109 58.2899C164.028 62.6028 160.174 66.6763 157.93 71.7819C156.845 74.2487 156.831 76.9781 157.89 79.4671C158.938 81.935 160.985 83.8889 163.504 84.8276C167.123 86.1767 168.437 87.7184 168.437 88.4256C168.437 89.153 167.072 90.73 163.313 92.0934C160.775 93.0145 158.712 94.9681 157.654 97.4535C156.597 99.9343 156.622 102.761 157.72 105.208C159.99 110.265 163.971 114.556 168.186 119.1C171.867 123.068 175.673 127.171 178.969 132.322C179.793 133.609 179.78 135.138 178.934 136.412C178.073 137.709 176.636 138.332 175.088 138.078C148.379 133.695 133.481 118.378 123.539 104.638C130.574 101.092 134.898 95.1988 134.898 88.7207C134.898 82.2422 130.574 76.3492 123.538 72.8029C128.805 65.5245 136.667 56.1685 147.9 49.2656C149.173 48.4833 149.568 46.8222 148.781 45.5558C147.994 44.2894 146.324 43.8976 145.051 44.6796C132.435 52.4332 123.888 62.9492 118.345 70.7609C114.389 69.5135 110.858 67.247 108.203 64.272C112.816 59.7838 114.204 52.7818 110.86 47.1158C102.414 32.4418 90.3512 23.8071 81.7183 19.1471C76.5354 16.3498 69.9907 17.5763 66.1548 22.062C60.0686 29.1784 51.9893 39.4227 47.3629 48.5343C39.3783 50.632 31.4243 53.7176 24.252 57.707C8.61262 66.4251 0 77.4396 0 88.7221C0 95.4295 2.99035 101.982 8.88795 108.196C9.91557 109.278 11.6308 109.327 12.7188 108.306C13.8071 107.284 13.8562 105.578 12.8293 104.495C7.91272 99.3147 5.41992 94.0078 5.41992 88.7221C5.41992 79.6102 13.2495 70.0199 26.9009 62.4108C29.191 61.1343 31.5934 59.9463 34.0689 58.853C43.5035 65.8968 49.0951 76.9519 49.0951 88.7221C49.0951 90.169 49.0037 91.6262 48.8339 93.0749C47.6689 93.2136 46.5362 93.2409 45.4392 93.15C42.8271 92.9333 40.4449 94.2335 39.2113 96.5396C37.9824 98.8371 38.243 101.63 39.8762 103.656C41.057 105.121 42.3632 106.533 43.7727 107.882C41.268 112.033 37.9521 115.691 34.0573 118.599C29.7973 116.71 25.7566 114.535 22.1108 112.124C20.8645 111.3 19.1829 111.636 18.3537 112.876C17.5248 114.115 17.8633 115.788 19.1096 116.613C28.7133 122.965 40.9013 127.783 52.8572 130.208C51.2891 142.77 54.4308 153.415 55.935 157.59C57.0371 160.647 59.3991 163.126 62.4147 164.39C65.4174 165.648 68.8406 165.602 71.8035 164.253C73.8883 163.304 75.9439 162.045 77.9425 160.505C78.4461 161.117 78.9603 161.717 79.485 162.304C81.7335 164.818 84.9667 166.29 88.3559 166.343C91.7307 166.397 95.0062 165.031 97.3226 162.598C101.145 158.587 104.16 153.06 106.041 146.616C107.356 142.114 106.539 137.338 103.801 133.513C101.036 129.644 96.6965 127.309 91.9367 127.102C97.9604 124.197 103.052 120.034 106.937 114.73C109.679 110.987 113.723 108.14 118.347 106.683C128.899 121.555 144.832 138.578 174.206 143.398C177.787 144.005 181.423 142.477 183.457 139.385C185.484 136.331 185.516 132.516 183.541 129.429ZM70.2823 25.5555C72.4676 23.0003 76.1896 22.2978 79.1323 23.8862C87.1473 28.2127 98.3419 36.2196 106.155 49.795C108.127 53.1516 107.42 57.2847 104.757 60.0077C96.5086 50.6201 84.0157 45.4915 69.1672 45.4915C64.5021 45.4915 59.5093 46.0007 54.4287 46.9484C59.2376 38.8872 66.1436 30.3952 70.2823 25.5555ZM43.9957 99.0718C44.1164 98.8457 44.404 98.4752 44.99 98.5219C51.1207 98.9453 56.4933 97.0895 62.1755 93.8278C64.3312 92.5653 66.9093 92.3572 69.2482 93.2574C71.5824 94.1555 73.3442 96.0304 74.0824 98.4012C75.5584 103.143 75.9714 107.704 75.2777 111.59C75.0142 113.066 74.1651 114.325 72.8864 115.135C71.6004 115.949 70.0854 116.183 68.6195 115.793C65.0994 115.502 49.3068 108.049 44.1048 100.285C43.6936 99.7747 43.8916 99.2666 43.9957 99.0718ZM69.5466 159.352C67.9413 160.083 66.1552 160.108 64.518 159.422C62.8729 158.733 61.6364 157.436 61.0363 155.771C59.6777 152.001 56.8524 142.431 58.2038 131.134C60.3797 131.445 62.5329 131.67 64.647 131.804C66.0443 140.147 69.6283 148.775 74.7003 156.185C73.0071 157.499 71.2806 158.562 69.5466 159.352ZM91.7914 132.494C94.8421 132.648 97.6099 134.159 99.3851 136.639C101.157 139.114 101.686 142.203 100.836 145.112C99.194 150.735 96.6188 155.499 93.3885 158.889C92.0924 160.25 90.3284 160.98 88.4408 160.953C86.5374 160.923 84.7943 160.13 83.5336 158.72C76.8494 151.242 71.9726 141.422 70.175 131.941C74.0296 131.88 77.7202 131.47 81.2136 130.726C84.3607 131.7 87.9115 132.297 91.7914 132.494ZM102.556 111.555C95.4676 121.232 83.6099 126.562 69.1676 126.562C59.3687 126.535 49.1666 124.351 39.784 120.917C42.9417 118.173 45.6936 114.973 47.9291 111.445C53.5756 115.788 60.3089 119.167 67.2222 121.002C70.1193 121.772 73.2531 121.294 75.798 119.681C78.3345 118.074 80.0902 115.468 80.6145 112.533C81.4589 107.803 80.9906 102.365 79.2598 96.8066C78.0292 92.8524 75.093 89.7262 71.2048 88.2301C67.3118 86.7323 63.0185 87.0791 59.4258 89.1828C57.707 90.1895 56.033 91.0038 54.4063 91.6334C54.4731 90.662 54.5154 89.6899 54.5154 88.7221C54.5154 76.3183 49.09 64.6095 39.8028 56.5405C49.5905 52.9532 60.0545 50.8825 69.1683 50.8825C83.6157 50.8861 95.443 56.2012 102.557 65.89C106.044 70.6502 111.193 74.2454 117.055 76.0121C124.601 78.287 129.478 83.2762 129.478 88.7225C129.478 94.1688 124.601 99.158 117.054 101.433C111.192 103.2 106.043 106.795 102.556 111.555Z" fill="black"/>
</g>
<defs>
<clipPath id="clip0_2_43248">
<rect width="185" height="184" fill="white"/>
</clipPath>
</defs>
</svg>
