<svg width="186" height="185" viewBox="0 0 186 185" fill="none" xmlns="http://www.w3.org/2000/svg">
<path d="M112.66 112.525L95.9759 95.9303L62.9941 128.735H78.3597C84.123 128.735 89.6502 126.457 93.7257 122.404L97.2942 118.855C101.369 114.802 106.897 112.525 112.66 112.525Z" fill="#FF985F"/>
<path d="M67.8646 96.3514L38.4256 113.651C31.285 117.848 34.2769 128.734 42.5707 128.735H62.9941C68.7574 128.735 74.2845 126.457 78.3597 122.404L81.9282 118.855C86.0034 114.802 91.5305 112.525 97.2938 112.524L67.8646 96.3514Z" fill="#FFB464"/>
<path d="M26.2667 73.6939C25.5927 73.3779 24.9292 73.0339 24.278 72.66L18.7599 69.4911C15.4565 67.5941 11.7091 66.5956 7.89466 66.5956C0.977496 82.0756 0.977496 99.7458 7.89466 115.226C11.7091 115.226 15.4565 114.228 18.7599 112.33L24.278 109.161C24.9292 108.788 25.593 108.444 26.2667 108.127V73.6939Z" fill="#FF7C59"/>
<path d="M47.8617 107.443V74.3779C40.8369 77.1146 33.0277 76.8638 26.2667 73.6935C24.0704 75.2154 21.938 76.8415 19.8833 78.5753C16.2388 81.6509 14.1483 86.1465 14.1483 90.9102C14.1483 95.6738 16.2384 100.169 19.8837 103.245C21.9387 104.979 24.0708 106.605 26.267 108.127C33.0277 104.957 40.8369 104.707 47.8617 107.443Z" fill="#FF6053"/>
<path d="M160.137 125.087L149.097 114.107C148.036 113.052 146.646 112.525 145.256 112.525L145.608 137.298C150.282 137.238 154.944 135.989 159.093 133.543C162.132 131.751 162.635 127.572 160.137 125.087Z" fill="#A8CAE0"/>
<path d="M145.255 112.524C143.865 112.524 142.475 113.052 141.414 114.107L130.374 125.087C127.859 127.589 128.404 131.774 131.468 133.572C135.812 136.12 140.717 137.363 145.607 137.3C149.135 137.255 151.656 133.876 150.737 130.488L146.292 114.107C146.006 113.052 145.631 112.524 145.255 112.524Z" fill="#B9DFF0"/>
<path d="M156.121 74.1178V69.2973C150.357 69.2973 144.83 67.0203 140.755 62.9666L137.187 59.4173C133.111 55.364 127.584 53.087 121.821 53.087H106.455V74.1182L156.121 74.1178Z" fill="#87A1C1"/>
<path d="M125.389 62.9666L121.821 59.4173C117.745 55.364 112.218 53.087 106.455 53.0867H42.5708C34.277 53.0867 31.2847 63.9738 38.4257 68.1701L67.8646 85.47L140.756 69.2973C134.993 69.2969 129.464 67.0199 125.389 62.9666Z" fill="#98B6D1"/>
<path d="M74.9067 69.2969C57.263 69.2969 40.2672 75.5475 26.9124 86.8165C24.3801 88.953 24.3801 92.868 26.9124 95.0048C40.2672 106.273 57.263 112.524 74.9067 112.524H86.4285V69.2972H74.9067V69.2969Z" fill="#FF7C59"/>
<path d="M118.093 69.2961L86.4286 69.2972C74.4272 69.2972 64.6981 78.974 64.6981 90.9108C64.6981 102.848 74.4272 112.524 86.4286 112.524H134.39L139.138 85.5074C136.726 76.1851 128.218 69.2969 118.093 69.2961Z" fill="#636DA4"/>
<path d="M139.823 90.9106C139.823 89.045 139.585 87.2341 139.138 85.5072H128.958C128.958 82.523 126.525 80.1038 123.525 80.1038C120.525 80.1038 118.092 82.523 118.092 85.5072V96.314C118.092 105.267 125.389 112.524 134.39 112.524H145.255L139.823 90.9106Z" fill="#87A1C1"/>
<path d="M181.521 103.137C179.258 101.073 177.851 98.2462 177.851 95.1918V85.5071L161.553 69.2969C161.553 69.2969 139.8 69.2969 118.093 69.2969C124.093 69.2972 128.957 74.1354 128.957 80.1037V96.3139C128.957 105.267 136.254 112.524 145.255 112.524H177.697C180.623 112.524 183.14 110.288 183.277 107.382C183.357 105.701 182.664 104.179 181.521 103.137Z" fill="#7587B3"/>
<path d="M161.553 101.718C170.554 101.718 177.851 94.4601 177.851 85.5075C177.851 76.5548 170.554 69.2972 161.553 69.2972C152.552 69.2972 145.255 76.5548 145.255 85.5075C145.255 94.4601 152.552 101.718 161.553 101.718Z" fill="#636DA4"/>
<path d="M161.553 90.9108C164.554 90.9108 166.986 88.4916 166.986 85.5074C166.986 82.5232 164.554 80.104 161.553 80.104C158.553 80.104 156.121 82.5232 156.121 85.5074C156.121 88.4916 158.553 90.9108 161.553 90.9108Z" fill="#3E4466"/>
<path d="M183.357 101.146C181.558 99.5052 180.567 97.3906 180.567 95.1918V85.5071C180.567 76.0544 173.559 68.1996 164.439 66.8128C165.666 57.5553 173.646 50.385 183.284 50.385C184.784 50.385 186 49.1753 186 47.6833C186 46.1912 184.784 44.9816 183.284 44.9816C170.722 44.9816 160.348 54.4548 158.992 66.5952H156.121C151.042 66.5952 146.267 64.628 142.676 61.056L139.107 57.5067C134.49 52.9141 128.351 50.3846 121.821 50.3846H106.455C104.955 50.3846 103.739 51.5943 103.739 53.0863C103.739 54.5784 104.955 55.788 106.455 55.788H121.821C126.899 55.788 131.675 57.7552 135.266 61.3272L138.834 64.8765C139.448 65.4871 140.09 66.0584 140.755 66.5952H74.9067C65.952 66.5952 57.1276 68.1593 48.8189 71.1395L39.8073 65.8438C37.1747 64.2969 36.8016 61.6903 37.3301 59.7671C37.8588 57.8435 39.5129 55.7884 42.5707 55.7884H95.5898C97.0903 55.7884 98.3061 54.5787 98.3061 53.0867C98.3061 51.5946 97.0903 50.385 95.5898 50.385H42.5707C37.61 50.385 33.3979 53.5827 32.0901 58.3424C30.7823 63.1017 32.7728 67.986 37.0439 70.4957L41.7395 73.2551C36.22 74.1437 30.561 73.1477 25.6362 70.3199L20.1181 67.151C16.4069 65.0196 12.1799 63.8935 7.8947 63.8935C6.82122 63.8935 5.84878 64.5224 5.41236 65.4979C-1.80396 81.648 -1.80396 100.173 5.41236 116.323C5.84842 117.299 6.82122 117.928 7.8947 117.928C12.1799 117.928 16.4069 116.801 20.1181 114.67L25.6362 111.501C30.5614 108.673 36.2207 107.678 41.7395 108.566L37.0439 111.326C32.7728 113.835 30.7823 118.72 32.0901 123.479C33.3979 128.239 37.61 131.436 42.5707 131.436H52.1289C53.6293 131.436 54.8452 130.227 54.8452 128.735C54.8452 127.243 53.6293 126.033 52.1289 126.033H42.5707C39.5132 126.033 37.8588 123.978 37.3301 122.054C36.8016 120.131 37.1747 117.524 39.8073 115.978L48.8189 110.682C57.1276 113.662 65.952 115.226 74.9067 115.226H97.2945C96.6296 115.763 95.9867 116.334 95.3728 116.945L91.8043 120.494C88.2134 124.066 83.4381 126.033 78.3593 126.033H62.9937C61.4932 126.033 60.2774 127.243 60.2774 128.735C60.2774 130.227 61.4932 131.437 62.9937 131.437H78.3593C84.8893 131.437 91.0285 128.908 95.6459 124.315L99.2144 120.765C102.805 117.193 107.581 115.226 112.659 115.226H136.447L128.453 123.177C126.657 124.963 125.809 127.426 126.126 129.934C126.442 132.426 127.866 134.589 130.033 135.867C134.727 138.634 139.991 140.018 145.254 140.018C150.518 140.018 155.782 138.634 160.477 135.867C162.644 134.589 164.067 132.426 164.383 129.933C164.7 127.425 163.852 124.963 162.056 123.177L154.062 115.226H177.696C182.142 115.226 185.785 111.836 185.989 107.509C186.105 105.096 185.145 102.777 183.357 101.146ZM175.135 85.5071C175.135 92.9559 169.042 99.0156 161.553 99.0156C154.064 99.0156 147.972 92.9559 147.972 85.5071C147.972 78.0583 154.064 71.9986 161.553 71.9986C169.042 71.9986 175.135 78.0587 175.135 85.5071ZM22.9195 106.822L17.4014 109.99C15.0248 111.355 12.377 112.19 9.6556 112.442C4.02415 98.659 4.02379 83.1613 9.6556 69.3783C12.377 69.6308 15.0248 70.4658 17.4014 71.8304L22.9195 74.9993C26.2218 76.8959 29.7932 78.1181 33.4566 78.6588C30.5679 80.496 27.7929 82.5306 25.1556 84.756C23.3389 86.2884 22.2969 88.5316 22.2969 90.9102C22.2969 93.2887 23.3385 95.5319 25.1552 97.0646C27.7929 99.2901 30.5679 101.325 33.457 103.162C29.7936 103.703 26.2222 104.926 22.9195 106.822ZM74.9067 109.822C57.9892 109.822 41.5686 103.828 28.6697 92.9447C27.8516 92.2542 27.7295 91.3741 27.7295 90.9105C27.7295 90.4473 27.8516 89.5669 28.6697 88.8767C41.5686 77.9928 57.9892 71.9986 74.9067 71.9986H118.092C121.763 71.9986 124.874 74.4258 125.89 77.7514C125.141 77.5248 124.347 77.402 123.525 77.402C119.031 77.402 115.376 81.0378 115.376 85.5071V96.3139C115.376 101.602 117.572 106.387 121.101 109.822H74.9067ZM120.809 96.3139V85.5071C120.809 84.0172 122.027 82.8054 123.525 82.8054C125.023 82.8054 126.241 84.0172 126.241 85.5071V96.3139C126.241 101.466 128.325 106.141 131.696 109.554C125.493 108.308 120.809 102.846 120.809 96.3139ZM147.176 116.017L158.215 126.998C158.816 127.595 159.099 128.419 158.993 129.259C158.889 130.084 158.42 130.798 157.707 131.218C150.026 135.747 140.483 135.746 132.803 131.218C132.09 130.798 131.621 130.084 131.516 129.259C131.41 128.419 131.693 127.595 132.294 126.997L143.334 116.017C143.847 115.507 144.529 115.226 145.254 115.226C145.98 115.226 146.663 115.507 147.176 116.017ZM177.698 109.822H145.255C137.766 109.822 131.674 103.763 131.674 96.3139V80.1037C131.674 77.0648 130.659 74.2579 128.95 71.9986H148.264C144.735 75.4341 142.539 80.2193 142.539 85.5071C142.539 95.9353 151.069 104.419 161.553 104.419C167.078 104.419 172.058 102.061 175.535 98.3067C176.187 100.857 177.619 103.244 179.685 105.128C180.281 105.672 180.602 106.447 180.564 107.255C180.497 108.671 179.211 109.822 177.698 109.822Z" fill="black"/>
<path d="M153.404 85.5071C153.404 89.9764 157.06 93.6122 161.553 93.6122C166.046 93.6122 169.702 89.9764 169.702 85.5071C169.702 81.0377 166.046 77.402 161.553 77.402C157.06 77.402 153.404 81.0381 153.404 85.5071ZM164.27 85.5071C164.27 86.997 163.051 88.2088 161.553 88.2088C160.055 88.2088 158.837 86.997 158.837 85.5071C158.837 84.0172 160.055 82.8054 161.553 82.8054C163.051 82.8054 164.27 84.0172 164.27 85.5071Z" fill="black"/>
</svg>
