<svg width="184" height="185" viewBox="0 0 184 185" fill="none" xmlns="http://www.w3.org/2000/svg">
<g clip-path="url(#clip0_2_43952)">
<path d="M73.6773 113.459L77.4234 135.96C78.172 140.457 74.8959 144.646 70.3692 144.925C63.7107 145.335 58.2529 144.334 54.3601 143.171C50.5076 142.02 48.1731 138.1 49.0195 134.149L54.262 109.677L73.6773 113.459Z" fill="#C5CFF1"/>
<path d="M131.082 126.469C127.24 129.16 122.996 131.502 118.723 133.471C105.259 134.258 99.1225 119.289 104.657 105.822C105.634 103.444 107.094 100.287 107.094 100.287L115.395 98.3284L131.438 110.538C136.749 114.581 136.548 122.639 131.082 126.469Z" fill="#E8ECF9"/>
<path d="M118.723 133.471C114.475 135.426 110.202 137.016 106.271 138.208C101.229 139.74 95.8957 136.94 94.2139 131.925L85.3445 105.421L107.094 100.287C107.946 102.054 108.028 104.131 107.051 106.509C101.516 119.976 109.2 130.707 118.723 133.471Z" fill="#C5CFF1"/>
<path d="M125.522 66.2028L107.87 85.0894L102.073 82C89.7036 63.2283 95.39 43.6256 107.511 43.0164C113.559 45.0073 118.694 47.3451 122.795 49.5311C128.947 52.812 130.291 61.0972 125.522 66.2028Z" fill="#E8ECF9"/>
<path d="M102.073 82L76.8308 68.5405L85.0533 46.8427C86.9005 41.9793 91.9821 39.1392 97.0492 40.2051C100.787 40.9928 104.28 41.954 107.511 43.0163C99.3708 46.9222 94.0844 63.8288 102.073 82Z" fill="#C5CFF1"/>
<path d="M175.289 119.733C174.401 119.686 173.539 119.368 172.762 118.884L153.338 106.722C151.498 105.573 149.543 104.691 147.52 104.102C145.493 103.513 143.401 103.21 141.292 103.21C135.484 103.21 129.849 105.472 125.44 109.667C117.066 117.627 103.687 122.87 89.7035 125.403C49.478 117.435 51.42 61.8757 73.1004 53.4658C92.212 54.0439 113.512 60.1648 125.239 71.3805C129.386 75.3479 134.629 77.6242 140.106 77.6242C144.249 77.7507 148.375 76.6884 151.987 74.4084L171.907 61.939C172.575 61.5198 173.305 61.2235 174.063 61.1332C179.396 60.5009 182.882 68.2983 178.307 72.562L172.428 78.0434C165.812 84.2112 165.762 95.4955 172.32 101.739L179.231 108.315C183.641 112.514 180.399 119.994 175.289 119.733Z" fill="#91D4F2"/>
<path d="M89.7036 125.403C83.1558 126.592 76.4786 127.184 70.1177 127.184C53.7302 127.184 41.1089 123.405 31.4346 117.963C35.3697 108.214 42.2266 98.3212 42.2266 84.5474C42.2266 74.983 39.7793 63.4169 39.215 58.9834C48.6666 55.7387 59.225 53.4189 70.1177 53.4189C71.106 53.4189 72.0979 53.4334 73.1005 53.4659C58.9591 68.1033 54.4418 104.735 89.7036 125.403Z" fill="#59C2E8"/>
<path d="M79.1055 89.924L75.519 95.745C73.9808 98.2453 71.7132 100.038 69.1473 100.999C57.289 100.287 53.628 89.4344 60.0515 86.4408L74.4444 83.2936C78.2251 82.4661 81.1432 86.6142 79.1055 89.924Z" fill="#59C2E8"/>
<path d="M69.1474 100.999C66.01 102.18 62.4342 102.111 59.207 100.565L39.2366 90.9934L60.0516 86.4407C57.0795 90.0756 59.1244 98.2019 69.1474 100.999Z" fill="#00AEDE"/>
<path d="M47.6783 84.5474C47.6783 98.3212 41.0227 110.812 31.4345 117.963C14.605 108.507 6.68078 94.0322 3.32781 85.7C1.84718 82.0325 3.04031 77.7183 6.13093 75.6298C12.5027 71.33 24.513 64.0348 39.215 58.9834C44.293 65.8595 47.6783 74.983 47.6783 84.5474Z" fill="#6B7D8E"/>
<path d="M34.8542 82.5433V78.207C34.8542 76.7104 33.6475 75.4971 32.1589 75.4971C30.6704 75.4971 29.4636 76.7104 29.4636 78.207V82.5433C29.4636 84.04 30.6704 85.2533 32.1589 85.2533C33.6475 85.2537 34.8542 84.0403 34.8542 82.5433Z" fill="black"/>
<path d="M181.082 106.349L174.171 99.7715C171.582 97.3072 170.108 93.6979 170.127 89.8689C170.147 86.0475 171.653 82.4621 174.258 80.0318L180.139 74.5486C183.167 71.7245 183.979 67.407 182.207 63.5487C180.105 58.8384 174.694 56.906 170.482 59.6362L150.553 72.1118C147.451 74.0825 143.787 74.9717 140.101 74.9132C135.22 74.8669 130.365 72.7185 126.618 68.9802C129.957 65.816 131.708 61.3117 130.905 56.7171C130.223 52.5867 127.725 49.0941 124.052 47.1354C123.477 46.8282 122.874 46.5179 122.259 46.2064C120.93 45.5332 119.309 46.0702 118.639 47.4067C117.969 48.7433 118.504 50.3729 119.833 51.0467C120.413 51.3409 120.982 51.6335 121.526 51.9237C123.702 53.0843 125.183 55.155 125.587 57.6049C125.994 60.0687 125.252 62.5254 123.552 64.3451L122.429 65.5461C116.762 61.414 109.568 57.9441 101.275 55.382C96.4253 53.8835 91.2514 52.7201 86.0038 51.9284L87.5664 47.8064C88.955 44.1425 92.7076 42.0594 96.4922 42.8558C100.553 43.7096 104.614 44.8478 108.562 46.2382C109.968 46.7336 111.505 45.9892 111.997 44.5768C112.489 43.1644 111.749 41.6179 110.345 41.1229C106.176 39.6544 101.887 38.4523 97.5958 37.5504C91.2043 36.2077 84.8668 39.7079 82.529 45.8761L80.4957 51.2401C77.0033 50.8903 73.5166 50.7064 70.109 50.7064C48.7877 49.6972 17.4746 63.8887 4.61761 73.3808C0.506004 76.1565 -1.12843 81.8901 0.815785 86.7178C2.36685 90.5685 4.30747 94.3393 6.5834 97.9251C7.38408 99.1865 9.05086 99.5572 10.3058 98.7518C11.5607 97.9464 11.9287 96.2709 11.1281 95.0092C9.02858 91.7016 7.24033 88.2274 5.81289 84.6831C4.80557 82.182 5.58361 79.2574 7.62307 77.8811C13.322 74.0344 24.4857 67.1891 38.2691 62.2017C43.4057 69.7411 45.7736 79.5805 44.7418 88.9266C43.7111 98.9321 38.9282 108.451 31.1341 114.684C26.5212 111.897 22.324 108.523 18.5624 104.559C17.535 103.476 15.8287 103.435 14.7516 104.469C13.6746 105.502 13.6343 107.217 14.6621 108.3C20.7356 114.701 27.9745 119.766 36.1779 123.354C39.831 124.952 43.6871 126.257 47.7279 127.272L46.3763 133.582C45.2432 138.872 48.4093 144.226 53.5846 145.773C58.9274 147.381 64.8043 147.998 70.5274 147.633C73.4336 147.454 76.1429 146.034 77.9607 143.736C79.7895 141.424 80.56 138.428 80.0752 135.516L79.0754 129.51C82.6203 129.214 86.3237 128.741 90.0738 128.067L91.6546 132.791C93.7994 139.309 100.757 142.769 107.045 140.806C112.509 139.148 123.097 135.369 132.62 128.696C135.956 126.358 137.915 122.68 137.995 118.603C138.097 114.32 136.022 110.41 132.532 107.977C135.263 106.637 138.243 105.922 141.288 105.922C144.996 105.922 148.668 106.995 151.91 109.024L171.337 121.185C175.651 123.998 181.191 121.89 183.201 117.029C184.795 113.284 183.963 109.092 181.082 106.349ZM141.288 100.503C136.865 100.503 132.557 101.677 128.72 103.872C112.286 108.291 86.3995 112.453 70.4274 111.517C60.9421 110.961 52.1187 109.69 44.137 107.735C45.8656 104.808 47.2596 101.654 48.2874 98.3399L58.0391 103.013C60.1813 104.039 62.4475 104.529 64.6835 104.529C69.8772 104.529 74.9031 101.884 77.8043 97.1721L80.366 93.0121H164.977C165.398 95.717 166.371 98.2749 167.817 100.503H141.288ZM128.644 77.2579C132.57 79.4905 136.919 80.4935 141.326 80.3338H167.239C165.995 82.5303 165.186 85.0018 164.879 87.5918H82.4654C82.4647 86.1639 82.0277 84.741 81.1508 83.494C79.4819 81.1197 76.6906 80.0289 73.8638 80.6468L50.347 85.7899C50.4843 80.8643 49.8123 75.9173 48.4294 71.2815C55.8663 69.6324 63.0286 68.6442 69.7558 68.3468C86.0153 67.6288 112.915 71.7039 128.644 77.2579ZM49.8561 91.444L75.0098 85.9427C75.9963 85.7263 76.5548 86.346 76.7488 86.622C76.9429 86.8981 77.3371 87.6337 76.8056 88.4966L73.2209 94.3187C70.5202 98.7048 64.9905 100.34 60.3581 98.1195L49.6035 92.9659C49.6955 92.4611 49.7806 91.9541 49.8561 91.444ZM173.331 64.2381C174.901 63.1137 176.729 64.37 177.313 65.8215C177.93 67.1649 178.034 69.1197 176.473 70.5747L171.82 74.9136H156.278L173.331 64.2381ZM70.1094 56.127C85.96 55.9843 105.031 60.6353 116.726 68.2232C101.205 64.5803 82.4615 62.3581 69.5197 62.9319C62.2671 63.2524 54.5524 64.3346 46.5578 66.147C45.6949 64.1633 44.6955 62.249 43.5581 60.4279C51.8391 57.8697 60.8691 56.127 70.1094 56.127ZM40.8706 112.497C49.6886 114.817 59.5154 116.307 70.1137 116.928C85.0353 117.623 102.279 115.136 118.282 111.902C105.871 120.361 86.213 124.586 70.109 124.477C58.0434 124.453 46.7137 122.466 36.229 117.446C37.9112 115.93 39.4619 114.274 40.8706 112.497ZM74.7576 136.411C74.9904 137.81 74.6199 139.251 73.7405 140.362C72.8597 141.476 71.6008 142.137 70.1964 142.224C64.9351 142.547 59.8622 141.993 55.1188 140.577C52.6272 139.833 51.1013 137.262 51.6451 134.723L52.9981 128.407C58.4157 129.395 64.128 129.898 70.1087 129.898C71.2601 129.898 72.4475 129.876 73.6622 129.833L74.7576 136.411ZM129.806 112.701C131.629 114.089 132.649 116.201 132.604 118.497C132.559 120.818 131.441 122.916 129.537 124.25C120.626 130.494 110.644 134.052 105.487 135.617C101.822 136.73 97.9904 134.729 96.7635 131.062L95.3954 126.975C107.6 124.166 119.527 119.195 127.798 111.173L129.806 112.701ZM178.244 114.897C177.702 116.372 175.798 117.767 174.186 116.584L157.155 105.923H172.793L177.376 110.286C178.861 111.7 178.798 113.595 178.244 114.897Z" fill="black"/>
</g>
<defs>
<clipPath id="clip0_2_43952">
<rect width="184" height="185" fill="white"/>
</clipPath>
</defs>
</svg>
