<svg width="185" height="185" viewBox="0 0 185 185" fill="none" xmlns="http://www.w3.org/2000/svg">
<path d="M78.852 146.416C77.4645 146.752 76.0011 146.94 74.4944 146.991C59.922 143.158 53.3556 125.405 62.1695 116.986L64.3302 117.214C82.5556 118.323 75.0183 137.134 79.712 144.27C80.2503 145.087 79.8023 146.189 78.852 146.416Z" fill="#FF9A5C"/>
<path d="M74.494 146.991C61.3453 147.432 44.9663 137.043 47.127 115.393L62.1691 116.986C58.3499 130.98 65.0706 141.347 74.494 146.991Z" fill="#FF7E27"/>
<path d="M126.645 44.0373C116.506 47.4518 115.599 49.8908 122.822 51.1446C126.11 51.7155 127.024 56.0044 124.26 57.8725C118.099 62.035 113.528 65.6519 106.208 68.1812C90.5715 62.6348 90.8255 45.5884 104.799 40.1963C111.418 38.863 118.45 38.0826 125.626 37.9958C129.149 37.9561 129.983 42.9099 126.645 44.0373Z" fill="#FF9A5C"/>
<path d="M106.208 68.1812C100.784 70.0564 93.8506 71.3355 83.6467 71.798L62.2163 66.295C65.3562 55.1264 82.812 44.6262 104.799 40.1963C95.491 47.8059 98.378 59.9682 106.208 68.1812Z" fill="#FF7E27"/>
<path d="M149.138 48.0841L152.014 44.1384C155.479 39.3761 162.728 39.7916 165.608 44.9261C171.569 44.6876 175.844 51.3397 173.253 56.662C176.379 57.8436 178.604 60.8643 178.604 64.4089C178.604 66.407 177.896 68.239 176.715 69.6698C179.475 71.014 181.376 73.8432 181.376 77.1168C181.376 80.0508 179.851 82.6235 177.553 84.0941C180.353 85.4237 182.29 88.2746 182.29 91.5808C182.29 94.8869 180.353 97.7378 177.553 99.0675C179.851 100.538 181.376 103.111 181.376 106.045C181.376 109.318 179.475 112.148 176.715 113.492C177.896 114.923 178.604 116.755 178.604 118.753C178.604 122.297 176.379 125.318 173.253 126.5C175.84 131.811 171.584 138.459 165.629 138.235C162.757 143.37 155.501 143.785 152.04 139.023L149.163 135.074L149.138 48.0841Z" fill="#E8ECF9"/>
<path d="M166.066 104.083C166.066 106.912 164.426 109.358 162.041 110.518C163.06 111.758 163.674 113.34 163.674 115.071C163.674 118.132 161.752 120.74 159.046 121.767C161.282 126.355 157.604 132.1 152.458 131.909C151.739 133.195 150.413 134.424 149.163 135.074L117.464 91.5627L149.138 48.0837C150.388 48.7341 151.714 49.9626 152.437 51.2526C157.589 51.0466 161.289 56.799 159.046 61.3987C161.752 62.4212 163.674 65.03 163.674 68.0941C163.674 69.8212 163.06 71.4039 162.041 72.6432C164.426 73.8031 166.066 76.2493 166.066 79.0785C166.066 81.615 164.751 83.8372 162.764 85.109C165.184 86.2581 166.857 88.7223 166.857 91.5804C166.857 94.4385 165.184 96.9028 162.764 98.0518C164.751 99.3244 166.066 101.55 166.066 104.083Z" fill="#FF9A5C"/>
<path d="M139.327 100.127C137.987 103.375 134.352 104.976 131.013 103.874C130.016 103.545 128.997 103.295 127.964 103.129C126.934 102.963 125.886 102.88 124.834 102.88C119.718 102.88 114.753 104.86 110.869 108.535C103.364 115.631 91.2924 120.263 78.7395 122.439C56.3975 113.007 55.1357 67.7624 72.2211 59.8129C86.8947 61.4533 101.868 66.5914 110.688 74.9814C114.345 78.4574 118.967 80.4519 123.79 80.4519C126.045 80.5206 128.292 80.1918 130.428 79.4619C133.387 78.4502 136.675 79.5305 138.316 82.1899C141.416 86.1215 141.618 95.6714 139.327 100.127Z" fill="#8697A6"/>
<path d="M78.7402 122.439C73.1758 123.403 67.5174 123.887 62.1191 123.887C47.0445 123.887 35.5904 120.278 26.9258 115.172C34.8121 106.939 43.6376 98.9631 43.6376 85.0194C43.6376 76.427 39.8003 67.8007 39.5795 62.6351C46.6507 60.59 54.2855 59.2386 62.1191 59.2386C65.4181 59.2386 68.8109 59.4302 72.2219 59.8132C60.7024 75.5848 63.5677 106.063 78.7402 122.439Z" fill="#6B7D8E"/>
<path d="M49.0132 85.0194C49.0132 98.9631 39.5428 111.122 26.9252 115.172C12.8551 106.883 6.14888 94.6488 3.26548 87.5306C1.9647 84.3184 3.01255 80.5353 5.73696 78.707C12.0168 74.4903 24.508 66.9964 39.579 62.6351C45.2012 68.3004 49.0132 76.4267 49.0132 85.0194Z" fill="#C5CFF1"/>
<path d="M30.1401 85.9712C31.6368 85.9712 32.8501 84.7579 32.8501 83.2612V78.9257C32.8501 77.429 31.6368 76.2157 30.1401 76.2157C28.6435 76.2157 27.4302 77.429 27.4302 78.9257V83.2612C27.4305 84.7582 28.6435 85.9712 30.1401 85.9712Z" fill="black"/>
<path d="M184.084 106.048C184.084 103.571 183.263 101.226 181.797 99.3324C183.807 97.3024 185 94.5234 185 91.5869C185 88.6504 183.807 85.8714 181.797 83.8415C183.263 81.9478 184.084 79.602 184.084 77.1255C184.084 73.8959 182.709 70.9284 180.367 68.8767C180.987 67.4809 181.314 65.9601 181.314 64.4158C181.314 60.7638 179.468 57.3771 176.536 55.3548C177.088 52.6181 176.524 49.7123 174.888 47.2086C173.059 44.4098 170.223 42.6425 167.096 42.2862C165.209 39.8382 162.355 38.3131 159.202 38.1266C155.507 37.9102 152.001 39.5629 149.828 42.5507L124.182 77.7542C119.983 77.8341 115.876 76.1774 112.563 73.0248C111.477 71.9921 110.288 70.9992 109.015 70.0449C115.603 67.4625 120.239 63.872 125.782 60.1275C127.964 58.6533 129.017 56.0359 128.465 53.4592C127.893 50.7229 125.617 48.7406 122.865 48.4057C123.901 47.9291 125.389 47.3307 127.516 46.6142C130.284 45.6816 131.874 43.0161 131.384 40.132C130.894 37.2511 128.517 35.2638 125.597 35.2978C114.75 35.4261 103.704 37.1373 93.6524 40.2469C92.2227 40.6892 91.4223 42.2067 91.8646 43.6365C92.3072 45.0659 93.8241 45.8656 95.2542 45.4244C104.814 42.4665 115.328 40.8388 125.661 40.717C126.08 40.6035 126.206 41.4534 125.785 41.4783C119.186 43.7019 115.148 45.7622 115.409 49.158C115.678 52.6621 120.364 53.4751 122.365 53.8227C123.325 54.1158 123.507 54.9754 122.748 55.637C116.274 60.013 111.369 63.9464 103.206 66.3019C94.6829 61.5671 83.7416 58.2974 72.178 57.0747C75.2872 54.476 79.2214 52.0226 83.8164 49.8405C85.1681 49.1984 85.7437 47.5819 85.1016 46.2301C84.4599 44.8788 82.8444 44.3032 81.4912 44.9449C74.4504 48.289 68.7389 52.2939 64.8694 56.5829C63.9567 56.5565 63.0429 56.5385 62.128 56.5385C43.4802 55.4541 14.3015 68.824 4.23927 76.4646C0.426172 79.0246 -1.03468 84.1096 0.765821 88.5554C3.61742 95.5962 10.4953 108.381 25.0304 117.173C30.5703 120.518 36.9178 123.159 44.6787 124.84C46.0746 133.503 50.7733 140.681 58.0634 145.198C62.8333 148.154 68.4422 149.704 73.7501 149.704C76.6704 149.704 79.5007 149.234 82.0477 148.27C82.9745 147.919 83.6361 147.091 83.7727 146.109C83.9089 145.127 83.4988 144.149 82.7028 143.559C80.9272 142.243 80.6793 138.447 80.417 134.429C80.2212 131.431 80.0025 128.148 79.0938 125.109C91.3717 122.999 104.303 118.483 112.735 110.51C115.962 107.458 120.067 105.731 124.341 105.606L132.882 117.329C133.768 118.546 135.47 118.799 136.667 117.923C137.877 117.042 138.143 115.347 137.262 114.138L131.957 106.856C136.058 107.37 140.137 105.144 141.791 101.269C144.409 96.0439 144.341 85.629 140.542 80.6437C138.646 77.6791 135.298 76.1131 131.86 76.4177L149.664 51.9792C150.292 53.0491 151.183 54.076 152.548 53.9701C153.99 53.9123 155.368 54.6675 156.233 55.9907C157.108 57.3298 157.25 58.9106 156.612 60.219C156.279 60.9037 156.249 61.6975 156.53 62.4057C156.811 63.1136 157.377 63.6707 158.09 63.9403C159.809 64.5907 160.965 66.2625 160.965 68.1006C160.965 69.1452 160.614 70.1222 159.951 70.9262C159.424 71.5668 159.218 72.4138 159.394 73.2253C159.571 74.0365 160.109 74.7223 160.855 75.0858C162.399 75.8384 163.358 77.3716 163.358 79.0868C163.358 80.6098 162.59 82.0107 161.302 82.8352C160.473 83.3664 159.997 84.3062 160.059 85.289C160.122 86.2722 160.713 87.1437 161.603 87.5657C163.15 88.2988 164.15 89.8775 164.15 91.5873C164.15 93.2971 163.15 94.8754 161.603 95.6089C160.713 96.0309 160.122 96.9028 160.06 97.886C159.997 98.8691 160.473 99.8086 161.303 100.34C162.59 101.164 163.359 102.565 163.359 104.088C163.359 105.803 162.399 107.336 160.855 108.089C160.109 108.453 159.571 109.138 159.395 109.95C159.218 110.761 159.424 111.608 159.952 112.249C160.614 113.052 160.965 114.029 160.965 115.074C160.965 116.912 159.809 118.584 158.09 119.235C157.378 119.505 156.812 120.062 156.53 120.77C156.249 121.478 156.279 122.271 156.613 122.956C157.249 124.262 157.109 125.841 156.237 127.179C155.376 128.501 154.001 129.258 152.562 129.206C151.194 129.107 150.315 130.125 149.688 131.194L144.708 124.359C143.827 123.15 142.133 122.883 140.923 123.765C139.713 124.646 139.447 126.341 140.328 127.55L149.851 140.622C152.019 143.616 155.564 145.273 159.23 145.048C162.384 144.861 165.237 143.335 167.123 140.885C170.245 140.521 173.075 138.75 174.897 135.953C176.526 133.453 177.087 130.552 176.536 127.821C179.469 125.799 181.314 122.412 181.314 118.76C181.314 117.215 180.986 115.694 180.367 114.299C182.709 112.246 184.084 109.278 184.084 106.048ZM5.789 86.52C4.97313 84.5053 5.61918 82.0645 7.26033 80.9632C12.8895 77.1837 24.5893 70.093 38.7996 65.722C43.6558 71.0028 46.3141 77.7968 46.3141 85.0256C46.3141 97.1586 38.4711 108.082 27.0922 112.025C14.3778 104.041 8.32589 92.7847 5.789 86.52ZM75.0086 134.782C75.2222 138.049 75.4401 141.388 76.5815 144.102C71.5529 144.832 65.7431 143.58 60.9176 140.59C55.5255 137.249 51.8811 132.086 50.4058 125.834C54.0603 126.329 57.9594 126.602 62.1276 126.602C65.6683 126.602 69.579 126.378 73.6529 125.897C74.5953 128.477 74.8056 131.672 75.0086 134.782ZM136.012 83.62C136.067 83.7089 136.127 83.7945 136.192 83.8765C138.439 86.7249 138.848 95.1442 136.92 98.8908C136.886 98.9584 136.854 99.0274 136.825 99.0975C136.043 100.994 133.864 101.964 131.866 101.306C129.923 100.666 127.92 100.297 125.897 100.201C125.534 100.184 125.187 100.174 124.839 100.174C118.995 100.174 113.374 102.446 109.01 106.572C98.3363 116.665 77.7721 121.182 62.1269 121.182C50.275 121.182 40.7605 118.845 33.1462 115.312C37.7029 112.983 41.744 109.631 44.8504 105.532C49.3533 99.59 51.733 92.4993 51.733 85.0256C51.733 77.3477 49.2127 70.0821 44.5628 64.1419C50.1879 62.7959 56.1076 61.9566 62.1273 61.9566C80.632 61.9566 99.399 67.9825 108.827 76.9506C113.032 80.9502 118.331 83.1575 123.753 83.1687C126.344 83.2417 128.886 82.8609 131.309 82.0331C133.121 81.4137 135.055 82.067 136.012 83.62ZM176.09 101.354C177.702 102.386 178.664 104.141 178.664 106.048C178.664 108.197 177.463 110.117 175.529 111.059C174.783 111.423 174.245 112.109 174.069 112.92C173.892 113.731 174.098 114.578 174.626 115.219C175.456 116.226 175.895 117.45 175.895 118.758C175.895 121.06 174.448 123.154 172.294 123.969C171.582 124.238 171.015 124.795 170.734 125.503C170.453 126.212 170.483 127.005 170.817 127.69C171.619 129.336 171.447 131.319 170.356 132.993C169.277 134.649 167.556 135.6 165.732 135.53C164.709 135.487 163.763 136.027 163.266 136.914C162.36 138.534 160.772 139.526 158.909 139.636C157.035 139.748 155.333 138.944 154.232 137.431L152.926 135.638C153.293 135.301 153.637 134.938 153.949 134.543C156.694 134.177 159.172 132.599 160.778 130.135C162.193 127.963 162.709 125.452 162.291 123.068C164.81 121.239 166.384 118.269 166.384 115.073C166.384 113.776 166.127 112.498 165.639 111.314C167.621 109.481 168.778 106.894 168.778 104.086C168.778 101.972 168.112 99.964 166.915 98.3102C168.586 96.5107 169.57 94.1133 169.57 91.5862C169.57 89.0591 168.586 86.6613 166.915 84.8619C168.112 83.2077 168.778 81.1998 168.778 79.0857C168.778 76.2782 167.621 73.6918 165.639 71.8581C166.127 70.6733 166.384 69.3956 166.384 68.0995C166.384 64.9032 164.81 61.9335 162.292 60.104C162.71 57.7149 162.191 55.2001 160.77 53.0249C159.158 50.5592 156.674 48.9853 153.925 48.6254C153.613 48.2319 153.269 47.8695 152.902 47.5331L154.209 45.7395C155.308 44.2287 157.01 43.4262 158.882 43.5361C160.745 43.6463 162.334 44.6388 163.242 46.2598C163.741 47.1494 164.696 47.6812 165.715 47.6426C167.534 47.5681 169.268 48.5148 170.351 50.1726C171.446 51.8481 171.62 53.8332 170.817 55.4827C170.483 56.1674 170.453 56.9612 170.734 57.6691C171.015 58.3769 171.581 58.9341 172.293 59.2036C174.447 60.0184 175.894 62.1127 175.894 64.4147C175.894 65.7231 175.455 66.9469 174.625 67.9543C174.097 68.5949 173.891 69.4419 174.068 70.2534C174.244 71.0646 174.783 71.75 175.529 72.1139C177.462 73.0562 178.664 74.9763 178.664 77.1248C178.664 79.0319 177.701 80.7868 176.089 81.8188C175.26 82.3499 174.784 83.2898 174.846 84.2729C174.909 85.2561 175.5 86.1276 176.39 86.5497C178.327 87.4678 179.579 89.445 179.579 91.5862C179.579 93.7274 178.327 95.7046 176.39 96.6228C175.499 97.0448 174.909 97.9163 174.846 98.8995C174.785 99.8834 175.261 100.823 176.09 101.354Z" fill="black"/>
</svg>
