<svg width="185" height="185" viewBox="0 0 185 185" fill="none" xmlns="http://www.w3.org/2000/svg">
<path d="M83.9198 112.729V84.3698H99.2503L127.609 112.729H83.9198Z" fill="#FA3834"/>
<path d="M112.279 112.729L83.9198 84.3698H74.871C61.4834 84.3698 48.3915 87.4372 36.5419 93.2123C32.6328 95.1173 32.4312 100.613 36.1968 102.787V112.729L112.279 112.729Z" fill="#FF6053"/>
<path d="M83.9198 115.633V143.992H99.2503L127.609 115.633H83.9198Z" fill="#FA3834"/>
<path d="M112.279 115.633L83.9198 143.992H74.871C61.4834 143.992 48.3915 140.924 36.5419 135.149C32.6328 133.244 32.4312 127.749 36.1968 125.575V115.632L112.279 115.633Z" fill="#FF6053"/>
<path d="M27.936 98.0171L18.717 92.6944C15.4211 90.7916 11.6823 89.7899 7.87658 89.7899C0.975223 105.318 0.975223 123.043 7.87658 138.572C11.6823 138.572 15.4211 137.57 18.717 135.667L27.936 130.345V98.0171Z" fill="#FF6053"/>
<path d="M41.2472 125.383V102.978C39.6396 103.762 37.744 103.68 36.1949 102.785L27.9359 98.0167C26.4566 98.9591 25 99.9478 23.5687 100.983C19.3435 104.041 16.8209 108.974 16.8209 114.18C16.8209 119.386 19.3435 124.32 23.5687 127.377C25.0004 128.413 26.4566 129.401 27.9359 130.344L36.1949 125.575C37.744 124.682 39.6396 124.599 41.2472 125.383Z" fill="#FA3834"/>
<path d="M147.339 77.524C148.276 80.9662 145.684 84.369 142.107 84.369H137.843V106.05H149.769V95.2098C149.769 89.0781 148.921 83.1466 147.339 77.524Z" fill="#C2F0FC"/>
<path d="M137.843 84.3694L114.581 84.3697L136.262 106.051H137.843C138.554 102.548 138.928 98.9226 138.928 95.2101C138.928 91.4973 138.554 87.8723 137.843 84.3694Z" fill="#E5FAFF"/>
<path d="M74.8709 95.2101C58.671 95.2101 42.9514 100.339 29.9238 109.766C26.9072 111.949 26.9072 116.413 29.9238 118.596C42.9514 128.023 58.671 133.152 74.8709 133.152H79.1532V95.2104H74.8709V95.2101Z" fill="#FF7D6D"/>
<path d="M133.508 95.2101H79.1533C68.6761 95.2101 60.1826 103.704 60.1826 114.181C60.1826 124.658 68.6761 133.151 79.1533 133.151H152.479L154.506 111.471C152.099 102.12 143.61 95.2101 133.508 95.2101Z" fill="#B9DFF0"/>
<path d="M154.506 111.471H144.35C144.35 108.477 141.923 106.051 138.93 106.051C135.936 106.051 133.51 108.477 133.51 111.471L133.508 114.181C133.508 124.658 142.002 133.152 152.479 133.152H163.319L155.189 116.891C155.189 115.019 154.951 113.203 154.506 111.471Z" fill="#E5FAFF"/>
<path d="M171.449 114.181C171.449 103.704 167.809 95.2101 163.319 95.2101H133.508C139.495 95.2101 144.348 100.064 144.348 106.05V114.181C144.348 124.658 152.842 133.151 163.319 133.151C167.809 133.151 171.449 124.658 171.449 114.181Z" fill="#FFE3A6"/>
<path d="M163.319 95.2101C167.809 95.2101 171.449 103.704 171.449 114.181C171.449 124.658 167.809 133.151 163.319 133.151C173.796 133.151 182.29 124.658 182.29 114.181C182.29 103.704 173.796 95.2101 163.319 95.2101Z" fill="#FFD06A"/>
<path d="M166.029 119.601C169.023 119.601 171.449 117.174 171.449 114.181C171.449 111.187 169.023 108.761 166.029 108.761C163.036 108.761 160.609 111.187 160.609 114.181C160.609 117.174 163.036 119.601 166.029 119.601Z" fill="#636DA4"/>
<path d="M111.829 154.832C123.812 154.832 133.51 145.135 133.51 133.151C121.525 133.151 111.829 142.849 111.829 154.832Z" fill="#E5FAFF"/>
<path d="M166.029 106.051C161.546 106.051 157.899 109.698 157.899 114.181C157.899 118.664 161.546 122.311 166.029 122.311C170.512 122.311 174.16 118.664 174.16 114.181C174.16 109.698 170.512 106.051 166.029 106.051ZM166.029 116.891C164.535 116.891 163.319 115.675 163.319 114.181C163.319 112.686 164.535 111.471 166.029 111.471C167.524 111.471 168.739 112.686 168.739 114.181C168.739 115.675 167.523 116.891 166.029 116.891Z" fill="black"/>
<path d="M163.319 92.5H152.421C151.754 75.4065 144.795 59.4404 132.645 47.2909C119.855 34.501 102.837 27.4576 84.7259 27.4576C83.2292 27.4576 82.0158 28.671 82.0158 30.1677C82.0158 31.6644 83.2292 32.8778 84.7259 32.8778C113.318 32.8778 137.472 52.2301 144.787 78.5235C144.904 79.2498 144.722 79.9859 144.27 80.5832C143.752 81.2668 142.964 81.6592 142.107 81.6592L114.581 81.6596C113.484 81.6596 112.497 82.3202 112.077 83.3326C111.657 84.3455 111.889 85.5108 112.665 86.2859L118.879 92.5H111.213L101.167 82.4535C100.659 81.9451 99.9693 81.6596 99.2506 81.6596H74.8709C61.2568 81.6596 47.5922 84.812 35.3544 90.776C33.0068 91.9201 31.3818 94.0917 30.9164 96.6085L20.0724 90.3475C16.3693 88.2097 12.1524 87.0798 7.87693 87.0798C6.8059 87.0798 5.83533 87.7107 5.40026 88.6892C-1.79993 104.889 -1.79993 123.472 5.40026 139.672C5.83533 140.651 6.80554 141.281 7.87657 141.281C12.1527 141.281 16.3697 140.151 20.072 138.014L30.916 131.753C31.3814 134.27 33.0064 136.441 35.3541 137.586C47.5914 143.549 61.2561 146.702 74.8706 146.702H99.2503C99.969 146.702 100.658 146.417 101.166 145.908L111.213 135.862H118.202C112.667 140.337 109.118 147.176 109.118 154.832C109.118 156.329 110.332 157.542 111.828 157.542C124.361 157.542 134.712 148.04 136.065 135.862H163.319C175.274 135.862 185 126.136 185 114.181C185 102.226 175.274 92.5 163.319 92.5ZM114.766 151.895C116.032 143.781 122.458 137.355 130.572 136.089C129.306 144.202 122.879 150.629 114.766 151.895ZM121.124 87.0794L142.107 87.0791C143.642 87.0791 145.102 86.6567 146.36 85.8823C146.687 88.0536 146.9 90.2618 146.996 92.4996H126.544L121.124 87.0794ZM17.3619 133.32C14.9908 134.689 12.349 135.526 9.6338 135.78C4.01486 121.954 4.01486 106.408 9.6338 92.5817C12.349 92.835 14.9908 93.6726 17.3619 95.0414L33.3074 104.248C31.617 105.289 29.9581 106.396 28.3349 107.57C26.1846 109.126 24.9513 111.536 24.9513 114.18C24.9513 116.825 26.1846 119.235 28.3349 120.791C29.9581 121.965 31.6174 123.072 33.3074 124.113L17.3619 133.32ZM94.7602 130.441C93.2635 130.441 92.0501 131.655 92.0501 133.151C92.0501 134.648 93.2635 135.862 94.7602 135.862H103.548L98.1279 141.282H74.8709C62.0746 141.282 49.2309 138.319 37.7289 132.713C36.8071 132.264 36.235 131.385 36.1993 130.362C36.1823 129.873 36.2795 128.656 37.5518 127.922C38.2669 127.51 39.1117 127.448 39.8557 127.735C50.6878 133.077 62.5844 135.862 74.8709 135.862H83.9198C85.4165 135.862 86.6299 134.648 86.6299 133.151C86.6299 131.655 85.4165 130.441 83.9198 130.441H74.8709C59.2001 130.441 44.2071 125.586 31.5126 116.4C30.7874 115.875 30.3715 115.066 30.3715 114.181C30.3715 113.295 30.7874 112.486 31.5126 111.962C44.2071 102.776 59.2004 97.9202 74.8709 97.9202H83.9198C85.4165 97.9202 86.6299 96.7068 86.6299 95.2101C86.6299 93.7134 85.4165 92.5 83.9198 92.5H74.8709C62.5841 92.5 50.6867 95.2845 39.8543 100.627C39.111 100.915 38.2658 100.852 37.5511 100.439C36.2795 99.7045 36.1819 98.4886 36.1993 98.0001C36.235 96.9767 36.8071 96.0976 37.7289 95.6484C49.2312 90.0429 62.0746 87.0798 74.8709 87.0798H98.1279L103.548 92.5H94.7602C93.2635 92.5 92.0501 93.7134 92.0501 95.2101C92.0501 96.7068 93.2635 97.9202 94.7602 97.9202H133.508C137.171 97.9202 140.274 100.355 141.288 103.69C140.541 103.463 139.75 103.34 138.93 103.34C134.446 103.34 130.799 106.987 130.799 111.469L130.798 114.181C130.798 120.652 133.651 126.465 138.161 130.441H94.7602ZM136.218 114.182L136.22 111.471C136.22 109.976 137.435 108.761 138.93 108.761C140.415 108.761 141.623 109.961 141.638 111.443V114.181C141.638 120.382 144.26 125.979 148.448 129.935C141.425 128.137 136.218 121.756 136.218 114.182ZM163.319 130.441C154.353 130.441 147.059 123.147 147.059 114.181V111.471C147.06 111.452 147.059 111.434 147.059 111.415V106.05C147.059 103.002 146.046 100.187 144.341 97.9202H163.319C172.285 97.9202 179.58 105.215 179.58 114.181C179.58 123.147 172.285 130.441 163.319 130.441Z" fill="black"/>
</svg>
