<svg width="184" height="184" viewBox="0 0 184 184" fill="none" xmlns="http://www.w3.org/2000/svg">
<g clip-path="url(#clip0_2_42756)">
<path d="M128.974 96.27L125.268 130.56C133.706 127.635 139.756 119.622 139.756 110.181V96.27H128.974Z" fill="#1FB0F0"/>
<path d="M128.974 96.27H118.193V125.438C118.193 129.109 121.8 131.762 125.268 130.56C127.427 127.635 128.974 119.622 128.974 110.181V96.27Z" fill="#0CC9FA"/>
<path d="M94.4564 99.8369L42.3918 123.224H63.9558C71.5261 123.224 78.9633 121.232 85.5194 117.446L108.501 104.178L94.4564 99.8369Z" fill="#FFE3A6"/>
<path d="M50.5433 86.2622L33.8717 115.138C31.7966 118.732 34.3903 123.224 38.5403 123.224H42.3915C49.9618 123.224 57.3991 121.232 63.9551 117.446L94.4561 99.8368L50.5433 86.2622Z" fill="#FEF1D4"/>
<path d="M137.115 58.9208C130.559 55.1357 123.122 53.1428 115.552 53.1428H93.9885V85.8728L169.676 77.7196L137.115 58.9208Z" fill="#FFE3A6"/>
<path d="M93.9885 53.1428H38.5403C34.3903 53.1428 31.7966 57.6352 33.8717 61.2292L50.5433 90.105L151.403 79.6193L115.552 58.9211C108.996 55.1357 101.559 53.1428 93.9885 53.1428Z" fill="#FEF1D4"/>
<path d="M179.113 83.8481C173.44 79.6853 167.324 76.0928 160.851 73.1458V103.221C167.323 100.274 173.44 96.6813 179.113 92.5185C182.035 90.3751 182.035 85.9919 179.113 83.8481Z" fill="#4771C9"/>
<path d="M118.193 63.9246C111.21 63.9246 104.393 64.625 97.801 65.9501V110.417C104.393 111.743 111.21 112.443 118.193 112.443C133.409 112.443 147.852 109.143 160.851 103.223C166.743 100.54 170.522 94.6581 170.522 88.1836C170.522 81.7091 166.743 75.8269 160.851 73.1437C147.852 67.2245 133.409 63.9246 118.193 63.9246Z" fill="#3792DB"/>
<path d="M148.984 90.7511C154.938 90.7511 159.765 85.9239 159.765 79.9693C159.765 74.0147 154.938 69.1875 148.984 69.1875C143.029 69.1875 138.202 74.0147 138.202 79.9693C138.202 85.9239 143.029 90.7511 148.984 90.7511Z" fill="white"/>
<path d="M15.5294 64.9377C13.0198 64.2653 10.4325 63.9246 7.83407 63.9246C0.970022 79.3688 0.970022 96.9981 7.83407 112.443C10.4332 112.443 13.0201 112.102 15.5301 111.43L23.3038 109.346V67.0207L15.5294 64.9377Z" fill="#FEF1D4"/>
<path d="M39.7604 71.4305L23.3037 67.0208C20.499 70.3164 18.8005 74.5827 18.8005 79.2416V97.1257C18.8005 101.784 20.499 106.051 23.3037 109.346L39.7618 104.937L39.7604 71.4305Z" fill="#FFE3A6"/>
<path d="M107.411 102.475V73.8928C107.411 68.8102 102.78 64.9978 97.8011 65.9505C95.0399 66.5058 92.3171 67.1681 89.6404 67.9383L74.9272 71.8809C63.9585 74.82 52.4094 74.82 41.4407 71.8809L39.7605 71.4309C34.6252 70.0559 29.5825 73.9255 29.5825 79.242V97.1261C29.5825 102.443 34.6259 106.313 39.7616 104.937L41.4403 104.487C52.409 101.548 63.9581 101.548 74.9268 104.487L89.64 108.429C92.3171 109.2 95.0395 109.862 97.8008 110.418C102.78 111.37 107.411 107.558 107.411 102.475Z" fill="#FFD06A"/>
<path d="M180.708 81.6753C176.816 78.8199 172.769 76.2546 168.592 73.9814L138.463 56.5864C131.507 52.5702 123.584 50.4473 115.552 50.4473H60.1039C58.6153 50.4473 57.4085 51.6541 57.4085 53.1427C57.4085 54.6313 58.6153 55.8382 60.1039 55.8382H115.552C122.639 55.8382 129.63 57.7113 135.768 61.2549L139.387 63.3445C132.477 61.9439 125.388 61.2291 118.192 61.2291C108.256 61.2291 98.407 62.6127 88.9183 65.3409L74.2288 69.277C63.7313 72.0896 52.6346 72.0896 42.1375 69.277L41.5373 69.116L36.2057 59.8813C35.5034 58.6648 35.9717 57.5909 36.2057 57.1859C36.4397 56.7809 37.1354 55.8382 38.5399 55.8382H49.3217C50.8103 55.8382 52.0172 54.6313 52.0172 53.1427C52.0172 51.6541 50.8103 50.4473 49.3217 50.4473H38.5399C35.6166 50.4473 32.9988 51.9589 31.5372 54.4904C30.0755 57.022 30.0755 60.0452 31.5372 62.5768L34.1733 67.1429L16.2267 62.3342C13.4902 61.601 10.6665 61.2294 7.83375 61.2294C6.76851 61.2294 5.80317 61.8569 5.37046 62.8302C-1.79081 78.9428 -1.79081 97.425 5.37046 113.537C5.80317 114.511 6.76851 115.138 7.83375 115.138C10.6676 115.138 13.4917 114.766 16.227 114.033L34.1733 109.225L31.5372 113.791C30.0755 116.322 30.0755 119.345 31.5372 121.877C32.9988 124.409 35.6166 125.92 38.5399 125.92H63.9552C71.9876 125.92 79.9104 123.797 86.8665 119.781L98.1931 113.242C103.886 114.333 109.672 114.954 115.497 115.1V125.439C115.497 128.06 116.774 130.533 118.913 132.056C120.302 133.045 121.903 133.553 123.529 133.553C124.405 133.553 125.289 133.405 126.15 133.107C135.208 129.967 141.501 121.792 142.35 112.363C146.814 111.319 151.212 109.986 155.524 108.358C156.917 107.833 157.62 106.278 157.094 104.885C156.569 103.492 155.014 102.789 153.621 103.315C142.31 107.583 130.39 109.747 118.192 109.747C114.694 109.747 111.207 109.566 107.745 109.206C109.262 107.313 110.106 104.955 110.106 102.475V73.8923C110.106 71.4125 109.263 69.0538 107.745 67.1609C111.207 66.8015 114.694 66.62 118.192 66.62C125.926 66.62 133.529 67.4915 140.901 69.1918C137.628 71.6529 135.506 75.5678 135.506 79.9693C135.506 87.4008 141.552 93.4465 148.983 93.4465C156.415 93.4465 162.461 87.4008 162.461 79.9693C162.461 78.8321 162.318 77.7281 162.051 76.6729C167.432 79.2958 172.605 82.4167 177.518 86.0218C178.211 86.5303 178.608 87.3181 178.608 88.1839C178.608 89.0497 178.211 89.8378 177.518 90.346C173.031 93.6391 168.224 96.5819 163.233 99.0926C161.903 99.7614 161.367 101.382 162.036 102.712C162.705 104.041 164.325 104.578 165.655 103.909C170.914 101.263 175.979 98.1625 180.707 94.6925C182.799 93.1576 183.999 90.7849 183.999 88.1839C184 85.5823 182.8 83.2103 180.708 81.6753ZM14.8322 108.826C13.1175 109.285 11.3616 109.575 9.59154 109.69C3.99004 95.9245 3.98968 80.4429 9.59154 66.6775C11.3608 66.7928 13.1168 67.0821 14.8315 67.5415L30.046 71.618C28.0252 73.6285 26.887 76.3376 26.887 79.2415V97.1256C26.887 100.03 28.0252 102.739 30.046 104.749L14.8322 108.826ZM84.1714 115.112C78.0333 118.656 71.0431 120.529 63.9555 120.529H38.5403C37.1358 120.529 36.44 119.586 36.206 119.181C35.9721 118.776 35.5038 117.702 36.206 116.486L41.5376 107.251L42.1378 107.09C52.635 104.278 63.732 104.278 74.2291 107.09L88.9179 111.026C89.4412 111.176 89.9655 111.321 90.491 111.463L84.1714 115.112ZM124.385 128.013C123.592 128.288 122.738 128.161 122.04 127.664C121.308 127.143 120.888 126.332 120.888 125.439V115.102C126.243 114.968 131.543 114.436 136.762 113.511C135.575 120.145 130.9 125.755 124.385 128.013ZM102.738 69.7204C103.995 70.7487 104.715 72.2693 104.715 73.8923V102.475C104.715 104.098 103.995 105.619 102.738 106.647C101.497 107.662 99.8877 108.068 98.3153 107.77C95.6475 107.233 93.0017 106.592 90.3857 105.839C90.3698 105.834 90.354 105.83 90.3379 105.825L75.6247 101.883C64.215 98.8259 52.153 98.8259 40.743 101.883L39.0621 102.333C37.4301 102.77 35.727 102.43 34.3872 101.402C33.047 100.374 32.2779 98.8151 32.2779 97.1256V79.2415C32.2779 77.552 33.0466 75.9929 34.3872 74.9647C35.7273 73.9361 37.4323 73.5965 39.0643 74.0346L40.743 74.4842C52.153 77.5416 64.2146 77.5416 75.625 74.4842L90.3379 70.5417C90.354 70.5373 90.3698 70.533 90.3857 70.5284C93.0013 69.7754 95.6472 69.1339 98.3146 68.5973C99.8887 68.2987 101.497 68.7048 102.738 69.7204ZM148.984 88.0556C144.525 88.0556 140.897 84.4283 140.897 79.9693C140.897 75.5103 144.525 71.8829 148.984 71.8829C153.442 71.8829 157.07 75.5103 157.07 79.9693C157.07 84.4283 153.442 88.0556 148.984 88.0556Z" fill="black"/>
<path d="M148.984 82.6648C150.472 82.6648 151.679 81.458 151.679 79.9694C151.679 78.4807 150.472 77.2739 148.984 77.2739C147.495 77.2739 146.288 78.4807 146.288 79.9694C146.288 81.458 147.495 82.6648 148.984 82.6648Z" fill="black"/>
</g>
<defs>
<clipPath id="clip0_2_42756">
<rect width="184" height="184" fill="white"/>
</clipPath>
</defs>
</svg>
