<svg width="185" height="185" viewBox="0 0 185 185" fill="none" xmlns="http://www.w3.org/2000/svg">
<g clip-path="url(#clip0_2_44046)">
<path d="M130.382 63.703C130.454 67.6451 127.878 71.757 126.595 75.905C121.121 81.2599 108.33 84.3926 94.8885 83.2219C77.7048 67.8857 86.4591 29.3667 104.774 21.6155C106.205 22.2333 107.441 23.3246 108.229 24.7807C109.468 27.0715 110.848 29.6695 112.554 31.6676C114.996 34.5257 120.843 35.5338 123.05 39.335C125.045 42.7712 123.054 48.202 124.315 52.2308C125.518 56.0681 130.302 59.4827 130.382 63.703Z" fill="#E92740"/>
<path d="M94.8884 83.2219C80.5112 81.979 65.386 75.8111 57.6897 62.1926C61.7004 45.8895 76.0741 29.5755 99.611 21.4131C101.349 20.8097 103.185 20.9217 104.774 21.6155C91.6256 36.8924 90.3827 63.8583 94.8884 83.2219Z" fill="#D22239"/>
<path d="M134.067 125.082C133.113 128.738 132.423 136.879 129.41 140.825C126.945 144.052 119.343 142.834 115.676 145.753C114.989 146.303 114.429 147.072 113.941 147.972C85.6355 152.022 68.0052 114.02 82.6321 95.106C92.724 91.229 103.322 88.3709 110.967 89.4043C130.617 92.0528 138.28 108.909 134.067 125.082Z" fill="#E92740"/>
<path d="M113.941 147.972C112.091 151.35 111.195 156.506 107.947 158.104C104.153 159.972 97.8514 155.6 93.4359 156.709C89.3349 157.739 85.8806 164.636 81.317 164.806C58.4449 163.534 52.707 119.792 52.165 109.798C52.165 109.798 66.7808 101.194 82.6322 95.106C78.4047 115.384 90.9066 141.898 113.941 147.972Z" fill="#D22239"/>
<path d="M112.617 79.0467C122.563 69.586 134.948 49.0395 132.546 23.8914C132.251 20.7977 135.959 18.9914 138.228 21.1153C139.997 22.7716 141.698 24.4981 143.691 25.6684C148.167 28.2963 156.342 26.0229 159.9 29.5549C163.522 33.1493 161.331 41.4158 164.019 45.7333C166.693 50.0288 175.053 51.6255 176.819 56.4247C178.565 61.17 173.258 67.8856 174.132 72.9178C175 77.919 182.267 82.4074 182.291 87.4906C182.314 92.5969 175.083 97.155 174.269 102.141C173.44 107.211 178.815 113.871 177.136 118.605C175.412 123.468 167.066 125.159 164.462 129.438C161.784 133.837 163.993 142.103 160.404 145.635C156.785 149.196 148.675 146.772 144.15 149.193C141.912 150.391 139.992 152.233 137.953 153.883C135.61 155.778 132.149 153.879 132.47 150.883C135.196 125.391 122.663 104.526 112.618 94.9711V79.0467H112.617Z" fill="#F9475E"/>
<path d="M119.672 95.1348C118.4 98.2277 114.942 99.7489 111.766 98.7011C110.816 98.3867 109.844 98.1519 108.865 97.9929C107.882 97.8339 106.888 97.7544 105.887 97.7544C101.02 97.7544 96.2939 99.6405 92.5975 103.138C88.3483 107.156 84.1208 110.347 79.4488 112.703C51.0039 106.55 52.1649 62.9249 64.815 56.8701C76.1499 58.5214 84.1894 63.374 92.4277 71.2112C95.9037 74.521 100.301 76.418 104.89 76.418C107.036 76.483 109.175 76.1723 111.21 75.4749C114.021 74.5138 117.15 75.5399 118.711 78.0729C121.659 81.8126 121.854 90.8964 119.672 95.1348Z" fill="#FF6E80"/>
<path d="M79.4487 112.702C72.7967 116.063 65.2377 117.743 55.4168 117.743C44.1289 117.743 35.3161 115.615 28.3931 112.341C31.6324 103.865 37.1538 95.6659 37.1538 83.5144C37.1538 74.2355 34.9454 65.5849 34.7633 59.5114C40.9926 57.5385 47.9156 56.2341 55.4168 56.2341C58.8024 56.2341 61.9171 56.4473 64.8149 56.8701C57.975 70.0116 57.5378 98.9323 79.4487 112.702Z" fill="#F9475E"/>
<path d="M57.6173 126.961C56.1178 129.27 52.1035 129.577 49.3502 131.495C49.0792 131.687 48.819 131.907 48.5661 132.157C33.1757 131.375 31.7813 107.827 40.7205 99.2483C40.7205 99.2483 46.8678 101.039 50.2824 101.284C52.8406 101.469 55.2795 102.509 57.1223 104.298C58.3111 105.458 59.3662 106.798 59.9082 108.384C60.8332 111.094 58.5532 114.458 58.1738 117.606C57.8305 120.442 59.3806 124.247 57.6173 126.961Z" fill="#E92740"/>
<path d="M48.5662 132.157C46.7487 133.938 45.3106 136.987 42.5248 137.981C40.617 138.664 38.2792 138.548 35.8691 138.664C34.0372 138.754 32.3137 137.808 31.3742 136.232C24.7077 125.049 33.8132 118.636 28.2451 112.273C28.2451 112.273 35.2946 105.411 36.44 96.8186C36.44 96.8186 36.7569 97.9369 40.7207 99.2485C34.1658 108.448 36.7002 126.939 48.5662 132.157Z" fill="#D22239"/>
<path d="M45.1371 83.5145C45.1371 95.666 38.2032 106.625 28.3932 112.341C12.2274 104.699 6.34133 90.8133 3.23752 83.1532C2.00178 80.0963 2.99905 76.4975 5.58977 74.7559C11.5445 70.7596 21.6147 63.6595 34.7634 59.5115C40.953 65.5095 45.1371 74.2356 45.1371 83.5145Z" fill="#E92740"/>
<path d="M29.5559 80.88V76.5444C29.5559 75.0478 28.3426 73.8345 26.8459 73.8345C25.3493 73.8345 24.136 75.0478 24.136 76.5444V80.88C24.136 82.3766 25.3493 83.59 26.8459 83.59C28.3426 83.59 29.5559 82.3766 29.5559 80.88Z" fill="black"/>
<path d="M180.342 97.0156C182.533 94.267 185.017 91.1516 185 87.4791C184.983 83.8232 182.478 80.7389 180.268 78.0181C178.704 76.0933 177.088 74.1031 176.802 72.4554C176.513 70.7918 177.354 68.3634 178.168 66.0151C179.377 62.5297 180.626 58.9258 179.363 55.4911C178.071 51.9807 174.572 49.9627 171.485 48.1817C169.375 46.9644 167.193 45.7059 166.321 44.304C165.445 42.8984 165.257 40.3944 165.075 37.9728C164.804 34.3768 164.497 30.3011 161.811 27.6355C159.157 25.0007 155.278 24.7576 151.527 24.522C149.082 24.3684 146.554 24.2098 145.066 23.3357C143.379 22.3533 141.684 20.6399 140.082 19.1411C138.214 17.393 135.522 16.9937 133.224 18.1236C130.933 19.2498 129.61 21.6165 129.853 24.1531C130.828 34.3631 129.283 43.3923 126.772 50.9101C126.499 49.6267 126.567 48.039 126.64 46.3693C126.758 43.6431 126.893 40.553 125.397 37.9757C123.76 35.1562 120.895 33.6589 118.367 32.3375C116.813 31.5249 115.344 30.7574 114.621 29.9105C113.159 28.1981 111.876 25.8235 110.744 23.7285C108.503 19.3174 103.394 17.2318 98.7305 18.8571C91.6997 21.2946 85.2215 24.5278 79.4753 28.4666C78.241 29.3128 77.9259 30.9991 78.7721 32.2338C79.6187 33.4681 81.3047 33.7835 82.5394 32.937C87.887 29.2716 93.9317 26.2571 100.506 23.9778C102.653 23.2241 104.997 24.2492 105.976 26.3055C107.236 28.6371 108.665 31.2799 110.499 33.4291C111.904 35.0742 113.913 36.1246 115.857 37.1406C117.825 38.1693 119.859 39.2331 120.71 40.6968C121.409 41.9019 121.32 43.9571 121.225 46.133C121.126 48.4155 121.023 50.7761 121.734 53.0427C122.246 54.6784 123.181 56.1288 124.18 57.5134C121.014 64.5044 117.302 69.6479 114.943 72.541C113.451 72.2812 111.872 72.3875 110.337 72.9125C108.623 73.4982 106.822 73.7681 104.98 73.7103C104.953 73.7096 104.925 73.7092 104.898 73.7092C101.088 73.7092 97.3249 72.1251 94.3017 69.2493C85.9445 61.2994 77.2405 55.5868 63.6166 53.9836C65.9649 49.2657 69.1843 44.8131 73.2211 40.7084C74.2707 39.6414 74.2563 37.9258 73.1893 36.8765C72.1223 35.8269 70.4063 35.8413 69.3574 36.9083C64.3566 41.9933 60.4871 47.5906 57.8267 53.5677C57.0397 53.5435 56.2426 53.5269 55.4246 53.5269C31.2369 53.7126 14.5761 65.5226 4.09248 72.5078C0.413441 74.9782 -0.997184 79.8825 0.738997 84.17C3.63504 91.3211 9.63417 106.111 26.5226 114.432C27.8245 116.178 27.5532 117.922 26.901 121.164C26.0858 125.214 24.9697 130.76 29.0581 137.617C30.4553 139.961 32.9518 141.378 35.6386 141.378C38.2506 141.252 40.9353 141.412 43.4454 140.531C46.0922 139.587 47.7301 137.479 49.0464 135.785C50.3342 133.993 51.2259 133.306 53.1475 132.594C57.2478 148.704 65.3549 166.627 81.1724 167.507C81.2227 167.51 81.2729 167.511 81.3228 167.511C81.3567 167.511 81.3907 167.511 81.4247 167.51C84.9545 167.377 87.6232 164.787 89.9777 162.503C91.4367 161.087 92.9452 159.623 94.1015 159.332C95.489 158.983 97.6653 159.589 99.7693 160.175C102.94 161.059 106.218 161.972 109.147 160.532C112.341 158.961 113.723 155.48 114.942 152.409C115.686 150.534 116.456 148.596 117.368 147.87C118.566 146.916 120.847 146.522 123.053 146.141C125.592 145.703 128.196 145.248 130.138 143.844C130.135 146.089 130.02 148.339 129.779 150.591C129.516 153.054 130.751 155.412 132.928 156.597C135.086 157.774 137.734 157.544 139.66 155.986C141.516 154.492 143.484 152.616 145.431 151.579C146.909 150.788 149.378 150.686 151.766 150.587C155.42 150.435 159.562 150.264 162.307 147.563C164.984 144.928 165.277 140.855 165.537 137.262C165.713 134.82 165.895 132.294 166.777 130.845C167.617 129.465 169.764 128.195 171.841 126.967C174.928 125.141 178.427 123.072 179.69 119.509C180.904 116.088 179.622 112.513 178.384 109.057C177.54 106.702 176.667 104.267 176.944 102.577C177.21 100.944 178.803 98.9473 180.342 97.0156ZM90.5652 73.1766C94.5896 77.0049 99.6627 79.1179 104.854 79.1291C107.335 79.2 109.769 78.8343 112.089 78.0412C113.85 77.4266 115.693 78.1648 116.588 79.7517C118.703 82.4324 119.084 90.3635 117.268 93.8955C116.593 95.7455 114.547 96.7692 112.617 96.1282C110.434 95.4091 108.171 95.0446 105.891 95.0446C100.297 95.0446 94.9163 97.219 90.7401 101.168C81.648 109.765 73.2702 113.75 61.75 114.763C62.507 112.542 63.3413 110.033 62.4802 107.508C61.8674 105.711 60.7346 104.026 59.0176 102.356C56.7539 100.154 53.7231 98.8132 50.483 98.5801C48.4733 98.4353 46.602 98.1498 44.8868 97.7285C46.8119 93.312 47.8565 88.4861 47.8565 83.5135C47.8565 75.2651 44.95 67.2498 39.7657 60.9171C44.6288 59.7005 49.8623 58.9468 55.4231 58.9468C72.2299 58.9468 81.33 64.3916 90.5652 73.1766ZM5.76146 82.1365C5.00773 80.2753 5.60103 78.0224 7.11246 77.0081C13.7403 72.5721 21.9681 66.7836 34.0343 62.6096C39.4651 68.2557 42.437 75.6188 42.437 83.5139C42.437 93.9812 36.9939 103.689 28.145 109.186C13.6857 101.696 8.35832 88.549 5.76146 82.1365ZM47.8099 129.27C46.58 130.126 45.6579 131.313 44.7665 132.46C43.7457 133.774 42.7817 135.014 41.6229 135.427C40.1642 135.954 37.623 135.852 35.7459 135.956C34.9246 135.996 34.1456 135.569 33.712 134.842C30.6938 129.78 31.4317 126.115 32.2128 122.234C32.7841 119.396 33.4143 116.263 32.0174 113.136C36.1777 110.352 39.654 106.761 42.2784 102.638C44.6516 103.329 47.2694 103.783 50.0939 103.986C52.062 104.128 53.8893 104.928 55.2388 106.241C56.329 107.302 57.0198 108.288 57.3504 109.257C57.6258 110.065 57.1 111.607 56.5917 113.098C56.14 114.423 55.6728 115.793 55.4936 117.264C55.3317 118.601 55.4726 119.933 55.6088 121.221C55.7895 122.932 55.9608 124.548 55.3534 125.484C54.9556 126.096 53.4878 126.656 52.1925 127.151C50.8003 127.683 49.2224 128.286 47.8099 129.27ZM176.104 93.6372C174.131 96.113 172.089 98.6734 171.595 101.703C171.092 104.776 172.205 107.881 173.282 110.885C174.2 113.447 175.15 116.097 174.582 117.697C173.976 119.408 171.488 120.879 169.082 122.302C166.431 123.869 163.692 125.49 162.148 128.026C160.583 130.596 160.353 133.787 160.13 136.872C159.931 139.638 159.725 142.499 158.504 143.7C157.249 144.935 154.347 145.056 151.541 145.172C148.544 145.296 145.444 145.424 142.873 146.8C140.347 148.156 138.398 150.031 136.251 151.772C135.817 152.129 135.114 151.83 135.167 151.167C136.359 140.021 134.87 128.918 130.742 118.165C130.205 116.768 128.638 116.07 127.24 116.606C125.843 117.143 125.146 118.71 125.682 120.107C127.452 124.717 128.691 129.395 129.408 134.11C128.78 136.42 128.059 138.129 127.259 139.177C126.609 140.028 124.126 140.457 122.13 140.801C119.385 141.275 116.275 141.812 113.991 143.631C111.95 145.255 110.91 147.875 109.904 150.409C109.004 152.676 108.073 155.019 106.753 155.669C105.68 156.197 103.311 155.537 101.223 154.955C98.5693 154.216 95.5613 153.377 92.779 154.077C90.2129 154.722 88.1739 156.7 86.2021 158.613C84.5075 160.258 82.7565 161.957 81.3235 162.087C67.967 161.211 61.187 142.601 58.1468 130.248C58.8156 129.76 59.4187 129.173 59.8982 128.435C61.6351 125.724 61.2134 122.788 60.9576 120.263C74.3177 119.328 84.183 114.826 94.4635 105.105C97.6288 102.112 101.687 100.464 105.891 100.464C107.593 100.464 109.286 100.737 110.921 101.275C112.3 101.73 113.72 101.835 115.078 101.641C116.95 103.937 118.718 106.46 120.346 109.167C121.122 110.461 122.804 110.857 124.065 110.092C125.347 109.321 125.761 107.656 124.99 106.374C123.464 103.836 121.819 101.442 120.082 99.2226C125.392 93.5465 125.165 80.9589 119.82 75.1173C129.922 62.1659 137.229 43.9206 135.246 23.6374C135.152 23.0441 135.973 22.6604 136.378 23.0976C138.242 24.8428 140.032 26.6618 142.32 28.0088C144.924 29.5376 148.108 29.7374 151.186 29.9307C153.938 30.1034 156.783 30.2823 157.992 31.4815C159.243 32.7234 159.46 35.5989 159.669 38.3796C159.901 41.4538 160.14 44.6324 161.719 47.1675C163.308 49.7217 166.088 51.3253 168.776 52.8758C171.178 54.2615 173.662 55.6941 174.275 57.362C174.871 58.9793 173.944 61.6531 173.047 64.2392C172.008 67.2378 170.933 70.3384 171.462 73.3819C171.99 76.4217 174.059 78.9698 176.061 81.4337C177.788 83.559 179.573 85.7566 179.581 87.5026C179.588 89.2666 177.817 91.4884 176.104 93.6372Z" fill="black"/>
</g>
<defs>
<clipPath id="clip0_2_44046">
<rect width="185" height="185" fill="white"/>
</clipPath>
</defs>
</svg>
