<svg width="184" height="184" viewBox="0 0 184 184" fill="none" xmlns="http://www.w3.org/2000/svg">
<g clip-path="url(#clip0_2_42466)">
<path d="M100.213 66.3927C93.7195 55.146 81.5101 49.2846 69.3833 50.3494L89.4314 79.6759H100.213V66.3927Z" fill="#FF6053"/>
<path d="M63.7832 51.3413C60.3932 52.2613 58.8209 56.1753 60.5718 59.2203L65.1132 67.1186C67.5491 71.3549 72.5296 73.4231 77.25 72.1585L89.4314 79.6759V68.8947C89.4314 58.0494 80.184 49.3982 69.3801 50.3452C67.5056 50.5094 65.6329 50.8397 63.7832 51.3413Z" fill="#FF7D6D"/>
<path d="M122.032 95.2246V120.741C122.032 124.828 126.438 127.493 129.995 125.479C134.898 122.703 138.204 117.439 138.204 111.397L122.032 95.2246Z" fill="#E5FAFF"/>
<path d="M100.47 96.9353L96.7634 133.484C105.201 130.56 111.251 122.547 111.251 113.107V96.9353H100.47Z" fill="#C2F0FC"/>
<path d="M100.47 96.9353H96.2092V110.975C92.8555 110.243 89.6884 112.811 89.6884 116.243V128.364C89.6884 132.034 93.2954 134.687 96.7634 133.485C98.9221 130.56 100.47 122.547 100.47 113.108V96.9353Z" fill="#E5FAFF"/>
<path d="M54.3241 70.0296C54.3266 70.0268 45.0982 54.0425 45.0982 54.0425C44.861 53.6393 44.575 53.2598 44.2415 52.9263C43.2661 51.9506 41.9184 51.3472 40.4296 51.3472C38.9407 51.3472 37.5934 51.9506 36.618 52.9259C33.7502 55.7937 29.5703 56.9135 25.6531 55.8642C24.3206 55.5069 22.8518 55.6582 21.5624 56.4029C20.2729 57.1475 19.4079 58.3435 19.0507 59.676C18.001 63.5936 14.9412 66.6533 11.0237 67.703C9.69114 68.0603 8.49478 68.9256 7.75051 70.2147C7.00625 71.5038 6.85495 72.9726 7.21181 74.3051C8.26154 78.2227 7.14137 82.4022 4.27392 85.27C3.29821 86.2457 2.69482 87.5934 2.69482 89.0819C2.69482 90.5704 3.29821 91.9181 4.27392 92.8938C7.14173 95.7616 8.26154 99.9411 7.21181 103.859C6.85459 105.191 7.00589 106.66 7.75051 107.949C8.49514 109.238 9.69114 110.104 11.0237 110.461C14.9412 111.51 18.001 114.57 19.0507 118.488C19.4079 119.82 20.2733 121.017 21.5624 121.761C22.8514 122.505 24.3202 122.657 25.6531 122.3C29.5703 121.25 33.7502 122.37 36.618 125.238C37.5934 126.213 38.941 126.817 40.4296 126.817C41.9181 126.817 43.2657 126.213 44.2415 125.238C44.575 124.904 44.861 124.525 45.0982 124.121L54.327 108.137C54.3241 108.134 54.3241 70.0296 54.3241 70.0296Z" fill="#FF6053"/>
<path d="M54.327 70.0278C49.037 60.8728 35.0386 64.6236 35.0386 75.1971V102.993C35.0386 113.567 49.037 117.318 54.3237 108.161C56.7667 103.937 61.7409 101.876 66.4541 103.139V75.0512C61.7409 76.314 56.7667 74.2537 54.327 70.0278Z" fill="#FA3834"/>
<path d="M139.931 86.678C139.931 74.7148 130.142 64.9067 118.196 64.8237C108.289 64.8237 98.7119 66.2278 89.6449 68.8372L66.4544 75.0512C52.0995 78.8976 52.0995 99.2659 66.4544 103.112L89.6452 109.326C98.7122 111.936 108.289 113.34 118.196 113.34C129.35 113.34 140.087 111.563 150.146 108.286L139.931 86.678Z" fill="#A8CAE0"/>
<path d="M179.114 84.7468C173.445 80.5873 167.334 76.9968 160.867 74.0514L160.919 104.085C167.366 101.145 173.461 97.5649 179.114 93.4167C182.035 91.2734 182.035 86.8901 179.114 84.7468Z" fill="#B9DFF0"/>
<path d="M118.369 64.8254C124.246 64.866 128.977 69.691 128.977 75.5769V92.9063C128.977 103.901 139.693 111.631 150.145 108.285C153.835 107.083 157.434 105.678 160.928 104.085C166.79 101.41 170.523 95.5258 170.523 89.0818C170.523 82.6095 166.747 76.7272 160.857 74.0448C147.906 68.1475 133.522 64.8506 118.369 64.8254Z" fill="#C2F0FC"/>
<path d="M148.985 91.6488C154.94 91.6488 159.766 86.8219 159.766 80.8676C159.766 74.9132 154.94 70.0863 148.985 70.0863C143.031 70.0863 138.204 74.9132 138.204 80.8676C138.204 86.8219 143.031 91.6488 148.985 91.6488Z" fill="white"/>
<path d="M24.2578 81.0067C25.7464 81.0067 26.9531 79.8 26.9531 78.3114C26.9531 76.8228 25.7464 75.6161 24.2578 75.6161C22.7692 75.6161 21.5625 76.8228 21.5625 78.3114C21.5625 79.8 22.7692 81.0067 24.2578 81.0067Z" fill="black"/>
<path d="M18.8672 91.788C20.3558 91.788 21.5625 90.5812 21.5625 89.0927C21.5625 87.6041 20.3558 86.3973 18.8672 86.3973C17.3786 86.3973 16.1719 87.6041 16.1719 89.0927C16.1719 90.5812 17.3786 91.788 18.8672 91.788Z" fill="black"/>
<path d="M24.2578 102.569C25.7464 102.569 26.9531 101.362 26.9531 99.8739C26.9531 98.3853 25.7464 97.1786 24.2578 97.1786C22.7692 97.1786 21.5625 98.3853 21.5625 99.8739C21.5625 101.362 22.7692 102.569 24.2578 102.569Z" fill="black"/>
<path d="M148.985 83.5604C150.474 83.5604 151.681 82.3537 151.681 80.8651C151.681 79.3765 150.474 78.1698 148.985 78.1698C147.497 78.1698 146.29 79.3765 146.29 80.8651C146.29 82.3537 147.497 83.5604 148.985 83.5604Z" fill="black"/>
<path d="M180.708 82.5736C162.479 69.1983 140.863 62.1284 118.196 62.1284C112.604 62.1284 107.04 62.5664 101.552 63.4361C93.3199 50.7983 77.7985 44.7684 63.1241 48.7276C60.6908 49.3842 58.7412 51.0984 57.7752 53.4308C56.8063 55.7703 56.9741 58.3704 58.2355 60.564L62.7769 68.4623C63.6589 69.9962 64.8128 71.2992 66.1464 72.3432L65.7569 72.4478C62.2296 73.3933 58.4878 71.8441 56.6611 68.6805L47.4208 52.6761C47.0593 52.0615 46.6309 51.5049 46.1469 51.0204C44.6195 49.4931 42.5891 48.6522 40.4296 48.6522C38.2694 48.6522 36.2389 49.4935 34.7123 51.0204C32.5323 53.2 29.3292 54.0593 26.3503 53.2608C24.2642 52.702 22.0853 52.9887 20.2144 54.0687C18.3445 55.1486 17.0062 56.8919 16.4474 58.9784C15.6492 61.9562 13.3039 64.3015 10.3269 65.0993C8.24035 65.6581 6.49703 66.9961 5.41674 68.8666C4.33682 70.7368 4.04968 72.9161 4.60887 75.0026C5.40668 77.9804 4.54813 81.1842 2.36853 83.3642C0.841541 84.8915 0.000244141 86.922 0.000244141 89.0818C0.000244141 91.2421 0.841541 93.2725 2.36853 94.7995C4.54813 96.9791 5.40668 100.183 4.60851 103.161C4.04968 105.248 4.33682 107.427 5.41674 109.297C6.49703 111.168 8.24035 112.505 10.3262 113.064C13.3039 113.862 15.6492 116.207 16.4474 119.186C17.0066 121.272 18.3445 123.015 20.2147 124.095C22.0853 125.175 24.2642 125.462 26.3503 124.903C29.326 124.105 32.5312 124.963 34.7119 127.144C36.2393 128.671 38.2697 129.534 40.4296 129.534C42.5891 129.534 44.6195 128.693 46.1469 127.166C46.6309 126.681 47.0593 126.124 47.4208 125.51L56.6611 109.505V109.484C58.4878 106.319 62.23 104.771 65.7565 105.716L88.3436 111.768C87.4721 113.078 86.9934 114.625 86.9934 116.244V128.364C86.9934 130.985 88.2707 133.459 90.4093 134.982C91.7983 135.97 93.3989 136.478 95.0255 136.478C95.9016 136.478 96.785 136.331 97.6464 136.032C106.495 132.965 112.708 125.093 113.781 115.94C115.25 116.001 116.722 116.035 118.197 116.035C118.578 116.035 118.957 116.025 119.338 116.021V120.741C119.338 123.661 120.848 126.284 123.378 127.759C124.641 128.495 126.029 128.864 127.415 128.864C128.758 128.864 130.099 128.518 131.323 127.825C136.577 124.85 140.059 119.54 140.765 113.626C147.853 112.084 154.771 109.809 161.467 106.803C162.825 106.193 163.432 104.598 162.822 103.24C162.212 101.882 160.616 101.275 159.259 101.885C156.029 103.335 152.744 104.607 149.411 105.699C145.219 107.065 140.778 106.371 137.223 103.792C133.696 101.235 131.673 97.2673 131.673 92.907V75.5773C131.673 72.8298 130.846 70.2732 129.433 68.1414C133.308 68.5705 137.136 69.2221 140.904 70.091C137.631 72.552 135.509 76.4667 135.509 80.868C135.509 88.2991 141.555 94.3445 148.986 94.3445C156.417 94.3445 162.463 88.2991 162.463 80.868C162.463 79.7298 162.317 78.6262 162.05 77.57C167.432 80.1931 172.606 83.3142 177.52 86.9198C178.213 87.4284 178.61 88.2161 178.61 89.0818C178.61 89.9476 178.213 90.7353 177.519 91.2438C174.686 93.3232 171.684 95.2882 168.596 97.0848C167.309 97.8333 166.874 99.4832 167.622 100.77C168.37 102.056 170.02 102.492 171.307 101.744C174.559 99.8516 177.722 97.7812 180.708 95.5894C182.8 94.0545 184 91.6823 184 89.0815C184 86.4807 182.8 84.1085 180.708 82.5736ZM62.9088 57.877C62.4873 57.1442 62.4316 56.2756 62.7554 55.4936C63.0763 54.7188 63.7221 54.1499 64.5285 53.9325C76.201 50.7818 88.5132 55.1073 95.732 64.5293C93.4453 65.0246 91.1744 65.5931 88.9247 66.2403L76.5511 69.5559C73.0173 70.5029 69.2744 68.9479 67.4503 65.7757L62.9088 57.877ZM51.9928 106.788C51.9529 106.857 51.9109 106.93 51.8699 107.001C49.695 110.568 46.0854 111.093 43.3962 110.373C40.6592 109.639 37.7343 107.315 37.7343 102.994V94.4725C37.7343 92.9839 36.5278 91.7772 35.0389 91.7772C33.5501 91.7772 32.3436 92.9839 32.3436 94.4725V102.994C32.3436 109.067 36.1343 114.007 42.0004 115.579C43.2004 115.901 44.3946 116.057 45.5625 116.057C45.9356 116.057 46.3043 116.035 46.6712 116.003C44.6378 119.524 42.9287 122.483 42.7846 122.729L42.7634 122.765C42.6387 122.981 42.4945 123.171 42.3357 123.331C41.8265 123.84 41.1494 124.121 40.4296 124.121C39.7094 124.121 39.0323 123.84 38.5234 123.331C34.9865 119.794 29.7885 118.401 24.9552 119.695C24.2602 119.882 23.5336 119.786 22.9104 119.426C22.2869 119.066 21.8402 118.484 21.654 117.789C20.3592 112.957 16.5534 109.151 11.7213 107.856C11.0259 107.67 10.4448 107.224 10.0847 106.601C9.72457 105.977 9.62898 105.25 9.81514 104.555C11.1103 99.7237 9.71703 94.5246 6.1797 90.9869C5.67082 90.4784 5.39051 89.8017 5.39051 89.0818C5.39051 88.362 5.67082 87.685 6.18006 87.1757C9.71703 83.6384 11.1103 78.4393 9.81514 73.6075C9.62898 72.9118 9.72457 72.1855 10.0847 71.5623C10.4448 70.9388 11.0259 70.4925 11.7216 70.3063C16.5534 69.0115 20.3592 65.2053 21.654 60.3739C21.8405 59.6781 22.2869 59.097 22.91 58.7369C23.5332 58.3768 24.2602 58.2809 24.9552 58.4678C29.7881 59.7626 34.9861 58.3697 38.5238 54.832C39.0327 54.3227 39.7097 54.0428 40.4296 54.0428C41.1494 54.0428 41.8265 54.3231 42.335 54.8316C42.4963 54.9933 42.6444 55.1874 42.7637 55.3904L46.6877 62.1873C45.1679 62.0547 43.5892 62.1859 42.0008 62.611C36.1343 64.1829 32.3436 69.1232 32.3436 75.197V83.6912C32.3436 85.1798 33.5501 86.3865 35.0389 86.3865C36.5278 86.3865 37.7343 85.1798 37.7343 83.6912V75.197C37.7343 70.8752 40.6592 68.5515 43.3966 67.818C46.1347 67.0852 49.8287 67.6347 51.9899 71.3772C53.4106 73.8314 55.5204 75.703 57.9642 76.8433C54.8172 79.9469 52.993 84.2407 52.993 89.0815C52.993 93.9223 54.8172 98.2164 57.9642 101.32C55.5204 102.46 53.4106 104.332 51.9928 106.788ZM95.8808 130.938C95.0873 131.213 94.233 131.086 93.5351 130.589C92.8038 130.068 92.3841 129.257 92.3841 128.364V116.243C92.3841 115.422 92.751 114.655 93.3917 114.139C94.0055 113.645 94.7922 113.451 95.5617 113.597C99.7886 114.519 104.073 115.182 108.391 115.58C107.467 122.584 102.674 128.583 95.8808 130.938ZM128.667 123.133C127.513 123.786 126.482 123.328 126.092 123.101C125.237 122.603 124.727 121.721 124.727 120.741V115.831C128.214 115.62 131.671 115.246 135.091 114.698C134.198 118.222 131.906 121.299 128.667 123.133ZM134.057 108.156C134.549 108.513 135.055 108.841 135.569 109.145C129.878 110.137 124.079 110.644 118.196 110.644C108.756 110.644 99.4012 109.329 90.3902 106.736C90.3744 106.731 90.3583 106.727 90.3424 106.723L67.152 100.509C60.6796 98.7749 58.3836 93.2693 58.3836 89.0818C58.3836 84.8944 60.6804 79.3891 67.152 77.6552L90.3424 71.4412C90.3583 71.4369 90.3744 71.4326 90.3902 71.4279C99.4012 68.8347 108.756 67.5197 118.196 67.5197H118.214C118.26 67.5197 118.306 67.5211 118.353 67.5211C122.73 67.5535 126.282 71.1562 126.282 75.5776V92.9074C126.282 99.0142 129.116 104.572 134.057 108.156ZM148.985 88.9535C144.527 88.9535 140.899 85.3264 140.899 80.8676C140.899 76.4088 144.527 72.7817 148.985 72.7817C153.444 72.7817 157.071 76.4088 157.071 80.8676C157.071 85.3264 153.444 88.9535 148.985 88.9535Z" fill="black"/>
</g>
<defs>
<clipPath id="clip0_2_42466">
<rect width="184" height="184" fill="white"/>
</clipPath>
</defs>
</svg>
