<svg width="184" height="185" viewBox="0 0 184 185" fill="none" xmlns="http://www.w3.org/2000/svg">
<g clip-path="url(#clip0_2_43463)">
<path d="M29.8289 116.641C28.5068 136.583 41.0356 153.596 59.7699 160.75C60.0653 160.862 60.406 160.778 60.6072 160.532C70.3261 148.691 58.9304 125.503 58.9304 125.503L29.8289 116.641Z" fill="#495560"/>
<path d="M123.891 145.181C110.272 150.809 82.5106 132.73 94.2895 110.942L119.766 99.0033C131.262 108.066 133.235 133.03 123.891 145.181Z" fill="#546370"/>
<path d="M123.891 145.181C119.899 150.38 113.829 153.231 105.552 151.49C74.2401 144.896 70.5889 122.045 70.5889 122.045L94.2896 110.942C94.6095 130.952 109.254 143.158 123.891 145.181Z" fill="#495560"/>
<path d="M119.766 80.4277L91.1343 74.9103V69.6602C47.1321 62.619 53.4574 33.9208 61.6979 29.2239C66.3985 30.998 72.4181 29.7442 76.3964 25.2565C76.7378 24.8699 77.3631 24.9422 77.5823 25.4119C80.4106 31.5147 87.8353 34.2319 94.1028 31.5003C97.4342 30.073 101.229 28.8518 105.552 27.9412C133.177 22.1278 136.182 67.4922 119.766 80.4277Z" fill="#546370"/>
<path d="M91.1343 69.6602V74.9103L36.4019 64.3631V34.0693C36.4019 33.531 36.9697 33.1696 37.4476 33.4189C44.743 37.2454 53.0805 33.6538 55.65 25.878C55.8333 25.3252 56.5592 25.1843 56.9042 25.6504C58.1476 27.3161 59.8187 28.5121 61.6983 29.2239C57.6334 38.651 56.124 55.7599 91.1343 69.6602Z" fill="#495560"/>
<path d="M122.105 91.9826L168.168 134.767C173.063 139.314 180.992 135.582 180.63 128.892C180.078 118.719 177.475 106.037 169.051 97.2092C166.141 94.1596 166.145 89.3381 169.011 86.2462C178.296 76.2287 180.939 63.9663 181.299 54.3525C181.548 47.7069 173.692 44.068 168.833 48.581L122.105 91.9826Z" fill="#546370"/>
<path d="M146.449 87.3219V96.0263C146.449 101.023 142.417 105.074 137.447 105.074H132.347C127.765 105.074 123.546 107.632 121.451 111.73C117.027 120.38 109.825 127.679 100.862 132.73C62.062 125.514 50.4344 58.0092 72.2488 43.0776C94.1383 43.3306 112.934 54.9689 121.451 71.6189C123.546 75.7164 127.765 78.2746 132.347 78.2746H137.447C142.417 78.2743 146.449 82.3247 146.449 87.3219Z" fill="#8697A6"/>
<path d="M100.863 132.73C92.3814 137.507 82.3189 140.274 71.5269 140.274C54.895 141.134 41.1058 133.192 29.6345 123.39C34.5544 117.547 41.573 104.21 41.573 89.1863C41.573 75.6293 36.4016 64.3631 33.2498 56.9016C43.1255 48.3454 56.6308 43.0736 71.5269 43.0736C71.7677 43.0736 72.0084 43.0736 72.2492 43.0772C58.0575 69.1001 69.3131 115.953 100.863 132.73Z" fill="#6B7D8E"/>
<path d="M91.7235 98.0461C87.4613 103.748 81.3627 111.115 75.663 115.14C58.1234 115.897 54.8416 97.4181 62.3662 92.6514C71.8105 91.5711 81.1148 90.9243 87.738 90.5557C91.6948 90.3353 94.1026 94.8628 91.7235 98.0461Z" fill="#546370"/>
<path d="M75.6633 115.141C74.8547 115.711 74.0569 116.217 73.2698 116.64C62.6 122.378 31.2517 99.0036 31.2517 99.0036C38.5291 96.0154 50.5573 93.9956 62.3664 92.6515C58.4636 100.359 62.9917 111.632 75.6633 115.141Z" fill="#495560"/>
<path d="M51.5922 89.1863C51.5922 104.21 42.3922 117.5 29.6344 123.39C20.3697 115.473 12.6216 106.342 6.11331 99.654C1.10003 94.505 1.66784 86.7329 7.37831 82.3789L14.3466 77.0709C18.4219 73.9635 22.0121 70.2527 24.9625 66.0468C27.3057 62.7045 30.0908 59.6333 33.2497 56.9016C44.0346 63.4164 51.5922 75.6292 51.5922 89.1863Z" fill="#546370"/>
<path d="M33.7437 85.1691C35.2322 85.1691 36.439 83.9557 36.439 82.4591V78.1232C36.439 76.6265 35.2322 75.4132 33.7437 75.4132C32.2551 75.4132 31.0483 76.6265 31.0483 78.1232V82.4591C31.0483 83.9557 32.2551 85.1691 33.7437 85.1691Z" fill="black"/>
<path d="M183.993 54.3178C184.15 50.1275 181.894 46.4358 178.106 44.683C174.32 42.9309 170.066 43.6095 167.004 46.4538L162.66 50.4884C161.567 51.5041 161.5 53.2186 162.51 54.3178C163.52 55.417 165.225 55.4852 166.318 54.4692L170.662 50.435C172.116 49.085 174.057 48.7754 175.853 49.6068C177.651 50.4389 178.681 52.1238 178.606 54.114C178.292 62.5142 176.03 74.5634 167.04 84.2621C163.186 88.4196 163.215 94.8707 167.107 98.949C175.176 107.404 177.451 119.905 177.939 128.903C178.047 130.898 177.036 132.598 175.235 133.45C173.424 134.307 171.466 134.004 169.998 132.64L142.063 106.693C146.223 104.89 149.144 100.727 149.144 95.8897V87.186C149.144 82.5234 146.43 78.4859 142.508 76.5857L157.078 63.0522C158.171 62.0365 158.239 60.322 157.229 59.2228C156.219 58.1237 154.514 58.0557 153.42 59.0714L135.811 75.4273H132.347C130.773 75.4273 129.266 75.049 127.931 74.357C134.387 62.2081 134.053 44.175 126.849 33.5949C121.84 26.2397 114.08 23.2421 104.999 25.1543C100.724 26.0543 96.7028 27.3056 93.0311 28.8792C90.4587 30 87.4996 29.9932 84.9132 28.8615C82.4245 27.7725 80.568 25.796 79.6857 23.2963C79.3544 22.3572 78.5371 21.6769 77.5579 21.5244C76.5786 21.3715 75.5949 21.7726 74.9969 22.5668C72.6333 25.706 68.9947 27.4108 65.2644 27.1242C62.2452 26.8934 59.7584 25.3581 58.4409 22.9119C57.9043 21.9161 56.809 21.3614 55.6935 21.519C54.578 21.6776 53.6785 22.5169 53.4377 23.6233C52.6539 27.2258 50.4146 30.0449 47.2942 31.3586C44.2697 32.632 40.8225 32.2779 37.8376 30.3863C37.0071 29.8599 35.9577 29.8295 35.0984 30.3061C34.2388 30.783 33.7051 31.6918 33.7051 32.6789V52.8602C29.5155 56.136 25.8172 59.9863 22.7593 64.3479C19.9885 68.3001 16.61 71.8082 12.718 74.7747L5.75257 80.0841C2.36582 82.6658 0.336428 86.3214 0.0381465 90.3783C-0.260494 94.4375 1.2133 98.3568 4.18857 101.414C11.7017 109.202 18.4633 117.167 27.3859 124.891C28.4475 133.47 32.001 141.56 37.7157 148.35C38.681 149.496 40.3837 149.631 41.5143 148.668C42.6507 147.701 42.7923 145.991 41.8306 144.849C38.138 140.462 35.4725 135.465 33.943 130.142C41.9898 136.054 51.0902 140.734 61.4036 142.324C62.1439 147.234 62.1572 153.167 59.3555 157.531C56.2836 156.251 53.368 154.67 50.6665 152.818C49.4364 151.975 47.7596 152.294 46.9211 153.531C46.0827 154.767 46.3997 156.453 47.6298 157.297C51.2304 159.765 55.1677 161.798 59.3329 163.341C60.361 163.725 61.5434 163.436 62.2815 162.596C66.409 157.916 67.9615 151.287 66.9203 142.865C71.3098 142.972 75.8264 142.841 80.1493 142.261C86.6051 147.939 94.9545 151.89 104.999 154.005C112.93 155.791 121.052 153.369 126.035 146.689C129.838 141.735 132.119 134.652 132.459 126.743C132.742 120.159 131.679 113.646 129.449 108.098C130.371 107.807 131.344 107.649 132.347 107.649H135.148L166.34 136.621C169.449 139.515 173.769 140.141 177.529 138.354C181.331 136.556 183.55 132.821 183.322 128.608C182.784 118.695 180.209 104.851 170.997 95.197C169.084 93.1927 169.078 90.0127 170.983 87.9578C181.103 77.0388 183.644 63.6375 183.993 54.3178ZM39.0957 36.8736C42.4983 37.9005 46.0827 37.744 49.376 36.3576C52.6399 34.9838 55.2633 32.5705 56.9664 29.4653C59.1169 31.2235 61.8294 32.2967 64.8557 32.5283C69.0913 32.8502 73.2313 31.4808 76.4991 28.7723C78.0534 30.9648 80.1931 32.7068 82.7623 33.8308C86.7133 35.5602 91.2375 35.5678 95.1597 33.8587C98.4922 32.4303 102.174 31.2864 106.104 30.4589C113.112 28.9836 118.595 31.0685 122.4 36.6568C128.196 45.1686 128.663 59.9856 123.9 70.3369C123.884 70.3055 123.865 70.2758 123.849 70.2444C114.524 52.0096 93.9856 40.2274 71.5257 40.2274C59.7009 40.2274 48.4797 43.397 39.0961 49.1241L39.0957 36.8736ZM8.04143 97.623C6.16405 95.6942 5.23112 93.2628 5.41404 90.7776C5.5966 88.2946 6.87346 86.0308 9.00887 84.4027L15.9743 79.0933C20.3091 75.7894 24.0742 71.8787 27.1652 67.4701C29.0077 64.8422 31.1115 62.4202 33.4338 60.2183C43.018 66.5733 48.8991 77.4457 48.8991 89.0487C48.8991 102.154 41.5075 114.083 29.9331 119.91C23.9384 114.627 9.88897 99.5218 8.04143 97.623ZM53.6138 96.3822C65.6007 94.6066 78.756 93.6339 87.8892 93.1255C89.0194 93.0623 89.5527 93.8323 89.7302 94.1658C89.9074 94.4989 90.2463 95.3723 89.5682 96.2799C82.8087 105.324 76.5692 111.658 71.999 114.115C70.3474 115.002 64.938 116.034 49.7512 107.567C51.5679 104.08 52.8824 100.316 53.6138 96.3822ZM121.767 143.378C117.988 148.302 112.718 150.093 106.104 148.7C98.7103 147.144 92.3673 144.523 87.165 140.896C103.156 136.843 116.751 126.709 123.849 112.831C124.141 112.26 124.486 111.729 124.875 111.24C128.706 121.919 127.511 135.895 121.767 143.378ZM119.055 110.353C110.643 126.801 91.9796 136.873 71.5257 137.428C57.1781 137.818 44.8691 131.936 34.4027 123.648C39.4152 120.743 43.6634 116.812 46.9308 112.193C56.3892 117.492 63.7172 120.122 69.0845 120.122C71.2048 120.122 73.0207 119.712 74.5409 118.895C81.2677 115.279 88.7693 106.371 93.8778 99.5362C95.615 97.2118 95.8475 94.1755 94.4844 91.6115C93.1209 89.0465 90.4788 87.5556 87.5912 87.7143C78.7028 88.2093 66.0417 89.1397 54.2466 90.8148C54.8763 77.3705 48.497 64.3761 37.7186 56.6043C47.0444 49.5609 58.8628 45.66 71.5257 45.6474C91.9875 45.6474 110.644 56.2751 119.055 72.7231C121.618 77.7344 126.711 80.8472 132.347 80.8472H137.448C140.924 80.8472 143.753 83.6909 143.753 87.1864V95.89C143.753 99.3855 140.924 102.229 137.448 102.229H132.347C126.711 102.229 121.618 105.342 119.055 110.353Z" fill="black"/>
</g>
<defs>
<clipPath id="clip0_2_43463">
<rect width="184" height="185" fill="white"/>
</clipPath>
</defs>
</svg>
