<svg width="184" height="184" viewBox="0 0 184 184" fill="none" xmlns="http://www.w3.org/2000/svg">
<g clip-path="url(#clip0_2_43282)">
<path d="M101.951 37.9612L89.5886 59.8687C85.808 59.0806 81.3697 56.8438 76.1839 54.0335C66.7575 48.9232 56.5606 35.1272 64.4755 29.7567C69.2372 32.434 75.0842 31.9345 80.4497 28.2149C80.9205 27.8915 81.5565 28.1143 81.729 28.657C84.428 37.1526 92.938 38.8345 101.951 37.9612Z" fill="#C76D33"/>
<path d="M89.5885 59.8686L89.4555 60.1022L29.2458 62.3519C38.9526 52.5266 40.983 36.1715 41.3963 30.7413C41.4466 30.0693 42.2301 29.7386 42.7548 30.1663C47.193 33.7924 54.3805 32.8796 59.2788 26.5905C59.6023 26.1736 60.2204 26.1521 60.569 26.551C61.7477 27.8986 63.063 28.966 64.4754 29.7566C61.9418 37.6161 69.0143 46.3022 78.4407 51.4125C83.6265 54.2229 87.213 57.0799 89.5885 59.8686Z" fill="#AF602D"/>
<path d="M64.8366 122.092C69.75 134.719 66.6266 148.907 64.5663 155.686C63.8965 157.889 61.3737 158.915 59.3504 157.815C53.0293 154.378 40.5849 146.278 35.3553 133.519C32.04 125.43 35.9188 116.184 44.0176 112.883C52.2297 109.537 61.6209 113.828 64.8366 122.092Z" fill="#AF602D"/>
<path d="M126.734 134.949C111.962 143.741 85.8081 125.122 99.0043 99.0513L121.796 88.4282C133.389 97.5132 135.607 122.17 126.734 134.949Z" fill="#C76D33"/>
<path d="M126.734 134.949C122.626 140.868 116.143 144.239 107.115 142.349C74.7715 135.578 71.0017 112.1 71.0017 112.1L99.0042 99.0513C96.0717 121.11 112.089 137.591 126.734 134.949Z" fill="#AF602D"/>
<path d="M121.796 89.5746L107.759 83.034C90.3689 67.1773 101.158 33.4999 120.93 37.5083C136.099 46.561 135.452 78.8724 121.796 89.5746Z" fill="#C76D33"/>
<path d="M107.759 83.0339L71.0017 65.9025C71.0017 65.9025 74.7715 42.4281 107.115 35.6539C112.671 34.4895 117.26 35.3197 120.93 37.5083C105.962 38.8524 98.1884 64.8495 107.759 83.0339Z" fill="#AF602D"/>
<path d="M177.06 111.82C175.511 114.715 172.197 116.183 168.991 115.476C157.048 112.844 137.145 101.974 137.145 88.9651C137.145 76.0905 156.639 65.3114 168.618 62.5381C171.942 61.7687 175.355 63.4304 176.847 66.4988C182.592 78.3093 182.911 100.892 177.06 111.82Z" fill="#C76D33"/>
<path d="M155.908 89.0031C155.908 96.6147 149.734 102.789 142.118 102.789C136.336 102.789 130.737 104.859 126.385 108.668C119.083 115.054 108.919 120.384 98.4005 124.057C70.3305 119.34 52.8393 67.6049 74.4015 48.6489C91.3783 49.975 113.401 57.9819 126.385 69.3381C130.737 73.1439 136.336 75.2139 142.118 75.2139C145.928 75.2139 149.374 76.7556 151.868 79.2533C154.366 81.7474 155.908 85.1938 155.908 89.0031Z" fill="#EAAA83"/>
<path d="M98.4005 124.057C88.4063 127.553 78.0886 129.555 69.6074 129.555C59.4694 129.555 46.841 126.698 35.2979 121.846C40.8214 110.145 46.3091 102.422 48.566 93.9877C53.1624 76.8204 49.2344 60.0699 49.2164 51.4125C56.3968 49.5007 63.4585 48.4513 69.6074 48.4513C71.1491 48.4513 72.7519 48.516 74.4014 48.649C65.2841 68.3068 74.635 110.605 98.4005 124.057Z" fill="#DF8A57"/>
<path d="M85.8079 105.121C67.1916 109.176 62.1438 92.8675 68.7736 85.4597C70.9729 84.3672 73.1507 83.4688 75.0734 82.8435C77.5603 82.0349 80.3059 82.8902 81.8656 84.9925C85.6426 90.0705 87.3533 98.8931 85.8079 105.121Z" fill="#C76D33"/>
<path d="M85.8079 105.121C85.6426 105.779 85.4413 106.411 85.2041 107.004C84.2626 109.347 81.9159 110.806 79.3895 110.756C70.7896 110.591 55.8935 106.868 54.9052 99.9892C54.1577 94.7747 61.568 89.0535 68.7735 85.4597C66.0135 94.2896 71.1526 104.417 85.8079 105.121Z" fill="#AF602D"/>
<path d="M59.5448 99.3065C57.288 107.741 44.1923 117.509 35.2978 121.846C17.7459 114.479 2.69531 102.512 2.69531 89.0032C2.69531 71.994 26.547 57.4321 49.2164 51.4126C56.0409 62.2873 64.1413 82.1392 59.5448 99.3065Z" fill="#C76D33"/>
<path d="M39.2166 79.8567V75.5442C39.2166 74.0557 38.0098 72.8489 36.5212 72.8489C35.0327 72.8489 33.8259 74.0557 33.8259 75.5442V79.8567C33.8259 81.3452 35.0327 82.552 36.5212 82.552C38.0101 82.552 39.2166 81.3452 39.2166 79.8567Z" fill="black"/>
<path d="M183.669 82.9671C183.531 81.485 182.217 80.3951 180.736 80.5327C179.254 80.6703 178.164 81.9835 178.302 83.4656C179.279 93.9848 177.858 104.615 174.682 110.547C173.717 112.35 171.613 113.294 169.569 112.843C164.089 111.635 156.127 108.343 149.736 103.61C154.999 100.855 158.6 95.3422 158.6 89.001C158.6 82.6379 154.974 77.1096 149.681 74.3637C155.951 69.7162 163.795 66.4208 169.224 65.164C171.295 64.6853 173.48 65.7419 174.421 67.6778C174.989 68.8455 175.523 70.1985 176.009 71.6989C176.467 73.1152 177.988 73.8914 179.403 73.4336C180.82 72.9754 181.596 71.4556 181.138 70.0393C180.576 68.3006 179.947 66.7129 179.269 65.3204C177.206 61.079 172.575 58.8548 168.009 59.9128C160.867 61.5663 150.653 66.0909 143.35 72.5697C140.227 72.5406 137.072 72.2042 134.215 71.0028C135.995 60.0976 134.266 46.3213 126.292 38.318C121.205 33.212 114.383 31.3792 106.563 33.0161C103.461 33.6659 100.522 34.4871 97.7425 35.4678C89.8998 35.4304 85.4098 32.6215 84.0312 26.883C83.8174 25.9936 83.1673 25.273 82.3041 24.9697C81.4408 24.6668 80.4831 24.8213 79.7597 25.3819C76.6137 27.8192 73.2636 28.9732 70.0742 28.7173C66.9631 28.4686 64.1829 26.869 62.0339 24.0918C61.5081 23.4126 60.6952 23.0226 59.832 23.0467C58.9734 23.069 58.1771 23.4992 57.6876 24.205C55.4199 27.4742 52.3279 29.4346 49.2045 29.5841C46.9613 29.6933 44.9531 28.8406 43.5555 27.1889C42.8328 26.3343 41.6562 26.0166 40.6011 26.3885C39.5456 26.7608 38.8298 27.7477 38.8032 28.8668C38.7996 29.0163 38.3715 43.6357 31.6627 54.7964C29.4831 55.7836 27.3492 56.8384 25.2849 57.9575C8.97934 66.7985 0 77.8234 0 89.001C0 95.5294 3.00437 101.945 8.92975 108.07C9.96475 109.14 11.6707 109.168 12.7409 108.133C13.8108 107.098 13.8392 105.392 12.8042 104.322C7.88469 99.2371 5.39062 94.0822 5.39062 89.001C5.39062 80.0245 13.5779 70.4368 27.8537 62.6962C34.0788 59.3206 41.1014 56.5221 48.0966 54.5244C54.8909 65.9273 60.9504 83.6348 56.9422 98.6089C55.1457 105.321 44.4065 114.097 35.038 118.786C30.3992 116.764 26.0019 114.436 22.1195 111.884C20.8761 111.066 19.205 111.412 18.3867 112.655C17.5691 113.899 17.9145 115.57 19.1583 116.388C23.065 118.956 27.4023 121.294 31.9599 123.342C31.091 127.062 31.3921 130.957 32.8609 134.54C38.3399 147.909 51.0021 156.344 58.0624 160.182C59.7465 161.097 61.7273 161.203 63.4937 160.479C65.2593 159.756 66.5897 158.294 67.1445 156.469C68.6554 151.498 70.8644 142.142 69.9178 132.244C72.8974 132.228 76.0768 131.98 79.3838 131.519C86.222 138.108 95.3537 142.64 106.562 144.987C113.706 146.584 121.188 144.958 126.292 139.685C134.266 131.682 135.995 117.906 134.214 107C137.095 105.783 140.28 105.467 143.426 105.428C150.88 112.014 161.215 116.522 168.409 118.108C172.706 119.08 177.344 117.037 179.434 113.092C183.131 106.187 184.754 94.6436 183.669 82.9671ZM107.667 38.2918C113.7 37.0278 118.681 38.3169 122.473 42.122C127.835 47.5036 130.399 57.8094 129.177 68.1386C121.672 61.5491 111.854 55.8871 100.089 51.6842C95.431 50.0171 90.7461 48.6766 86.199 47.6948C91.899 43.2443 99.093 40.0872 107.667 38.2918ZM43.7931 33.9315C45.5339 34.7002 47.4655 35.0628 49.4615 34.9683C53.3133 34.7839 57.0371 32.9507 60.0271 29.8375C62.7663 32.3211 66.0912 33.806 69.644 34.0903C73.1253 34.3688 76.6612 33.534 80.022 31.6595C81.5167 34.7911 84.185 37.7814 88.8623 39.463C85.33 41.4543 82.1686 43.7995 79.3838 46.4826C75.9622 46.0057 72.6739 45.7538 69.6055 45.7538C60.4253 45.7538 49.6045 47.9316 39.2459 51.7047C42.048 45.0627 43.2662 38.3284 43.7931 33.9315ZM75.9043 85.4051C77.3066 84.9491 78.8332 85.4288 79.7022 86.5986C83.3682 91.5335 84.7981 100.781 82.7019 105.999C82.1952 107.26 80.8978 108.09 79.4424 108.061C73.5806 107.948 65.4379 106.136 60.8494 103.296C61.4093 102.202 61.8556 101.101 62.1496 100.002C62.8558 97.3637 63.3079 94.6144 63.5105 91.765C67.045 89.1875 71.778 86.7467 75.9043 85.4051ZM57.8838 107.796C64.097 111.7 73.9321 113.347 79.3374 113.451C82.9908 113.525 86.3708 111.336 87.7033 108.009C90.4845 101.085 88.8019 89.8085 84.0291 83.384C81.7779 80.3541 77.8431 79.1056 74.2375 80.279C71.3327 81.2231 67.3749 82.9351 63.5461 85.2678C63.3086 81.0797 62.5823 76.7071 61.3618 72.1708C59.1883 64.0916 55.9899 57.4831 53.5239 53.1347C59.1973 51.8517 64.7094 51.1452 69.6048 51.1452C88.578 51.3374 111.572 60.1457 124.607 71.3654C129.432 75.5848 135.65 77.9089 142.118 77.9089C148.234 77.9089 153.21 82.8848 153.21 89.0014C153.21 95.1179 148.234 100.093 142.118 100.093C135.651 100.093 129.432 102.418 124.607 106.637C111.57 117.858 88.5802 126.665 69.6048 126.857C61.1929 126.857 51.1189 124.796 41.5236 121.356C47.164 117.99 53.6231 113.119 57.8838 107.796ZM61.9864 154.9C61.8743 155.268 61.6019 155.428 61.4492 155.491C61.2939 155.554 60.9823 155.633 60.6363 155.445C54.2056 151.949 42.6941 144.319 37.8483 132.495C36.9261 130.246 36.657 127.824 37.035 125.466C46.129 129.002 55.7728 131.347 64.4751 132.034C65.5234 141.266 63.4139 150.205 61.9864 154.9ZM122.473 135.88C118.682 139.685 113.7 140.974 107.667 139.71C99.093 137.915 91.899 134.757 86.199 130.307C90.7461 129.325 95.431 127.985 100.089 126.318C111.857 122.113 121.67 116.454 129.177 109.863C130.399 120.193 127.835 130.498 122.473 135.88Z" fill="black"/>
</g>
<defs>
<clipPath id="clip0_2_43282">
<rect width="184" height="184" fill="white"/>
</clipPath>
</defs>
</svg>
