<svg width="184" height="184" viewBox="0 0 184 184" fill="none" xmlns="http://www.w3.org/2000/svg">
<g clip-path="url(#clip0_2_43302)">
<path d="M77.7787 74.186H60.8378C47.354 69.8376 46.0549 53.2578 52.6261 50.8306C55.228 53.472 60.2125 53.605 62.8251 49.4182C62.9617 49.199 63.2384 49.102 63.4864 49.1847C70.1927 51.3589 76.7078 56.2967 77.7787 74.186Z" fill="#FF7E27"/>
<path d="M60.8383 74.1861H31.7756L38.1438 49.4039C38.2084 49.1488 38.5499 49.0949 38.6864 49.3213C41.2452 53.5763 47.9691 53.5188 50.5997 47.9772C50.7075 47.7436 51.0417 47.7867 51.0992 48.0383C51.3472 49.1416 51.8899 50.0867 52.6266 50.8306C49.4389 56.2249 50.5817 65.1194 60.8383 74.1861Z" fill="#FF6E02"/>
<path d="M146.009 66.3916L130.068 79.5987L109.267 75.0705C97.5887 69.4668 99.0736 55.2381 109.152 54.2124C123.312 55.6822 138.153 60.904 145.948 65.601C146.236 65.7735 146.265 66.176 146.009 66.3916Z" fill="#FF7E27"/>
<path d="M109.267 75.0701L75.4648 67.7137C79.5366 55.3692 93.9511 52.6307 109.152 54.212C102.029 58.4494 101.997 66.7833 109.267 75.0701Z" fill="#FF6E02"/>
<path d="M54.189 108.929L69.6345 127.514C72.5875 131.068 70.2153 136.467 65.6009 136.696L61.6729 136.89C56.8649 137.128 52.3791 134.472 50.2764 130.141L42.689 114.512L54.189 108.929Z" fill="#FF6E02"/>
<path d="M140.36 125.609C140.069 126.403 139.702 127.143 139.268 127.826C122.523 131.945 108.101 109.569 113.939 97.1969L138.628 94.3901C142.193 100.726 145.442 111.752 140.36 125.609Z" fill="#FF7E27"/>
<path d="M139.268 127.826C136.119 132.8 129.536 134.719 124.03 131.955C112.462 126.148 98.9173 116.851 94.824 99.3675L113.939 97.1969C114.672 114.896 128.461 125.821 139.268 127.826Z" fill="#FF6E02"/>
<path d="M181.066 107.712C182.507 114.246 176.286 117.825 171.208 115.766C170.286 114.828 169.565 113.514 169.231 112.788C163.182 99.6367 162.62 85.9226 169.371 69.1843C169.676 68.4278 170.426 67.4759 171.244 66.6576C176.336 64.5948 182.611 68.0735 181.066 74.7291C178.558 85.5244 178.892 97.8689 181.066 107.712Z" fill="#546370"/>
<path d="M170.932 113.178C171.104 113.958 171.194 114.979 171.209 115.766C170.475 115.467 169.764 115.051 169.103 114.508L140.824 91.2208L169.103 67.9336C169.771 67.3838 170.497 66.9597 171.244 66.6578C171.216 67.4521 171.119 68.4799 170.932 69.2741C167.597 83.6412 168.039 100.075 170.932 113.178Z" fill="#FF7E27"/>
<path d="M158.282 90.4981C143.386 99.274 114.683 101.481 80.762 100.873C62.1917 91.219 61.327 67.5847 70.6564 63.5848C114.101 66.1112 158.282 77.2443 158.282 90.4981Z" fill="#FFB88C"/>
<path d="M80.7617 100.873C71.6875 100.715 62.2431 100.349 52.5871 99.8563C47.0635 93.0353 43.4662 71.236 42.521 64.0305C46.1255 63.3908 49.5755 63.0494 52.6662 63.0494C58.5671 63.0494 64.6046 63.2327 70.6565 63.5849C65.4132 72.4144 69.1902 88.7013 80.7617 100.873Z" fill="#FF9A5C"/>
<path d="M158.282 90.498C158.106 100.481 132.634 109.207 101.616 113.947C85.1774 113.947 77.035 104.477 77.5133 97.0958C114.5 97.4771 146.096 93.9912 158.282 90.498Z" fill="#E8ECF9"/>
<path d="M101.613 113.947C85.8648 116.355 68.6906 117.738 52.6661 117.738C49.5755 117.738 46.1255 117.397 42.5173 116.757C44.3466 108.93 49.7192 100.664 56.1987 96.449C63.433 96.8191 70.5666 97.024 77.5133 97.0958C83.1264 104.327 91.2303 110.627 101.613 113.947Z" fill="#C5CFF1"/>
<path d="M86.0875 86.7103L82.2853 95.6372C81.1568 98.2929 79.1407 100.388 76.6754 101.642C62.2016 102.943 57.9947 91.1813 63.2456 87.8495L82.9321 83.0015C85.11 82.4661 86.9643 84.6475 86.0875 86.7103Z" fill="#FF7E27"/>
<path d="M76.6755 101.642C75.0223 102.48 73.168 102.943 71.2381 102.943H44.6555L53.8627 90.1603L63.246 87.8495C61.255 92.7945 64.0186 98.7817 76.6755 101.642Z" fill="#FF6E02"/>
<path d="M56.8132 90.3939C56.8819 100.907 50.9967 111.179 42.5173 116.757C24.5597 113.574 2.77078 103.012 2.69531 90.4586V90.3939C2.69531 77.8122 24.5345 67.2178 42.5209 64.0305C50.9339 69.64 56.8132 79.5408 56.8132 90.3939Z" fill="#FF7E27"/>
<path d="M39.8289 85.0741V80.7612C39.8289 79.2727 38.6221 78.0659 37.1335 78.0659C35.645 78.0659 34.4382 79.2727 34.4382 80.7612V85.0741C34.4382 86.5626 35.645 87.7694 37.1335 87.7694C38.6221 87.7694 39.8289 86.5626 39.8289 85.0741Z" fill="black"/>
<path d="M183.7 75.3372C184.699 71.0362 183.163 67.027 179.691 64.8744C175.941 62.5273 170.796 63.0329 167.399 65.8501L151.955 78.5669C148.656 76.5979 145.548 75.2028 141.487 73.6413L148.257 68.0307C148.923 67.4791 149.284 66.6418 149.227 65.7789C149.17 64.916 148.703 64.133 147.972 63.673C143.938 61.139 138.135 58.5598 131.632 56.41C130.218 55.9424 128.694 56.7101 128.227 58.1231C127.76 59.5366 128.527 61.061 129.94 61.5286C134.339 62.9826 138.478 64.6817 141.801 66.3798L135.532 71.5745C132.084 70.4781 128.309 69.4309 124.219 68.4376C111.819 65.4256 97.3288 63.1361 82.5793 61.7751C91.7463 54.0158 109.975 56.6562 118.088 58.3438C119.548 58.6478 120.973 57.7109 121.276 56.2537C121.579 54.7964 120.643 53.369 119.186 53.066C109.712 51.0956 100.947 50.6068 93.8393 51.6515C86.7571 52.6926 81.3025 55.2036 77.5459 59.1208C74.1653 50.6862 68.5511 47.9108 63.8379 46.4647C62.6232 46.092 61.3112 46.6188 60.6927 47.73C59.2408 50.3366 57.0008 50.0616 56.3493 49.9157C55.181 49.6534 53.7744 48.71 53.6547 46.9135C53.5699 45.6402 52.6039 44.6013 51.3403 44.4234C50.0753 44.2462 48.8617 44.9786 48.4294 46.1793C47.6758 48.2723 46.1229 49.5661 44.2754 49.6404C43.0697 49.6857 41.529 49.1614 40.7916 47.5374C40.319 46.4966 39.2441 45.8663 38.102 45.9666C36.9632 46.0661 36.0112 46.8736 35.7265 47.9809L31.63 63.9231C27.4469 65.2114 23.3295 66.802 19.564 68.6327C6.94816 74.7651 0 82.4931 0 90.3925C0 96.6064 4.28339 102.726 12.3873 108.091C13.6282 108.913 15.3011 108.573 16.1226 107.331C16.9445 106.09 16.6042 104.418 15.3629 103.596C10.8136 100.584 5.39098 95.8492 5.39098 90.3925C5.39098 80.0446 24.9381 70.2089 41.8014 66.9095C49.294 72.087 53.8322 80.4152 54.1075 89.5135C54.4169 99.1939 49.7979 108.371 41.7878 113.885C36.6261 112.883 31.1873 111.265 26.0723 109.16C24.6955 108.593 23.1204 109.25 22.5537 110.626C21.9869 112.002 22.6435 113.578 24.0203 114.144C29.8759 116.555 36.1589 118.367 42.0745 119.413L47.8547 131.319C50.4239 136.636 55.9554 139.885 61.8096 139.583L65.738 139.389C68.8994 139.232 71.6543 137.334 72.9272 134.436C74.2005 131.538 73.7344 128.226 71.7115 125.792L66.9703 120.087C78.076 119.566 89.4265 118.468 100.225 116.881C105.449 123.683 112.679 129.269 122.829 134.366C126.542 136.23 130.88 136.423 134.733 134.898C138.525 133.397 141.502 130.349 142.9 126.536C145.505 119.43 146.285 112.39 145.239 105.574C147.258 104.695 148.977 103.871 150.75 102.878L167.4 116.588C170.786 119.398 175.775 119.907 179.556 117.558C183.062 115.41 184.652 111.414 183.706 107.13C181.452 96.9159 181.45 85.0306 183.7 75.3372ZM39.763 53.9357C41.1732 54.7015 42.7969 55.0958 44.4928 55.0268C46.7795 54.9348 48.8736 54.0396 50.535 52.5295C51.727 53.8196 53.3233 54.7608 55.1695 55.1752C58.5059 55.9248 61.8021 54.7921 64.0633 52.2474C67.2966 53.5361 70.3725 55.7883 72.4917 60.9942C65.7951 60.5737 59.1305 60.352 52.6689 60.352C48.0783 60.3365 42.4569 61.1537 37.6129 62.3037L39.763 53.9357ZM49.0626 65.8921C50.3064 65.7944 51.5132 65.7426 52.6693 65.7426C76.2245 65.7426 102.497 68.7082 122.948 73.6758C143.565 78.6833 152.802 84.3902 155.042 88.4727C142.762 91.4674 116.517 94.272 85.7375 94.4218L88.5716 87.764C89.3805 85.8636 89.0517 83.7056 87.7137 82.1323C86.3754 80.5589 84.2982 79.8883 82.2922 80.3825L59.2379 86.0591C58.2558 78.3297 54.662 71.2421 49.0626 65.8921ZM59.4917 91.5486L83.5888 85.6096C83.5996 85.615 83.6169 85.6351 83.6111 85.6531L79.81 94.5821C78.3772 97.976 74.9872 100.26 71.2411 100.247H58.0595C58.9016 97.4582 59.3918 94.5393 59.4917 91.5486ZM55.913 105.638H71.2418C75.9187 105.638 80.2204 103.435 82.9578 99.8193C112.957 99.8308 139.397 97.2648 153.424 94.3528C149.557 98.1683 140.206 102.88 122.737 107.108C102.213 112.076 76.02 115.042 52.6693 115.042C51.5157 115.042 50.3075 114.987 49.0644 114.89C51.8805 112.2 54.1891 109.07 55.913 105.638ZM67.5654 129.238C68.2856 130.104 68.4448 131.237 67.9916 132.269C67.5384 133.3 66.5961 133.949 65.4709 134.005L61.5426 134.2C57.8069 134.383 54.3371 132.33 52.7041 128.965L48.4725 120.249C49.9201 120.366 51.3274 120.433 52.6693 120.433C55.1393 120.433 57.6423 120.399 60.1658 120.334L67.5654 129.238ZM137.838 124.681C136.955 127.087 135.148 128.936 132.748 129.886C130.322 130.846 127.589 130.724 125.248 129.548C117.057 125.436 110.966 121.035 106.413 115.908C112.571 114.875 118.489 113.683 124.005 112.348C130.061 110.882 135.43 109.301 140.075 107.618C140.711 113.15 139.967 118.875 137.838 124.681ZM155.451 99.7668C159.131 96.8192 160.981 93.7077 160.991 90.3925C160.991 87.4043 159.47 84.5433 156.46 81.8412L167.485 72.7634C165.395 84.3751 165.407 97.6537 167.519 109.704L155.451 99.7668ZM178.443 108.292C179.056 111.071 177.639 112.41 176.74 112.961C175.962 113.438 174.891 113.717 173.76 113.625C170.5 99.1483 170.499 82.593 173.776 68.7836C174.947 68.6755 176.053 68.9615 176.85 69.4564C178.361 70.3936 178.929 72.0493 178.449 74.1182C176.025 84.5559 176.023 97.3317 178.443 108.292Z" fill="black"/>
</g>
<defs>
<clipPath id="clip0_2_43302">
<rect width="184" height="184" fill="white"/>
</clipPath>
</defs>
</svg>
