<svg width="184" height="185" viewBox="0 0 184 185" fill="none" xmlns="http://www.w3.org/2000/svg">
<g clip-path="url(#clip0_2_42632)">
<path d="M100.445 120.915L78.8788 164.274C96.7561 164.274 111.226 149.73 111.226 131.755V120.915H100.445Z" fill="#FFB464"/>
<path d="M100.445 131.755V120.915H89.6621V131.755C83.7102 131.755 78.8841 136.605 78.8809 142.589L78.8788 146.517C78.8788 149.649 77.6569 152.716 75.3184 154.785C74.1961 155.778 73.4882 157.233 73.4882 158.855C73.4882 161.848 75.9017 164.274 78.8788 164.274C90.7977 164.274 100.445 149.73 100.445 131.755Z" fill="#FFD06A"/>
<path d="M28.8256 71.4335L10.8573 61.0031C10.2503 60.6508 9.58797 60.3935 8.89438 60.292C5.55832 59.8046 2.69556 62.3924 2.69556 65.6526V100.143C2.69556 102.673 4.35873 104.963 6.80355 105.563C8.17096 105.898 9.59228 105.682 10.7814 104.992L28.8256 94.5175V71.4335Z" fill="#E5FAFF"/>
<path d="M30.8468 72.6067L28.8257 71.4335C24.4298 78.4602 24.4298 87.4912 28.8257 94.5179L30.8464 93.3447C35.0723 90.8916 40.4101 91.598 43.8604 95.0675V70.8839C40.4104 74.3534 35.0727 75.0598 30.8468 72.6067Z" fill="#FFB464"/>
<path d="M100.445 131.755L46.8141 98.0371L54.3214 131.755H100.445Z" fill="#FFB464"/>
<path d="M46.814 98.0371C42.9928 96.1163 38.3821 98.2163 37.2986 102.371L33.1801 118.166C31.3887 125.037 36.5442 131.755 43.6088 131.755H54.321C63.9259 131.755 68.7361 120.079 61.9443 113.25L46.814 98.0371Z" fill="#FFD06A"/>
<path d="M59.6556 21.487C43.6725 17.1811 29.0212 31.8325 33.2172 47.9256H113.002V35.8591L59.6556 21.487Z" fill="#FFB464"/>
<path d="M50.8114 30.3268C40.2785 27.4893 30.5043 37.0503 33.1554 47.6849C33.1755 47.7651 33.196 47.8453 33.2169 47.9255L37.7877 65.4563C38.8432 69.5046 43.8705 70.8737 46.8137 67.9144L98.1128 43.07L50.8114 30.3268Z" fill="#FFD06A"/>
<path d="M178.6 121.641L159.742 110.694C153.07 106.822 148.96 99.6646 148.96 91.9192L138.179 131.755H175.904C181.42 131.755 183.376 124.414 178.6 121.641Z" fill="#C2F0FC"/>
<path d="M138.179 52.3193H129.794L127.398 131.755H138.179C144.133 131.755 148.96 126.902 148.96 120.915V82.976C148.96 71.3609 144.92 60.6963 138.179 52.3193Z" fill="#FFB464"/>
<path d="M138.179 120.915V82.976C138.179 71.3612 135.037 60.6963 129.794 52.3193H116.617V131.755H127.398C133.352 131.755 138.179 126.902 138.179 120.915Z" fill="#FFD06A"/>
<path d="M100.445 34.197L133.464 59.3518C134.835 56.8673 136.413 54.514 138.179 52.3193C129.285 41.266 115.687 34.197 100.445 34.197Z" fill="#C2F0FC"/>
<path d="M100.445 34.197C87.047 34.197 74.9174 39.6577 66.1376 48.486L39.4577 75.3109C35.2473 79.5442 35.2473 86.4075 39.4577 90.6405L66.1376 117.465C74.9174 126.294 87.047 131.754 100.445 131.754H116.617C122.571 131.754 127.398 126.901 127.398 120.915V82.9753C127.398 74.4032 129.601 66.3503 133.464 59.3511C127.027 44.3514 114.654 34.197 100.445 34.197Z" fill="#E5FAFF"/>
<path d="M122.007 99.2356C130.939 99.2356 138.179 91.9559 138.179 82.976C138.179 73.996 130.939 66.7163 122.007 66.7163C113.076 66.7163 105.836 73.996 105.836 82.976C105.836 91.9559 113.076 99.2356 122.007 99.2356Z" fill="white"/>
<path d="M122.007 88.3959C124.985 88.3959 127.398 85.9694 127.398 82.976C127.398 79.9827 124.985 77.5562 122.007 77.5562C119.03 77.5562 116.617 79.9827 116.617 82.976C116.617 85.9694 119.03 88.3959 122.007 88.3959Z" fill="#515985"/>
<path d="M89.2873 66.716L86.7821 64.1972C84.3923 61.794 80.3867 62.1496 78.5137 64.978C71.3169 75.8453 71.3169 90.1065 78.5137 100.974C80.3871 103.803 84.3923 104.158 86.7821 101.755L89.2873 99.2357V66.716Z" fill="#FFD06A"/>
<path d="M94.6779 82.9756C94.6779 79.8747 95.5422 76.9769 97.0404 74.5112L89.2873 66.7159C85.9031 71.2452 83.8971 76.8746 83.8971 82.9756C83.8971 89.0766 85.9035 94.7061 89.2877 99.2356L97.0408 91.4404C95.5422 88.9747 94.6779 86.0769 94.6779 82.9756Z" fill="#FFB464"/>
<path d="M122.007 74.8455C117.549 74.8455 113.921 78.4923 113.921 82.9753C113.921 87.4583 117.549 91.1051 122.007 91.1051C126.466 91.1051 130.093 87.4583 130.093 82.9753C130.093 78.4923 126.466 74.8455 122.007 74.8455ZM122.007 85.6852C120.521 85.6852 119.312 84.4697 119.312 82.9753C119.312 81.4808 120.521 80.2653 122.007 80.2653C123.494 80.2653 124.702 81.4808 124.702 82.9753C124.702 84.4697 123.494 85.6852 122.007 85.6852Z" fill="black"/>
<path d="M179.947 119.294L161.089 108.347C155.27 104.969 151.655 98.6742 151.655 91.9188V82.9753C151.655 58.9637 135.223 38.7399 113.071 33.0715L70.7663 21.6745C69.3309 21.2886 67.8507 22.145 67.4651 23.591C67.0798 25.0366 67.9333 26.5224 69.3712 26.9101L90.1821 32.5168C80.4154 34.5037 71.4383 39.3228 64.2314 46.5699L44.9094 65.9973C43.9118 67.0003 42.751 66.8211 42.2978 66.6979C41.8447 66.5747 40.7525 66.1396 40.3953 64.7695L35.8244 47.2387C34.1002 40.6257 35.9492 33.7995 40.7701 28.9783C45.5911 24.1572 52.3905 22.3357 58.958 24.1051C60.3944 24.4914 61.8736 23.6347 62.2592 22.189C62.6445 20.7434 61.7913 19.2572 60.3531 18.8699C51.9089 16.5946 43.1668 18.9371 36.9687 25.1356C30.7702 31.3342 28.3933 40.1104 30.6103 48.6132L35.1812 66.144C35.7156 68.1941 36.9712 69.8844 38.6847 70.9615C36.5691 71.6354 34.2098 71.4305 32.1944 70.2606L12.2054 58.6573C11.2602 58.1085 10.277 57.7565 9.28224 57.6113C6.93769 57.2691 4.57374 57.9585 2.79736 59.5043C1.01954 61.0493 0 63.2906 0 65.6522V100.143C0 103.994 2.53502 107.305 6.16468 108.195C8.19981 108.695 10.3176 108.391 12.1288 107.339L32.1937 95.6914C34.2091 94.5218 36.5683 94.3166 38.684 94.9901C36.9705 96.0668 35.7148 97.7571 35.1805 99.8073L30.5729 117.478C29.5056 121.572 30.3681 125.842 32.9394 129.192C35.5107 132.542 39.3998 134.464 43.6088 134.464H78.8885C77.1937 136.728 76.1867 139.542 76.1853 142.586L76.1831 146.516C76.1831 148.99 75.2186 151.262 73.537 152.749C71.7926 154.293 70.7925 156.518 70.7925 158.853C70.7925 163.336 74.4197 166.983 78.8784 166.983C86.2139 166.983 93.2368 164.732 99.188 160.474C100.401 159.606 100.684 157.914 99.8212 156.695C98.9584 155.475 97.2751 155.19 96.0625 156.058C91.0295 159.659 85.0873 161.563 78.8788 161.563C77.3924 161.563 76.1835 160.347 76.1835 158.853C76.1835 158.075 76.5173 157.333 77.0991 156.818C79.9429 154.301 81.5741 150.546 81.5741 146.517L81.5762 142.589C81.5784 138.109 85.2059 134.464 89.6621 134.464H108.406C107.938 139.717 106.115 144.707 103.054 149.03C102.191 150.249 102.474 151.941 103.687 152.809C104.161 153.148 104.707 153.312 105.247 153.312C106.09 153.312 106.92 152.916 107.445 152.173C111.161 146.927 113.339 140.852 113.82 134.463H175.904C179.616 134.463 182.754 132.042 183.715 128.437C184.675 124.834 183.161 121.159 179.947 119.294ZM9.43354 102.645C8.82907 102.995 8.12183 103.096 7.44189 102.93C6.25345 102.638 5.39059 101.466 5.39059 100.143V65.6522C5.39059 64.8649 5.73092 64.1173 6.32389 63.6013C6.92476 63.0785 7.6992 62.8559 8.50672 62.9733C8.82153 63.0192 9.15862 63.1461 9.50937 63.3495L25.1978 72.4563C22.0612 79.0802 22.0612 86.8704 25.1978 93.4942L9.43354 102.645ZM29.8872 90.7828C27.6771 85.8388 27.6771 80.1118 29.8872 75.1677C31.5432 76.0577 33.3264 76.5686 35.124 76.7164C34.1325 78.626 33.6046 80.7596 33.6046 82.9753C33.6046 85.1913 34.1325 87.3245 35.124 89.2342C33.3261 89.3819 31.5432 89.8929 29.8872 90.7828ZM37.207 125.881C35.6642 123.871 35.1467 121.309 35.7871 118.853L40.3946 101.182C40.7518 99.8116 41.8443 99.3766 42.2971 99.2534C42.7492 99.1301 43.9089 98.9517 44.9047 99.95L64.2307 119.381C68.1817 123.354 72.6648 126.597 77.5182 129.044H43.6088C41.0832 129.044 38.7501 127.891 37.207 125.881ZM100.445 129.044C88.2048 129.044 76.6977 124.252 68.0429 115.549L41.3631 88.724C38.2107 85.5541 38.2107 80.3965 41.3631 77.2266L68.0433 50.4014C76.6981 41.6988 88.2052 36.9058 100.445 36.9058C114.057 36.9058 126.298 42.9064 134.698 52.4121C131.855 56.2772 129.588 60.4834 127.926 64.9668C126.063 64.3464 124.075 64.0053 122.007 64.0053C111.604 64.0053 103.14 72.5149 103.14 82.9749C103.14 93.4349 111.604 101.945 122.007 101.945C122.923 101.945 123.822 101.875 124.703 101.748V120.914C124.703 125.397 121.075 129.044 116.617 129.044L100.445 129.044ZM122.007 96.525C114.576 96.525 108.531 90.4468 108.531 82.9753C108.531 75.5038 114.576 69.4255 122.007 69.4255C129.438 69.4255 135.484 75.5038 135.484 82.9753C135.484 90.4468 129.438 96.525 122.007 96.525ZM127.391 129.044C129.086 126.778 130.093 123.963 130.093 120.914V100.111C136.461 97.0605 140.874 90.5273 140.874 82.9753C140.874 76.5372 137.665 70.8419 132.774 67.4108C134.108 63.6653 135.914 60.1315 138.166 56.8543C143.27 64.2824 146.265 73.2831 146.265 82.9753V120.914C146.265 125.397 142.637 129.044 138.179 129.044H127.391ZM178.508 127.036C178.382 127.507 177.823 129.044 175.904 129.044H148.953C150.649 126.778 151.655 123.963 151.655 120.914V107.232C153.503 109.537 155.773 111.52 158.394 113.04L177.252 123.987C178.914 124.952 178.633 126.565 178.508 127.036Z" fill="black"/>
<path d="M98.9458 72.5948L88.6872 62.2803C86.9615 60.5456 84.5788 59.6885 82.1477 59.9321C79.7442 60.172 77.6016 61.4637 76.2694 63.4752C68.425 75.321 68.425 90.6293 76.2694 102.475C77.6016 104.487 79.7442 105.778 82.1477 106.018C84.5792 106.262 86.9618 105.405 88.6872 103.67L98.9458 93.3555C99.8259 92.4706 99.9887 91.0946 99.3401 90.0269C98.0528 87.9085 97.3725 85.4702 97.3725 82.9749C97.3725 80.48 98.0528 78.0417 99.3401 75.9233C99.9887 74.8556 99.8259 73.4796 98.9458 72.5948ZM93.7238 75.0091C92.5795 77.4943 91.9819 80.2108 91.9819 82.9753C91.9819 85.7398 92.5795 88.4562 93.7238 90.9414L84.8753 99.838C84.2971 100.42 83.5 100.706 82.6806 100.625C82.2167 100.579 81.3499 100.367 80.7565 99.4716C74.12 89.4506 74.12 76.5007 80.7565 66.4793C81.3495 65.5836 82.2163 65.3722 82.6806 65.3256C83.5 65.2447 84.2971 65.5308 84.8753 66.1126L93.7238 75.0091Z" fill="black"/>
</g>
<defs>
<clipPath id="clip0_2_42632">
<rect width="184" height="185" fill="white"/>
</clipPath>
</defs>
</svg>
