<svg width="184" height="184" viewBox="0 0 184 184" fill="none" xmlns="http://www.w3.org/2000/svg">
<g clip-path="url(#clip0_2_42409)">
<path d="M43.2299 75.7803L29.6484 67.9391C26.3706 66.0431 22.6521 65.0469 18.8672 65.0469C18.8672 68.8318 19.8634 72.5503 21.7558 75.8281C21.7594 75.8281 31.0964 92 31.0964 92L21.7594 108.172C19.8634 111.45 18.8672 115.168 18.8672 118.953C22.6521 118.953 26.3706 117.957 29.6484 116.064C29.6484 116.062 38.8089 110.772 43.2299 108.219V75.7803Z" fill="#515985"/>
<path d="M56.6098 109.832V74.1686C54.377 78.0362 49.4317 79.3612 45.5641 77.1284L43.2299 75.7807L41.6462 78.5242C36.8471 86.8365 36.8471 97.1643 41.6465 105.477L43.2303 108.22C44.6365 107.409 45.5644 106.873 45.5644 106.873C49.4317 104.639 54.377 105.964 56.6098 109.832Z" fill="#3E4466"/>
<path d="M45.8203 27.3125H2.69531C2.69531 33.267 7.52208 38.0938 13.4766 38.0938H56.6016L45.8203 27.3125Z" fill="#C2F0FC"/>
<path d="M176.8 86.6827L162.342 84.2727C157.909 83.5338 153.817 81.4282 150.64 78.2507L143.499 71.1102V112.889L150.64 105.749C153.818 102.571 157.909 100.466 162.342 99.7269L176.8 97.3169C179.4 96.8839 181.305 94.6349 181.305 91.9996C181.305 89.3643 179.4 87.1161 176.8 86.6827Z" fill="#C2F0FC"/>
<path d="M143.499 71.1102L125.094 52.7056V131.294L143.499 112.889C155.036 101.353 155.036 82.6473 143.499 71.1102Z" fill="#3E4466"/>
<path d="M109.175 36.7856C103.109 30.7201 94.8818 27.3125 86.3039 27.3125H78.8828V156.688H86.3039C94.8818 156.688 103.109 153.28 109.175 147.214L125.094 131.294C135.516 120.873 141.371 106.738 141.371 92C141.371 77.2617 135.516 63.1271 125.094 52.7056L109.175 36.7856Z" fill="#515985"/>
<path d="M100.445 135.125V48.875C100.445 36.9664 90.7914 27.3125 78.8828 27.3125H45.8203C45.8203 33.267 50.6471 38.0938 56.6016 38.0938H68.1008C72.2505 38.0938 74.8442 42.5859 72.7691 46.1797L50.9831 83.9141C48.0941 88.9176 48.0941 95.0824 50.9831 100.086L72.7691 137.82C74.8438 141.414 72.2505 145.906 68.1008 145.906H56.6016C50.6471 145.906 45.8203 150.733 45.8203 156.688H78.8828C90.7914 156.688 100.445 147.034 100.445 135.125Z" fill="#FFD06A"/>
<path d="M127.398 85.7886C136.33 85.7886 143.57 78.5482 143.57 69.6167C143.57 60.6852 136.33 53.4448 127.398 53.4448C118.467 53.4448 111.227 60.6852 111.227 69.6167C111.227 78.5482 118.467 85.7886 127.398 85.7886Z" fill="#C2F0FC"/>
<path d="M127.398 75.007C130.376 75.007 132.789 72.5935 132.789 69.6163C132.789 66.6392 130.376 64.2257 127.398 64.2257C124.421 64.2257 122.008 66.6392 122.008 69.6163C122.008 72.5935 124.421 75.007 127.398 75.007Z" fill="#515985"/>
<path d="M81.9108 75.8281L79.4056 73.3229C77.0158 70.9327 73.0102 71.2863 71.1371 74.0995C63.9403 84.908 63.9403 99.0922 71.1371 109.901C73.0106 112.714 77.0158 113.068 79.4056 110.677L81.9108 108.172V75.8281Z" fill="#E5FAFF"/>
<path d="M87.3016 92C87.3016 88.9158 88.1659 86.0337 89.6642 83.5813L81.911 75.8281C78.5268 80.3329 76.5208 85.932 76.5208 92C76.5208 98.068 78.5271 103.667 81.9114 108.172L89.6645 100.419C88.1659 97.9663 87.3016 95.0842 87.3016 92Z" fill="#636DA4"/>
<path d="M127.398 77.7023C131.857 77.7023 135.484 74.0751 135.484 69.6163C135.484 65.1576 131.857 61.5304 127.398 61.5304C122.94 61.5304 119.312 65.1576 119.312 69.6163C119.312 74.0751 122.94 77.7023 127.398 77.7023ZM127.398 66.921C128.885 66.921 130.094 68.13 130.094 69.6163C130.094 71.1027 128.885 72.3116 127.398 72.3116C125.912 72.3116 124.703 71.1027 124.703 69.6163C124.703 68.13 125.912 66.921 127.398 66.921Z" fill="black"/>
<path d="M91.5701 81.6756L81.3114 71.4169C79.5857 69.6915 77.2031 68.8391 74.7719 69.0813C72.3684 69.3199 70.2258 70.6047 68.8936 72.6053C61.0491 84.3871 61.0491 99.6127 68.8936 111.394C70.2258 113.395 72.3684 114.68 74.7719 114.918C77.2034 115.161 79.5861 114.308 81.3114 112.583L91.5701 102.324C92.4503 101.444 92.6131 100.076 91.9644 99.0136C90.6771 96.9066 89.9968 94.4815 89.9968 91.9997C89.9968 89.5182 90.6771 87.0932 91.9644 84.9861C92.6131 83.9242 92.4503 82.5557 91.5701 81.6756ZM86.3477 84.0769C85.2035 86.5487 84.6058 89.2505 84.6058 92.0001C84.6058 94.7496 85.2035 97.4514 86.3477 99.9232L77.4992 108.772C76.9209 109.35 76.1238 109.635 75.3045 109.555C74.8405 109.509 73.9737 109.298 73.3804 108.407C66.7438 98.4404 66.7438 85.5604 73.3804 75.5931C73.9733 74.7023 74.8402 74.492 75.3045 74.4457C76.1238 74.3652 76.9209 74.6498 77.4992 75.2284L86.3477 84.0769Z" fill="black"/>
<path d="M177.243 84.024L162.785 81.6141C158.883 80.964 155.342 79.1419 152.545 76.3445L146.254 70.0537C146.258 69.9078 146.266 69.7629 146.266 69.6163C146.266 59.2128 137.802 50.7491 127.398 50.7491C127.252 50.7491 127.107 50.757 126.961 50.7603L111.08 34.8799C104.462 28.262 95.6631 24.6172 86.3039 24.6172H29.6484C28.1595 24.6172 26.9531 25.824 26.9531 27.3125C26.9531 28.801 28.1595 30.0078 29.6484 30.0078H43.3963C43.8021 31.9984 44.648 33.8305 45.8279 35.3984H13.4766C9.96259 35.3984 6.96505 33.1452 5.85242 30.0078H18.8672C20.3561 30.0078 21.5625 28.801 21.5625 27.3125C21.5625 25.824 20.3561 24.6172 18.8672 24.6172H2.69531C1.20642 24.6172 0 25.824 0 27.3125C0 34.7437 6.04541 40.7891 13.4766 40.7891H68.1008C69.5053 40.7891 70.201 41.7317 70.435 42.1367C70.6686 42.5417 71.1372 43.6155 70.435 44.832L54.275 72.8216C53.5548 74.0683 52.3926 74.9599 51.0021 75.3322C49.611 75.7045 48.1588 75.5133 46.9117 74.7935L30.9975 65.6057C27.3172 63.4768 23.1222 62.3516 18.8672 62.3516C17.3783 62.3516 16.1719 63.5583 16.1719 65.0469C16.1719 69.299 17.2956 73.4929 19.4217 77.1758C19.4275 77.1855 19.4328 77.1948 19.4386 77.2045C19.6646 77.5923 24.7412 86.3837 27.9842 92.0004L19.4264 106.823C17.2974 110.504 16.1719 114.698 16.1719 118.953C16.1719 120.442 17.3783 121.649 18.8672 121.649C23.1193 121.649 27.3136 120.525 30.9961 118.399C31.0054 118.394 31.0151 118.388 31.0245 118.382C31.4363 118.142 41.5779 112.286 46.9121 109.207C49.4859 107.72 52.7893 108.606 54.2753 111.179L70.435 139.169C71.1372 140.385 70.6686 141.459 70.435 141.864C70.201 142.269 69.5053 143.212 68.1008 143.212H56.6016C49.1704 143.212 43.125 149.257 43.125 156.688C43.125 158.177 44.3314 159.384 45.8203 159.384H86.3039C95.6631 159.384 104.462 155.739 111.08 149.121L145.405 114.796C145.411 114.789 152.545 107.656 152.545 107.656C155.342 104.858 158.883 103.036 162.784 102.386L177.243 99.9763C181.158 99.3233 184 95.9689 184 92C184 88.0311 181.158 84.6767 177.243 84.024ZM44.2168 104.538C44.2168 104.538 28.5268 113.599 28.3083 113.744C26.2865 114.894 24.076 115.671 21.7911 116.03C22.1504 113.744 22.9285 111.534 24.0932 109.52L33.4301 93.348C33.9117 92.5143 33.9117 91.4865 33.4301 90.6527C33.4301 90.6527 24.223 74.7101 24.076 74.4884C22.927 72.4662 22.1497 70.2557 21.7907 67.9707C24.076 68.3301 26.2868 69.1085 28.3004 70.2733L44.2164 79.4621C45.8821 80.4238 47.7318 80.9115 49.6056 80.9086L48.6486 82.5664C45.2892 88.3854 45.2892 95.6149 48.6486 101.434L49.6099 103.098C47.7757 103.095 45.9166 103.556 44.2168 104.538ZM127.398 56.1398C134.83 56.1398 140.875 62.1852 140.875 69.6163C140.875 77.0475 134.83 83.0929 127.398 83.0929C119.967 83.0929 113.922 77.0475 113.922 69.6163C113.922 62.1852 119.967 56.1398 127.398 56.1398ZM141.596 110.98L107.268 145.308C104.008 148.568 100.12 150.969 95.8791 152.411C100.357 148.008 103.141 141.887 103.141 135.125V124.344C103.141 122.855 101.934 121.648 100.445 121.648C98.9564 121.648 97.75 122.855 97.75 124.344V135.125C97.75 145.529 89.286 153.992 78.8828 153.992H48.9774C50.09 150.855 53.0876 148.602 56.6016 148.602H68.1008C71.024 148.602 73.6417 147.09 75.1033 144.559C76.5648 142.027 76.5648 139.004 75.1033 136.473L53.3172 98.7383C50.9177 94.5821 50.9177 89.4179 53.3172 85.2617L75.1033 47.5273C76.5648 44.9959 76.5648 41.9728 75.1033 39.4414C73.6417 36.91 71.024 35.3984 68.1008 35.3984H56.6016C53.088 35.3984 50.0918 33.1448 48.9792 30.0078H78.8828C89.286 30.0078 97.75 38.4715 97.75 48.875V113.562C97.75 115.051 98.9564 116.258 100.445 116.258C101.934 116.258 103.141 115.051 103.141 113.562V48.875C103.141 42.1134 100.357 35.9921 95.8791 31.5887C100.12 33.0312 104.008 35.4315 107.268 38.6917L120.599 52.0224C113.547 54.7569 108.531 61.6098 108.531 69.6163C108.531 80.0199 116.995 88.4835 127.398 88.4835C135.221 88.4835 141.947 83.697 144.802 76.8994C151.913 87.3421 150.849 101.724 141.596 110.98ZM176.357 94.6587L161.898 97.0686C159.03 97.5466 156.315 98.5191 153.842 99.9346C155.154 94.7327 155.154 89.2673 153.842 84.0654C156.315 85.4809 159.03 86.4534 161.898 86.9314L176.357 89.3413C177.662 89.5588 178.609 90.6768 178.609 92C178.609 93.3232 177.662 94.4409 176.357 94.6587Z" fill="black"/>
</g>
<defs>
<clipPath id="clip0_2_42409">
<rect width="184" height="184" fill="white"/>
</clipPath>
</defs>
</svg>
