<svg width="184" height="185" viewBox="0 0 184 185" fill="none" xmlns="http://www.w3.org/2000/svg">
<g clip-path="url(#clip0_2_43776)">
<path d="M82.6697 146.531C79.0957 150.956 72.7549 151.731 64.6025 145.074C56.45 138.417 49.5734 126.85 53.1474 122.425C56.7214 118.001 69.3922 122.395 77.5446 129.051C85.6971 135.708 86.2437 142.107 82.6697 146.531Z" fill="#F9475E"/>
<path d="M134.974 122.33C133.867 124.285 133.062 126.551 132.523 128.831C123.944 133.998 109.121 118.059 116.808 103.845L128.383 100.694L134.698 110.761C136.904 114.273 137.019 118.724 134.974 122.33Z" fill="#FF6E80"/>
<path d="M132.523 128.831C132.02 130.952 131.747 133.087 131.679 135.002C131.6 137.318 129.361 138.915 127.161 138.222C110.612 132.993 105.293 117.803 102.674 107.693L116.808 103.845C116.553 116.99 123.737 127.393 132.523 128.831Z" fill="#F9475E"/>
<path d="M100.683 70.5919L73.417 69.2911C55.3825 64.5501 51.4383 45.5797 56.3251 40.8401C59.7104 41.4038 63.3078 39.9223 65.9779 35.9333C66.2438 35.5394 66.8224 35.5539 67.0884 35.9477C70.0388 40.2728 75.5337 42.7335 81.4885 39.2936C81.9234 39.0407 82.4696 39.3406 82.4912 39.8392C82.7428 45.2953 86.4731 49.1398 93.3012 48.8761C93.7288 48.858 94.0631 49.241 93.9876 49.6674C91.932 61.0709 100.683 70.5919 100.683 70.5919Z" fill="#FAD989"/>
<path d="M73.4171 69.2911L43.244 67.8494L38.5614 44.728C38.4428 44.1462 39.0645 43.7163 39.5712 44.0198C43.6896 46.4624 49.1126 44.5365 50.3704 38.8239C50.4782 38.3216 51.0784 38.1085 51.4629 38.4481C52.9256 39.738 54.5967 40.5546 56.3253 40.8401C54.5679 49.2699 61.8632 61.5297 73.4171 69.2911Z" fill="#F6CA56"/>
<path d="M134.241 76.0407L127.736 83.4877L116.707 78.2303C108.558 67.7656 113.906 51.367 122.353 50.8597C131.546 56.3844 134.744 64.7347 135.851 69.6091C136.369 71.889 135.776 74.281 134.241 76.0407Z" fill="#FAD989"/>
<path d="M116.707 78.2304L94.9255 67.8494L108.823 51.3982C111.335 48.4281 115.5 47.5103 119.036 49.1182C120.222 49.6566 121.325 50.2419 122.353 50.8598C115.568 56.5724 113.919 68.1746 116.707 78.2304Z" fill="#F6CA56"/>
<path d="M124.554 93.2678L173.893 121.908C177.653 124.091 182.178 120.686 181.159 116.443C177.594 101.595 177.479 84.2306 180.816 70.2613C181.825 66.0352 177.282 62.6607 173.538 64.8338L124.554 93.2678Z" fill="#FF6E80"/>
<path d="M155.57 88.716V97.9299C155.57 102.009 152.429 105.399 148.383 105.673C133.357 106.696 118.827 111.689 106.084 119.942C103.608 121.543 100.97 122.93 98.1994 124.112C58.713 121.568 59.3743 69.291 77.0537 56.9445C83.4039 57.6165 89.3911 59.0221 94.8177 61.0311C99.3458 66.5594 104.992 69.1357 108.557 68.142C113.793 71.4229 119.352 74.0895 125.124 76.1382C128.11 80.3549 133.12 82.0495 137.339 79.4877C140.983 80.2104 144.677 80.7054 148.397 80.9692C152.44 81.2582 155.57 84.6403 155.57 88.716Z" fill="#73DA8C"/>
<path d="M98.1993 124.112C78.2971 132.628 51.6387 130.569 29.6917 120.549C38.8162 112.517 48.5588 104.615 48.5588 92.9654C48.5588 82.8373 40.2968 73.9703 35.1254 67.741C42.5537 63.0113 51.1859 59.0077 59.9618 57.3312C67.6417 60.4892 75.1095 60.005 76.9638 57.0963C67.9655 72.1673 65.6187 111.585 98.1993 124.112Z" fill="#29CE69"/>
<path d="M82.4912 100.694C82.4912 104.6 80.0079 107.899 74.301 108.979C62.0524 107.853 57.493 97.0147 64.9177 92.416C66.6032 92.1631 68.3066 92.0294 69.9526 92.0294C78.7645 92.0294 82.4912 95.9065 82.4912 100.694Z" fill="#FF6E80"/>
<path d="M74.301 108.979C73.018 109.225 71.5697 109.355 69.9526 109.355C61.1371 109.355 50.5679 105.478 50.5679 100.694C50.5679 96.799 57.5649 93.5073 64.9177 92.4161C62.4024 99.3753 65.8884 105.081 74.301 108.979Z" fill="#F9475E"/>
<path d="M57.4933 92.9653C57.4933 104.615 43.7257 115.129 29.6921 120.549C22.1201 117.091 15.1051 112.687 9.12505 107.44C1.95193 101.153 -0.319321 91.52 8.06849 86.9998C13.2471 84.3295 18.379 81.2221 22.6591 77.2367C26.1415 74.0606 30.3893 70.7544 35.1258 67.741C47.0068 73.4825 57.4933 82.8373 57.4933 92.9653Z" fill="#00C140"/>
<path d="M125.126 76.1365C124.873 81.8671 123.373 87.5982 121.776 92.2116C120.849 94.8908 124.165 96.9898 126.169 94.9927C129.941 91.2328 134.213 86.0271 137.338 79.4878C133.19 78.6661 129.107 77.5478 125.126 76.1365Z" fill="#00C140"/>
<path d="M106.869 67.0593C103.296 64.698 99.243 62.6655 94.8191 61.0298C97.2395 68.2065 96.92 77.4991 96.207 84.1233C95.9303 86.692 99.224 87.9552 100.723 85.8563C103.697 81.6905 107.013 75.6798 108.559 68.1436C107.992 67.7884 107.428 67.4285 106.869 67.0593Z" fill="#00C140"/>
<path d="M76.7914 78.9097C76.2057 81.3487 72.8204 81.4932 72.0405 79.1121C71.8213 78.4364 71.5805 77.7318 71.3254 77.0055C70.3112 68.3261 72.7054 59.0977 77.0538 56.9446C79.1346 65.2045 78.1499 73.2441 76.7914 78.9097Z" fill="#00C140"/>
<path d="M77.0538 56.9445C74.1752 61.696 71.9578 68.9334 71.3253 77.0055C69.0828 70.6822 65.4172 62.6933 59.9619 57.3312C62.7902 56.7928 65.6364 56.4893 68.4611 56.4893C71.3832 56.4893 74.2543 56.6482 77.0538 56.9445Z" fill="#00A62C"/>
<path d="M37.4626 89.0879V84.7516C37.4626 83.255 36.2562 82.0416 34.7673 82.0416C33.2784 82.0416 32.072 83.255 32.072 84.7516V89.0879C32.072 90.5845 33.2784 91.7978 34.7673 91.7978C36.2562 91.7978 37.4626 90.5845 37.4626 89.0879Z" fill="black"/>
<path d="M183.778 115.817C181.983 108.343 181.057 99.9957 181.102 91.6786C181.11 90.182 179.91 88.9622 178.421 88.9542C176.924 88.9542 175.719 90.1582 175.711 91.6497C175.665 100.399 176.642 109.195 178.538 117.089C178.86 118.433 177.979 119.218 177.701 119.427C177.424 119.636 176.428 120.263 175.238 119.572L153.313 106.845C156.287 104.989 158.261 101.672 158.261 97.9372V88.7223C158.261 84.9558 156.247 81.6077 153.221 79.7602L174.883 67.1853C176.076 66.4934 177.081 67.126 177.361 67.336C177.713 67.6005 178.499 68.3535 178.193 69.6337C177.519 72.4553 176.969 75.5038 176.556 78.6943C176.364 80.1783 177.405 81.538 178.881 81.7309C180.356 81.9213 181.71 80.8771 181.902 79.3928C182.289 76.3919 182.805 73.5342 183.435 70.899C184.155 67.8827 183.064 64.8533 180.586 62.9932C178.095 61.1229 174.877 60.93 172.188 62.4913L145.481 77.9944C142.661 77.6916 139.871 77.2526 137.12 76.6817C138.566 74.435 139.074 71.6607 138.471 69.0093C137.144 63.1717 132.997 52.5042 120.138 46.6528C115.525 44.5546 110.024 45.7856 106.76 49.649L98.4077 59.5349C98.0368 59.3795 97.6642 59.2267 97.289 59.0775C96.259 55.7294 96.084 52.4875 96.7762 49.4264C96.9666 48.5834 96.7456 47.6992 96.181 47.0467C95.6164 46.3941 94.7752 46.0519 93.9191 46.1256C90.9068 46.3836 88.5245 45.7582 87.0299 44.3176C85.366 42.7136 85.1004 40.4206 85.1705 38.7795C85.2143 37.7551 84.6792 36.7936 83.7876 36.295C82.896 35.7964 81.8017 35.8469 80.9593 36.424C78.6769 37.9885 76.4305 38.5294 74.2811 38.0326C72.113 37.5311 70.1346 35.9543 68.8538 33.7064C68.3758 32.8674 67.4896 32.3478 66.5279 32.3435C65.5583 32.3435 64.6728 32.8537 64.1891 33.684C62.6301 36.3604 60.5436 37.9701 58.3137 38.2162C56.2998 38.4391 54.1899 37.534 52.527 35.7338C51.8076 34.9552 50.7018 34.6715 49.6991 35.0076C48.6964 35.344 47.982 36.2386 47.8717 37.2959C47.6237 39.677 46.4867 41.4208 44.7534 42.0795C43.166 42.6825 41.3947 42.2818 40.0161 41.0071C39.1561 40.2118 37.8836 40.0644 36.8662 40.6418C35.8484 41.2195 35.3169 42.391 35.5502 43.5421L39.316 62.1354C32.2173 65.9734 25.8255 70.6811 20.8086 75.2559C17.3173 78.5075 12.8711 81.4751 6.79369 84.6064C2.79708 86.7133 0.400046 90.1322 0.0442646 94.2336C-0.434423 99.7565 2.87686 106.132 8.48059 110.475C9.65898 111.389 11.3513 111.169 12.2609 109.984C13.1697 108.799 12.9509 107.097 11.7721 106.183C7.65151 102.989 5.09672 98.3759 5.41512 94.7044C5.61134 92.4439 6.91767 90.6615 9.27481 89.4185C15.7806 86.0669 20.6099 82.8301 24.4512 79.2515C27.5224 76.4508 31.1399 73.5963 35.1193 70.9507C47.4606 77.1005 54.781 85.2687 54.781 92.9747C54.5431 103.553 42.1914 112.373 29.5065 117.493C26.8605 116.236 24.2766 114.851 21.776 113.339C20.5002 112.568 18.8439 112.982 18.0773 114.265C17.3101 115.547 17.7223 117.213 18.9981 117.984C28.6031 123.774 39.2309 127.809 50.2924 130.103C52.1641 135.699 57.1155 142.479 62.8878 147.192C67.7024 151.124 71.9987 152.659 75.6047 152.659C79.5585 152.659 82.6829 150.812 84.7489 148.255C88.0326 144.189 89.014 137.852 83.4351 131.09C91.7068 129.742 99.2803 127.135 105.692 123.366C110.5 132.141 117.436 138.007 126.345 140.82C128.182 141.402 130.169 141.101 131.758 139.968C133.346 138.84 134.296 137.07 134.366 135.112C134.513 130.95 135.614 126.678 137.31 123.685C139.732 119.41 139.718 114.206 137.326 109.935C140.074 109.364 142.844 108.931 145.625 108.642L172.542 124.267C175.219 125.822 178.436 125.643 180.928 123.769C183.415 121.899 184.506 118.852 183.778 115.817ZM127.514 79.7866C129.421 80.3806 131.355 80.914 133.3 81.3786C130.967 85.475 127.971 89.3665 124.358 92.9823C125.959 88.332 127.015 83.9104 127.514 79.7866ZM110.869 53.1575C112.584 51.1275 115.482 50.4833 117.915 51.5907C128.655 56.4777 132.111 65.3584 133.216 70.2176C133.73 72.1633 132.664 73.958 131.325 75.2689C123.109 72.955 115.341 69.4306 108.34 64.8002C106.785 63.7722 105.156 62.8132 103.465 61.9211L110.869 53.1575ZM98.6823 65.5799C101.088 66.7138 103.357 67.9878 105.491 69.4017C103.948 75.4933 101.213 80.3889 98.9543 83.6669C99.4743 78.4605 99.7202 71.7568 98.6823 65.5799ZM41.8892 47.6692C43.4812 47.8998 45.1164 47.735 46.6606 47.1486C49.0199 46.2521 50.8804 44.487 52.0271 42.1568C54.1712 43.3488 56.5448 43.8634 58.9038 43.6029C61.7576 43.2874 64.3857 41.879 66.5448 39.552C68.3801 41.432 70.6399 42.7512 73.0736 43.3138C75.4275 43.8576 77.8472 43.6964 80.2208 42.8531C80.7703 44.9564 81.8143 46.7966 83.2999 48.2289C84.7579 49.6345 87.1995 51.1882 91.0283 51.5326C90.8968 53.3287 90.9845 55.1545 91.2799 57.0009C84.161 54.8936 76.4186 53.7851 68.4463 53.7851C60.1091 53.8089 51.9405 56.1644 44.3146 59.6429L41.8892 47.6692ZM74.3368 77.5088C72.4867 72 69.5513 65.0307 65.2561 59.3365C66.322 59.2513 67.3861 59.2046 68.4459 59.2046C70.5982 59.2046 72.7304 59.291 74.8345 59.4597C76.1649 66.2863 75.3775 72.8477 74.3368 77.5088ZM69.938 94.7478C73.6144 94.7478 79.7827 95.5214 79.7827 100.701C79.7827 105.881 73.6148 106.654 69.938 106.654C65.337 106.654 60.2813 105.517 56.8453 103.814C58.3507 101.38 59.3605 98.89 59.8414 96.3871C62.9802 95.3515 66.6458 94.7478 69.938 94.7478ZM50.5857 111.151C51.6627 110.18 52.646 109.19 53.5469 108.186C57.8152 110.532 64.1399 112.074 69.9384 112.074C81.1714 112.074 85.1734 106.199 85.1734 100.701C85.1734 95.203 81.171 89.3278 69.9384 89.3278C66.6871 89.3278 63.2267 89.8088 60.0239 90.6778C59.4249 85.9198 56.9657 81.2681 52.6816 76.8194C49.4795 73.4944 45.3101 70.3765 40.4678 67.6608C46.2649 64.3821 52.609 61.6852 59.0314 60.2792C64.1492 65.8549 67.513 73.9671 69.4672 79.9611C70.172 82.1233 72.1227 83.5383 74.3634 83.5383C76.7712 83.5441 78.8401 81.9119 79.3989 79.5521C80.563 74.6904 81.5649 67.6514 80.4181 60.1152C84.6735 60.7732 88.7704 61.7816 92.63 63.1193C94.4841 69.6785 94.1542 77.9182 93.517 83.8385C93.259 86.2323 94.5883 88.418 96.8243 89.278C99.0111 90.1303 101.5 89.4203 102.902 87.4439C106.275 82.7202 108.751 77.6537 110.289 72.3393C114.124 74.5159 118.137 76.3995 122.289 77.9803C121.905 82.0695 120.878 86.5489 119.223 91.3292C118.386 93.7476 119.272 96.2903 121.428 97.6565C123.565 99.0136 126.24 98.7415 128.06 96.9258C132.51 92.4905 136.123 87.6535 138.826 82.5248C141.915 83.0664 145.045 83.4548 148.203 83.6803C150.821 83.8671 152.871 86.0817 152.871 88.7223V97.9372C152.871 100.586 150.818 102.801 148.196 102.979C132.709 104.048 117.788 109.168 104.62 117.673C87.4184 128.789 60.176 129.466 36.3591 120.413C41.8349 117.793 46.7562 114.603 50.5857 111.151ZM80.5655 144.837C76.4132 149.978 69.8374 145.883 66.2879 142.984C62.3412 139.762 58.6846 135.224 56.6149 131.201C63.249 132.14 70.0401 132.423 76.6849 131.891C80.1339 134.922 84.4004 140.089 80.5655 144.837ZM132.413 112.215C134.096 114.898 134.178 118.264 132.627 121.001C130.521 124.72 129.157 129.922 128.98 134.917C128.877 135.545 128.554 135.755 127.962 135.648C120.245 133.211 114.45 128.245 110.294 120.518C117.092 116.457 124.345 113.348 131.82 111.27L132.413 112.215Z" fill="black"/>
</g>
<defs>
<clipPath id="clip0_2_43776">
<rect width="184" height="185" fill="white"/>
</clipPath>
</defs>
</svg>
