<svg width="184" height="185" viewBox="0 0 184 185" fill="none" xmlns="http://www.w3.org/2000/svg">
<g clip-path="url(#clip0_2_42118)">
<path d="M76.7283 4.29324C75.3735 2.93106 73.3715 2.36884 71.4489 2.90901L93.8432 92.4924L71.4489 182.076C73.3715 182.616 75.3735 182.054 76.7283 180.692L133.959 123.15V61.8351L76.7283 4.29324Z" fill="#A8CAE0"/>
<path d="M75.3627 4.29324C74.3583 2.93106 72.8744 2.36884 71.4492 2.90901C68.5872 3.71332 66.9776 6.77949 67.7466 9.66536L76.5943 42.8643C78.588 50.3454 76.4606 58.3281 71.0136 63.8046V121.18C76.4606 126.656 78.588 134.639 76.5943 142.12L67.7466 175.319C66.9776 178.205 68.5868 181.272 71.4492 182.075C72.8744 182.616 74.3586 182.053 75.3627 180.691L117.788 123.149V61.8351L75.3627 4.29324Z" fill="#B9DFF0"/>
<path d="M42.1288 77.5131L29.5092 70.1876C25.6194 68.6228 21.9172 71.4606 21.9172 75.1681V109.813C21.9172 113.521 25.6194 116.359 29.5092 114.794L42.1288 107.468V77.5131Z" fill="#E5FAFF"/>
<path d="M57.6444 107.738V77.2428C54.1941 80.7118 48.8564 81.4186 44.6306 78.9656L42.1287 77.5134L41.6321 78.0128C33.6918 85.9962 33.6918 98.9853 41.6321 106.969L42.1291 107.468L44.631 106.016C48.8564 103.563 54.1941 104.269 57.6444 107.738Z" fill="#C2F0FC"/>
<path d="M49.2553 99.3037L72.9704 123.148V61.8333L49.2553 85.6776C45.5129 89.4403 45.5129 95.5409 49.2553 99.3037Z" fill="#B9DFF0"/>
<path d="M160.387 88.4027L141.982 69.8983V115.083L160.387 96.5786C162.632 94.3211 162.632 90.6605 160.387 88.4027Z" fill="#B9DFF0"/>
<path d="M133.959 61.8314C126.155 53.985 115.374 49.1321 103.466 49.1321C91.5566 49.1321 80.7748 53.9861 72.9708 61.8332C56.1308 78.7647 56.1308 106.216 72.9708 123.148C80.7748 130.995 91.5566 135.849 103.466 135.849C115.374 135.849 126.155 130.996 133.959 123.149L141.982 115.083C147.942 109.091 151.29 100.964 151.29 92.4902C151.29 84.0165 147.942 75.8897 141.982 69.8979L133.959 61.8314Z" fill="#C2F0FC"/>
<path d="M126.332 108.75C135.263 108.75 142.504 101.471 142.504 92.491C142.504 83.5112 135.263 76.2316 126.332 76.2316C117.401 76.2316 110.16 83.5112 110.16 92.491C110.16 101.471 117.401 108.75 126.332 108.75Z" fill="white"/>
<path d="M126.332 97.9104C129.309 97.9104 131.722 95.4839 131.722 92.4906C131.722 89.4973 129.309 87.0708 126.332 87.0708C123.355 87.0708 120.941 89.4973 120.941 92.4906C120.941 95.4839 123.355 97.9104 126.332 97.9104Z" fill="#515985"/>
<path d="M91.7442 84.814C89.2646 82.3209 85.0887 82.8188 83.308 85.856C78.3944 94.2369 78.3944 104.724 83.308 113.105C85.0891 116.142 89.2646 116.64 91.7442 114.147L93.2956 112.587V86.3738L91.7442 84.814Z" fill="white"/>
<path d="M97.4283 99.4803C97.4283 96.9197 98.142 94.5266 99.3793 92.4906L93.2955 86.3738C90.3214 89.9126 88.5256 94.4847 88.5256 99.4807C88.5256 104.477 90.3214 109.048 93.2955 112.588L99.3793 106.471C98.142 104.434 97.4283 102.041 97.4283 99.4803Z" fill="#E5FAFF"/>
<path d="M72.7034 182.272C72.2865 182.255 71.8661 182.193 71.4492 182.076C71.8668 182.234 72.2891 182.295 72.7034 182.272Z" fill="#B9DFF0"/>
<path d="M71.4489 2.90895C71.8657 2.79188 72.2862 2.72937 72.7034 2.71311C72.2891 2.68963 71.8668 2.75069 71.4489 2.90895Z" fill="#B9DFF0"/>
<path d="M87.2995 68.1087C88.7881 68.1087 89.9948 66.8954 89.9948 65.3988C89.9948 63.9021 88.7881 62.6888 87.2995 62.6888C85.811 62.6888 84.6042 63.9021 84.6042 65.3988C84.6042 66.8954 85.811 68.1087 87.2995 68.1087Z" fill="black"/>
<path d="M76.5185 78.9483C78.0071 78.9483 79.2138 77.735 79.2138 76.2384C79.2138 74.7417 78.0071 73.5284 76.5185 73.5284C75.03 73.5284 73.8232 74.7417 73.8232 76.2384C73.8232 77.735 75.03 78.9483 76.5185 78.9483Z" fill="black"/>
<path d="M101.281 127.671C102.77 127.671 103.977 126.458 103.977 124.961C103.977 123.465 102.77 122.252 101.281 122.252C99.7929 122.252 98.5862 123.465 98.5862 124.961C98.5862 126.458 99.7929 127.671 101.281 127.671Z" fill="black"/>
<path d="M126.338 73.5288C115.935 73.5288 107.471 82.0383 107.471 92.4982C107.471 102.958 115.935 111.468 126.338 111.468C136.741 111.468 145.205 102.958 145.205 92.4982C145.205 82.0383 136.741 73.5288 126.338 73.5288ZM126.338 106.048C118.907 106.048 112.862 99.9696 112.862 92.4982C112.862 85.0268 118.907 78.9486 126.338 78.9486C133.769 78.9486 139.814 85.0268 139.814 92.4982C139.814 99.9696 133.769 106.048 126.338 106.048Z" fill="black"/>
<path d="M101.291 108.394C102.172 107.509 102.334 106.133 101.685 105.065C100.668 103.39 100.13 101.462 100.13 99.4875C100.13 97.5137 100.668 95.5853 101.685 93.9109C102.335 92.8429 102.172 91.4666 101.291 90.5817L93.6564 82.9051C91.8703 81.1093 89.4079 80.2638 86.9006 80.5836C84.4141 80.9012 82.2604 82.3237 80.9922 84.4869C75.5672 93.7397 75.5672 105.235 80.9922 114.488C82.2604 116.651 84.4141 118.074 86.9006 118.392C89.4079 118.711 91.8703 117.866 93.6564 116.07C93.6564 116.07 101.291 108.394 101.291 108.394ZM96.0857 105.963L89.8442 112.238C89.2465 112.839 88.42 113.123 87.5798 113.015C86.7594 112.91 86.0507 112.444 85.6356 111.736C81.2061 104.181 81.2061 94.7944 85.6356 87.2395C86.0507 86.5313 86.7594 86.0648 87.5798 85.9601C88.42 85.852 89.2465 86.136 89.8442 86.7373L96.0857 93.0123C95.2002 95.0437 94.7391 97.2466 94.7391 99.4875C94.7391 101.728 95.2002 103.932 96.0857 105.963Z" fill="black"/>
<path d="M126.338 84.3684C121.88 84.3684 118.252 88.0152 118.252 92.4981C118.252 96.981 121.88 100.628 126.338 100.628C130.796 100.628 134.424 96.981 134.424 92.4981C134.424 88.0152 130.796 84.3684 126.338 84.3684ZM126.338 95.208C124.852 95.208 123.643 93.9926 123.643 92.4981C123.643 91.0037 124.852 89.7882 126.338 89.7882C127.824 89.7882 129.033 91.0037 129.033 92.4981C129.033 93.9922 127.824 95.208 126.338 95.208Z" fill="black"/>
<path d="M162.299 86.4941L107.245 31.1415C106.192 30.0832 104.486 30.0832 103.433 31.1415C102.381 32.1998 102.381 33.9158 103.433 34.9737L116.789 48.4018C112.526 47.1058 108.051 46.4298 103.472 46.4298C94.8991 46.4298 86.6871 48.7838 79.562 53.1825C80.2681 49.5834 80.1754 45.8151 79.2033 42.1669L70.3194 8.83068C70.0958 7.99206 70.2762 7.12127 70.8142 6.44127C71.3518 5.76234 72.1633 5.38874 73.0268 5.42162C73.6946 5.44511 74.386 5.76849 74.9232 6.30866L95.8097 27.309C96.8623 28.3673 98.5686 28.3677 99.6215 27.309C100.674 26.2507 100.674 24.5348 99.6215 23.4768L78.7351 2.47649C77.2218 0.954968 75.2614 0.0773194 73.2159 0.00541646C70.6327 -0.0856365 68.2084 1.02904 66.596 3.06725C64.9828 5.10619 64.4419 7.71818 65.1125 10.2341L73.9964 43.5699C75.7354 50.0954 73.8642 57.1162 69.1133 61.8925C69.1126 61.8936 55.7377 75.3409 55.7377 75.3409C53.1542 77.9323 49.1447 78.4605 45.9841 76.6261L30.8629 67.8481C30.7515 67.7835 30.6358 67.7271 30.5165 67.679C27.8748 66.6168 25.0573 66.8939 22.7843 68.44C20.5577 69.9557 19.228 72.4738 19.228 75.1754V109.821C19.228 112.522 20.5577 115.04 22.7843 116.556C24.146 117.482 25.7035 117.954 27.3016 117.954C28.3707 117.954 29.4574 117.743 30.5161 117.317C30.6354 117.269 30.7512 117.212 30.8626 117.148L45.9837 108.37C49.1468 106.534 53.1606 107.065 55.7434 109.662L69.1137 123.105C73.8638 127.881 75.7347 134.902 73.9957 141.427L65.1484 174.625C63.9862 178.986 66.4892 183.502 70.7283 184.693C71.4492 184.896 72.1834 184.994 72.9122 184.994C75.0325 184.994 77.1046 184.158 78.6395 182.615L99.6316 161.509C100.684 160.451 100.684 158.735 99.6316 157.677C98.579 156.619 96.8727 156.619 95.8198 157.677L74.8276 178.783C74.1395 179.475 73.1242 179.739 72.1798 179.473C70.7729 179.078 69.9546 177.533 70.3553 176.028L79.2026 142.829C80.175 139.18 80.2645 135.412 79.5573 131.811C86.6835 136.212 94.8969 138.567 103.471 138.567C108.051 138.567 112.526 137.889 116.789 136.593L103.443 150.012C102.39 151.07 102.39 152.786 103.443 153.844C103.97 154.373 104.659 154.638 105.349 154.638C106.039 154.638 106.729 154.373 107.255 153.844L130.882 130.089C128.474 151.611 114.983 170.669 95.1463 179.827C93.7936 180.451 93.2007 182.06 93.8217 183.42C94.2756 184.414 95.2516 185 96.2726 185C96.6488 185 97.0308 184.92 97.3956 184.752C108.952 179.417 118.746 170.927 125.72 160.2C132.672 149.505 136.439 137.112 136.649 124.29L162.297 98.5023C163.892 96.8984 164.771 94.7662 164.771 92.4982C164.772 90.2298 163.894 88.0977 162.299 86.4941ZM43.2888 103.676L28.357 112.344C27.1323 112.775 26.2386 112.362 25.8063 112.068C25.0627 111.561 24.6182 110.721 24.6182 109.821V75.1754C24.6182 74.2746 25.0624 73.4345 25.8063 72.9283C26.2386 72.6342 27.132 72.2212 28.357 72.6519L43.2888 81.32C44.8132 82.2049 46.4559 82.7573 48.1255 82.9944L47.355 83.769C42.5683 88.5826 42.5683 96.4142 47.355 101.228L48.1284 102.005C46.4584 102.242 44.8143 102.791 43.2888 103.676ZM51.1672 97.3948C48.4817 94.6947 48.4817 90.301 51.1672 87.6008L59.6066 79.1156C58.319 83.399 57.6513 87.8968 57.6513 92.4978C57.6513 97.0993 58.3197 101.597 59.6073 105.88L51.1672 97.3948ZM158.487 94.6697L132.059 121.241C124.423 128.919 114.271 133.147 103.472 133.147C92.6717 133.147 82.5188 128.918 74.8826 121.239C67.2468 113.562 63.0418 103.355 63.0418 92.4982C63.0418 81.6412 67.2468 71.4342 74.8826 63.7573C82.5188 56.0785 92.6717 51.8496 103.472 51.8496C114.271 51.8496 124.423 56.0777 132.059 63.7551L158.487 90.3267C159.064 90.9066 159.382 91.678 159.382 92.4982C159.382 93.3184 159.064 94.0895 158.487 94.6697Z" fill="black"/>
</g>
<defs>
<clipPath id="clip0_2_42118">
<rect width="184" height="185" fill="white"/>
</clipPath>
</defs>
</svg>
