<svg width="185" height="184" viewBox="0 0 185 184" fill="none" xmlns="http://www.w3.org/2000/svg">
<g clip-path="url(#clip0_2_43194)">
<path d="M168.465 85.5643C173.548 79.9796 177.577 73.0581 181.753 65.6812C183.543 62.5191 180.581 58.7873 177.071 59.7781C161.045 64.3012 151.693 72.7537 142.799 88.0336V100.899C151.693 116.178 161.045 124.631 177.071 129.154C180.581 130.145 183.543 126.413 181.753 123.251C177.577 115.874 173.548 108.952 168.465 103.368C163.865 98.3139 163.865 90.6179 168.465 85.5643Z" fill="#8697A6"/>
<path d="M90.6975 70.5741L75.7711 69.7763C65.7757 63.3007 69.1472 46.4895 79.2507 40.4513C79.4458 40.3722 79.6445 40.2931 79.8396 40.2177C81.0212 39.7613 82.1991 40.8933 81.7908 42.09C77.7548 53.9602 90.6975 70.5741 90.6975 70.5741Z" fill="#8697A6"/>
<path d="M75.7712 69.7763L55.9487 68.7161C58.6479 54.5244 68.5519 44.8105 79.2508 40.4513C72.0278 47.8329 69.6395 59.3472 75.7712 69.7763Z" fill="#6B7D8E"/>
<path d="M117.602 135.118C109.543 138.044 92.5007 127.152 98.6902 114.633L115.973 106.558C115.879 106.907 110.769 125.328 117.602 135.118Z" fill="#8697A6"/>
<path d="M117.176 138.744C105.508 138.833 92.4463 133.558 84.479 121.278L98.69 114.633C99.3766 128.498 111.575 133.816 117.602 135.117C117.84 135.462 118.093 135.797 118.364 136.116C119.232 137.151 118.534 138.733 117.176 138.744Z" fill="#6B7D8E"/>
<path d="M44.9844 112.493C50.4852 123.82 57.4329 132.517 67.8709 143.36C68.8606 144.388 70.6054 143.821 70.7973 142.411C73.3233 123.867 73.3226 105.595 73.3226 105.595L44.9844 112.493Z" fill="#6B7D8E"/>
<path d="M152.224 90.9467V97.9833C152.224 101.563 149.428 104.535 145.836 104.743C129.948 105.652 114.505 110.403 100.627 118.292C96.2727 120.764 91.2358 122.712 85.7327 123.991C54.4432 123.274 49.0818 78.1918 65.0937 63.3291C66.81 63.25 68.5552 63.2069 70.3257 63.2069C81.8846 63.2069 92.4607 66.0028 100.627 70.6424C114.505 78.5307 129.948 83.278 145.836 84.1908C149.428 84.3957 152.224 87.3673 152.224 90.9467Z" fill="#91D4F2"/>
<path d="M85.7328 123.991C80.9091 125.116 75.724 125.727 70.3258 125.727C54.8935 125.727 42.7601 122.91 33.2607 118.78C36.4404 111.348 42.2903 103.705 42.2903 91.8631C42.2903 82.0845 39.1396 71.81 38.294 67.8101C46.2252 65.503 55.2223 63.7851 65.0938 63.3287C56.2159 85.8292 65.0359 114.784 85.7328 123.991Z" fill="#59C2E8"/>
<path d="M50.6011 91.8632C50.6011 103.705 43.4793 114.241 33.2609 118.78C15.8521 111.212 7.30311 99.2375 3.55253 92.1435C1.82176 88.8696 2.82987 84.823 5.912 82.7566C11.9064 78.7424 23.1582 72.2053 38.2942 67.8102C45.7448 73.0826 50.6011 82.0849 50.6011 91.8632Z" fill="#00AEDE"/>
<path d="M89.3935 99.5646C84.6016 102.215 78.6331 106.185 76.8373 110.673C68.7537 112.972 66.2295 103.566 72.6206 98.6661C78.2899 97.0992 84.1578 96.5889 88.5263 96.4595C90.2715 96.4092 90.9183 98.7236 89.3935 99.5646Z" fill="#8697A6"/>
<path d="M76.8369 110.673C76.0023 112.419 74.3365 113.638 72.3854 113.817C68.0639 114.213 64.3133 113.364 62.7524 112.933C62.3188 112.815 62.055 112.387 62.1237 111.945C62.662 108.473 61.5491 106.331 60.8337 105.358C60.5555 104.977 60.6422 104.441 61.0144 104.15C64.3169 101.566 68.4144 99.8268 72.6202 98.666C69.2602 104.433 72.9129 109.465 76.8369 110.673Z" fill="#6B7D8E"/>
<path d="M58.4911 106.749C58.7162 106.991 60.0867 108.641 59.3373 112.143C59.0533 113.47 59.8063 114.801 61.0948 115.248C61.2798 115.313 65.1005 116.616 70.1223 116.616C70.9327 116.616 71.775 116.582 72.6382 116.504C75.7008 116.224 78.3042 114.319 79.4315 111.532C80.5697 108.718 84.5757 105.306 90.7111 101.922C92.5083 100.931 93.3499 98.9395 92.8054 96.9666C92.2608 94.9925 90.5098 93.697 88.4589 93.7663C79.2704 94.0351 66.6203 95.8022 58.5366 102.692C57.9166 103.221 57.5047 103.947 57.5267 104.76C57.5484 105.558 57.8635 106.256 58.4911 106.749ZM84.3954 99.3923C79.1128 102.773 75.759 106.17 74.4033 109.52C74.0434 110.409 73.1563 111.043 72.1432 111.135C69.2923 111.394 66.6896 111.044 64.9744 110.693C65.0709 108.411 64.5777 106.639 63.9699 105.348C69.8787 101.391 78.1358 99.916 84.3954 99.3923Z" fill="black"/>
<path d="M34.6099 88.5238V84.2113C34.6099 82.7228 33.3965 81.516 31.8999 81.516C30.4033 81.516 29.1899 82.7228 29.1899 84.2113V88.5238C29.1899 90.0123 30.4033 91.2191 31.8999 91.2191C33.3965 91.2191 34.6099 90.0123 34.6099 88.5238Z" fill="black"/>
<path d="M184.122 121.93C179.712 114.139 175.642 107.228 170.482 101.559C166.802 97.5157 166.802 91.4171 170.482 87.3735C175.642 81.7043 179.712 74.7943 184.122 67.0034C185.478 64.6085 185.248 61.6659 183.538 59.5064C181.826 57.3448 179 56.4338 176.339 57.1845C173.592 57.9601 170.977 58.8696 168.567 59.8881C167.189 60.4703 166.547 62.0526 167.132 63.4229C167.717 64.7929 169.308 65.4315 170.686 64.8496C172.889 63.9188 175.289 63.0847 177.819 62.3707C178.623 62.145 179.109 62.6255 179.281 62.8425C179.452 63.0589 179.807 63.6396 179.4 64.3587C175.153 71.8618 171.248 78.5001 166.464 83.7556C160.907 89.8618 160.907 99.0711 166.464 105.177C171.248 110.432 175.153 117.071 179.4 124.575C179.807 125.294 179.453 125.874 179.281 126.09C179.109 126.307 178.621 126.788 177.819 126.563C165.552 123.1 157.153 117.183 149.592 106.5C152.769 104.961 154.943 101.711 154.943 97.9854V90.9478C154.943 87.2207 152.768 83.9705 149.59 82.4313C153.001 77.5974 156.479 73.8631 160.364 70.844C161.544 69.9276 161.753 68.2339 160.831 67.0605C159.91 65.8871 158.207 65.6787 157.027 66.5958C152.176 70.3653 147.939 75.0774 143.777 81.3424C129.379 80.1737 114.974 75.6866 101.977 68.3003C98.0527 66.0711 93.655 64.289 88.9686 62.9931C86.0686 57.9241 82.1792 49.3807 84.3649 42.9508C84.895 41.3911 84.4798 39.7153 83.282 38.5775C82.0889 37.4441 80.3939 37.1098 78.8593 37.706C67.785 42.0049 59.2378 50.6259 55.171 61.5107C46.3138 62.6743 37.4873 64.8953 29.0553 68.0251C17.9318 72.1575 9.50964 77.1022 4.40299 80.5231C0.171479 83.3574 -1.22325 88.8925 1.15827 93.3977C3.50039 97.8284 6.51134 102.027 10.108 105.876C11.1269 106.967 12.8418 107.029 13.9381 106.016C15.0344 105.003 15.0972 103.297 14.0786 102.207C10.8079 98.706 8.07481 94.8984 5.95562 90.8892C4.86332 88.8235 5.49746 86.2896 7.43056 84.9948C12.5986 81.5333 23.1191 75.3046 37.4627 70.904C44.0176 75.885 47.8953 83.6241 47.8953 91.8646C47.8953 102.055 42.0277 111.263 32.8518 115.641C29.421 114.047 26.1976 112.2 23.191 110.097C21.9672 109.241 20.2765 109.533 19.4155 110.75C18.5544 111.968 18.8489 113.65 20.0727 114.506C28.6055 120.475 38.6901 124.54 50.1948 126.67C54.1528 132.335 58.9162 137.952 65.9191 145.227C67.1053 146.465 68.8737 146.889 70.4754 146.367C72.104 145.84 73.2584 144.463 73.4886 142.775C74.1039 138.26 74.6202 133.389 75.0278 128.267C78.5154 128.04 81.9465 127.566 85.2628 126.852C92.9985 136.031 104.668 141.442 116.884 141.442C118.662 141.532 120.318 140.591 121.061 138.969C121.772 137.441 121.538 135.687 120.449 134.391C115.989 129.086 116.453 119.571 117.344 113.487C125.934 110.315 134.856 108.316 143.777 107.591C152.456 120.652 161.991 127.699 176.339 131.749C178.955 132.498 181.826 131.602 183.538 129.427C185.249 127.267 185.478 124.324 184.122 121.93ZM78.5999 43.6781C77.5445 49.5643 79.4635 55.9853 82.0665 61.4794C78.2483 60.8448 74.3102 60.5095 70.3309 60.5095C67.3171 60.5095 64.3076 60.6345 61.3049 60.8692C64.812 53.3342 70.9007 47.2618 78.5999 43.6781ZM53.3153 91.8638C53.3153 83.2532 49.8003 75.0979 43.7159 69.1718C51.6886 67.2039 60.6311 65.9004 70.3309 65.9004C80.9652 65.9004 91.2496 68.4153 99.2885 72.9812C113.676 81.1581 129.72 85.9644 145.686 86.8808C147.837 87.0044 149.522 88.7908 149.522 90.9478V97.9854C149.541 100.462 147.373 102.212 144.975 102.098C129.151 103.103 113.199 108.028 99.2888 115.952C91.2489 120.518 80.9648 123.033 70.3306 123.033C59.3534 123.008 49.139 121.662 39.2137 118.217C47.9315 112.388 53.3153 102.576 53.3153 91.8638ZM68.3884 139.986C64.0261 135.391 60.6123 131.485 57.7242 127.767C61.5373 128.178 65.4906 128.394 69.5768 128.418C69.2473 132.457 68.8502 136.333 68.3884 139.986ZM114.938 135.998C105.908 135.51 97.3622 131.645 91.1488 125.298C95.0212 124.076 98.667 122.512 101.978 120.632C105.109 118.853 108.323 117.243 111.598 115.806C110.932 122.58 111.321 130.299 114.938 135.998Z" fill="black"/>
</g>
<defs>
<clipPath id="clip0_2_43194">
<rect width="185" height="184" fill="white"/>
</clipPath>
</defs>
</svg>
