<svg width="184" height="185" viewBox="0 0 184 185" fill="none" xmlns="http://www.w3.org/2000/svg">
<g clip-path="url(#clip0_2_43134)">
<path d="M76.0076 139.185C80.57 141.007 85.2675 142.466 90.0599 143.545L115.554 128.744L76.0076 109.078V139.185Z" fill="#3792DB"/>
<path d="M56.4777 99.3665L37.8167 118.129L61.765 132.031C66.317 134.832 71.0835 137.22 76.0078 139.186L103.94 122.969L56.4777 99.3665Z" fill="#1FB0F0"/>
<path d="M101.93 41.4561C95.4471 42.0562 89.0669 43.3375 82.8848 45.2573V78.5012L142.187 58.2215L101.93 41.4561Z" fill="#3792DB"/>
<path d="M82.8844 45.2573C75.5041 47.5493 68.4066 50.7551 61.7651 54.8426L37.8164 68.7693L56.4775 87.5318L126.716 63.5118L82.8844 45.2573Z" fill="#1FB0F0"/>
<path d="M14.131 60.2568C11.0981 57.2075 6.98458 55.4944 2.69531 55.4944V59.1515C2.69531 72.0155 7.77774 84.3523 16.8246 93.4487C7.77774 102.545 2.69531 114.883 2.69531 127.747V131.376C6.98458 131.376 11.0981 129.662 14.131 126.613L28.1369 112.531L28.1524 74.3545L14.131 60.2568Z" fill="#1FB0F0"/>
<path d="M43.1943 108.754L43.2097 78.1312C38.9837 80.5843 33.6457 79.8779 30.1953 76.4083L28.1525 74.3545L27.6063 74.6717C20.8552 78.5908 16.8247 85.6098 16.8247 93.4476C16.8254 101.287 20.8559 108.304 27.6063 112.223L28.1367 112.531L30.1795 110.477C33.6303 107.008 38.9683 106.301 43.1943 108.754Z" fill="#3792DB"/>
<path d="M180.47 90.541C173.971 80.2584 165.287 71.5067 155.074 64.9441L155.077 121.95C165.288 115.387 173.971 106.635 180.47 96.3531C181.59 94.5811 181.59 92.3133 180.47 90.541Z" fill="#0CC9FA"/>
<path d="M170.528 93.448C170.528 81.9235 164.728 71.1556 155.074 64.9442C142.222 56.6854 126.949 51.8948 110.554 51.8948C94.6868 51.8948 79.8683 56.3819 67.2797 64.1583L32.9972 84.059C25.8095 88.2314 25.8095 98.6625 32.9972 102.835L67.2434 122.714C79.8403 130.505 94.6717 135.003 110.555 135.003C126.95 135.003 142.225 130.21 155.078 121.95C164.729 115.738 170.528 104.972 170.528 93.448Z" fill="#57DCFF"/>
<path d="M80.3044 109.697C88.7852 118.224 101.389 120.039 111.63 115.152V104.243C101.389 99.3551 88.7852 101.17 80.3044 109.697Z" fill="#0CC9FA"/>
<path d="M111.63 104.241C107.686 102.362 103.144 105.309 103.144 109.697C103.144 114.085 107.687 117.031 111.63 115.153C114.409 113.829 117.014 112.011 119.316 109.697C117.015 107.383 114.41 105.565 111.63 104.241Z" fill="#1FB0F0"/>
<path d="M140.879 109.697C149.811 109.697 157.051 102.417 157.051 93.4368C157.051 84.4565 149.811 77.1765 140.879 77.1765C131.947 77.1765 124.707 84.4565 124.707 93.4368C124.707 102.417 131.947 109.697 140.879 109.697Z" fill="white"/>
<path d="M140.879 98.8568C143.856 98.8568 146.27 96.4301 146.27 93.4367C146.27 90.4432 143.856 88.0166 140.879 88.0166C137.902 88.0166 135.488 90.4432 135.488 93.4367C135.488 96.4301 137.902 98.8568 140.879 98.8568Z" fill="#515985"/>
<path d="M182.745 89.0877C175.17 77.1028 164.664 67.0952 152.361 60.1467C148.838 58.1564 145.178 56.4278 141.417 54.9672L102.961 38.952C102.557 38.784 102.118 38.7157 101.683 38.7572C87.1064 40.1061 72.827 44.8631 60.3865 52.5134L36.4665 66.4235C35.7413 66.8452 35.2525 67.5816 35.1436 68.4166C35.0343 69.2517 35.3179 70.09 35.9102 70.6855L41.2837 76.0878C38.2214 77.5484 34.529 76.9337 32.1007 74.4922L16.0365 58.3407C12.4736 54.7577 7.73541 52.7844 2.69539 52.7844C1.20682 52.7844 0 53.9978 0 55.4944V59.1515C0 71.9462 4.63535 84.0254 13.1072 93.4491C4.63535 102.873 0 114.952 0 127.747V131.376C0 132.872 1.20682 134.086 2.69539 134.086C7.73505 134.086 12.4732 132.112 16.0369 128.529L32.0856 112.393C34.519 109.947 38.221 109.336 41.2869 110.807L35.9105 116.213C35.3179 116.809 35.0347 117.648 35.144 118.483C35.2536 119.318 35.743 120.055 36.4686 120.476L60.3876 134.361C69.3805 139.891 79.1654 143.871 89.4712 146.189C89.666 146.233 89.8629 146.255 90.0599 146.255C90.5296 146.255 90.995 146.131 91.4076 145.892L105.732 137.575C107.335 137.665 108.942 137.713 110.554 137.713C123.216 137.713 135.408 134.993 146.791 129.628C148.138 128.993 148.719 127.379 148.087 126.024C147.456 124.669 145.851 124.085 144.503 124.72C133.841 129.745 122.42 132.293 110.555 132.293C95.7162 132.293 81.228 128.183 68.6556 120.406C68.634 120.393 68.6128 120.38 68.5909 120.368L34.3447 100.488C31.8132 99.0188 30.3016 96.3868 30.3016 93.4476C30.3016 90.5085 31.8132 87.8765 34.3447 86.4066L63.9588 69.2159C65.2479 68.4676 65.6896 66.8101 64.9453 65.514C64.201 64.2179 62.5525 63.7738 61.2634 64.5221L46.1372 73.3026L42.2044 69.3485L63.1149 57.1887C63.1343 57.1775 63.1534 57.166 63.1728 57.1541C74.7328 50.0397 87.9776 45.5732 101.519 44.2181L113.58 49.2411C112.573 49.2053 111.564 49.1855 110.555 49.1855C96.6783 49.1855 82.8984 52.6062 70.7052 59.0782C69.3887 59.777 68.8849 61.4164 69.5799 62.74C70.275 64.0636 71.9055 64.5705 73.2219 63.8713C84.6425 57.8099 97.552 54.6055 110.555 54.6055C138.113 54.6055 163.399 68.5828 178.195 91.9951C178.753 92.8774 178.753 94.0182 178.195 94.9006C171.948 104.785 163.456 113.346 153.638 119.66C152.383 120.466 152.017 122.142 152.819 123.403C153.333 124.212 154.203 124.653 155.092 124.653C155.589 124.653 156.092 124.515 156.542 124.226C167.018 117.49 176.079 108.354 182.745 97.8076C184.419 95.1586 184.419 91.7363 182.745 89.0877ZM46.1394 113.593L65.8632 125.043C75.3157 130.884 85.7803 134.781 96.6733 136.576L89.63 140.665C80.2659 138.445 71.3697 134.765 63.1717 129.72C63.1519 129.707 63.1322 129.696 63.1121 129.684L42.2059 117.548L46.1394 113.593ZM31.6493 81.7124C27.4297 84.162 24.9108 88.5486 24.9108 93.4476C24.9108 98.3463 27.4297 102.733 31.6493 105.182L32.5136 105.684C30.9625 106.347 29.5181 107.309 28.2736 108.561L12.2249 124.697C10.3269 126.605 7.96291 127.874 5.39042 128.396V127.747C5.39042 115.515 10.1282 104.015 18.7308 95.3653C19.7835 94.3069 19.7835 92.5909 18.7308 91.5329C10.1286 82.8835 5.39078 71.3832 5.39078 59.1515V58.474C7.96291 58.9962 10.3273 60.2652 12.2252 62.1734L28.2894 78.3249C29.5343 79.5769 30.9801 80.537 32.5319 81.2004L31.6493 81.7124Z" fill="black"/>
<path d="M78.3985 107.781C77.8928 108.289 77.6089 108.978 77.6089 109.697C77.6089 110.416 77.8928 111.105 78.3985 111.613C84.3017 117.549 92.0558 120.516 99.8103 120.516C107.564 120.516 115.319 117.549 121.222 111.613C121.728 111.105 122.012 110.416 122.012 109.697C122.012 108.978 121.728 108.289 121.222 107.781C115.499 102.026 107.895 98.8569 99.8103 98.8569C91.7259 98.8569 84.1217 102.026 78.3985 107.781ZM84.3448 109.696C88.7315 106.183 94.1266 104.277 99.8099 104.277C105.493 104.277 110.888 106.183 115.275 109.696C106.252 116.9 93.3679 116.9 84.3448 109.696Z" fill="black"/>
<path d="M159.747 93.4368C159.747 82.9764 151.283 74.4666 140.879 74.4666C130.475 74.4666 122.011 82.9764 122.011 93.4368C122.011 103.897 130.475 112.407 140.879 112.407C151.283 112.407 159.747 103.897 159.747 93.4368ZM140.879 106.987C133.448 106.987 127.402 100.909 127.402 93.4368C127.402 85.9651 133.448 79.8866 140.879 79.8866C148.311 79.8866 154.356 85.9651 154.356 93.4368C154.356 100.909 148.311 106.987 140.879 106.987Z" fill="black"/>
<path d="M140.879 85.3066C136.42 85.3066 132.793 88.9536 132.793 93.4368C132.793 97.9199 136.42 101.567 140.879 101.567C145.338 101.567 148.965 97.9199 148.965 93.4368C148.965 88.9536 145.338 85.3066 140.879 85.3066ZM140.879 96.1468C139.393 96.1468 138.184 94.9313 138.184 93.4368C138.184 91.9423 139.393 90.7267 140.879 90.7267C142.366 90.7267 143.575 91.9423 143.575 93.4368C143.575 94.9313 142.366 96.1468 140.879 96.1468Z" fill="black"/>
</g>
<defs>
<clipPath id="clip0_2_43134">
<rect width="184" height="185" fill="white"/>
</clipPath>
</defs>
</svg>
