<svg width="185" height="185" viewBox="0 0 185 185" fill="none" xmlns="http://www.w3.org/2000/svg">
<g clip-path="url(#clip0_2_43719)">
<path d="M134.5 91.2788C122.222 99.5821 122.796 105.259 129.084 111.719C129.622 112.272 129.13 113.19 128.375 113.038L116.965 110.769C113.155 103.238 114.065 91.5042 129.6 88.7278C131.165 88.8687 132.722 89.1614 134.261 89.6419C134.991 89.8696 135.132 90.8488 134.5 91.2788Z" fill="#546370"/>
<path d="M116.964 110.769L115.765 110.53L99.8843 99.77C99.8843 99.77 114.876 87.4089 129.6 88.7278C117.857 94.0176 116.523 103.257 116.964 110.769Z" fill="#495560"/>
<path d="M92.5993 112.23C86.6992 115.928 81.7157 122.283 80.0464 124.548C79.7454 124.956 79.1239 124.944 78.8446 124.521C73.0702 115.764 79.2316 107.114 84.2331 103.864L92.5993 112.23Z" fill="#495560"/>
<path d="M107.716 122.89C105.515 125.971 105.42 129.037 105.626 130.812C105.704 131.486 105.095 132.019 104.429 131.89C99.2419 130.886 94.2266 135.849 92.1764 138.208C91.7284 138.724 90.8851 138.537 90.6939 137.881C86.707 124.203 102.289 117.463 102.289 117.463L107.716 122.89Z" fill="#495560"/>
<path d="M181.165 132.669C163.569 137.084 153.459 148.752 141.882 144.278C138.539 142.988 134.763 144.654 133.607 148.043C131.497 154.226 126.612 159.14 124.375 161.156C123.783 161.687 122.843 161.543 122.453 160.849C116.415 150.099 117.73 140.481 119.804 134.429C115.996 130.953 111.938 127.773 107.664 124.911C103.389 122.046 98.8944 119.502 94.2224 117.302C86.9742 113.887 80.1596 109.645 73.9122 104.67C57.9111 87.5607 43.6314 48.6518 61.7571 38.1996C62.4292 38.1563 63.0976 38.037 63.7553 37.8383L66.299 37.0723C69.2185 36.1943 72.1164 38.4995 71.9213 41.5383L71.5563 47.1859C71.5491 47.287 71.5455 47.3882 71.5455 47.4894C71.5455 48.7504 72.0477 49.9645 72.9438 50.8642C74.0495 51.9662 75.6249 52.4613 77.1641 52.183L82.5624 51.2111C85.5614 50.6691 88.181 53.2887 87.639 56.2877L86.6056 62.022C86.5623 62.2641 86.5406 62.5098 86.5406 62.7519C86.5406 63.8359 86.967 64.8837 87.7474 65.6642C88.5713 66.488 89.7095 66.9252 90.8729 66.8638L96.9722 66.5422C100.018 66.3796 102.287 69.3064 101.373 72.2151L100.885 73.7796C100.022 76.5257 100.549 79.5103 102.255 81.83C104.235 84.5183 106.085 87.3005 107.794 90.1695C109.503 93.0384 111.075 95.9941 112.502 99.0256C117.478 109.594 122.186 117.117 130.391 125.424C140.136 123.907 157.578 117.143 181.512 129.934C182.704 130.573 182.477 132.34 181.165 132.669Z" fill="#8697A6"/>
<path d="M73.9123 104.67C70.888 102.259 67.9974 99.6796 65.2549 96.9371L36.4137 68.0959C32.4752 64.1574 28.7029 60.0563 25.1113 55.8035C30.2928 53.9752 34.9539 50.8894 39.5608 46.2825C44.6736 41.1697 45.5842 34.9802 46.726 31.6595C50.0502 33.0832 53.2624 34.8248 56.3409 36.8085C57.9633 37.8527 59.8639 38.3297 61.7572 38.1996C50.4404 54.0149 60.6949 85.8588 73.9123 104.67Z" fill="#6B7D8E"/>
<path d="M42.4803 50.9292C37.8734 55.5361 31.0117 57.3681 25.1113 55.8035C22.2062 52.3673 19.4167 48.8335 16.7537 45.2022C16.7537 45.2022 10.033 36.7941 3.15696 27.2008C1.76585 25.2532 3.87239 22.7384 6.03674 23.7573C15.8179 28.3751 21.6859 27.4176 27.9802 27.5007C34.4949 27.5874 40.7893 29.1158 46.7259 31.6596C49.2227 37.9937 47.5931 45.8164 42.4803 50.9292Z" fill="#546370"/>
<path d="M57.9234 86.95C57.8656 90.5489 57.5223 94.6355 54.9641 98.7293C40.731 100.842 38.33 74.5243 47.6869 70.0001C50.4475 76.4932 58.0101 81.7108 57.9234 86.95Z" fill="#546370"/>
<path d="M54.9641 98.7294C52.6372 102.455 48.4783 106.187 41.0277 109.555C40.5616 109.764 40.016 109.529 39.8606 109.042C36.8833 99.7772 32.8725 82.7551 40.1966 65.2451C40.446 64.6453 40.8615 64.1466 41.3782 63.7889C41.8913 63.4312 42.5055 63.218 43.1523 63.1819C44.9842 63.0843 46.5777 64.4538 46.7295 66.2821C46.8342 67.572 47.1775 68.8078 47.687 70.0002C40.8254 79.6801 44.93 95.8279 54.9641 98.7294Z" fill="#495560"/>
<path d="M30.4445 44.0351C31.1379 44.0351 31.8316 43.7706 32.3606 43.2413L35.4265 40.1754C36.4848 39.1171 36.4848 37.4012 35.4265 36.3432C34.3682 35.2849 32.6522 35.2849 31.5942 36.3432L28.5284 39.4091C27.47 40.4674 27.47 42.1833 28.5284 43.2413C29.0574 43.7706 29.7511 44.0351 30.4445 44.0351Z" fill="black"/>
<path d="M182.789 127.544C177.273 124.595 171.66 122.44 166.107 121.14C164.649 120.798 163.191 121.703 162.85 123.16C162.509 124.617 163.413 126.075 164.871 126.417C169.032 127.392 173.243 128.896 177.426 130.901C171.571 132.705 166.581 135.183 162.103 137.407C154.358 141.253 148.763 144.033 142.858 141.751C140.545 140.857 137.936 140.943 135.701 141.986C133.483 143.021 131.829 144.862 131.043 147.168C129.487 151.73 126.16 155.609 123.932 157.838C119.436 148.705 120.553 140.61 122.369 135.308C122.718 134.287 122.429 133.156 121.632 132.428C113.801 125.276 104.95 119.366 95.3799 114.849C82.4256 108.826 72.9783 101.241 60.5873 88.4766C61.1824 83.7548 58.3907 80.1242 55.0575 76.1015C52.4306 72.8756 49.7145 69.5401 49.4309 66.0616C49.1621 62.754 46.3419 60.3075 43.0119 60.4762C40.2629 60.59 38.0787 62.5987 37.3112 65.1569C35.2444 63.0471 33.2369 60.9084 31.289 58.7462C36.1481 58.464 40.8147 56.4286 44.3987 52.8446C48.7783 48.465 50.8274 42.3224 50.1936 36.3316C51.7564 37.1666 53.3173 38.0811 54.8743 39.0856C57.7353 40.9309 61.2582 41.4223 64.5395 40.4344L67.0821 39.6688C67.8319 39.443 68.3894 39.7963 68.5939 39.9586C68.7984 40.1212 69.2685 40.5833 69.2183 41.3656L68.8552 47.0113C68.7171 49.1565 69.5099 51.2591 71.03 52.7792C72.7615 54.5111 75.2344 55.2865 77.6445 54.8507L83.0452 53.8773C83.8178 53.7389 84.3298 54.153 84.514 54.3373C84.6987 54.5219 85.1131 55.0346 84.974 55.8061L83.9399 61.5425C83.5432 63.7423 84.2503 65.9995 85.8307 67.5799C87.1973 68.9465 89.0885 69.6695 91.0172 69.5698L97.1172 69.2475C97.8998 69.2041 98.3569 69.6814 98.5166 69.8877C98.6767 70.0941 99.0239 70.6548 98.789 71.4028C97.2097 75.3601 97.4312 79.9428 100.074 83.4361C103.927 88.6692 107.283 94.3016 110.05 100.178C114.775 110.214 119.504 118.257 128.465 127.328C129.077 127.949 129.959 128.235 130.81 128.101C138.056 126.851 143.916 124.968 152.923 124.992C154.412 124.992 155.623 123.79 155.632 122.299C155.641 120.802 154.436 119.582 152.939 119.573C143.942 119.563 138.163 121.183 131.339 122.51C128.936 120.006 126.867 117.571 125.027 115.134L130.465 116.215C131.636 116.454 132.867 115.87 133.413 114.778C133.961 113.692 133.718 112.372 132.817 111.553C128.904 107.99 127.244 105.39 127.436 103.122C127.682 100.222 131.061 96.6683 137.48 92.5596C138.331 92.0151 138.808 91.0421 138.718 90.0358C138.628 89.0295 137.986 88.1565 137.052 87.7717C127.944 84.0178 118.115 86.6198 110.804 89.9617C108.859 86.6021 106.736 83.3432 104.439 80.2232C102.782 78.1036 103.014 75.3622 103.961 73.0252C104.655 70.8124 104.221 68.398 102.799 66.5657C101.378 64.7338 99.1442 63.7141 96.8314 63.8351L90.7314 64.1574C90.3325 64.178 89.9444 64.0292 89.663 63.7477C89.3374 63.4221 89.1918 62.9571 89.2735 62.504L90.3076 56.7676C90.7191 54.4858 89.9856 52.1444 88.3459 50.5047C86.7062 48.8646 84.3644 48.1315 82.083 48.543L76.6823 49.5164C76.0185 49.6353 75.3381 49.4228 74.8615 48.9463C74.4431 48.5278 74.2249 47.9493 74.2628 47.3586L74.6259 41.7128C74.7748 39.3989 73.7797 37.1561 71.964 35.7141C70.148 34.2713 67.7383 33.8099 65.5183 34.4787L62.976 35.2443C61.2174 35.7737 59.3353 35.5135 57.8112 34.5303C46.9493 27.5506 36.3223 24.4077 24.9972 24.8027C19.7915 24.8691 14.8756 24.9317 7.19307 21.3075C5.08617 20.3135 2.6696 20.8468 1.17949 22.6343C-0.308463 24.4186 -0.398073 26.8879 0.956185 28.7784C16.9023 50.0017 19.5227 54.5924 35.3886 70.9121C33.9393 76.2092 33.2546 81.7801 33.3539 87.552C33.3796 89.0486 34.6153 90.2305 36.1102 90.215C37.6068 90.1893 38.7988 88.9554 38.7731 87.4588C38.6438 79.9439 39.9637 72.8217 42.6964 66.2893C42.9411 65.6635 43.9954 65.8224 44.0283 66.5003C44.4482 71.6564 47.8512 75.8356 50.8538 79.5229C53.1139 82.2986 55.2486 84.9201 55.2157 86.9052C55.1081 93.3549 53.9312 100.126 41.8141 106.181C41.1417 103.909 40.5899 101.712 40.1419 99.5271C39.8412 98.0609 38.4093 97.1178 36.9427 97.417C35.4764 97.7176 34.5319 99.1499 34.8325 100.616C35.5118 103.928 36.4108 107.257 37.5811 110.793C37.8203 111.515 38.3522 112.104 39.0467 112.414C39.7411 112.725 40.5343 112.73 41.2323 112.427C52.9228 107.356 57.6652 101.339 59.5199 95.1486C65.0869 100.749 70.4508 105.471 75.7526 109.424C72.7066 115.296 73.2182 121.585 77.2828 127.004C77.7951 127.687 78.5995 128.087 79.4507 128.087C79.4699 128.087 79.4887 128.087 79.5078 128.087C80.3808 128.068 81.192 127.63 81.6859 126.91C81.7213 126.858 84.9809 122.141 89.4942 118.037C90.8843 118.757 92.2851 119.382 93.6806 120.046C87.6449 125.692 85.8112 132.913 88.6791 140.369C89.0346 141.294 89.8671 141.951 90.8496 142.083C91.8201 142.215 92.809 141.8 93.3937 140.999C94.9983 138.811 100.55 132.982 104.865 134.843C105.849 135.268 106.996 135.086 107.783 134.358C108.57 133.631 108.859 132.522 108.512 131.507C108.489 131.433 108.139 130.274 108.311 128.643C111.218 130.702 114.016 132.916 116.696 135.281C114.784 141.949 114.131 151.563 120.092 162.173C120.681 163.222 121.702 163.937 122.891 164.133C124.071 164.33 125.288 163.98 126.188 163.167C128.949 160.682 133.918 155.526 136.172 148.916C136.478 148.019 137.124 147.301 137.993 146.896C138.911 146.467 139.945 146.435 140.904 146.805C149.034 149.947 156.207 146.385 164.513 142.26C169.511 139.778 175.176 136.965 181.824 135.295C183.52 134.869 184.754 133.474 184.967 131.74C185.18 130.012 184.326 128.365 182.789 127.544ZM129.644 91.459C124.746 95.3296 122.356 98.8944 122.037 102.665C121.829 105.109 122.546 107.331 123.753 109.356L120.7 108.749C118.609 105.312 116.781 101.75 114.954 97.8697C114.458 96.8161 113.938 95.7733 113.407 94.7356C118.139 92.612 123.957 90.8744 129.644 91.459ZM6.22543 26.8207C14.3174 30.3595 20.013 30.2869 25.0676 30.2226C31.5235 30.0011 37.6563 30.9796 44.0229 33.4807C45.9506 38.832 44.6238 44.9547 40.5668 49.0117C36.7652 52.8132 31.3009 54.2332 26.1494 52.815C23.5934 49.7491 12.6712 35.7437 6.22543 26.8207ZM79.8027 120.449C78.7527 117.516 79.2347 114.819 80.2388 112.595C81.6646 113.547 83.089 114.445 84.514 115.291C82.6409 117.119 81.0276 118.951 79.8027 120.449ZM102.863 129.04C98.8992 129.11 95.3047 131.489 92.7715 133.751C92.679 128.876 95.6502 125.235 98.8797 122.725C100.434 123.585 101.964 124.484 103.469 125.424C103.069 126.728 102.901 127.959 102.863 129.04Z" fill="black"/>
</g>
<defs>
<clipPath id="clip0_2_43719">
<rect width="185" height="185" fill="white"/>
</clipPath>
</defs>
</svg>
