<svg width="185" height="185" viewBox="0 0 185 185" fill="none" xmlns="http://www.w3.org/2000/svg">
<g clip-path="url(#clip0_2_43080)">
<path d="M111.638 37.0848C106.483 28.1497 97.4275 22.2725 87.3246 21.1011C85.1755 20.8518 83.0788 21.8815 81.9876 23.7496L75.8571 34.2455L104.707 63.0955L118.716 49.0864L111.638 37.0848Z" fill="#FF7C59"/>
<path d="M102.249 42.5018C98.8583 36.6246 92.812 32.6497 86.0763 31.8685L80.848 31.5683C78.8134 31.4515 76.8854 32.486 75.8574 34.2456L66.8529 49.6617C64.9864 52.8526 65.5074 56.9011 68.1215 59.5153C70.7234 62.1172 74.7485 62.6469 77.935 60.8074L110.8 57.0027L102.249 42.5018Z" fill="#FF985F"/>
<path d="M70.0211 65.3654C65.7712 67.8256 60.398 67.1214 56.9257 63.6491L48.0651 54.7884C37.4737 44.1971 23.1083 38.2468 8.12977 38.2468C5.13659 38.2468 2.70996 40.6735 2.70996 43.6666C2.70996 45.3764 3.50161 46.9015 4.73877 47.8948C5.19079 48.2576 5.60378 48.6579 5.98208 49.0864L70.0211 98.6047V65.3654Z" fill="#FF7C59"/>
<path d="M60.3095 70.9836C56.0596 73.4439 50.6864 72.7397 47.2141 69.2674L40.4004 62.4536C31.7807 53.8339 20.32 49.0866 8.12976 49.0869H5.98171C7.35581 50.6438 8.23815 52.5957 8.56262 54.6762C9.84928 62.9215 13.9568 70.5349 20.2759 76.1592L32.4864 87.0274L20.2759 97.8955C13.9568 103.52 9.84964 111.133 8.56262 119.379C8.14855 122.031 6.83153 124.478 4.73804 126.159C3.50124 127.153 2.70923 128.678 2.70923 130.388C2.70923 133.381 5.13586 135.807 8.12903 135.807C23.1076 135.807 37.4729 129.857 48.0643 119.266L56.925 110.405C60.3973 106.933 65.7705 106.229 70.0203 108.689V80.6963L60.3095 70.9836Z" fill="#FF985F"/>
<path d="M95.48 106.068L64.8151 129.319C75.5698 132.089 87.4825 129.395 95.4796 121.397L103.144 113.733L95.48 106.068Z" fill="#FF7C59"/>
<path d="M95.48 106.068L86.0358 96.6235L62.4033 120.256C59.4589 123.2 60.7828 128.28 64.8151 129.319C71.0117 127.531 79.8178 121.73 87.8149 113.732L95.48 106.068Z" fill="#FF985F"/>
<path d="M133.606 104.318L101.082 163.936C125.047 163.936 144.445 144.543 144.445 120.577V104.318H133.606Z" fill="#FF7C59"/>
<path d="M133.606 120.577V104.318H112.728V124.746C106.442 124.269 101.082 129.249 101.082 135.553V146.179C101.082 149.311 99.8534 152.377 97.5023 154.446C96.3739 155.44 95.6621 156.895 95.6621 158.516C95.6621 161.509 98.0887 163.936 101.082 163.936C119.057 163.936 133.606 144.543 133.606 120.577Z" fill="#FF985F"/>
<path d="M144.397 75.1163C144.397 60.9294 133.043 49.2902 118.897 49.0915C118.785 49.0911 118.674 49.0864 118.562 49.0864C103.982 49.0864 90.3677 53.1925 78.8043 60.3058L56.9116 72.9455C46.072 79.2036 46.072 94.8495 56.9116 101.108L78.8047 113.748C90.368 120.861 103.983 124.967 118.563 124.967C135.473 124.967 151.083 119.44 163.702 110.105L144.397 75.1163Z" fill="#FFB464"/>
<path d="M133.557 78.6331V94.7772C133.557 110.318 151.183 119.21 163.701 110.106C169.835 105.568 175.261 100.134 179.784 93.9924L133.557 78.6331Z" fill="#FFD06A"/>
<path d="M180.232 80.6696C173.331 71.1018 164.256 63.2052 153.729 57.7004L148.435 101.931C158.638 106.603 171.735 104.829 179.784 93.9925C179.934 93.7898 180.085 93.5886 180.232 93.3841C182.971 89.587 182.971 84.4663 180.232 80.6696Z" fill="#FF7C59"/>
<path d="M70.5236 81.6067C73.5167 81.6067 75.9434 84.0333 75.9434 87.0265C75.9434 90.0197 73.5167 92.4463 70.5236 92.4463C67.5304 92.4463 65.1038 90.0197 65.1038 87.0265C65.1038 84.0333 67.5304 81.6067 70.5236 81.6067Z" fill="#FFD06A"/>
<path d="M86.1149 81.6067C89.1082 81.6067 91.5347 79.1802 91.5347 76.1869C91.5347 73.1936 89.1082 70.7671 86.1149 70.7671C83.1216 70.7671 80.6951 73.1936 80.6951 76.1869C80.6951 79.1802 83.1216 81.6067 86.1149 81.6067Z" fill="#FFD06A"/>
<path d="M83.5444 102.69C92.0709 111.216 104.743 113.031 115.039 108.145V97.236C104.743 92.3484 92.0709 94.1637 83.5444 102.69Z" fill="#FF985F"/>
<path d="M115.039 97.2345C111.074 95.3557 106.507 98.3026 106.507 102.69C106.507 107.078 111.075 110.024 115.039 108.146C117.833 106.822 120.453 105.004 122.766 102.69C120.453 100.376 117.833 98.5584 115.039 97.2345Z" fill="#FF7C59"/>
<path d="M153.728 57.7004C143.308 52.2513 131.465 49.1461 118.896 49.0916C127.029 49.2061 133.557 55.8974 133.557 64.0538V78.6331C133.557 89.8163 140.008 98.0736 148.435 101.932C159.11 106.82 171.385 98.94 171.446 87.1993C171.446 87.1418 171.446 87.0844 171.446 87.0269C171.447 74.7142 164.612 63.4356 153.728 57.7004Z" fill="#FF985F"/>
<path d="M155.236 83.3992C158.229 83.3992 160.656 80.9727 160.656 77.9794C160.656 74.9861 158.229 72.5596 155.236 72.5596C152.243 72.5596 149.816 74.9861 149.816 77.9794C149.816 80.9727 152.243 83.3992 155.236 83.3992Z" fill="#515985"/>
<path d="M155.236 86.1093C159.719 86.1093 163.366 82.4625 163.366 77.9796C163.366 73.4967 159.719 69.8499 155.236 69.8499C150.754 69.8499 147.107 73.4967 147.107 77.9796C147.107 82.4625 150.753 86.1093 155.236 86.1093ZM155.236 75.2697C156.731 75.2697 157.946 76.4851 157.946 77.9796C157.946 79.474 156.731 80.6895 155.236 80.6895C153.742 80.6895 152.526 79.474 152.526 77.9796C152.526 76.4851 153.742 75.2697 155.236 75.2697Z" fill="black"/>
<path d="M70.5236 84.3168C72.0202 84.3168 73.2335 83.1035 73.2335 81.6069C73.2335 80.1103 72.0202 78.897 70.5236 78.897C66.0407 78.897 62.3939 82.5438 62.3939 87.0267C62.3939 91.5096 66.0407 95.1564 70.5236 95.1564C72.0202 95.1564 73.2335 93.9431 73.2335 92.4465C73.2335 90.9499 72.0202 89.7366 70.5236 89.7366C69.0292 89.7366 67.8137 88.5211 67.8137 87.0267C67.8137 85.5323 69.0292 84.3168 70.5236 84.3168Z" fill="black"/>
<path d="M88.8248 81.6069C88.8248 80.1103 87.6115 78.897 86.1149 78.897C84.6205 78.897 83.405 77.6815 83.405 76.1871C83.405 74.6927 84.6205 73.4772 86.1149 73.4772C87.6115 73.4772 88.8248 72.2639 88.8248 70.7673C88.8248 69.2707 87.6115 68.0574 86.1149 68.0574C81.632 68.0574 77.9852 71.7042 77.9852 76.1871C77.9852 80.67 81.632 84.3168 86.1149 84.3168C87.6119 84.3168 88.8248 83.1035 88.8248 81.6069Z" fill="black"/>
<path d="M81.6284 100.774C81.12 101.282 80.8346 101.971 80.8346 102.69C80.8346 103.409 81.12 104.098 81.6284 104.606C87.5635 110.541 95.3597 113.509 103.156 113.509C110.951 113.509 118.748 110.541 124.683 104.606C125.741 103.548 125.741 101.832 124.683 100.774C112.812 88.9037 93.4982 88.904 81.6284 100.774ZM87.609 102.69C96.6796 95.4887 109.631 95.4887 118.702 102.69C109.631 109.892 96.6796 109.891 87.609 102.69Z" fill="black"/>
<path d="M182.43 79.0844C175.286 69.1788 165.803 60.9566 155.007 55.3059C144.35 49.7282 132.379 46.6682 120.279 46.4026L113.985 35.7306C108.462 26.1571 98.6119 19.6819 87.6368 18.4093C84.4131 18.0357 81.2761 19.5948 79.6477 22.3831L64.5138 48.2938C62.0261 52.5461 62.7216 57.9486 66.2051 61.4321C66.8822 62.1092 67.6341 62.6779 68.4355 63.14C65.2891 64.8303 61.3807 64.2728 58.8414 61.7334L49.9807 52.8728C45.8331 48.7252 41.1034 45.2251 35.9217 42.4696C34.6008 41.7669 32.9596 42.2684 32.2569 43.5897C31.5541 44.9111 32.0556 46.5518 33.377 47.2546C38.0839 49.7578 42.3807 52.9378 46.1482 56.7053L55.0089 65.566C56.2637 66.8208 57.7202 67.783 59.284 68.4468L55.5559 70.5991C49.6169 74.0281 46.0712 80.1691 46.0712 87.0269C46.0712 93.8848 49.6169 100.026 55.5559 103.455L59.2898 105.611C57.7245 106.275 56.2648 107.233 55.0089 108.489L46.1482 117.349C35.9937 127.504 22.4918 133.096 8.12971 133.096C6.63529 133.096 5.41981 131.881 5.41981 130.386C5.41981 129.56 5.7898 128.79 6.43548 128.271C9.00266 126.21 10.7092 123.199 11.2403 119.795C12.4363 112.134 16.2847 105.075 22.0778 99.9189L34.2882 89.0507C34.866 88.5365 35.1966 87.7998 35.1966 87.0262C35.1966 86.2526 34.866 85.5163 34.2882 85.0017L22.0778 74.1336C16.2847 68.9775 12.4359 61.9188 11.2403 54.257C10.7092 50.853 9.00266 47.8428 6.43548 45.7811C5.79016 45.2626 5.41981 44.4916 5.41981 43.666C5.41981 42.1715 6.63529 40.9561 8.12971 40.9561C13.4577 40.9561 18.7442 41.7463 23.8432 43.3043C25.2744 43.7408 26.7894 42.9357 27.2266 41.5049C27.6641 40.0737 26.8584 38.5587 25.4272 38.1215C19.8144 36.406 13.995 35.5366 8.12971 35.5366C3.64681 35.5366 0 39.1834 0 43.6663C0 46.1435 1.10853 48.4549 3.04159 50.0075C4.553 51.2212 5.56289 53.0274 5.88555 55.0934C7.27446 63.9935 11.7454 72.1933 18.4747 78.1825L28.411 87.0262L18.4747 95.8703C11.7454 101.86 7.27446 110.06 5.88555 118.959C5.56289 121.025 4.553 122.832 3.04196 124.045C1.10853 125.598 0 127.909 0 130.386C0 134.869 3.64681 138.516 8.12971 138.516C23.9393 138.516 38.8026 132.36 49.9811 121.181L58.8417 112.32C61.2893 109.873 65.0102 109.262 68.0926 110.734L60.4868 118.34C58.3915 120.435 57.6078 123.396 58.3905 126.261C59.1633 129.091 61.3121 131.215 64.1387 131.943C67.1424 132.717 70.1847 133.093 73.1941 133.093C81.7307 133.093 89.9836 130.058 96.2052 124.443C98.2224 125.039 100.263 125.558 102.324 125.991C99.8075 128.52 98.3716 131.973 98.3716 135.553V146.179C98.3716 148.652 97.4019 150.924 95.7116 152.412C93.9578 153.955 92.9518 156.18 92.9518 158.516C92.9518 162.999 96.599 166.645 101.082 166.645C111.425 166.645 121.196 163.301 129.339 156.975C130.52 156.057 130.734 154.354 129.816 153.172C128.897 151.991 127.195 151.777 126.013 152.695C118.831 158.276 110.21 161.226 101.082 161.226C99.5871 161.226 98.3716 160.01 98.3716 158.516C98.3716 157.737 98.7073 156.995 99.2923 156.48C102.152 153.963 103.791 150.209 103.791 146.179V135.553C103.791 133.263 104.716 131.145 106.395 129.589C108.07 128.036 110.245 127.276 112.523 127.448C112.548 127.45 112.572 127.448 112.597 127.449C114.576 127.599 116.566 127.677 118.562 127.677C126.364 127.677 134.135 126.503 141.56 124.244C140.876 132.006 138.031 139.297 133.202 145.508C132.284 146.69 132.497 148.393 133.679 149.311C134.173 149.695 134.758 149.882 135.34 149.882C136.148 149.882 136.947 149.522 137.482 148.834C143.454 141.151 146.766 132.016 147.12 122.319C149.813 121.273 152.45 120.086 155.008 118.748C165.803 113.097 175.286 104.874 182.43 94.9691C185.857 90.2185 185.857 83.8347 182.43 79.0844ZM178.034 82.2546C180.093 85.1087 180.093 88.9441 178.034 91.7985C177.831 92.0796 177.621 92.3535 177.414 92.631C170.186 102.129 159.639 102.927 152.107 100.464C142.484 97.3163 136.267 88.7472 136.267 78.6328V64.0535C136.267 59.9453 134.86 56.1601 132.51 53.1535C150.639 56.6912 167.043 67.0159 178.034 82.2546ZM161.347 108.438C156.453 111.615 150.503 111.952 145.216 109.295C139.832 106.59 136.541 101.469 136.291 95.5053C139.694 100.127 144.542 103.692 150.422 105.615C153.434 106.6 156.482 107.078 159.475 107.078C160.854 107.078 162.222 106.973 163.569 106.772C162.837 107.341 162.098 107.898 161.347 108.438ZM69.1929 51.0286L84.3275 25.1165C84.8705 24.1865 85.926 23.6676 87.0125 23.793C96.2919 24.869 104.62 30.3441 109.304 38.4615L114.049 46.5074C101.068 47.2481 88.4888 51.1735 77.4165 57.9775L76.5793 58.461C74.4587 59.6847 71.7687 59.3307 70.0373 57.5996C68.2961 55.8576 67.9485 53.1564 69.1929 51.0286ZM65.4908 126.695C64.1669 126.354 63.7409 125.279 63.6188 124.833C63.3554 123.869 63.6173 122.874 64.319 122.172L72.978 113.513L77.4165 116.076C81.4716 118.568 85.7308 120.669 90.1361 122.375C83.2591 127.272 74.1856 128.934 65.4908 126.695ZM118.562 122.257C104.985 122.257 91.728 118.516 80.2243 111.439C80.2026 111.426 80.1813 111.413 80.1593 111.401L58.2662 98.7608C54.0239 96.3114 51.4914 91.925 51.4914 87.0262C51.4914 82.1278 54.0239 77.7414 58.2662 75.292L80.1593 62.6523C80.1813 62.6396 80.2026 62.627 80.2243 62.6136C91.728 55.5368 104.985 51.796 118.562 51.796C118.667 51.796 118.772 51.8004 118.877 51.8007C125.492 51.9044 130.847 57.3643 130.847 64.0535V94.7769C130.847 103.02 135.421 110.439 142.783 114.138C144.505 115.004 146.301 115.617 148.125 115.999C138.918 120.066 128.86 122.257 118.562 122.257Z" fill="black"/>
</g>
<defs>
<clipPath id="clip0_2_43080">
<rect width="185" height="185" fill="white"/>
</clipPath>
</defs>
</svg>
