<svg width="184" height="185" viewBox="0 0 184 185" fill="none" xmlns="http://www.w3.org/2000/svg">
<g clip-path="url(#clip0_2_43576)">
<path d="M28.2876 84.2216L17.4007 73.2756C14.0366 69.8932 8.58239 69.8932 5.21864 73.2756C1.85453 76.658 1.85453 82.1418 5.21864 85.5239L8.81562 89.1404L5.21864 92.7569C1.85453 96.1393 1.85453 101.623 5.21864 105.005C8.58275 108.388 14.037 108.388 17.4007 105.005L28.2876 94.0592V84.2216Z" fill="#FAD989"/>
<path d="M144.11 92.4964C162.175 147.523 135.114 162.778 116.032 166.424C102.761 165.932 97.4322 153.593 103.43 147.357L96.5697 36.8844C93.515 31.8041 95.6479 20.0483 103.126 17.5677C103.615 17.5533 104.108 17.5497 104.603 17.5497C130.051 17.5605 164.828 26.395 144.11 92.4964Z" fill="#E8ECF9"/>
<path d="M116.032 166.424C111.999 167.197 108.323 167.45 105.506 167.45C67.6957 167.45 53.1554 144.242 39.5422 117.161L40.473 63.4167C51.8257 45.5273 69.5069 18.3265 103.126 17.5677C98.6594 23.6092 99.4608 31.8041 102.516 36.8844L109.376 147.357C103.378 153.593 107.28 164.258 116.032 166.424Z" fill="#C5CFF1"/>
<path d="M181.305 82.3503V102.646C181.305 108.554 175.339 112.568 169.909 110.313L161.327 106.751C152 101.109 150.832 85.4479 160.181 78.7225L169.909 74.6829C175.339 72.4282 181.305 76.4426 181.305 82.3503Z" fill="#E8ECF9"/>
<path d="M161.327 106.751L126.996 92.4964L160.181 78.7225C155.221 88.3122 156.817 99.9036 161.327 106.751Z" fill="#C5CFF1"/>
<path d="M107.694 149.991C68.231 129.985 62.5098 53.0228 97.1894 35.4716C99.6979 35.1609 102.235 34.9874 104.79 34.9621C135.589 34.6333 142.722 59.0591 144.023 90.0033C145.374 122.161 138.27 148.788 107.694 149.991Z" fill="#FFEAB7"/>
<path d="M107.694 149.991C106.979 150.02 106.249 150.034 105.505 150.034C81.3339 150.034 59.0383 135.162 42.658 120.098C51.0925 113.829 63.0166 104.984 63.0166 88.8325C63.0166 74.112 52.318 64.4934 46.7369 58.228C60.6483 47.6086 78.1606 37.7768 97.1895 35.4716C71.5301 66.488 82.7894 121.572 107.694 149.991Z" fill="#FAD989"/>
<path d="M70.5957 88.8325C70.5957 104.984 58.3338 118.602 42.6579 120.098C35.1398 113.19 28.8687 106.238 24.2327 100.666C18.6696 93.9778 19.0002 84.1461 24.991 77.8445C30.3888 72.1645 37.8207 65.0354 46.7368 58.228C60.411 61.433 70.5957 74.112 70.5957 88.8325Z" fill="#F6CA56"/>
<path d="M47.585 86.481C49.0735 86.481 50.2803 85.2676 50.2803 83.771V79.4351C50.2803 77.9384 49.0735 76.7251 47.585 76.7251C46.0964 76.7251 44.8896 77.9384 44.8896 79.4351V83.771C44.8896 85.2676 46.0964 86.481 47.585 86.481Z" fill="black"/>
<path d="M179.141 73.2025C176.098 71.1563 172.263 70.7733 168.879 72.1774L150.323 79.8809C155.284 57.893 153.564 41.2138 145.181 30.259C137.246 19.8907 123.974 14.8466 104.603 14.8375C104.593 14.8375 104.583 14.8375 104.572 14.8375C97.7885 14.8375 91.2217 15.88 85.0544 17.9359C83.6414 18.4071 82.8759 19.9406 83.3445 21.3609C83.8132 22.7813 85.3383 23.5513 86.751 23.0801C92.3702 21.207 98.3657 20.2571 104.572 20.2571H104.6C122.186 20.265 134.063 24.618 140.908 33.5637C147.958 42.7754 149.534 57.0631 145.626 76.0935C144.226 64.6871 141.669 56.0268 137.793 49.3823C134.532 43.7933 130.231 39.5217 125.01 36.686C119.438 33.6587 112.622 32.1672 104.758 32.251C85.1281 32.4613 66.8079 40.9662 51.767 51.2547C57.9191 42.8777 65.7729 34.1021 75.8383 28.1019C77.1187 27.3388 77.5413 25.6759 76.782 24.3885C76.0233 23.1018 74.3699 22.6762 73.0887 23.4397C56.3012 33.447 45.5609 50.1985 38.4194 61.4478C32.5311 66.4215 27.4804 71.3301 23.4568 75.5356L19.3025 71.3586C14.8929 66.9248 7.71766 66.9248 3.30813 71.3586C-1.10141 75.7921 -1.10141 83.0064 3.30813 87.4399L4.99898 89.1403L3.30813 90.8404C-1.10141 95.2739 -1.10141 102.488 3.30813 106.922C5.51289 109.138 8.40909 110.247 11.3053 110.247C14.2015 110.247 17.0977 109.139 19.3025 106.922L22.9077 103.297C26.8396 107.972 31.712 113.362 37.3532 118.826C43.4751 130.982 50.9095 144.682 61.635 154.473C73.2012 165.03 87.5499 170.162 105.503 170.162C111.543 170.162 132.185 168.939 144.203 153.19C152.883 141.818 154.958 125.671 150.406 105.149L156.266 107.582C157.608 108.149 159.218 107.509 159.786 106.111C160.354 104.728 159.699 103.143 158.323 102.572L146.866 97.8154C146.886 94.4761 146.784 90.7688 146.589 87.295L170.936 77.1872C172.679 76.4642 174.577 76.6535 176.145 77.7075C177.711 78.7615 178.61 80.4533 178.61 82.3488V102.655C178.616 104.643 177.648 106.369 175.953 107.39C174.179 108.46 172.028 108.507 170.199 107.517C168.887 106.807 167.252 107.302 166.548 108.62C165.842 109.937 166.333 111.581 167.644 112.29C169.327 113.201 171.152 113.654 172.973 113.654C174.96 113.654 176.941 113.114 178.725 112.039C182.04 110.04 184.013 106.526 184.001 102.647V82.3488C184 78.6683 182.183 75.2491 179.141 73.2025ZM104.815 37.6713C129.168 37.409 139.753 52.6061 141.329 90.1174C141.469 93.447 141.51 96.6162 141.458 99.6391C141.15 117.808 137.376 130.495 129.999 138.231C124.162 144.352 116.15 147.328 105.503 147.328C83.9583 147.328 63.8682 135.065 48.2264 121.487C54.3768 119.87 59.974 116.523 64.3674 111.748C70.1213 105.495 73.2899 97.3562 73.2899 88.8317C73.2899 81.0935 70.6194 73.532 65.77 67.5405C62.1676 63.0896 57.4825 59.6382 52.2431 57.5104C67.0242 46.9264 85.3139 37.8801 104.815 37.6713ZM15.4899 103.089C14.3718 104.213 12.8855 104.832 11.3046 104.832C9.72369 104.832 8.23731 104.213 7.1193 103.089C6.00128 101.965 5.38567 100.47 5.38567 98.881C5.38567 97.2912 6.00128 95.7971 7.1193 94.673L10.7163 91.0564C11.2219 90.5484 11.5058 89.859 11.5058 89.1403C11.5058 88.4216 11.2219 87.7322 10.7163 87.2242L7.1193 83.6073C4.81139 81.2869 4.81139 77.5113 7.1193 75.1909C9.4272 72.8704 13.1823 72.8704 15.4902 75.1909L20.1481 79.8741C16.8505 85.6889 16.6966 92.8266 19.7689 98.7871L15.4899 103.089ZM26.2959 98.9276C21.6589 93.3979 21.8472 85.0237 26.9356 79.7176C31.951 74.3786 39.9281 66.8959 46.9851 61.4445C59.1748 64.7185 67.899 76.0425 67.899 88.8317C67.899 103.072 57.1411 115.205 43.2052 116.951C36.9575 111.114 30.6145 104.154 26.2959 98.9276ZM139.926 149.891C129.409 163.671 110.919 164.742 105.502 164.742C75.5903 164.742 60.8218 149.566 49.0034 129.173C64.7648 141.921 84.3702 152.747 105.502 152.747C117.528 152.747 127.079 149.125 133.89 141.982C140.498 135.051 144.548 124.904 146.119 111.236C148.983 127.759 146.914 140.734 139.926 149.891Z" fill="black"/>
</g>
<defs>
<clipPath id="clip0_2_43576">
<rect width="184" height="185" fill="white"/>
</clipPath>
</defs>
</svg>
