<svg width="184" height="185" viewBox="0 0 184 185" fill="none" xmlns="http://www.w3.org/2000/svg">
<path d="M181.305 73.4287V97.4679C181.305 97.887 181.28 98.2953 181.226 98.6928C172.633 104.633 154.176 97.3718 154.176 83.1015C154.506 78.3067 155.868 73.6275 158.24 69.8371L167.217 64.97C173.582 61.523 181.305 66.1588 181.305 73.4287Z" fill="#E8ECF9"/>
<path d="M181.226 98.6928C180.421 105.244 173.215 109.175 167.217 105.923L158.449 101.171C155.142 96.1851 153.73 89.5403 154.176 83.1014C159.268 92.4526 170.01 99.3973 181.226 98.6928Z" fill="#C5CFF1"/>
<path d="M160.184 90.7617C152.68 90.2439 147.201 81.7657 151.2 73.6528L158.24 69.8372C160.353 76.3085 160.784 83.8097 160.184 90.7617Z" fill="#546370"/>
<path d="M160.184 90.7616C159.864 94.4652 159.253 98.0134 158.448 101.171L130.726 86.1474C130.784 85.656 130.838 85.1574 130.892 84.6588L151.2 73.6527C151.811 80.0554 155.214 86.1727 160.184 90.7616Z" fill="#495560"/>
<path d="M60.0933 122.651C61.3748 152.035 79.621 161.367 95.9262 164.793C98.4749 165.328 100.339 162.391 98.7584 160.31C91.0973 150.228 88.6596 134.974 92.3773 122.892L60.0933 122.651Z" fill="#546370"/>
<path d="M144.286 85.4465C144.286 114.468 152.681 118.562 152.681 129.6C152.681 142.944 140.563 152.888 127.65 150.344C123.891 139.58 111.737 134.243 97.6824 142.449C69.7834 124.864 50.1889 53.7002 85.3666 32.4003C86.973 31.9342 88.5974 31.4897 90.2326 31.067C101.201 28.2305 114.293 24.4366 125.649 21.0365C139.132 17.0005 152.681 27.1502 152.681 41.2962C152.68 52.3347 144.286 60.2514 144.286 85.4465Z" fill="#F6CA56"/>
<path d="M97.6821 142.449C96.1548 141.961 86.3906 138.551 82.8256 137.275C79.717 123.805 71.7317 120.665 60.2245 127.19C55.7503 124.448 51.8079 121.261 48.782 117.42C42.4749 109.413 33.4367 104.044 23.4245 102.313L6.20682 99.3428C1.52416 98.5334 1.52416 91.773 6.20682 90.9636L18.5693 88.8282C28.5168 87.1118 36.4985 79.7335 39.2226 69.9596C45.0193 49.1688 63.8218 38.6614 85.366 32.3999C59.5708 62.6973 77.0148 118.812 97.6821 142.449Z" fill="#F1B70B"/>
<path d="M111.455 65.9015C109.131 93.7509 104.016 124.497 97.6816 142.45C106.365 145.239 117.215 147.967 126.979 150.212C127.203 150.264 127.426 150.302 127.65 150.346C130.885 126.704 133.607 96.8601 126.429 64.8775C124.519 56.3682 112.18 57.2087 111.455 65.9015Z" fill="#E8ECF9"/>
<path d="M85.0357 122.956C73.2712 114.343 67.0824 74.5178 72.9428 63.0373C76.3892 61.7184 80.9065 63.2216 81.7942 67.8827C85.0609 84.9985 86.6996 105.146 85.0357 122.956Z" fill="#E8ECF9"/>
<path d="M85.0356 122.956C84.572 127.953 83.8461 132.766 82.8255 137.275C74.9659 134.464 66.9878 131.339 60.2244 127.191C65.0759 111.498 67.6706 91.4373 68.8709 68.7896C69.0291 65.8086 70.7756 63.8647 72.9426 63.0372C70.6933 83.105 76.3783 105.489 85.0356 122.956Z" fill="#C5CFF1"/>
<path d="M132.526 48.0715C136.711 48.0715 140.102 44.6612 140.102 40.4543C140.102 36.2475 136.711 32.8372 132.526 32.8372C128.342 32.8372 124.95 36.2475 124.95 40.4543C124.95 44.6612 128.342 48.0715 132.526 48.0715Z" fill="#546370"/>
<path d="M142.798 40.4564C142.798 34.7619 138.19 30.1293 132.526 30.1293C126.863 30.1293 122.255 34.7619 122.255 40.4564C122.255 46.1509 126.863 50.7839 132.526 50.7839C138.19 50.7839 142.798 46.1509 142.798 40.4564ZM127.646 40.4564C127.646 37.7504 129.835 35.5492 132.526 35.5492C135.217 35.5492 137.407 37.7504 137.407 40.4564C137.407 43.1624 135.217 45.3639 132.526 45.3639C129.835 45.3639 127.646 43.1624 127.646 40.4564Z" fill="black"/>
<path d="M45.4307 81.7682V86.2519C45.4307 87.7485 46.6371 88.9619 48.126 88.9619C49.6149 88.9619 50.8213 87.7485 50.8213 86.2519V81.7682C50.8213 80.2716 49.6149 79.0582 48.126 79.0582C46.6371 79.0582 45.4307 80.2716 45.4307 81.7682Z" fill="black"/>
<path d="M178.03 62.8552C174.291 60.6113 169.772 60.5119 165.939 62.5889L147.866 72.3834C148.92 65.0676 150.734 59.7485 152.297 55.1697C153.95 50.3279 155.377 46.1463 155.377 41.298C155.377 33.6931 151.9 26.7245 145.836 22.1786C139.771 17.6317 132.131 16.2691 124.879 18.4407C122.66 19.1052 120.374 19.7845 118.051 20.4685C116.622 20.8894 115.804 22.3947 116.222 23.831C116.641 25.2673 118.136 26.0922 119.567 25.6698C121.897 24.9836 124.191 24.3014 126.417 23.6352C132.023 21.9568 137.926 23.0093 142.614 26.5236C147.299 30.0361 149.987 35.421 149.987 41.2976C149.987 45.2415 148.756 48.8461 147.198 53.4097C144.7 60.7277 141.591 69.8353 141.591 85.4494C141.048 97.1206 144.66 113.699 147.433 119.204C148.915 123.088 149.986 125.894 149.986 129.603C149.986 135.247 147.468 140.502 143.079 144.02C139.521 146.871 135.132 148.261 130.682 148.013C133.884 123.747 135.965 95.0578 129.058 64.2828C127.913 59.1844 123.483 55.8772 118.3 56.2374C113.121 56.598 109.202 60.4794 108.768 65.6768C106.416 93.8683 101.461 122.183 95.9855 139.039C92.6418 137.872 89.3248 136.693 85.9535 135.515C89.6414 117.027 89.1024 91.8019 84.4398 67.3736C83.5367 62.6398 79.5509 59.5609 74.768 59.8926C69.9656 60.2225 66.4333 63.8217 66.1778 68.6454C64.9826 91.2136 62.5194 109.02 58.6655 122.915C55.6643 120.796 53.0161 118.429 50.895 115.738C44.1744 107.208 34.5794 101.493 23.878 99.6456L6.66353 96.6737C5.51497 96.476 5.39062 95.5463 5.39062 95.1557C5.39062 94.7651 5.51497 93.8354 6.66425 93.6371L19.0257 91.5031C29.8709 89.631 38.8168 81.4636 41.818 70.6949C46.7982 52.8229 62.395 41.0653 90.9014 33.6927C95.6901 32.4545 101.258 30.9354 107.452 29.1772C108.884 28.7707 109.718 27.2734 109.314 25.8331C108.909 24.3929 107.419 23.5549 105.988 23.9614C99.8344 25.7077 94.3072 27.2159 89.5588 28.4437C75.7724 32.0093 65.0311 36.5021 56.722 42.1785C46.4316 49.2085 39.671 58.3107 36.6275 69.233C34.1852 77.997 26.9179 84.6418 18.1136 86.1615L5.75216 88.2956C2.36541 88.8798 0 91.7011 0 95.1557C0 98.6107 2.36541 101.432 5.7518 102.016L22.9659 104.988C32.3567 106.609 40.775 111.622 46.6699 119.104C49.708 122.96 53.5886 126.179 57.9543 128.952C58.6877 134.377 60.08 139.327 62.1165 143.673C62.7526 145.041 64.3878 145.602 65.7031 144.97C67.0497 144.332 67.6272 142.717 66.9925 141.363C65.7196 138.647 64.7303 135.643 64.0234 132.397C69.7249 135.304 75.9075 137.68 81.9605 139.846C84.1847 140.643 86.3542 141.397 88.5457 142.166C89.6917 149.601 92.5254 156.575 96.6158 161.958C96.6381 161.988 96.6449 162.004 96.6453 162.004C96.6359 162.052 96.5881 162.183 96.4767 162.143C86.6051 160.068 79.1469 156.407 73.6765 150.948C72.62 149.894 70.9133 149.901 69.865 150.963C68.8164 152.026 68.8232 153.741 69.8794 154.795C76.1124 161.014 84.452 165.153 95.3742 167.448C97.6063 167.929 99.9379 166.966 101.178 164.968C102.415 162.993 102.307 160.52 100.9 158.668C97.8769 154.69 95.6426 149.673 94.4211 144.23C102.184 146.864 112.917 149.762 126.378 152.857C133.373 154.479 140.759 152.826 146.44 148.259C152.12 143.706 155.377 136.907 155.377 129.603C155.377 124.891 154.028 121.355 152.465 117.262C150.729 112.715 148.692 107.373 147.659 98.4052L165.938 108.312C169.767 110.387 174.287 110.291 178.029 108.045C181.768 105.802 184 101.848 184 97.4708V73.4302C184 69.0523 181.768 65.099 178.03 62.8552ZM71.5609 68.9341C71.6939 66.4269 73.4947 65.413 75.1353 65.3003C76.7668 65.1868 78.6776 65.9423 79.1462 68.3954C83.619 91.8301 84.212 115.923 80.822 133.669C74.7874 131.44 68.7535 128.957 63.4189 125.92C67.6333 111.405 70.3009 92.7309 71.5609 68.9341ZM114.14 66.1302C114.399 63.0347 116.743 61.7791 118.672 61.6451C120.608 61.5121 123.116 62.4324 123.799 65.4762C130.499 95.3256 128.49 123.325 125.37 147.061C115.745 144.813 107.629 142.681 101.121 140.692C106.786 123.276 111.721 95.1268 114.14 66.1302ZM146.982 85.4501C146.982 83.1224 147.056 80.9476 147.19 78.9068L156.505 73.8587C158.387 81.6121 157.909 90.272 156.56 97.0719L147.138 91.9656C147.038 89.9497 146.982 87.7875 146.982 85.4501ZM178.609 97.4704C178.609 99.9217 177.359 102.135 175.266 103.391C173.173 104.648 170.642 104.704 168.496 103.541L161.502 99.7504C163.307 91.7278 164.043 80.7984 161.387 71.2127L168.497 67.3598C170.642 66.1967 173.173 66.2527 175.267 67.5091C177.36 68.7658 178.61 70.9793 178.61 73.4302V97.4704H178.609Z" fill="black"/>
</svg>
