<svg width="185" height="184" viewBox="0 0 185 184" fill="none" xmlns="http://www.w3.org/2000/svg">
<g clip-path="url(#clip0_2_43175)">
<path d="M172.686 103.551C179.773 97.9703 182.042 88.6097 182.286 79.6138C182.513 71.231 171.853 67.5043 166.759 74.1861C160.192 82.7996 152.061 91.1159 145.145 91.1159L144.107 115.499C151.023 115.499 160.192 124.302 166.759 132.915C171.853 139.597 182.513 135.87 182.286 127.488C182.042 118.492 179.773 109.131 172.686 103.551Z" fill="#EAAA83"/>
<path d="M128.734 88.711L115.473 83.0472C94.1382 72.202 91.1738 51.9368 100.42 49.8162C107.509 53.3704 126.389 59.5013 135.375 70.2862C145.51 82.4542 128.734 88.711 128.734 88.711Z" fill="#EAAA83"/>
<path d="M115.473 83.0472L66.875 62.2933C68.9129 53.0286 75.0699 43.7675 87.9729 38.3197C91.5718 36.7996 95.5897 39.2146 95.9366 43.0887C96.1281 45.2521 96.7713 47.3508 98.3214 48.5727C98.7983 48.9465 99.5138 49.3597 100.421 49.8162C95.0369 55.6919 101.147 69.5171 115.473 83.0472Z" fill="#DF8A57"/>
<path d="M126.219 131.807C126.349 132.364 126.386 132.91 126.339 133.438C115.843 136.354 108.643 123.495 114.104 115.61L128.734 111.304C128.734 111.304 123.202 119.046 126.219 131.807Z" fill="#EAAA83"/>
<path d="M126.339 133.438C126.071 136.457 123.087 138.768 119.925 137.852C110.361 135.088 102.574 127.98 103.922 118.603L114.104 115.61C113.746 122.995 116.106 131.207 126.339 133.438Z" fill="#DF8A57"/>
<path d="M84.4347 142.313C81.6181 146.414 75.8463 147.37 71.5429 144.446C67.2395 141.523 59.0192 131.063 61.8358 126.962C64.6523 122.86 77.439 126.67 81.7424 129.593C86.0459 132.516 87.2513 138.211 84.4347 142.313Z" fill="#DF8A57"/>
<path d="M152.224 99.8552V106.597C152.224 111.201 148.715 115.064 144.109 115.499C134.859 116.372 125.822 118.909 117.392 122.913C107.788 127.466 95.3802 130.352 81.744 130.711C42.3365 121.663 42.4518 67.8517 69.7154 57.3486C91.7384 57.3989 115.181 68.8666 127.824 81.6568C132.546 86.4329 138.62 89.7211 145.146 91.1155C149.279 91.9992 152.224 95.6469 152.224 99.8552Z" fill="#FFEAB7"/>
<path d="M81.7439 130.711C80.7683 130.739 79.7855 130.754 78.7991 130.754C63.1535 130.754 48.9501 127.444 38.4607 122.05C34.403 119.965 30.2658 118.05 26.0455 116.329C27.8558 109.993 30.8729 107.085 30.8729 100.221C30.8729 92.3079 25.4891 87.1365 23.2886 82.9857C25.0121 81.3577 26.5803 79.5681 27.9605 77.631C35.8628 66.5263 49.8534 57.3479 69.5743 57.3479H69.7153C53.3254 75.4787 52.5345 114.399 81.7439 130.711Z" fill="#FAD989"/>
<path d="M35.7144 100.222C35.7144 107.086 31.7868 113.382 26.0453 116.329C20.6037 114.112 15.032 112.218 9.3447 110.705L9.24353 110.68C5.02322 109.558 2.21208 105.505 2.78298 101.077C3.10818 98.5542 4.58601 96.3189 6.69617 94.885L18.2261 87.0542C20.0256 85.8359 21.7202 84.4775 23.2884 82.9861C30.4896 85.2645 35.7144 92.3083 35.7144 100.222Z" fill="#F6CA56"/>
<path d="M75.0229 109.217C75.0229 111.675 74.0726 113.914 72.5152 115.585C57.9917 118.604 52.0059 105.978 57.9501 101.329C60.8407 100.38 63.7024 99.8336 65.585 99.8336C70.7953 99.8336 75.0229 104.035 75.0229 109.217Z" fill="#EAAA83"/>
<path d="M72.5151 115.585C70.7952 117.443 68.3237 118.604 65.5849 118.604C60.3745 118.604 47.6558 114.403 47.6558 109.217C47.6558 105.907 52.8444 102.996 57.95 101.329C55.3015 107.237 60.7828 115.283 72.5151 115.585Z" fill="#DF8A57"/>
<path d="M53.5605 118.322C57.5847 120.106 62.4163 121.305 65.5837 121.305C72.2813 121.305 77.7301 115.885 77.7301 109.224C77.7301 102.562 72.2813 97.1434 65.5837 97.1434C62.4163 97.1434 57.5847 98.3419 53.5609 100.126C47.9227 102.625 44.9429 105.771 44.9429 109.224C44.9425 112.677 47.9227 115.823 53.5605 118.322ZM55.7668 105.05C59.4524 103.416 63.5755 102.534 65.5834 102.534C69.2924 102.534 72.3095 105.536 72.3095 109.224C72.3095 112.913 69.2921 115.914 65.5834 115.914C63.5751 115.914 59.4524 115.032 55.7668 113.398C51.8294 111.653 50.3624 109.912 50.3624 109.224C50.3624 108.536 51.8298 106.795 55.7668 105.05Z" fill="black"/>
<path d="M25.5527 100.527V96.2144C25.5527 94.7255 24.3394 93.519 22.8428 93.519C21.3462 93.519 20.1328 94.7255 20.1328 96.2144V100.527C20.1328 102.016 21.3462 103.222 22.8428 103.222C24.3394 103.222 25.5527 102.015 25.5527 100.527Z" fill="black"/>
<path d="M184.996 79.6918C185.131 74.6788 182.156 70.3689 177.416 68.7125C172.677 67.0572 167.646 68.5677 164.6 72.5632C156.946 82.6023 150.151 88.2111 145.414 88.4167C142.809 87.8341 140.312 86.94 137.969 85.7555C139.822 83.7448 140.942 81.512 141.25 79.1674C141.706 75.7016 140.431 72.1373 137.462 68.5731C130.002 59.6192 116.474 53.8495 107.521 50.0318C104.167 48.6012 100.999 47.2499 100.001 46.4647C99.0717 45.733 98.7443 44.0982 98.6338 42.8558C98.3909 40.1343 96.9041 37.7696 94.5551 36.3677C92.2144 34.9704 89.4286 34.7796 86.9119 35.8423C77.3436 39.8834 70.3396 46.3921 66.55 54.7332C60.3698 55.0228 54.4914 56.2041 49.0393 58.2601C47.6399 58.7876 46.9353 60.3441 47.4661 61.736C47.9965 63.1278 49.5607 63.8286 50.9605 63.3007C56.6518 61.1415 63.0708 60.0419 69.5721 60.0512C92.3091 60.0512 114.704 72.2329 125.889 83.5511C130.982 88.7042 137.444 92.2336 144.575 93.7577C147.437 94.369 149.514 96.936 149.514 99.8606V106.605C149.514 109.846 147.08 112.518 143.851 112.823C134.323 113.725 125.037 116.302 116.225 120.488C105.918 125.375 92.626 128.066 78.7976 128.066C64.1255 128.066 50.2414 125.082 39.7037 119.664C36.9193 118.233 34.1204 116.898 31.314 115.654C35.741 111.826 38.4213 106.196 38.4213 100.23C38.4213 92.7044 34.1678 85.8302 27.6924 82.3102C28.5737 81.3082 29.4051 80.2711 30.1718 79.1933C32.9826 75.2434 36.4376 71.7855 40.4411 68.9159C41.6552 68.0455 41.9302 66.3611 41.055 65.1533C40.1799 63.9458 38.4863 63.6726 37.2723 64.5423C32.7824 67.7605 28.905 71.6421 25.7477 76.0797C23.3163 79.4887 20.2096 82.437 16.695 84.8341L5.16684 92.6641C2.35932 94.5713 0.5104 97.5146 0.0937884 100.74C-0.638985 106.419 2.992 111.814 8.54056 113.29L8.64209 113.317C18.1436 115.843 27.7571 119.59 37.2152 124.453C43.5262 127.697 50.9236 130.126 58.9303 131.638C60.4988 137.408 66.5912 144.355 70.0133 146.679C72.1596 148.138 74.5989 148.838 76.9938 148.838C80.7693 148.838 84.4354 147.097 86.672 143.841C88.8855 140.617 89.2284 136.599 87.8492 133.079C93.504 132.614 98.9933 131.716 104.162 130.418C107.297 134.962 112.642 138.56 119.169 140.447C121.787 141.21 124.605 140.548 126.621 138.637C128.666 136.706 129.501 133.924 128.856 131.196C128.07 127.872 127.847 124.629 128.182 121.531C133.416 119.843 138.777 118.729 144.212 118.206C146.539 118.248 149.614 119.723 153.118 122.482C154.283 123.401 155.992 123.215 156.925 122.042C157.854 120.875 157.656 119.18 156.483 118.256C154.743 116.886 153.065 115.773 151.453 114.918C153.614 112.803 154.936 109.859 154.936 106.606V99.861C154.936 96.8835 153.776 94.1063 151.853 92.0119C156.977 89.4075 162.689 83.9935 168.919 75.8213C170.856 73.282 173.651 73.112 175.62 73.7998C177.59 74.4884 179.665 76.36 179.578 79.5477C179.3 89.8168 176.415 97.1843 171.005 101.445C170.356 101.956 169.978 102.734 169.978 103.558C169.978 104.382 170.356 105.16 171.005 105.671C176.416 109.932 179.3 117.299 179.578 127.568C179.665 130.755 177.59 132.627 175.62 133.316C173.651 134.004 170.856 133.834 168.919 131.294C167.949 130.022 166.928 128.753 165.883 127.523C164.917 126.386 163.207 126.243 162.064 127.204C160.921 128.165 160.777 129.866 161.743 131.003C162.726 132.16 163.688 133.354 164.601 134.551C167.655 138.584 172.782 140.043 177.417 138.401C182.157 136.745 185.133 132.435 184.997 127.422C184.713 116.952 181.929 108.943 176.712 103.558C181.928 98.1712 184.712 90.1618 184.996 79.6918ZM9.94034 108.082C7.00274 107.3 5.08048 104.439 5.46927 101.426C5.68859 99.7258 6.69236 98.1547 8.22295 97.115L19.7511 89.2849C21.1083 88.3631 22.3881 87.3745 23.6025 86.3348C29.2017 88.6107 33.001 94.1282 33.001 100.229C33.001 105.569 30.0826 110.546 25.4796 113.211C20.2971 111.167 15.1109 109.453 9.94034 108.082ZM72.6167 54.7353C76.0161 48.6579 81.5151 43.9782 89.0304 40.8038C89.9322 40.4225 90.9299 40.4904 91.7663 40.99C92.6115 41.4942 93.1466 42.348 93.2348 43.3324C93.5329 46.6724 94.6776 49.1481 96.6367 50.6909C98.1994 51.9214 101.214 53.2069 105.385 54.9862C113.858 58.5997 126.663 64.0608 133.288 72.0123C135.257 74.3763 136.128 76.5483 135.875 78.4681C135.648 80.2014 134.506 81.6849 133.254 82.827C132.02 81.8998 130.85 80.8799 129.755 79.7715C118.302 68.1828 95.8501 55.7549 72.6167 54.7353ZM82.1959 140.799C80.2262 143.667 76.132 144.307 73.0698 142.227C70.6341 140.573 66.9214 136.23 65.0823 132.6C69.5378 133.162 74.1325 133.456 78.7983 133.456C79.8281 133.456 80.8546 133.438 81.8786 133.41C83.5523 135.615 83.7228 138.576 82.1959 140.799ZM123.579 132.429C123.778 133.271 123.52 134.13 122.888 134.727C122.601 134.999 121.808 135.596 120.681 135.269C116.099 133.946 112.285 131.665 109.766 128.819C112.863 127.815 115.808 126.657 118.559 125.352C119.901 124.715 121.255 124.122 122.619 123.565C122.549 126.455 122.868 129.421 123.579 132.429Z" fill="black"/>
</g>
<defs>
<clipPath id="clip0_2_43175">
<rect width="185" height="184" fill="white"/>
</clipPath>
</defs>
</svg>
