<svg width="185" height="185" viewBox="0 0 185 185" fill="none" xmlns="http://www.w3.org/2000/svg">
<g clip-path="url(#clip0_2_43057)">
<path d="M13.5498 65.6279C10.2541 63.7216 6.51546 62.72 2.70996 62.72C3.20679 66.493 4.68787 70.0686 7.00434 73.0879L24.2089 95.2398L33.0745 76.8515L13.5498 65.6279Z" fill="#98B6D1"/>
<path d="M24.2093 95.2395L7.0047 117.391C4.68787 120.41 3.20679 123.986 2.70996 127.759C6.51546 127.759 10.2541 126.757 13.5498 124.851L33.0748 113.627L24.2093 95.2395Z" fill="#98B6D1"/>
<path d="M49.0942 79.8288C45.7469 81.7615 41.6234 81.7655 38.2721 79.8389L33.0744 76.8511C27.4698 81.2694 24.2089 87.924 24.2092 95.2394C24.2092 102.554 27.4698 109.209 33.0748 113.627L38.2721 110.64C41.6234 108.713 45.7465 108.717 49.0942 110.65V79.8288Z" fill="#87A1C1"/>
<path d="M106.661 132.377V162.929C115.649 162.929 122.921 155.657 122.921 146.67V132.377H106.661Z" fill="#98B6D1"/>
<path d="M136.221 54.5901L105.289 23.658C103.166 21.5352 99.7199 21.5413 97.6047 23.6771C96.5669 24.725 96.0361 26.1739 96.0361 27.6485C96.0361 31.1089 95.2123 34.4512 93.7067 37.4386L119.581 63.3129L136.221 54.5901Z" fill="#87A1C1"/>
<path d="M102.416 36.1151C99.8087 33.5081 95.3658 34.1465 93.707 37.4393C91.831 41.1632 88.8923 44.3345 85.1572 46.4909L43.6743 70.4412L73.3949 87.5255L126.163 59.8626L102.416 36.1151Z" fill="#98B6D1"/>
<path d="M107.358 127.19L92.6262 116.669L70.2181 139.077C71.752 142.001 72.5935 145.296 72.5935 148.712C72.5935 150.076 73.0387 151.423 73.9402 152.446C76.0286 154.816 79.647 154.902 81.846 152.703L107.358 127.19Z" fill="#87A1C1"/>
<path d="M73.4094 102.945L43.6743 120.037L62.2202 130.745C65.681 132.743 68.4249 135.655 70.2189 139.076C71.9131 142.307 76.261 142.957 78.8409 140.377L98.4147 120.803L73.4094 102.945Z" fill="#98B6D1"/>
<path d="M125.381 43.7502V146.729C137.84 146.729 149.264 142.301 158.169 134.936L168.025 66.3824C158.767 52.7253 143.123 43.7502 125.381 43.7502Z" fill="#B9DFF0"/>
<path d="M125.381 43.7502C115.756 43.7502 106.749 46.3941 99.0427 50.9909L41.372 84.2872C32.9411 89.155 32.9411 101.324 41.372 106.192L99.0402 139.486C106.747 144.084 115.754 146.729 125.381 146.729C140.011 146.729 152.834 136.937 159.994 122.246L165.288 85.4193C161.669 61.68 145.179 43.7502 125.381 43.7502Z" fill="#C2F0FC"/>
<path d="M164.224 110.457L145.798 139.769C150.071 139.554 154.38 138.034 158.169 134.936C165.351 128.996 170.893 121.144 174.019 112.161L164.224 110.457Z" fill="#C2F0FC"/>
<path d="M164.224 110.457L122.921 103.27V118.027C122.921 131.337 134.226 140.35 145.798 139.769C154.525 133.335 161.188 122.906 164.224 110.457Z" fill="#E5FAFF"/>
<path d="M176.87 95.2394C179.863 95.2394 182.29 92.8127 182.29 89.8195C182.29 86.8263 179.863 84.3996 176.87 84.3996H175.723C174.318 77.844 171.665 71.7513 168.025 66.3824C164.941 61.8488 160.118 60.225 155.647 60.8721L156.193 128.822C163.856 126.902 170.726 121.508 174.018 112.161C174.705 110.185 175.278 108.156 175.723 106.079H176.87C179.863 106.079 182.29 103.653 182.29 100.659C182.29 97.6661 179.863 95.2394 176.87 95.2394Z" fill="#A8CAE0"/>
<path d="M155.647 60.8721C149.824 61.715 144.601 66.4112 144.6 73.5597C132.646 73.5597 122.921 83.2852 122.921 95.2394V103.27C122.921 122.897 141.098 132.605 156.193 128.822C162.323 119.806 166.03 108.072 166.03 95.239C166.03 82.031 162.102 69.9866 155.647 60.8721Z" fill="#B9DFF0"/>
<path d="M144.6 106.079C150.587 106.079 155.44 101.226 155.44 95.2395C155.44 89.2528 150.587 84.3997 144.6 84.3997C138.614 84.3997 133.76 89.2528 133.76 95.2395C133.76 101.226 138.614 106.079 144.6 106.079Z" fill="white"/>
<path d="M101.241 95.2395L84.9817 111.499H95.8215C104.802 111.499 112.081 104.22 112.081 95.2395H101.241Z" fill="#87A1C1"/>
<path d="M101.241 95.2395H88.5035C79.5234 95.2395 72.2438 102.519 72.2438 111.499H84.9816C93.9614 111.499 101.241 104.22 101.241 95.2395Z" fill="#98B6D1"/>
<path d="M144.601 81.6895C137.129 81.6895 131.051 87.7677 131.051 95.2392C131.051 102.711 137.129 108.789 144.601 108.789C152.072 108.789 158.15 102.711 158.15 95.2392C158.15 87.7677 152.072 81.6895 144.601 81.6895ZM144.601 103.369C140.118 103.369 136.471 99.7219 136.471 95.2392C136.471 90.7566 140.118 87.1094 144.601 87.1094C149.084 87.1094 152.731 90.7566 152.731 95.2392C152.731 99.7219 149.083 103.369 144.601 103.369Z" fill="black"/>
<path d="M144.601 97.9495C146.097 97.9495 147.311 96.7362 147.311 95.2395C147.311 93.7428 146.097 92.5295 144.601 92.5295C143.104 92.5295 141.891 93.7428 141.891 95.2395C141.891 96.7362 143.104 97.9495 144.601 97.9495Z" fill="black"/>
<path d="M112.081 92.5291H88.5035C78.0434 92.5291 69.5338 101.039 69.5338 111.499C69.5338 112.996 70.7472 114.209 72.2438 114.209H95.8215C106.282 114.209 114.791 105.699 114.791 95.239C114.791 93.7424 113.578 92.5291 112.081 92.5291ZM95.8215 108.789H75.2258C76.485 102.612 81.9599 97.949 88.5035 97.949H109.099C107.84 104.126 102.365 108.789 95.8215 108.789Z" fill="black"/>
<path d="M184.991 89.4301C184.805 85.4782 181.776 82.3065 177.888 81.7699C175.036 70.6472 168.622 60.5889 159.67 53.2659C150.325 45.6213 138.592 41.3077 126.516 41.0526L107.205 21.7415C105.669 20.2055 103.628 19.3604 101.456 19.3604C101.45 19.3604 101.443 19.3604 101.436 19.3607C99.2573 19.3661 97.213 20.2214 95.6791 21.77C94.1615 23.3021 93.3258 25.3898 93.3258 27.6485C93.3258 34.4317 89.6764 40.7527 83.8023 44.1442L42.3194 68.0944C41.48 68.5789 40.9637 69.4747 40.9644 70.4437C40.9651 71.4132 41.4836 72.3078 42.3237 72.7906L49.1091 76.6907L47.736 77.4835C45.2346 78.9263 42.126 78.9281 39.6228 77.4896L14.9065 63.2819C11.2055 61.1414 6.98804 60.0097 2.70992 60.0097C1.92945 60.0097 1.18692 60.3461 0.672394 60.9329C0.157864 61.5197 -0.0788056 62.2998 0.0230887 63.0734C0.580978 67.3118 2.25176 71.3456 4.86415 74.75L20.7777 95.2395L4.8544 115.741C2.25176 119.133 0.580978 123.166 0.0230887 127.405C-0.0788056 128.179 0.157864 128.959 0.672394 129.546C1.18692 130.133 1.92945 130.469 2.70992 130.469C6.9884 130.469 11.2058 129.337 14.9004 127.2L39.6228 112.989C42.1264 111.55 45.2353 111.553 47.7367 112.995L49.1091 113.788L42.3237 117.688C41.4836 118.171 40.9651 119.065 40.9644 120.035C40.9637 121.004 41.48 121.9 42.3194 122.384L60.8656 133.092C66.4282 136.304 69.8836 142.289 69.8836 148.712C69.8836 150.794 70.6023 152.757 71.907 154.237C73.4116 155.945 75.4885 156.924 77.7562 156.996C77.8407 156.998 77.9249 157 78.0095 157C80.1565 157 82.241 156.14 83.7622 154.619L96.964 141.417L97.6686 141.824C99.6953 143.032 101.795 144.099 103.951 145.026V162.929C103.951 164.426 105.164 165.639 106.661 165.639C116.18 165.639 124.082 158.59 125.426 149.438C137.884 149.427 150.043 145.087 159.669 137.213C168.622 129.89 175.036 119.832 177.887 108.709C181.775 108.172 184.804 105 184.99 101.049C185.092 98.8896 184.362 96.8373 182.929 95.2395C184.362 93.6417 185.092 91.589 184.991 89.4301ZM12.193 122.505C10.3202 123.588 8.27761 124.339 6.16204 124.731C6.8258 122.687 7.8339 120.761 9.1448 119.053L26.3494 96.9016C27.1089 95.9235 27.1089 94.5551 26.3494 93.577L9.15456 71.4381C7.83716 69.7211 6.82688 67.793 6.1624 65.7476C8.27834 66.14 10.3227 66.8915 12.1995 67.977L36.9218 82.1883C37.4299 82.4803 37.9549 82.7296 38.4893 82.9504C34.6101 85.8338 32.3391 90.3052 32.3391 95.2391C32.3391 100.172 34.6086 104.642 38.4853 107.525C37.952 107.746 37.4291 107.999 36.9218 108.29L12.193 122.505ZM79.9299 150.786C79.3952 151.321 78.6826 151.607 77.9271 151.578C77.1716 151.555 76.4778 151.226 75.9734 150.654C75.5416 150.164 75.3035 149.474 75.3035 148.712C75.3035 140.358 70.8097 132.575 63.5755 128.398L49.1033 120.042L54.5348 116.92L92.1045 138.611L79.9299 150.786ZM100.395 137.139L42.7269 103.845C39.6163 102.049 37.7587 98.8318 37.7587 95.2395C37.7587 91.6475 39.6159 88.4303 42.7269 86.6345L73.4513 68.8955C74.7474 68.1471 75.1915 66.4897 74.4432 65.1936C73.6949 63.8972 72.0375 63.4542 70.7414 64.2018L54.5348 73.5587L49.1033 70.4365L86.5122 48.8385C94.0582 44.4816 98.7457 36.3626 98.7457 27.6488C98.7457 26.8402 99.0315 26.0875 99.5298 25.5842C100.041 25.0679 100.723 24.7824 101.449 24.7806C102.174 24.7665 102.859 25.061 103.372 25.5745L119.198 41.4006C111.6 42.2703 104.256 44.7295 97.6726 48.6532L80.129 58.7819C78.8329 59.5302 78.3889 61.1876 79.1372 62.4837C79.8855 63.7801 81.5429 64.2231 82.839 63.4755L100.398 53.3378C100.409 53.3313 100.42 53.3248 100.431 53.3183C107.952 48.8317 116.58 46.4603 125.381 46.4603C137.186 46.4603 148.244 50.7821 156.837 58.0358C155.517 58.0972 154.179 58.3212 152.847 58.7299C147.033 60.513 143.016 65.181 142.093 70.9781C129.818 72.237 120.211 82.6375 120.211 95.2398V118.027C120.211 127.614 125.619 136.101 134.325 140.174C135.992 140.954 137.706 141.536 139.439 141.923C134.959 143.286 130.234 144.019 125.381 144.019C116.58 144.019 107.952 141.647 100.429 137.16C100.418 137.152 100.406 137.146 100.395 137.139ZM109.371 159.947V147.024C112.818 148.088 116.371 148.808 119.978 149.169C118.967 154.569 114.742 158.853 109.371 159.947ZM178.831 91.6898C178.315 92.2307 177.62 92.5284 176.873 92.5295C176.87 92.5292 175.723 92.5292 175.723 92.5292C169.377 92.5292 163.805 97.0338 162.474 103.24C162.339 103.873 162.171 104.546 161.947 105.357C161.548 106.8 162.395 108.293 163.837 108.691C164.079 108.759 164.322 108.79 164.56 108.79C165.749 108.79 166.839 108.002 167.171 106.801C167.424 105.885 167.616 105.115 167.774 104.375C168.572 100.651 171.915 97.9491 175.723 97.9491H176.867C177.618 97.9494 178.315 98.2475 178.831 98.7892C179.347 99.3301 179.612 100.042 179.577 100.794C179.51 102.214 178.227 103.369 176.717 103.369H175.723C174.445 103.369 173.341 104.262 173.074 105.512C172.626 107.599 172.045 109.633 171.341 111.604C171.337 111.615 171.333 111.626 171.329 111.637C171.288 111.75 171.245 111.862 171.204 111.974C167.7 121.106 159.938 126.668 150.247 126.916C148.751 126.954 147.569 128.198 147.607 129.694C147.645 131.167 148.85 132.335 150.315 132.335C150.338 132.335 150.362 132.334 150.385 132.334C153.178 132.263 155.895 131.81 158.468 131.003C157.338 132.045 156.16 133.034 154.938 133.966C149.475 137.631 142.77 138.141 136.622 135.265C130.705 132.496 126.745 127.111 125.833 120.826C129.039 125.089 133.467 128.379 138.67 130.347C138.986 130.467 139.31 130.523 139.628 130.523C140.723 130.523 141.753 129.855 142.163 128.771C142.693 127.371 141.987 125.807 140.587 125.278C131.222 121.735 125.631 113.507 125.631 103.27V95.2391C125.631 84.7794 134.141 76.2694 144.601 76.2694C146.097 76.2694 147.311 75.0564 147.311 73.5595C147.311 68.0568 150.991 64.9675 154.436 63.9109C157.682 62.9162 162.111 63.2924 165.206 67.1246C168.938 72.3722 171.667 78.4045 173.073 84.9673C173.341 86.2168 174.445 87.1096 175.723 87.1096H176.717C178.227 87.1096 179.51 88.2648 179.576 89.6848C179.612 90.4367 179.347 91.1485 178.831 91.6898Z" fill="black"/>
</g>
<defs>
<clipPath id="clip0_2_43057">
<rect width="185" height="185" fill="white"/>
</clipPath>
</defs>
</svg>
