<svg width="185" height="185" viewBox="0 0 185 185" fill="none" xmlns="http://www.w3.org/2000/svg">
<g clip-path="url(#clip0_2_42188)">
<path d="M22.6275 81.4099L16.9381 78.1253C14.0083 76.4338 10.6854 75.5435 7.30245 75.5435C1.1679 89.3461 1.1679 105.102 7.30245 118.905C10.6854 118.905 14.0087 118.015 16.9384 116.323L22.6278 113.038L22.6275 81.4099Z" fill="#98B6D1"/>
<path d="M43.0264 107.473V86.9746C37.8675 88.0008 32.5116 87.1166 27.9562 84.4864L22.6274 81.4099C17.454 84.817 14.2026 90.6282 14.2026 97.2245C14.2026 103.821 17.4544 109.631 22.6274 113.038L27.9562 109.962C32.5116 107.331 37.8675 106.447 43.0264 107.473Z" fill="#87A1C1"/>
<path d="M112.194 54.1554C111.079 53.0403 109.706 52.5507 108.362 52.5604L102.941 85.0952L135.268 77.2288L112.194 54.1554Z" fill="#98B6D1"/>
<path d="M108.362 52.5608C105.588 52.5811 102.938 54.7397 102.942 57.9947V85.0956L120.436 80.8386L109.878 54.1558C109.437 53.0403 108.894 52.5507 108.362 52.5608Z" fill="#A8CAE0"/>
<path d="M95.3318 68.3441C91.266 64.2782 85.7515 61.9938 80.0014 61.9938L72.3362 69.659L108.873 97.2253L124.201 97.2256L95.3318 68.3441Z" fill="#A8CAE0"/>
<path d="M72.3362 69.6593L44.7717 97.2238L108.873 97.2252L87.6666 76.0096C83.6008 71.9434 78.0863 69.6593 72.3362 69.6593Z" fill="#B9DFF0"/>
<path d="M124.201 97.2256L108.873 97.2252L72.3358 124.788L80.001 132.453C85.7511 132.453 91.2656 130.169 95.3315 126.103L124.201 97.2256Z" fill="#A8CAE0"/>
<path d="M108.873 97.2253L44.7714 97.2239L72.3358 124.788C78.0859 124.788 83.6004 122.504 87.6663 118.438L108.873 97.2253Z" fill="#B9DFF0"/>
<path d="M135.263 117.22C132.632 117.638 130.696 119.906 130.696 122.57V131.088C139.684 131.088 146.957 123.816 146.957 114.828V103.987H135.263V117.22Z" fill="#98B6D1"/>
<path d="M54.3553 80.3522C50.2895 76.2864 44.775 74.002 39.0249 74.002V120.445C44.775 120.445 50.2895 118.161 54.3553 114.095L71.2269 97.2234L54.3553 80.3522Z" fill="#A8CAE0"/>
<path d="M25.0433 97.2241C25.0437 100.777 27.2248 104.33 31.5873 105.198L84.9435 115.811C94.2557 117.834 103.923 118.904 113.841 118.904C125.164 118.904 136.158 117.508 146.671 114.89L154.921 91.804L25.0433 97.2241Z" fill="#E5FAFF"/>
<path d="M154.921 97.2238C153.416 87.1538 145.618 78.9405 135.333 77.241C128.333 76.1252 121.156 75.5431 113.842 75.5431C103.924 75.5431 94.2572 76.613 84.9457 78.6362L31.5873 89.2496C27.2244 90.1176 25.043 93.6711 25.0433 97.2242C25.0433 97.2242 154.921 97.2242 154.921 97.2238Z" fill="#C2F0FC"/>
<path d="M154.921 97.2239H144.349C144.349 94.2305 141.922 91.8037 138.929 91.8037C135.935 91.8037 133.509 94.2305 133.509 97.2239V104.304C133.509 111.248 139.943 116.393 146.671 114.891C150.757 113.874 154.773 112.678 158.703 111.299L154.921 97.2239Z" fill="#98B6D1"/>
<path d="M179.516 92.4964C174.207 89.5485 168.675 86.9533 162.958 84.7289L162.868 109.752C168.616 107.52 174.179 104.914 179.516 101.951C183.215 99.8978 183.215 94.5495 179.516 92.4964Z" fill="#A8CAE0"/>
<path d="M135.333 77.2407C140.542 78.1014 144.349 82.641 144.349 87.9268V101.043C144.349 108.482 151.683 113.744 158.703 111.299C160.102 110.808 161.49 110.294 162.868 109.759C168.04 107.748 171.45 102.772 171.45 97.2231C171.45 91.7101 168.096 86.7242 162.958 84.7249C154.159 81.3004 144.914 78.7681 135.333 77.2407Z" fill="#B9DFF0"/>
<path d="M96.5186 97.2227C101.712 102.417 109.213 103.878 115.706 101.608V92.8403C109.214 90.5689 101.713 92.0294 96.5186 97.2227Z" fill="#98B6D1"/>
<path d="M115.706 92.8403C112.716 91.7942 109.593 94.0559 109.593 97.2238C109.593 100.391 112.716 102.653 115.706 101.608C118.247 100.719 120.635 99.2578 122.668 97.2245C120.635 95.1912 118.248 93.73 115.706 92.8403Z" fill="white"/>
<path d="M180.832 90.1266C175.489 87.1607 169.882 84.5229 164.166 82.2873C164.132 82.2739 164.098 82.2616 164.064 82.2497L153.817 78.7099C153.783 78.698 153.748 78.6868 153.713 78.6763C148.088 76.9838 142.363 75.6562 136.568 74.6965L114.111 52.2393C111.74 49.8681 108.343 49.1928 105.246 50.4791C102.149 51.7641 100.228 54.6451 100.232 57.9951V69.4198L97.2484 66.4286C92.6416 61.8214 86.5165 59.2844 80.0014 59.2844C79.2827 59.2844 78.5933 59.5699 78.0852 60.0779L57.9995 80.164L56.2719 78.4368C51.6651 73.8296 45.5403 71.2926 39.0249 71.2926C37.5282 71.2926 36.3148 72.5057 36.3148 74.0027V85.2474C35.1018 85.1585 33.9148 84.7979 32.8448 84.18L18.2931 75.7787C14.9557 73.852 11.1554 72.8338 7.30242 72.8338C6.23139 72.8338 5.26082 73.4643 4.82576 74.4432C-1.60907 88.9208 -1.60907 105.528 4.82576 120.006C5.26082 120.985 6.23139 121.615 7.30242 121.615C11.1558 121.615 14.9564 120.597 18.2934 118.671L32.8452 110.269C33.9151 109.652 35.1021 109.291 36.3152 109.202V120.446C36.3152 121.943 37.5286 123.156 39.0253 123.156C45.5403 123.156 51.6655 120.619 56.2719 116.013L57.9995 114.285L78.0852 134.371C78.5933 134.879 79.2827 135.164 80.0014 135.164C86.5165 135.164 92.6413 132.627 97.2484 128.021L104.006 121.262C107.281 121.494 110.564 121.615 113.841 121.615C118.635 121.615 123.417 121.361 128.166 120.866C128.05 121.417 127.986 121.986 127.986 122.57V131.089C127.986 132.586 129.2 133.799 130.696 133.799C140.447 133.799 148.499 126.404 149.548 116.928C155.916 115.23 162.157 113.08 168.216 110.491C167.537 113.335 166.212 116.005 164.317 118.265C163.355 119.412 163.506 121.121 164.653 122.083C165.161 122.508 165.778 122.716 166.393 122.716C167.167 122.716 167.935 122.386 168.471 121.747C171.768 117.814 173.728 112.921 174.092 107.814C176.369 106.712 178.618 105.55 180.832 104.321C183.442 102.872 185 100.218 185 97.2238C185 94.2294 183.442 91.576 180.832 90.1266ZM147.154 111.957C146.661 112.085 146.166 112.206 145.671 112.328C143.439 112.707 141.169 112.142 139.357 110.728C137.362 109.173 136.218 106.831 136.218 104.304V97.2235C136.218 95.7289 137.434 94.5134 138.928 94.5134C140.423 94.5134 141.639 95.7289 141.639 97.2235V101.042C141.639 105.346 143.698 109.403 147.154 111.957ZM107.323 55.4852C107.716 55.3223 109.09 54.8836 110.278 56.072L127.737 73.5304C123.133 73.0701 118.497 72.8327 113.841 72.8327C111.113 72.8327 108.38 72.9219 105.652 73.0827V57.9911C105.65 56.3102 106.931 55.6482 107.323 55.4852ZM52.4391 82.2688L52.4977 82.3274L41.735 84.4683V76.9029C45.7741 77.477 49.5028 79.3322 52.4391 82.2688ZM15.5834 113.976C13.5786 115.133 11.3517 115.855 9.05928 116.1C4.20641 104.005 4.20641 90.4421 9.05928 78.3472C11.3513 78.5925 13.5783 79.3148 15.5834 80.4722L28.0057 87.6442C24.1118 89.6544 22.3333 93.6288 22.3333 97.2238C22.3333 100.819 24.1115 104.794 28.0057 106.804L15.5834 113.976ZM41.735 117.544V109.979L52.498 112.12L52.4391 112.179C49.5028 115.115 45.7741 116.97 41.735 117.544ZM89.8911 114.033C88.4179 113.764 87.0076 114.741 86.7387 116.213C86.4702 117.685 87.4462 119.097 88.9187 119.365C91.5988 119.854 94.302 120.256 97.0164 120.586L93.4153 124.187C90.0905 127.512 85.7497 129.45 81.0927 129.713L66.2324 114.852L76.0906 116.813C76.2691 116.849 76.4469 116.866 76.6221 116.866C77.8886 116.866 79.0207 115.974 79.2773 114.684C79.5693 113.217 78.616 111.79 77.1479 111.498L32.1153 102.54C28.895 101.9 27.7527 99.2763 27.7527 97.2242C27.7527 95.1721 28.8953 92.5487 32.1156 91.9081L77.1483 82.9507C78.616 82.6587 79.5696 81.2321 79.2777 79.7644C78.9857 78.2962 77.5595 77.3415 76.091 77.6349L66.2324 79.596L81.0927 64.7353C85.7497 64.998 90.0905 66.9362 93.4128 70.2584L97.0078 73.8636C94.2962 74.1935 91.5963 74.5949 88.9187 75.0831C87.4462 75.3512 86.4702 76.7627 86.7387 78.2351C87.0072 79.708 88.4179 80.6843 89.8911 80.4151C97.759 78.981 105.817 78.2539 113.841 78.2539C120.949 78.2539 128.01 78.8191 134.97 79.9327C138.841 80.6113 141.639 83.9502 141.639 87.9279V89.5604C140.791 89.2594 139.878 89.0943 138.928 89.0943C134.445 89.0943 130.798 92.7417 130.798 97.2245V104.304C130.798 108.22 132.448 111.866 135.351 114.44C128.262 115.601 121.066 116.195 113.841 116.195C105.816 116.194 97.7579 115.467 89.8911 114.033ZM133.406 128.106V122.57C133.406 121.231 134.366 120.107 135.688 119.897L135.685 119.879C138.399 119.445 141.097 118.929 143.777 118.336C142.456 123.254 138.437 127.08 133.406 128.106ZM178.201 99.5816C171.516 103.293 164.518 106.406 157.304 108.897C154.966 109.549 152.514 109.123 150.501 107.696C148.313 106.145 147.059 103.72 147.059 101.043V87.9271C147.059 85.8555 146.6 83.888 145.775 82.1257C147.896 82.6497 150.006 83.2217 152.1 83.8508L162.242 87.3544C167.716 89.4986 173.085 92.0255 178.201 94.8653C179.446 95.5566 179.58 96.7447 179.58 97.2235C179.58 97.7022 179.445 98.8907 178.201 99.5816Z" fill="black"/>
<path d="M94.6023 95.3072C93.5439 96.366 93.5439 98.0817 94.6023 99.14C98.7353 103.273 104.164 105.339 109.593 105.339C115.023 105.339 120.451 103.273 124.584 99.14C125.643 98.0813 125.643 96.3656 124.584 95.3072C116.318 87.0415 102.868 87.0415 94.6023 95.3072ZM100.755 97.2235C106.072 93.6263 113.115 93.6263 118.432 97.2235C113.115 100.821 106.072 100.821 100.755 97.2235Z" fill="black"/>
<path d="M160.609 98.1871C162.106 98.1871 163.319 96.9738 163.319 95.4771C163.319 93.9803 162.106 92.767 160.609 92.767C159.113 92.767 157.899 93.9803 157.899 95.4771C157.899 96.9738 159.113 98.1871 160.609 98.1871Z" fill="black"/>
</g>
<defs>
<clipPath id="clip0_2_42188">
<rect width="185" height="185" fill="white"/>
</clipPath>
</defs>
</svg>
