<svg width="185" height="185" viewBox="0 0 185 185" fill="none" xmlns="http://www.w3.org/2000/svg">
<g clip-path="url(#clip0_2_43893)">
<path d="M102.1 88.9663L83.152 85.3603C66.9255 72.2036 70.163 43.2753 83.2315 34.1099C84.7744 34.9048 85.9451 36.4477 86.068 38.4747C87.3796 60.3022 92.832 78.2096 102.1 88.9663Z" fill="#59C2E8"/>
<path d="M83.1521 85.3602L60.71 81.0857C56.562 68.7246 63.1598 48.9889 77.1216 35.0384C78.8812 33.2787 81.3346 33.1306 83.2316 34.1098C75.1379 49.1013 71.9148 70.3795 83.1521 85.3602Z" fill="#00AEDE"/>
<path d="M102.101 118.934L119.686 131.779C122.818 134.067 127.26 132.21 127.831 128.374L130.909 107.725L102.101 118.934Z" fill="#59C2E8"/>
<path d="M68.7127 127.918L49.7292 127.234C31.5327 123.765 16.2413 115.476 6.7749 109.28L69.0108 98.9446L68.7127 127.918Z" fill="#C5CFF1"/>
<path d="M69.0107 98.9448L143.334 110.425C126.872 117.233 102.125 125.915 78.415 128.268L68.7126 127.918L69.0107 98.9448Z" fill="#E8ECF9"/>
<path d="M181.462 56.0313C166.402 78.6974 166.402 101.71 166.402 101.71C170.915 110.787 173.907 120.282 175.561 126.349C176.407 129.438 173.567 132.311 170.481 131.451C157.08 127.722 148.509 118.523 143.335 110.425L80.7927 109.901C79.3582 115.881 78.6103 122.096 78.4151 128.268C78.2706 133.333 78.5488 138.985 79.687 144.596C79.7629 144.965 79.799 145.326 79.8026 145.68C63.471 146.765 50.8902 125.372 60.1583 105.188C53.4159 99.873 47.5693 81.5009 64.8039 74.5674C65.4145 74.553 66.0288 74.5457 66.6431 74.5457C91.4446 74.5457 118.8 83.1996 137.929 90.7405C143.971 70.694 158.373 55.8687 175.543 48.8774C179.966 47.0743 184.103 52.0531 181.462 56.0313Z" fill="#91D4F2"/>
<path d="M79.8026 145.68C79.8857 149.991 75.1053 153.015 71.1596 150.684C62.2457 145.427 53.2341 137.312 49.7292 127.234C47.6769 121.438 47.8106 115.668 49.5883 109.641L6.77492 109.28C1.34055 105.721 1.35862 97.7389 6.80744 94.2015C18.8866 86.357 40.3604 75.1089 64.8039 74.5669C54.4522 84.5883 56.9638 96.5642 62.4466 102.771C63.5894 104.065 63.8893 105.904 63.2841 107.521C56.2653 126.267 67.073 140.076 79.8026 145.68Z" fill="#59C2E8"/>
<path d="M28.7957 93.106V97.4419C28.7957 98.9385 30.009 100.152 31.5056 100.152C33.0022 100.152 34.2156 98.9389 34.2156 97.4419V93.106C34.2156 91.6093 33.0022 90.396 31.5056 90.396C30.009 90.396 28.7957 91.6093 28.7957 93.106Z" fill="black"/>
<path d="M183.263 48.5968C181.104 45.9569 177.67 45.0818 174.515 46.367C170.031 48.1932 165.722 50.5364 161.707 53.3327C160.479 54.188 160.177 55.8772 161.032 57.105C161.888 58.3339 163.577 58.6352 164.805 57.7799C168.491 55.2127 172.446 53.0617 176.559 51.3866C177.94 50.8237 178.829 51.7353 179.068 52.028C179.3 52.312 179.996 53.3313 179.197 54.5331C163.864 77.6136 163.688 100.736 163.688 101.709C163.688 102.127 163.785 102.54 163.971 102.915C168.335 111.696 171.258 120.893 172.943 127.062C173.143 127.796 172.742 128.296 172.56 128.477C172.342 128.693 171.877 129.028 171.202 128.841C158.249 125.237 150.138 116.044 145.615 108.967C145.13 108.205 144.259 107.723 143.356 107.716L80.815 107.144C80.8067 107.144 80.7984 107.144 80.7901 107.144C79.5587 107.144 78.4809 107.975 78.1687 109.168C77.9746 109.91 73.4569 127.542 77.0279 145.134C77.3911 146.923 76.19 147.937 75.8132 148.206C75.4385 148.472 74.0954 149.271 72.5301 148.346C63.6111 144.075 45.535 126.666 52.1686 110.465C52.4309 109.645 52.2875 108.749 51.7827 108.052C51.2779 107.354 50.4714 106.938 49.6104 106.931L7.67065 106.579C6.22932 105.387 5.41669 103.662 5.41994 101.744C5.42392 99.5751 6.46815 97.6547 8.28455 96.4749C14.881 92.1914 25.3801 86.2208 37.938 82.1038C39.3602 81.6374 40.1349 80.1068 39.6688 78.6842C39.2023 77.262 37.6714 76.4873 36.2495 76.9535C23.1369 81.2525 12.1992 87.4699 5.3325 91.9294C2.00069 94.0927 0.00760793 97.758 2.00407e-05 101.734C-0.00720652 105.674 1.94035 109.314 5.21218 111.494C5.22844 111.505 5.2447 111.517 5.26132 111.528C5.27107 111.534 5.28011 111.542 5.28986 111.548C14.8304 117.793 29.8472 125.908 47.7636 129.6C48.5528 131.571 49.5442 133.515 50.746 135.418C56.072 143.852 64.0396 149.645 69.7804 153.017C72.6815 154.73 76.1994 154.584 78.9574 152.62C81.7169 150.655 83.013 147.373 82.3395 144.055C81.4206 139.529 81.0914 134.951 81.0947 130.693C89.7192 129.691 98.4269 127.908 106.795 125.72L118.084 133.966C120.335 135.612 123.215 135.938 125.76 134.872C128.324 133.8 130.098 131.52 130.508 128.772L132.159 117.697C135.763 116.373 139.163 115.049 142.306 113.775C147.535 121.326 156.29 130.318 169.75 134.062C172.102 134.724 174.616 134.086 176.384 132.319C178.163 130.549 178.831 128.05 178.172 125.635C176.462 119.374 173.517 110.097 169.125 101.111C169.267 97.4043 170.643 77.2071 183.713 57.5332C185.58 54.7206 185.404 51.2135 183.263 48.5968ZM16.6522 112.074L46.0986 112.321C45.3453 116.111 45.3315 119.917 46.0318 123.665C34.6691 120.972 24.6155 116.484 16.6522 112.074ZM82.953 112.583L129.2 113.007C114.36 118.407 97.3787 123.258 81.2761 125.211C81.6338 119.646 82.4396 115.074 82.953 112.583ZM125.147 127.973C124.964 129.206 124.053 129.711 123.67 129.871C123.287 130.032 122.287 130.325 121.281 129.59L113.457 123.874C117.922 122.572 122.25 121.18 126.372 119.757L125.147 127.973Z" fill="black"/>
<path d="M49.8574 78.961C55.5603 77.8286 61.2075 77.2548 66.6415 77.2548C91.1735 77.2548 118.406 85.96 136.932 93.2624C138.351 93.8582 140.109 93.0073 140.52 91.5233C143.45 81.7989 148.653 72.8607 155.565 65.6746C156.602 64.5961 156.569 62.8805 155.491 61.8431C154.412 60.8054 152.696 60.8393 151.659 61.9175C144.82 69.0278 139.524 77.7119 136.234 87.1758C125.084 82.897 111.25 78.3146 96.7979 75.2834C92.4154 65.5341 89.6418 52.7955 88.771 38.3131C88.5802 35.1352 86.6088 32.4577 83.6272 31.3261C80.6654 30.202 77.4373 30.8903 75.2024 33.1237C63.9709 44.3483 56.9373 59.4779 56.7758 72.4084C54.1363 72.7064 51.4747 73.1144 48.8024 73.6452C47.3343 73.9368 46.3807 75.3629 46.672 76.831C46.9632 78.2984 48.389 79.2519 49.8574 78.961ZM79.0336 36.957C80.0955 35.8958 81.3457 36.2575 81.7034 36.393C82.0688 36.5317 83.2687 37.1037 83.3609 38.6386C84.1728 52.1371 86.5973 64.2532 90.4129 74.0596C82.4709 72.6786 74.4364 71.8353 66.6415 71.8353C65.1777 71.8353 63.7006 71.875 62.2123 71.9524C62.5578 60.6204 69.0707 46.9138 79.0336 36.957Z" fill="black"/>
</g>
<defs>
<clipPath id="clip0_2_43893">
<rect width="185" height="185" fill="white"/>
</clipPath>
</defs>
</svg>
