<svg width="184" height="185" viewBox="0 0 184 185" fill="none" xmlns="http://www.w3.org/2000/svg">
<g clip-path="url(#clip0_2_42976)">
<path d="M98.4213 57.9572C94.9837 54.501 90.3213 52.5591 85.4595 52.5591L77.8357 60.2243L108.761 83.6831H124.008L98.4213 57.9572Z" fill="#87A1C1"/>
<path d="M90.7971 65.6225C87.3595 62.1662 82.6971 60.2244 77.8353 60.2244L70.3848 67.7154L97.8926 83.6832H108.76L90.7971 65.6225Z" fill="#98B6D1"/>
<path d="M84.1361 100.044L72.4656 96.4475L36.7104 114.609L37.9327 115.838C46.3536 124.304 60.0069 124.304 68.4282 115.838L84.1361 100.044Z" fill="#FF6053"/>
<path d="M69.5466 95.5479L36.7104 114.609C41.596 119.521 52.3831 116.639 60.804 108.172L72.4656 96.4472L69.5466 95.5479Z" fill="#FF7D6D"/>
<path d="M46.442 73.8748C45.3009 73.2125 43.9579 72.9928 42.6669 73.2576C37.8065 74.256 36.7542 80.7675 41.05 83.2618L46.8003 86.6003L77.5024 91.9077C77.5024 91.9077 62.3616 83.1173 46.442 73.8748Z" fill="#7587B3"/>
<path d="M22.5054 78.7092L16.8468 75.4246C13.9329 73.7331 10.6279 72.8428 7.26329 72.8428C1.16191 86.6454 1.16191 102.401 7.26329 116.204C10.6279 116.204 13.9332 115.314 16.8472 113.622L22.5058 110.338L22.5054 78.7092Z" fill="#A8CAE0"/>
<path d="M42.7939 104.773V84.2739C37.6629 85.3002 32.336 84.4159 27.8051 81.7857L22.5052 78.7092C17.3598 82.1163 14.126 87.9275 14.126 94.5238C14.126 101.12 17.3601 106.931 22.5052 110.337L27.8051 107.261C32.336 104.631 37.6632 103.746 42.7939 104.773Z" fill="#98B6D1"/>
<path d="M100.393 115.596C97.2378 115.295 94.5176 117.806 94.5176 120.992V132.441C103.457 132.441 110.69 125.168 110.69 116.18V104.755H100.393V115.596Z" fill="#FF6053"/>
<path d="M24.908 94.5234C24.908 98.0765 27.0776 101.63 31.4165 102.498L84.4842 113.111C93.7461 115.134 103.361 116.204 113.226 116.204C124.487 116.204 135.422 114.808 145.878 112.19L154.083 89.1033L24.908 94.5234Z" fill="#FEF1D4"/>
<path d="M154.083 94.5234C152.587 84.4535 144.83 76.2405 134.602 74.5407C127.64 73.4249 120.501 72.8428 113.226 72.8428C103.362 72.8428 93.7477 73.9127 84.4865 75.9359L31.417 86.5493C27.0777 87.4172 24.9081 90.9703 24.9084 94.5234C24.9081 94.5234 154.083 94.5234 154.083 94.5234Z" fill="#B9DFF0"/>
<path d="M154.35 98.0758C154.35 96.8711 154.256 95.6859 154.083 94.5234H143.569C143.569 91.5301 141.155 89.1033 138.178 89.1033C135.201 89.1033 132.787 91.5301 132.787 94.5234V101.603C132.787 108.548 139.186 113.693 145.878 112.19C149.942 111.173 153.936 109.977 157.845 108.598L154.35 98.0758Z" fill="#FF6053"/>
<path d="M95.9968 94.5222C101.162 99.7162 108.623 101.178 115.08 98.9072V90.1399C108.624 87.8684 101.163 89.329 95.9968 94.5222Z" fill="#98B6D1"/>
<path d="M115.081 90.1399C112.107 89.0938 109.001 91.3555 109.001 94.5234C109.001 97.6909 112.106 99.9529 115.08 98.9072C117.608 98.0183 119.983 96.5574 122.005 94.5241C119.983 92.4908 117.609 91.0295 115.081 90.1399Z" fill="#FF6053"/>
<path d="M178.546 89.796C173.261 86.846 167.756 84.2493 162.065 82.0242L162.011 107.043C167.72 104.813 173.244 102.21 178.546 99.2509C182.224 97.1974 182.224 91.8491 178.546 89.796Z" fill="#B9DFF0"/>
<path d="M162.077 82.0244C153.325 78.6 144.13 76.0677 134.602 74.5403C139.782 75.401 143.568 79.9406 143.568 85.2263V98.342C143.568 105.781 150.863 111.044 157.845 108.598C159.236 108.107 160.617 107.594 161.987 107.058C167.131 105.048 170.523 100.071 170.523 94.5226C170.523 89.0096 167.187 84.0238 162.077 82.0244Z" fill="#C2F0FC"/>
<path d="M179.855 87.4263C174.54 84.46 168.963 81.8222 163.279 79.5869C161.893 79.0405 160.329 79.7296 159.787 81.1233C159.245 82.517 159.929 84.0892 161.315 84.6345C166.776 86.7823 172.133 89.3161 177.238 92.1653C178.476 92.8565 178.609 94.0447 178.609 94.5234C178.609 95.0022 178.476 96.1903 177.238 96.8812C170.589 100.592 163.63 103.705 156.456 106.197C154.129 106.849 151.69 106.422 149.688 104.995C147.512 103.445 146.264 101.02 146.264 98.3421V85.2264C146.264 83.1548 145.808 81.1873 144.987 79.425C147.115 79.9533 149.23 80.5307 151.33 81.1656C152.755 81.5963 154.259 80.7848 154.688 79.3513C155.117 77.9179 154.309 76.4067 152.883 75.9753C140.422 72.2057 127.465 70.2487 114.353 70.1421L107.951 63.7051C106.898 62.6471 105.192 62.6471 104.139 63.7051C103.086 64.7638 103.086 66.4795 104.139 67.5379L106.868 70.2812C99.4994 70.6212 92.1674 71.5517 84.9857 73.0596L74.7754 67.1324L86.5397 55.3046C90.3094 55.5615 93.8181 57.1604 96.5157 59.8723C97.568 60.9303 99.2747 60.9307 100.327 59.872C101.38 58.8136 101.38 57.0976 100.327 56.0395C96.3554 52.0467 91.0756 49.8479 85.4594 49.8479C84.7446 49.8479 84.0588 50.1334 83.5535 50.6414L68.4792 65.7973C67.8866 66.3931 67.6034 67.2322 67.7126 68.0672C67.8223 68.9027 68.3118 69.6395 69.0374 70.0608L76.9813 74.6723L59.3007 78.2084L47.7894 71.5264C46.0755 70.5313 44.0636 70.2024 42.1269 70.6013C38.8054 71.2839 36.308 73.8986 35.7642 77.2631C35.5054 78.8642 35.725 80.4429 36.3371 81.8439C33.8257 81.5407 31.38 80.7306 29.1528 79.4377L18.1947 73.0766C14.876 71.1499 11.096 70.1316 7.26305 70.1316C6.19782 70.1316 5.23249 70.7621 4.79978 71.741C-1.60025 86.2187 -1.60025 102.825 4.79978 117.303C5.23249 118.282 6.19746 118.913 7.26269 118.913C11.096 118.913 14.8757 117.894 18.1943 115.968L29.1528 109.607C33.118 107.306 37.7746 106.532 42.2656 107.43L43.3218 107.641L35.3624 112.261C34.6364 112.683 34.1469 113.42 34.0377 114.255C33.9284 115.09 34.2116 115.929 34.8043 116.525L36.0262 117.754C40.6081 122.36 46.7001 124.897 53.1796 124.897C59.659 124.897 65.7511 122.36 70.333 117.754L74.2406 113.825L83.9352 115.764C86.8236 116.394 89.7376 116.929 92.6688 117.371C92.1182 118.486 91.821 119.724 91.821 120.991L91.8213 132.44C91.8213 133.937 93.0282 135.15 94.5168 135.15C103.997 135.15 111.864 128.083 113.186 118.913C113.199 118.913 113.212 118.914 113.225 118.914C136.545 118.914 159.585 112.934 179.853 101.62C182.449 100.171 183.999 97.5175 183.999 94.5231C183.999 91.5286 182.45 88.8756 179.855 87.4263ZM146.358 109.257C145.867 109.384 145.375 109.506 144.882 109.628C142.662 110.007 140.405 109.44 138.604 108.028C136.62 106.472 135.482 104.13 135.482 101.603V94.5234C135.482 93.0289 136.691 91.8134 138.178 91.8134C139.664 91.8134 140.873 93.0289 140.873 94.5234V98.3421C140.873 102.646 142.921 106.703 146.358 109.257ZM41.0854 78.1336C41.1551 77.7007 41.5148 76.2604 43.2065 75.9128C43.8523 75.7809 44.5226 75.89 45.094 76.2213L51.2816 79.8131L43.2633 81.4167L42.3986 80.9148C40.9035 80.0473 41.0156 78.5668 41.0854 78.1336ZM15.4996 111.275C13.505 112.432 11.29 113.155 9.01041 113.4C4.18379 101.305 4.18379 87.7417 9.01041 75.6468C11.2904 75.8918 13.5053 76.6141 15.4992 77.7719L26.4578 84.133C26.9368 84.4108 27.4245 84.6688 27.9183 84.9117C24.0013 86.9114 22.2126 90.9089 22.2126 94.5234C22.2126 98.1376 24.0013 102.135 27.9173 104.134C27.4238 104.378 26.9365 104.636 26.4578 104.914L15.4996 111.275ZM66.522 113.921C62.9583 117.504 58.2201 119.478 53.1803 119.478C48.7479 119.478 44.5484 117.951 41.1766 115.146L51.3413 109.245L67.8826 112.553L66.522 113.921ZM85.0105 110.453L31.9428 99.8395C28.7403 99.1992 27.6039 96.5755 27.6035 94.5234C27.6035 92.4714 28.7399 89.848 31.9428 89.207L85.0123 78.5936C85.0277 78.5907 85.0432 78.5871 85.0587 78.5842C94.2663 76.5729 103.743 75.5529 113.226 75.5529C120.298 75.5529 127.324 76.1187 134.25 77.2331C138.095 77.9153 140.873 81.252 140.873 85.2264V86.8593C140.03 86.5583 139.123 86.3932 138.178 86.3932C133.719 86.3932 130.091 90.0406 130.091 94.5234V101.603C130.091 105.519 131.732 109.165 134.619 111.739C127.569 112.9 120.412 113.494 113.226 113.494C103.743 113.494 94.2659 112.474 85.0569 110.462C85.0414 110.459 85.026 110.455 85.0105 110.453ZM97.2129 129.459L97.2125 120.992C97.2125 120.216 97.5267 119.502 98.097 118.981C98.6598 118.466 99.3825 118.22 100.138 118.294C102.665 118.532 105.2 118.704 107.738 118.805C106.691 124.146 102.514 128.373 97.2129 129.459Z" fill="black"/>
<path d="M123.911 92.6068C115.689 84.341 102.312 84.341 94.0905 92.6068C93.0379 93.6655 93.0379 95.3812 94.0905 96.4396C98.2012 100.573 103.601 102.639 109.001 102.639C114.4 102.639 119.8 100.572 123.911 96.4396C124.964 95.3812 124.964 93.6655 123.911 92.6068ZM100.21 94.5234C105.498 90.9262 112.504 90.9262 117.792 94.5234C112.504 98.1205 105.498 98.1205 100.21 94.5234Z" fill="black"/>
<path d="M46.8102 97.2341C48.2988 97.2341 49.5056 96.0208 49.5056 94.524C49.5056 93.0273 48.2988 91.814 46.8102 91.814C45.3215 91.814 44.1147 93.0273 44.1147 94.524C44.1147 96.0208 45.3215 97.2341 46.8102 97.2341Z" fill="black"/>
<path d="M84.5463 89.6873C86.0349 89.6873 87.2417 88.4739 87.2417 86.9772C87.2417 85.4804 86.0349 84.2671 84.5463 84.2671C83.0576 84.2671 81.8508 85.4804 81.8508 86.9772C81.8508 88.4739 83.0576 89.6873 84.5463 89.6873Z" fill="black"/>
<path d="M57.5919 97.2341C59.0806 97.2341 60.2874 96.0208 60.2874 94.524C60.2874 93.0273 59.0806 91.814 57.5919 91.814C56.1033 91.814 54.8965 93.0273 54.8965 94.524C54.8965 96.0208 56.1033 97.2341 57.5919 97.2341Z" fill="black"/>
<path d="M73.7645 102.654C75.2532 102.654 76.46 101.441 76.46 99.9442C76.46 98.4475 75.2532 97.2341 73.7645 97.2341C72.2759 97.2341 71.0691 98.4475 71.0691 99.9442C71.0691 101.441 72.2759 102.654 73.7645 102.654Z" fill="black"/>
<path d="M159.741 95.4741C161.229 95.4741 162.436 94.2608 162.436 92.764C162.436 91.2673 161.229 90.054 159.741 90.054C158.252 90.054 157.045 91.2673 157.045 92.764C157.045 94.2608 158.252 95.4741 159.741 95.4741Z" fill="black"/>
</g>
<defs>
<clipPath id="clip0_2_42976">
<rect width="184" height="185" fill="white"/>
</clipPath>
</defs>
</svg>
