<svg width="184" height="185" viewBox="0 0 184 185" fill="none" xmlns="http://www.w3.org/2000/svg">
<g clip-path="url(#clip0_2_42272)">
<path d="M82.4381 100.445H62.2078L49.6008 117.925L62.4856 120.502L82.4381 100.445Z" fill="#636DA4"/>
<path d="M62.3921 100.445L36.7161 115.347L49.6008 117.925L72.989 100.445H62.3921Z" fill="#7587B3"/>
<path d="M46.4502 74.6149C45.3092 73.9526 43.9662 73.7329 42.6753 73.9978C37.8151 74.9961 36.7628 81.5073 41.0585 84.0015L46.8085 87.3398L77.5093 92.6471C77.5093 92.6471 62.3691 83.857 46.4502 74.6149Z" fill="#7587B3"/>
<path d="M117.692 83.0375L92.7481 57.9609C89.4954 54.6909 85.0844 52.8539 80.4848 52.8539L72.8613 60.5188L102.444 83.0372H117.692V83.0375Z" fill="#636DA4"/>
<path d="M85.1244 65.6258C81.8681 62.3547 77.459 60.5192 72.8614 60.5192L63.6697 69.7609L86.5454 83.0376H102.445L85.1244 65.6258Z" fill="#7587B3"/>
<path d="M86.5947 114.295C85.2259 114.019 83.8045 114.296 82.6315 115.058C81.0927 116.056 80.163 117.771 80.163 119.613L80.1626 132.147C89.1014 132.147 96.3353 124.876 96.336 115.889V103.475L86.5951 103.456V114.295H86.5947Z" fill="#636DA4"/>
<path d="M27.8139 82.5244L20.8197 78.4634C15.3094 75.2642 9.05843 73.5801 2.69531 73.5801L13.4766 95.2631L2.69531 116.946C9.05843 116.946 15.3094 115.262 20.8197 112.062L27.8139 108.001C32.3442 105.371 37.6709 104.486 42.8017 105.512V85.0136C37.6709 86.0394 32.3442 85.1546 27.8139 82.5244Z" fill="#636DA4"/>
<path d="M143.569 77.0398L141.625 75.0814C136.533 69.961 129.235 67.7345 122.172 69.1466L31.4248 87.2882C22.7466 89.023 22.7459 101.499 31.4238 103.236L84.4886 113.852C93.7497 115.876 103.364 116.947 113.229 116.948C126.536 116.949 139.392 115.009 151.533 111.397L159.835 95.2711L159.836 81.9189C154.56 79.963 149.131 78.3273 143.569 77.0398Z" fill="#98B6D1"/>
<path d="M159.835 95.2711H148.962C148.962 92.2779 146.549 89.8512 143.572 89.8508C140.594 89.8505 138.181 92.2771 138.181 95.2704L138.18 100.867C138.18 107.903 144.747 113.096 151.533 111.397C154.339 110.562 157.107 109.638 159.834 108.627L159.835 95.2711Z" fill="#7587B3"/>
<path d="M101.392 100.687C106.557 105.881 114.017 107.343 120.475 105.072V96.3052C114.018 94.0339 106.558 95.4944 101.392 100.687Z" fill="#7587B3"/>
<path d="M120.475 96.3052C117.501 95.2591 114.395 97.5207 114.395 100.688C114.395 103.856 117.501 106.118 120.474 105.072C123.002 104.183 125.376 102.722 127.399 100.689C125.377 98.656 123.003 97.1944 120.475 96.3052Z" fill="#636DA4"/>
<path d="M178.542 90.5427C173.246 87.5863 167.729 84.9826 162.026 82.7543L162.059 107.777C167.753 105.552 173.26 102.951 178.547 100C182.228 97.9464 182.222 92.5976 178.542 90.5427Z" fill="#7587B3"/>
<path d="M162.019 82.7499C161.294 82.4666 160.566 82.1891 159.835 81.9185C154.561 79.9648 148.963 83.9008 148.962 89.5527L148.961 100.991C148.961 106.63 154.541 110.585 159.805 108.637C160.562 108.357 161.315 108.07 162.066 107.776C167.18 105.774 170.523 100.79 170.523 95.2725C170.523 89.7362 167.151 84.7578 162.019 82.7499Z" fill="#87A1C1"/>
<path d="M57.5972 97.9749C59.0858 97.9749 60.2925 96.7616 60.2925 95.2649C60.2925 93.7682 59.0858 92.5549 57.5972 92.5549C56.1086 92.5549 54.9019 93.7682 54.9019 95.2649C54.9019 96.7616 56.1086 97.9749 57.5972 97.9749Z" fill="black"/>
<path d="M46.8159 97.9741C48.3045 97.9741 49.5113 96.7608 49.5113 95.2642C49.5113 93.7675 48.3045 92.5542 46.8159 92.5542C45.3273 92.5542 44.1206 93.7675 44.1206 95.2642C44.1206 96.7608 45.3273 97.9741 46.8159 97.9741Z" fill="black"/>
<path d="M68.3789 93.6635C69.8675 93.6635 71.0742 92.4502 71.0742 90.9535C71.0742 89.4568 69.8675 88.2435 68.3789 88.2435C66.8903 88.2435 65.6836 89.4568 65.6836 90.9535C65.6836 92.4502 66.8903 93.6635 68.3789 93.6635Z" fill="black"/>
<path d="M96.334 88.6699C97.8226 88.6699 99.0293 87.4566 99.0293 85.96C99.0293 84.4633 97.8226 83.25 96.334 83.25C94.8454 83.25 93.6387 84.4633 93.6387 85.96C93.6387 87.4566 94.8454 88.6699 96.334 88.6699Z" fill="black"/>
<path d="M106.908 85.96C108.397 85.96 109.604 84.7467 109.604 83.25C109.604 81.7533 108.397 80.54 106.908 80.54C105.42 80.54 104.213 81.7533 104.213 83.25C104.213 84.7467 105.42 85.96 106.908 85.96Z" fill="black"/>
<path d="M128.057 81.7306C129.545 81.7306 130.752 80.5173 130.752 79.0206C130.752 77.524 129.545 76.3107 128.057 76.3107C126.568 76.3107 125.361 77.524 125.361 79.0206C125.361 80.5173 126.568 81.7306 128.057 81.7306Z" fill="black"/>
<path d="M159.742 96.2232C161.231 96.2232 162.438 95.0099 162.438 93.5132C162.438 92.0165 161.231 90.8032 159.742 90.8032C158.254 90.8032 157.047 92.0165 157.047 93.5132C157.047 95.0099 158.254 96.2232 159.742 96.2232Z" fill="black"/>
<path d="M78.2669 97.9749C79.7554 97.9749 80.9622 96.7616 80.9622 95.2649C80.9622 93.7682 79.7554 92.5549 78.2669 92.5549C76.7783 92.5549 75.5715 93.7682 75.5715 95.2649C75.5715 96.7616 76.7783 97.9749 78.2669 97.9749Z" fill="black"/>
<path d="M88.3484 86.7293C88.3444 86.7159 88.3423 86.7022 88.338 86.6888C88.293 86.5403 88.2337 86.3979 88.1655 86.2613C88.154 86.2382 88.1443 86.2147 88.132 86.192C88.0691 86.0749 87.9955 85.9647 87.9164 85.8585C87.8395 85.7529 87.7579 85.6525 87.6656 85.5625C87.5912 85.4888 87.5182 85.4249 87.4424 85.3638C87.4172 85.3436 87.391 85.3248 87.3651 85.3056C87.3058 85.2615 87.2451 85.2196 87.1826 85.1802C87.1599 85.1661 87.1376 85.1521 87.1146 85.1387C87.0323 85.0903 86.9475 85.0458 86.8602 85.0064C86.6586 84.9161 86.4545 84.8532 86.2421 84.8146C86.2223 84.811 86.2022 84.8084 86.1821 84.8055C86.1048 84.7933 86.0268 84.7842 85.9474 84.7788C85.9118 84.7763 85.8766 84.7745 85.841 84.7734C85.8141 84.7727 85.7875 84.7694 85.7605 84.7694C85.7192 84.7694 85.6789 84.7737 85.6383 84.7756C85.6024 84.7774 85.5664 84.7781 85.5302 84.781C85.1661 84.812 84.8233 84.9154 84.5149 85.0773C84.5059 85.082 84.4966 85.0856 84.4876 85.0906C84.442 85.1152 84.3981 85.1434 84.3539 85.1708C84.3248 85.1885 84.2943 85.2044 84.2666 85.2232C84.2202 85.255 84.1839 85.2843 84.1466 85.3128C84.1135 85.3378 84.0786 85.3613 84.047 85.3876C83.9126 85.4989 83.7893 85.6229 83.679 85.758C83.2945 86.2295 83.0652 86.8275 83.0652 87.4794C83.0652 88.976 84.272 90.1894 85.7605 90.1894C86.5997 90.1894 87.3493 89.8035 87.8435 89.1989C88.1741 88.791 88.3876 88.2967 88.4418 87.7544C88.4515 87.6622 88.4569 87.5701 88.4569 87.4779C88.4569 87.3009 88.4389 87.1242 88.4034 86.9468C88.3876 86.8713 88.3685 86.8001 88.3484 86.7293Z" fill="black"/>
<path d="M114.396 108.804C119.795 108.804 125.194 106.738 129.304 102.606C130.357 101.547 130.357 99.8314 129.305 98.7735C125.32 94.7659 120.025 92.559 114.396 92.5586C108.766 92.5586 103.471 94.7649 99.4861 98.7709C98.4331 99.8293 98.4331 101.545 99.4857 102.603C103.596 106.737 108.996 108.804 114.396 108.804ZM114.394 97.9782C117.576 97.9785 120.613 98.9256 123.189 100.687C117.899 104.288 110.891 104.287 105.602 100.685C108.178 98.9245 111.215 97.9782 114.394 97.9782Z" fill="black"/>
<path d="M179.85 88.1731C168.873 82.0457 157.13 77.4734 144.932 74.5767L143.531 73.1653C137.79 67.392 129.61 64.8959 121.646 66.4883L107.797 69.2568L101.192 62.6167C100.14 61.5587 98.4328 61.5583 97.3802 62.617C96.3276 63.6754 96.3276 65.3913 97.3806 66.4493L101.438 70.528L78.3394 75.1454L68.0594 69.1791L81.5612 55.6036C84.6051 55.8309 87.5258 57.0157 89.8818 58.9979C91.0243 59.9587 92.7234 59.8066 93.6783 58.6587C94.6335 57.5107 94.4822 55.8016 93.3408 54.8416C89.7395 51.8122 85.1736 50.1439 80.4849 50.1439C79.7701 50.1439 79.0847 50.4294 78.5787 50.9374L61.7635 67.8444C61.1712 68.4402 60.8877 69.2792 60.9973 70.1146C61.1066 70.95 61.5964 71.6867 62.322 72.1077L70.3192 76.7493L59.3079 78.9506L47.7985 72.2685C46.0853 71.2734 44.0743 70.9446 42.1358 71.3428C38.8141 72.0253 36.3168 74.6399 35.773 78.0046C35.5143 79.6056 35.7335 81.1843 36.3459 82.5855C33.8342 82.2824 31.389 81.4716 29.162 80.1784L22.1674 76.1174C16.2553 72.6851 9.52167 70.8705 2.69532 70.8705C1.76094 70.8705 0.893402 71.3569 0.402494 72.1558C-0.0884145 72.9547 -0.133337 73.9523 0.284618 74.7924L10.4632 95.2635L0.284618 115.734C-0.133337 116.574 -0.0884145 117.572 0.402494 118.371C0.893402 119.17 1.76094 119.656 2.69532 119.656C9.52239 119.656 16.2557 117.842 22.1674 114.409L29.1616 110.349C33.1273 108.046 37.7855 107.273 42.2763 108.171C42.2763 108.17 43.3279 108.38 43.3279 108.38L35.3684 113C34.3966 113.564 33.8741 114.675 34.057 115.788C34.2396 116.902 35.0895 117.784 36.1903 118.005L61.9597 123.161C62.1347 123.196 62.3112 123.213 62.4858 123.213C63.1935 123.213 63.8813 122.933 64.3916 122.42L72.5423 114.226L78.6136 115.441C77.8751 116.68 77.4679 118.114 77.4679 119.613L77.4675 132.147C77.4675 133.644 78.674 134.857 80.1625 134.857C85.2067 134.857 89.9454 132.885 93.5069 129.305C96.3535 126.444 98.1744 122.825 98.7926 118.9C101.765 119.213 104.749 119.431 107.732 119.549C107.768 119.551 107.804 119.551 107.84 119.551C109.28 119.551 110.474 118.407 110.532 116.949C110.591 115.453 109.432 114.193 107.945 114.134C100.249 113.827 92.5502 112.843 85.0611 111.205L85.0148 111.196L31.9496 100.578C28.7469 99.9373 27.6109 97.3137 27.6109 95.2617C27.6112 93.2097 28.7476 90.5865 31.9503 89.9462L122.698 71.8049C128.891 70.5652 135.254 72.5077 139.717 76.9958L141.661 78.9542C142.018 79.3148 142.47 79.5663 142.964 79.6808C145.28 80.217 147.579 80.8172 149.859 81.4781C148.057 83.1019 146.852 85.2861 146.433 87.6716C145.529 87.3283 144.566 87.1412 143.572 87.1412C141.411 87.1412 139.381 87.9867 137.854 89.522C136.327 91.0573 135.485 93.0988 135.485 95.2707V100.867C135.485 104.999 137.313 108.83 140.504 111.419C133.328 112.926 125.99 113.834 118.514 114.13C117.026 114.188 115.868 115.448 115.926 116.944C115.984 118.439 117.235 119.605 118.725 119.545C140.402 118.689 160.969 112.91 179.855 102.37C182.451 100.921 184 98.2694 184 95.2762C184 92.2796 182.449 89.6242 179.85 88.1731ZM41.094 78.8732C41.1637 78.4404 41.5234 77.0001 43.2143 76.6529C43.8604 76.5203 44.5303 76.6297 45.1024 76.9614L51.2888 80.5534L43.2703 82.1563L42.4057 81.654C40.9118 80.7868 41.0235 79.3061 41.094 78.8732ZM61.5985 117.562L44.2658 114.094L51.3463 109.984L66.1835 112.953L61.5985 117.562ZM89.695 125.471C87.7978 127.378 85.4327 128.646 82.8578 129.167L82.8582 119.612C82.8582 118.687 83.3196 117.836 84.0934 117.334C84.6845 116.951 85.3853 116.815 86.0649 116.952C88.5069 117.437 90.9657 117.864 93.4382 118.223C92.9689 120.956 91.683 123.472 89.695 125.471ZM27.9271 104.873C27.433 105.117 26.9453 105.376 26.4659 105.655L19.4717 109.715C15.6893 111.912 11.5158 113.339 7.20944 113.928L15.8873 96.4743C16.2668 95.7115 16.2668 94.8136 15.8873 94.0509L7.20944 76.5972C11.5155 77.1865 15.6889 78.6138 19.4717 80.81L26.4663 84.8709C26.9446 85.1484 27.4308 85.4082 27.9235 85.6511C24.0085 87.651 22.2206 91.6473 22.2202 95.2603C22.2199 98.8757 24.0089 102.874 27.9271 104.873ZM140.876 95.2707C140.876 94.5466 141.156 93.8659 141.665 93.3542C142.174 92.8426 142.851 92.5608 143.571 92.5608C144.291 92.5608 144.968 92.8426 145.477 93.3546C145.987 93.8662 146.267 94.547 146.267 95.2707L146.266 100.991C146.266 104.04 147.547 106.926 149.746 108.964C147.7 109.176 145.655 108.593 143.997 107.292C142.013 105.737 140.875 103.395 140.876 100.867L140.876 95.2707ZM177.239 97.6309C171.296 100.948 165.179 103.77 158.909 106.1C157.231 106.703 155.432 106.469 153.968 105.443C152.5 104.413 151.657 102.791 151.657 100.991L151.658 89.5534C151.658 87.7543 152.501 86.132 153.969 85.1026C155.432 84.0775 157.229 83.8433 158.899 84.4608C165.206 86.7983 171.336 89.6199 177.234 92.9123C178.476 93.6061 178.61 94.7967 178.61 95.2765C178.609 95.7542 178.476 96.9408 177.239 97.6309Z" fill="black"/>
</g>
<defs>
<clipPath id="clip0_2_42272">
<rect width="184" height="185" fill="white"/>
</clipPath>
</defs>
</svg>
