<svg width="184" height="185" viewBox="0 0 184 185" fill="none" xmlns="http://www.w3.org/2000/svg">
<g clip-path="url(#clip0_2_44084)">
<path d="M49.0542 121.346C52.6077 139.924 58.9974 152.371 65.7867 144.742C72.576 137.114 71.858 127.662 49.0542 121.346Z" fill="#495560"/>
<path d="M127.852 68.5952L115.043 80.884H110.152C59.442 70.825 50.3401 45.7532 64.3288 37.9839C94.2324 38.3308 119.216 56.4044 127.643 63.266C129.296 64.6134 129.39 67.1174 127.852 68.5952Z" fill="#546370"/>
<path d="M110.152 80.8837H32.4344C32.4344 80.8837 15.8133 46.8719 47.5892 39.718C53.2853 38.4352 58.888 37.9113 64.3289 37.9836C54.0939 50.3844 74.6933 66.1094 110.152 80.8837Z" fill="#495560"/>
<path d="M128.836 114.404C127.039 116.619 123.959 120.037 119.748 123.405C102.314 131.503 89.8231 124.416 94.329 108.793L117.979 97.8335L128.718 109.775C129.889 111.076 129.943 113.045 128.836 114.404Z" fill="#546370"/>
<path d="M119.748 123.405C114.379 127.694 107.173 131.896 98.4259 133.403C81.3161 136.351 79.3611 115.73 79.3611 115.73L94.3291 108.793C96.0936 123.679 107.396 126.23 119.748 123.405Z" fill="#495560"/>
<path d="M177.32 64.7139C162.108 65.5908 143.28 71.9625 135.425 82.2289V97.2479C143.279 107.514 162.108 113.886 177.32 114.763C180.832 114.965 182.668 110.644 180.109 108.217C172.747 101.235 166.562 96.4313 159.661 93.3835C156.496 91.9859 156.496 87.4909 159.661 86.0933C166.562 83.0455 172.747 78.2417 180.109 71.2593C182.668 68.8327 180.832 64.5115 177.32 64.7139Z" fill="#546370"/>
<path d="M143.624 86.188V92.392C143.624 95.8571 141.069 98.7839 137.655 99.2428C131.039 100.128 124.703 102.61 119.14 106.426C112.628 110.892 103.845 114.726 94.3434 117.627C60.5571 113.221 45.578 72.7401 65.1226 57.7952C82.0132 59.0959 101.549 64.3894 114.813 71.9123C121.814 75.8833 129.497 78.4306 137.436 79.3123C140.944 79.6985 143.624 82.6361 143.624 86.188Z" fill="#8697A6"/>
<path d="M94.3435 117.627C82.114 121.36 68.6877 123.549 57.3498 123.549C51.7687 123.549 46.2954 123.033 41.0881 122.194C41.027 116.587 42.637 108.402 42.637 100.11C42.637 84.8222 30.4686 76.349 24.9521 67.5507C32.8907 61.6177 43.4204 57.4805 57.3498 57.4805C59.8511 57.4805 62.4529 57.5853 65.1231 57.7948C54.0184 76.5694 65.8993 107.21 94.3435 117.627Z" fill="#6B7D8E"/>
<path d="M95.6371 94.3106C90.5268 96.905 85.5315 99.5138 81.2873 101.758C63.8472 107.911 55.1022 94.8725 60.1453 89.9024C72.7701 88.7823 86.4299 89.4146 94.789 90.0325C97.0639 90.2023 97.6712 93.2772 95.6371 94.3106Z" fill="#546370"/>
<path d="M81.2874 101.758C78.9766 102.982 76.885 104.099 75.1205 105.046C71.4621 107.011 67.1424 107.293 63.2611 105.822C57.4896 103.636 48.534 100.641 41.0266 99.8533V93.7433C46.3346 91.7054 53.0765 90.5274 60.1454 89.9023C58.6759 95.1271 67.5524 103.683 81.2874 101.758Z" fill="#495560"/>
<path d="M49.0554 100.11C49.0554 108.403 46.051 116.334 41.088 122.194C27.1802 119.958 15.1663 115.434 8.09382 112.345C3.95741 110.534 1.80835 105.931 3.04101 101.566C5.58179 92.5655 11.6049 77.5198 24.9521 67.5508C38.8707 71.58 49.0554 84.8223 49.0554 100.11Z" fill="#546370"/>
<path d="M29.4448 91.4587V87.1228C29.4448 85.6258 28.2384 84.4128 26.7495 84.4128C25.2606 84.4128 24.0542 85.6258 24.0542 87.1228V91.4587C24.0542 92.9557 25.2606 94.1687 26.7495 94.1687C28.2384 94.1687 29.4448 92.9557 29.4448 91.4587Z" fill="black"/>
<path d="M160.742 90.9077C160.054 90.6038 159.98 89.9928 159.98 89.7439C159.98 89.4953 160.054 88.8836 160.742 88.5797C167.435 85.624 173.581 81.1786 181.957 73.2355C183.959 71.336 184.55 68.4664 183.461 65.924C182.375 63.3901 179.911 61.8544 177.164 62.0134C164.289 62.7556 147.144 67.5301 137.07 76.5406C133.335 76.0817 129.668 75.242 126.093 74.0301L129.708 70.5617C131.004 69.3176 131.706 67.5717 131.634 65.7716C131.562 63.9754 130.724 62.2967 129.336 61.1654C126.709 59.0256 122.405 55.7371 116.807 52.2221C115.544 51.4301 113.882 51.8153 113.093 53.085C112.304 54.3547 112.689 56.0265 113.951 56.8193C119.317 60.1883 123.433 63.3326 125.942 65.3766C126.362 65.8395 126.371 66.1437 125.987 66.6409L120.578 71.8307C119.077 71.1398 117.595 70.3846 116.135 69.5568C100.791 60.8535 76.616 54.7745 57.3463 54.7745C47.4642 54.7745 38.6013 56.7673 30.8298 60.7119C31.4051 50.9943 37.222 44.8312 48.1729 42.3655C65.5123 38.4613 84.027 41.2959 103.201 50.7923C104.538 51.455 106.152 50.9015 106.81 49.5591C107.468 48.2164 106.918 46.5919 105.583 45.9307C96.6741 41.5181 87.6962 38.432 78.8994 36.7584C67.9338 34.6713 57.1986 34.7786 46.9945 37.0771C38.4561 38.9993 32.3402 42.9559 28.8169 48.8365C26.3149 53.0131 25.1808 58.0695 25.4291 63.8815C21.9291 66.2398 18.6886 69.0528 15.7163 72.3174C7.06646 81.8174 2.63681 93.0677 0.44354 100.832C-1.15208 106.481 1.67368 112.501 7.01543 114.835C9.6209 115.973 12.3493 117.068 15.1247 118.088C16.5238 118.602 18.0705 117.878 18.5816 116.473C19.0926 115.067 18.3738 113.511 16.9755 112.997C14.3003 112.014 11.6719 110.96 9.16341 109.864C6.28734 108.607 4.7679 105.361 5.62896 102.312C8.2657 92.977 13.785 79.8879 25.0791 70.7882C37.6669 74.8445 46.3541 86.7275 46.3541 100.117C46.3454 107.041 44.0178 113.798 39.7351 119.223C36.1331 118.585 32.4639 117.762 28.7407 116.752C27.3029 116.361 25.824 117.218 25.4366 118.662C25.0489 120.107 25.8999 121.595 27.337 121.984C31.7322 123.176 36.0601 124.118 40.3029 124.814C40.3392 124.821 40.3755 124.826 40.4121 124.832C42.7021 125.205 44.9665 125.505 47.2025 125.732C49.495 136.029 53.493 147.755 59.9869 149.511C62.8159 150.115 64.9169 149.582 67.7904 146.555C71.4805 142.409 72.9086 138.059 71.9214 133.976C71.1987 130.987 69.2204 128.283 66.0169 125.884C70.1512 125.54 74.445 124.966 78.7859 124.177C82.449 133.431 90.0778 137.687 98.8767 136.078C115.479 133.216 126.817 121.172 130.921 116.126C132.885 113.711 132.797 110.277 130.714 107.962L127.82 104.744C130.552 103.584 133.394 102.732 136.277 102.21C146.192 111.687 163.759 116.701 177.164 117.474C179.872 117.639 182.382 116.1 183.461 113.563C184.55 111.021 183.959 108.151 181.956 106.251C173.581 98.3088 167.435 93.8634 160.742 90.9077ZM51.7267 99.2168C51.6814 97.3892 51.5014 95.5873 51.1902 93.8233C64.8888 91.3063 82.473 91.91 92.9826 92.6273C85.586 96.4024 78.5587 100.132 73.8477 102.661C70.8739 104.257 67.361 104.488 64.2071 103.294C61.0766 102.108 56.529 100.506 51.7267 99.2168ZM51.4435 104.758C55.6216 105.931 59.5385 107.317 62.3071 108.366C64.2545 109.103 66.2958 109.469 68.332 109.469C71.1114 109.469 73.8807 108.788 76.3863 107.443C81.3766 104.764 88.9774 100.731 96.848 96.7345C98.8559 95.7152 99.9092 93.5393 99.4682 91.3207C99.0277 89.1036 97.2257 87.5022 94.984 87.3363C84.3932 86.5512 64.9399 85.7245 49.8504 88.5638C46.6624 79.0926 39.6535 71.2193 30.4402 67.0644C37.4642 62.8882 46.2804 60.1937 57.3459 60.1937C75.7822 60.1937 98.8677 65.9851 113.486 74.2765C120.92 78.4932 128.878 81.0944 137.138 82.0093C139.297 82.2481 140.925 84.0472 140.925 86.1931V92.3971C140.925 94.4928 139.364 96.2825 137.294 96.56C130.333 97.486 123.472 100.174 117.619 104.193C103.412 113.986 76.6012 120.942 57.3455 120.843C53.5872 120.843 49.7128 120.598 45.7438 120.118C48.7888 115.503 50.737 110.248 51.4435 104.758ZM63.7737 142.941C62.831 144.001 62.0282 144.45 61.3874 144.277C59.6193 143.799 55.9727 139.38 52.8332 126.152C53.6393 126.19 54.4418 126.22 55.2392 126.238C61.933 128.866 65.8915 131.979 66.6839 135.256C67.2413 137.56 66.262 140.146 63.7737 142.941ZM126.716 111.598C126.997 111.911 127.011 112.373 126.748 112.695C123.028 117.269 112.776 128.184 97.9661 130.736C91.6091 131.833 86.9821 129.262 84.1808 123.092C98.398 120.086 113.172 114.166 122.832 107.28L126.716 111.598ZM178.51 111.419C178.4 111.675 178.111 112.096 177.473 112.063C166.417 111.426 151.496 107.479 142.267 100.243C144.728 98.484 146.316 95.5974 146.316 92.3975V86.1935C146.316 83.2425 144.983 80.581 142.86 78.8072C151.098 72.7018 164.64 68.1643 177.473 67.4243C178.111 67.3896 178.4 67.812 178.51 68.0685C178.622 68.3305 178.738 68.8371 178.258 69.2931C170.364 76.7794 164.661 80.9296 158.574 83.6176C156.116 84.7034 154.589 87.0509 154.589 89.7442C154.59 92.4372 156.117 94.7844 158.575 95.8702C164.661 98.5581 170.364 102.708 178.258 110.194C178.738 110.65 178.622 111.157 178.51 111.419Z" fill="black"/>
</g>
<defs>
<clipPath id="clip0_2_44084">
<rect width="184" height="185" fill="white"/>
</clipPath>
</defs>
</svg>
