<svg width="184" height="185" viewBox="0 0 184 185" fill="none" xmlns="http://www.w3.org/2000/svg">
<g clip-path="url(#clip0_2_42699)">
<path d="M124.258 62.6185L123.486 36.3976C118.472 40.2589 111.294 39.3028 107.453 34.2617V63.4582L124.258 62.6185Z" fill="#B9DFF0"/>
<path d="M107.453 34.2617C103.278 39.0256 96.0511 39.4841 91.313 35.2854V64.3096L114.407 63.4582L107.453 34.2617Z" fill="#C2F0FC"/>
<path d="M75.675 39.4303L93.7033 65.2238L104.423 64.3099L91.313 35.2858C88.1328 40.772 81.1316 42.6274 75.675 39.4303Z" fill="#B9DFF0"/>
<path d="M23.5656 52.5943C19.9685 54.6824 19.9685 59.9027 23.5656 61.9909L38.1732 70.4704C43.1769 73.3748 49.3418 73.3748 54.3456 70.4704H75.8792V58.3309C61.6918 44.7156 40.299 42.3189 23.5656 52.5943Z" fill="#B9DFF0"/>
<path d="M48.1134 46.3034C39.711 45.881 31.1591 47.9316 23.5656 52.5947C19.9685 54.6829 19.9685 59.9031 23.5656 61.9913L38.1732 70.4708C43.1769 73.3753 49.3418 73.3753 54.3456 70.4708H65.0976V64.2294C65.0976 54.6558 57.6228 46.7815 48.1134 46.3034Z" fill="#C2F0FC"/>
<path d="M54.3452 114.031L35.1069 132.245C47.3997 136.115 61.093 132.901 70.4335 123.391V114.031H54.3452Z" fill="#B9DFF0"/>
<path d="M54.3452 114.031C49.3415 111.126 43.1769 111.126 38.1732 114.031L28.1913 119.825C24.5985 121.911 24.5891 127.142 28.1902 129.213C32.253 131.548 36.6268 132.986 41.0609 133.561C50.9206 134.838 59.6519 127.107 59.6519 117.111V114.031H54.3452Z" fill="#C2F0FC"/>
<path d="M127.402 117.323L116.621 150.738C128.539 150.738 138.184 141.041 138.184 129.057V117.323H127.402Z" fill="#B9DFF0"/>
<path d="M127.402 129.057V117.323H116.621V150.738C122.58 150.738 127.402 141.041 127.402 129.057Z" fill="#C2F0FC"/>
<path d="M20.8203 72.7443C15.3099 69.5447 9.05871 67.8605 2.69543 67.8605C2.69543 74.2583 4.37053 80.5435 7.55289 86.0839L11.0946 92.2508L7.55289 98.4178C4.37053 103.958 2.69543 110.243 2.69543 116.641C9.05871 116.641 15.3099 114.957 20.8203 111.757L25.0564 109.297V75.2032L20.8203 72.7443Z" fill="#98B6D1"/>
<path d="M27.5364 76.6435L25.0563 75.2036C19.8538 79.281 16.8246 85.4577 16.8246 92.2509C16.8246 99.044 19.8538 105.22 25.0563 109.298L27.5364 107.858C32.5405 104.953 38.7058 104.952 43.7099 107.857V76.6443C38.7058 79.5491 32.5402 79.5487 27.5364 76.6435Z" fill="#87A1C1"/>
<path d="M138.184 77.9682C138.184 63.059 126.276 50.9419 111.471 50.706C111.166 50.7027 110.861 50.6984 110.555 50.6984C94.687 50.6984 79.8684 55.1855 67.2799 62.9618L32.9974 82.8626C25.8096 87.0349 25.8096 97.4657 32.9974 101.638L67.2436 121.518C79.8404 129.309 94.6719 133.806 110.555 133.806C130.273 133.806 148.371 126.877 162.583 115.315L138.184 77.9682Z" fill="#A8CAE0"/>
<path d="M127.402 82.4915V98.5024C127.402 116.769 148.458 126.804 162.583 115.316C168.374 110.604 173.518 105.122 177.865 99.0281L127.402 82.4915Z" fill="#B9DFF0"/>
<path d="M180.47 89.3445C173.985 79.084 165.324 70.3482 155.14 63.791L147.767 109.523C158.177 112.499 170.227 109.659 177.865 99.028C178.767 97.763 179.637 96.4737 180.469 95.157C181.59 93.3843 181.59 91.1169 180.47 89.3445Z" fill="#87A1C1"/>
<path d="M155.14 63.7911C142.514 55.6617 127.545 50.8812 111.471 50.7059C120.301 50.8465 127.402 58.0733 127.402 66.9651V82.4915C127.402 96.5338 136.649 106.346 147.767 109.523C159.085 112.757 170.469 104.253 170.528 92.4229C170.528 92.3658 170.528 92.3083 170.528 92.2512C170.528 80.7531 164.753 70.009 155.14 63.7911Z" fill="#98B6D1"/>
<path d="M111.234 61.5385C108.257 61.5385 105.843 63.9652 105.843 66.9585V86.8304C105.843 89.8237 108.257 92.2504 111.234 92.2504C114.211 92.2504 116.625 89.8237 116.625 86.8304V66.9585C116.625 63.9652 114.211 61.5385 111.234 61.5385Z" fill="#87A1C1"/>
<path d="M62.717 81.2546V86.8307C62.717 89.8241 65.1307 92.2508 68.1078 92.2508C71.085 92.2508 73.4986 89.8241 73.4986 86.8307V81.2546C73.4986 78.2612 71.085 75.8345 68.1078 75.8345C65.1303 75.8345 62.717 78.2609 62.717 81.2546Z" fill="#87A1C1"/>
<path d="M89.6709 64.9148C86.6938 64.9148 84.2802 67.3415 84.2802 70.3349V86.8307C84.2802 89.824 86.6938 92.2508 89.6709 92.2508C92.6481 92.2508 95.0617 89.824 95.0617 86.8307V70.3349C95.0617 67.3412 92.6481 64.9148 89.6709 64.9148Z" fill="#87A1C1"/>
<path d="M154.356 88.8542C157.333 88.8542 159.747 86.4275 159.747 83.4341C159.747 80.4407 157.333 78.014 154.356 78.014C151.379 78.014 148.965 80.4407 148.965 83.4341C148.965 86.4275 151.379 88.8542 154.356 88.8542Z" fill="#515985"/>
<path d="M77.6089 112.827C86.0897 121.353 98.6937 123.168 108.935 118.281V107.372C98.6933 102.485 86.0897 104.3 77.6089 112.827Z" fill="#98B6D1"/>
<path d="M108.935 107.371C104.991 105.492 100.448 108.439 100.448 112.827C100.448 117.215 104.991 120.161 108.935 118.283C111.714 116.959 114.319 115.141 116.621 112.827C114.319 110.513 111.714 108.695 108.935 107.371Z" fill="#87A1C1"/>
<path d="M111.234 58.8289C106.776 58.8289 103.148 62.4762 103.148 66.959V86.8308C103.148 91.3136 106.776 94.9609 111.234 94.9609C115.693 94.9609 119.32 91.3136 119.32 86.8308V66.959C119.32 62.4758 115.693 58.8289 111.234 58.8289ZM113.93 86.8308C113.93 88.3253 112.721 89.5408 111.234 89.5408C109.748 89.5408 108.539 88.3253 108.539 86.8308V66.959C108.539 65.4645 109.748 64.2489 111.234 64.2489C112.721 64.2489 113.93 65.4645 113.93 66.959V86.8308Z" fill="black"/>
<path d="M76.1941 81.2546C76.1941 76.7719 72.5664 73.1245 68.1079 73.1245C63.6494 73.1245 60.0217 76.7719 60.0217 81.2546V86.8308C60.0217 91.3136 63.6494 94.9609 68.1079 94.9609C72.5664 94.9609 76.1941 91.3136 76.1941 86.8308V81.2546ZM70.8033 86.8308C70.8033 88.3253 69.5943 89.5408 68.1079 89.5408C66.6215 89.5408 65.4125 88.3253 65.4125 86.8308V81.2546C65.4125 79.7601 66.6215 78.5446 68.1079 78.5446C69.5943 78.5446 70.8033 79.7601 70.8033 81.2546V86.8308Z" fill="black"/>
<path d="M89.671 94.9609C94.1296 94.9609 97.7572 91.3136 97.7572 86.8308V70.3346C97.7572 65.8518 94.1296 62.2045 89.671 62.2045C85.2125 62.2045 81.5848 65.8518 81.5848 70.3346V86.8304C81.5848 91.3136 85.2121 94.9609 89.671 94.9609ZM86.9756 70.3346C86.9756 68.8401 88.1846 67.6245 89.671 67.6245C91.1574 67.6245 92.3664 68.8401 92.3664 70.3346V86.8304C92.3664 88.3249 91.1574 89.5405 89.671 89.5405C88.1846 89.5405 86.9756 88.3249 86.9756 86.8304V70.3346Z" fill="black"/>
<path d="M154.356 75.3041C149.898 75.3041 146.27 78.9514 146.27 83.4342C146.27 87.917 149.898 91.5643 154.356 91.5643C158.815 91.5643 162.442 87.917 162.442 83.4342C162.442 78.9514 158.815 75.3041 154.356 75.3041ZM154.356 86.1442C152.87 86.1442 151.661 84.9287 151.661 83.4342C151.661 81.9397 152.87 80.7242 154.356 80.7242C155.842 80.7242 157.051 81.9397 157.051 83.4342C157.051 84.9287 155.842 86.1442 154.356 86.1442Z" fill="black"/>
<path d="M75.7032 110.91C74.6505 111.969 74.6505 113.684 75.7032 114.743C81.6068 120.678 89.3609 123.646 97.115 123.646C104.869 123.646 112.623 120.678 118.527 114.743C119.579 113.684 119.579 111.968 118.527 110.91C106.72 99.0396 87.5101 99.0396 75.7032 110.91ZM81.6514 112.827C90.6737 105.624 103.556 105.624 112.578 112.827C103.556 120.029 90.6741 120.029 81.6514 112.827Z" fill="black"/>
<path d="M182.745 87.8909C175.17 75.906 164.663 65.8984 152.361 58.9499C144.335 54.4169 135.606 51.2367 126.568 49.5088L126.18 36.3174C126.15 35.301 125.556 34.3864 124.643 33.9499C123.73 33.5134 122.649 33.6272 121.847 34.2459C119.993 35.6731 117.699 36.2885 115.384 35.9814C113.07 35.6728 111.013 34.4771 109.594 32.6137C109.103 31.9701 108.352 31.5813 107.546 31.5532C106.744 31.5261 105.965 31.8617 105.432 32.4695C102.245 36.1049 96.7103 36.4554 93.0956 33.2518C92.4904 32.7159 91.6785 32.4789 90.8832 32.6101C90.0872 32.7391 89.3907 33.22 88.9849 33.9207C86.5584 38.1071 81.1956 39.529 77.0325 37.0885C75.9378 36.4475 74.5466 36.6592 73.6902 37.5969C72.8331 38.5349 72.7414 39.9463 73.4703 40.9884L81.8418 52.9657C80.0032 53.6241 78.1894 54.3522 76.3982 55.137C70.7461 50.1245 63.9545 46.5639 56.6435 44.8045C55.1959 44.4551 53.7414 45.3538 53.3946 46.8092C53.0482 48.2647 53.9409 49.7274 55.3885 50.0757C61.0902 51.4481 66.4317 54.0675 71.0423 57.7112C69.2996 58.6254 67.5828 59.5959 65.9009 60.6341L53.0033 68.121C48.8419 70.5362 43.6779 70.5362 39.5213 68.1235L24.9137 59.644C23.6946 58.9365 23.5631 57.7643 23.5631 57.2928C23.5631 56.8212 23.6946 55.649 24.9137 54.9415C24.9327 54.9307 24.9518 54.9191 24.9708 54.9072C31.1181 51.1323 38.1621 49.0766 45.3415 48.9632C46.8301 48.9397 48.0175 47.7072 47.9941 46.2109C47.9711 44.7287 46.769 43.5435 45.2998 43.5435C45.2855 43.5435 45.2711 43.5435 45.2567 43.5438C37.1256 43.6725 29.1494 45.997 22.1874 50.2662C19.6728 51.7401 18.1727 54.3641 18.1727 57.2928C18.1727 60.2341 19.6853 62.8675 22.2187 64.3378L36.8262 72.8173C38.3152 73.6816 39.8968 74.3216 41.523 74.7436C37.5249 76.6981 32.7663 76.5507 28.8853 74.297L22.1691 70.3974C16.2564 66.9651 9.523 65.1504 2.69611 65.1504C1.20718 65.1504 0.000718771 66.3634 0.000718771 67.8605C0.000718771 74.7248 1.80519 81.4952 5.21936 87.4396L7.98267 92.2508L5.21936 97.0621C1.80447 103.006 0 109.777 0 116.641C0 118.138 1.20646 119.351 2.69539 119.351C9.52192 119.351 16.2554 117.537 22.1683 114.104L28.8845 110.205C32.7677 107.951 37.5288 107.803 41.5274 109.76C39.8997 110.182 38.3159 110.819 36.8259 111.684L26.8439 117.478C24.3052 118.952 22.7937 121.592 22.8009 124.539C22.8084 127.487 24.3326 130.119 26.8788 131.58C32.7044 134.924 39.1321 136.55 45.5187 136.55C54.7053 136.55 63.8028 133.181 70.8798 126.714C83.0687 133.142 96.6693 136.517 110.555 136.517C111.68 136.517 112.804 136.492 113.926 136.447V150.738C113.926 152.235 115.132 153.448 116.621 153.448C129.357 153.448 139.824 143.528 140.798 130.97C144.777 129.46 148.645 127.653 152.362 125.554C164.664 118.605 175.17 108.596 182.745 96.6107C184.418 93.9621 184.418 90.5392 182.745 87.8909ZM114.676 41.3548C116.81 41.6388 118.932 41.4372 120.918 40.7839L121.15 48.6524C118.617 48.3348 116.066 48.1303 113.507 48.041L111.744 40.6401C112.683 40.9783 113.664 41.2201 114.676 41.3548ZM105.817 39.0271L107.961 48.0302C105.389 48.1083 102.83 48.2998 100.291 48.6069L96.7178 40.6965C99.8211 41.1734 103.037 40.6014 105.817 39.0271ZM90.614 40.2921L94.7567 49.4633C92.218 49.9413 89.7041 50.5332 87.2236 51.2389L81.9474 43.6909C85.1032 43.5698 88.1734 42.3861 90.614 40.2921ZM26.1888 105.511L19.4726 109.41C15.1934 111.895 10.415 113.395 5.50902 113.812C5.92303 108.879 7.41592 104.075 9.8867 99.7728L13.4284 93.6062C13.91 92.7675 13.91 91.7341 13.4284 90.8955L9.8867 84.7288C7.41592 80.4271 5.92339 75.6228 5.50902 70.6898C10.4146 71.106 15.1927 72.607 19.4722 75.0912L26.1884 78.9908C27.7043 79.8707 29.3162 80.5182 30.9733 80.9384C27.1634 83.4501 24.9105 87.6206 24.9105 92.2508C24.9105 96.8821 27.1642 101.053 30.9754 103.565C29.318 103.985 27.705 104.631 26.1888 105.511ZM29.5505 126.873C28.3275 126.171 28.1927 124.998 28.1913 124.526C28.1902 124.054 28.3192 122.88 29.539 122.172L39.5209 116.378C43.6761 113.965 48.8394 113.965 52.9954 116.376L65.8635 123.846C65.8746 123.853 65.8862 123.86 65.8977 123.867C55.6649 132.227 41.1989 133.558 29.5505 126.873ZM119.316 147.835V136.062C124.67 135.508 129.956 134.45 135.093 132.907C133.497 140.659 127.185 146.698 119.316 147.835ZM110.555 131.097C95.7169 131.097 81.2283 126.986 68.6556 119.21C68.634 119.197 68.6128 119.184 68.5909 119.171L34.3447 99.2915C31.8132 97.822 30.3016 95.1896 30.3016 92.2508C30.3016 89.3117 31.8132 86.6797 34.3447 85.2102L68.6275 65.3094C68.6491 65.2971 68.67 65.2845 68.6908 65.2718C81.2538 57.511 95.7299 53.4091 110.555 53.4091C110.966 53.4091 111.376 53.4225 111.787 53.4286C118.951 53.735 124.707 59.7137 124.707 66.9658V98.5031C124.707 107.987 129.99 116.414 138.495 120.495C140.975 121.684 143.568 122.425 146.179 122.737C135.304 128.159 123.169 131.097 110.555 131.097ZM178.195 93.7034C177.397 94.9652 176.566 96.197 175.709 97.4028C170.162 105.152 161.66 108.909 152.367 107.714C150.892 107.524 149.54 108.573 149.351 110.058C149.162 111.542 150.206 112.9 151.683 113.09C153.012 113.261 154.332 113.345 155.641 113.345C157.617 113.345 159.562 113.147 161.456 112.771C161.272 112.924 161.09 113.079 160.905 113.23L160.888 113.208C155.152 117.873 147.462 118.791 140.817 115.602C134.624 112.63 130.736 106.957 130.172 100.216C132.785 103.964 136.269 107.122 140.478 109.434C140.888 109.659 141.331 109.766 141.768 109.766C142.721 109.766 143.646 109.256 144.136 108.355C144.849 107.041 144.368 105.395 143.062 104.677C134.823 100.153 130.098 92.0669 130.098 82.4918V66.9651C130.098 62.3685 128.444 58.1383 125.706 54.8429C147.192 58.9603 166.162 71.759 178.195 90.7979C178.753 91.6806 178.753 92.821 178.195 93.7034Z" fill="black"/>
</g>
<defs>
<clipPath id="clip0_2_42699">
<rect width="184" height="185" fill="white"/>
</clipPath>
</defs>
</svg>
