<svg width="185" height="184" viewBox="0 0 185 184" fill="none" xmlns="http://www.w3.org/2000/svg">
<g clip-path="url(#clip0_2_42484)">
<path d="M92.0782 38.8122C86.411 33.1757 78.7264 30.0109 70.7118 30.0109L89.9262 53.9943L114.479 61.0923C114.479 61.0923 102.653 49.3295 92.0782 38.8122Z" fill="#A8CAE0"/>
<path d="M70.7118 30.0109L70.7125 40.7937C70.7129 46.7475 75.566 51.574 81.5521 51.5737L89.9262 53.9946L81.9192 38.8126C78.9467 33.1757 74.9156 30.0109 70.7118 30.0109Z" fill="#B9DFF0"/>
<path d="M29.9775 71.9947L14.2063 56.3088C11.1572 53.2762 7.0217 51.5725 2.70947 51.5725V63.2796C2.70947 73.0415 6.60836 82.4038 13.5487 89.3063C6.60836 96.2092 2.70947 105.571 2.70947 115.333V127.037C7.0217 127.037 11.1572 125.333 14.2063 122.301L29.9757 106.617C30.0031 106.589 30.032 106.564 30.0595 106.537L30.0613 72.0734C30.0338 72.0472 30.0049 72.022 29.9775 71.9947Z" fill="#B9DFF0"/>
<path d="M30.0612 72.0738C26.0066 76.9057 23.7958 82.9364 23.7958 89.3067C23.7958 95.6763 26.0059 101.706 30.0594 106.537C34.2987 102.409 41.0989 102.434 45.3045 106.617L45.3063 71.9948C41.101 76.1777 34.3005 76.2028 30.0612 72.0738Z" fill="#A8CAE0"/>
<path d="M52.9711 114.242L47.6415 127.039H81.5521V114.242H52.9711Z" fill="#A8CAE0"/>
<path d="M52.9712 114.242C48.7381 110.032 41.875 110.032 37.6423 114.242L34.0274 117.837C30.613 121.233 33.0313 127.04 37.8598 127.04H47.6419C54.3565 127.039 57.7195 118.964 52.9712 114.242Z" fill="#B9DFF0"/>
<path d="M52.9711 64.3717L47.6415 51.5743H81.5521V64.3717H52.9711Z" fill="#A8CAE0"/>
<path d="M52.9712 64.3717C48.7381 68.5819 41.875 68.5819 37.6423 64.3717L34.0274 60.7764C30.613 57.3808 33.0313 51.5743 37.8598 51.5743H47.6419C54.3565 51.5743 57.7195 59.6491 52.9712 64.3717Z" fill="#B9DFF0"/>
<path d="M176.85 105.477C181.678 105.477 184.096 99.6713 180.682 96.2754L180.036 95.6321C178.003 93.6104 176.861 90.8682 176.861 88.0091C176.861 88.0091 176.861 78.5361 176.861 78.5354L166.015 73.1476C166.012 73.1458 165.991 73.1354 165.991 73.1354C165.992 73.1577 165.993 73.1753 165.994 73.1904L138.923 127.038H157.031C164.218 127.038 171.11 124.199 176.192 119.144L180.682 114.679C184.096 111.284 181.678 105.477 176.85 105.477Z" fill="#7587B3"/>
<path d="M166.021 100.078V73.1357C166.021 72.7321 166.008 73.535 165.991 73.1357H128.084C128.084 61.2277 118.378 51.5743 106.406 51.5743H81.5521C71.4904 51.5743 61.8409 55.5495 54.7264 62.626L39.3971 77.8724C33.0475 84.1877 33.0475 94.4265 39.3971 100.742L54.7264 115.988C61.8409 123.064 71.4904 127.04 81.5521 127.04H90.1448V132.43L117.245 127.04H138.924C153.89 127.034 166.021 114.965 166.021 100.078Z" fill="#87A1C1"/>
<path d="M149.753 51.5743H138.914L166.022 89.3067C172.004 89.3067 176.855 84.486 176.861 78.5358C176.861 63.6455 164.724 51.5743 149.753 51.5743Z" fill="#99EAFF"/>
<path d="M138.914 51.5743H106.406C115.385 51.5743 122.664 58.8143 122.664 67.7454V78.526C122.664 84.4802 127.517 89.3067 133.504 89.3067L144.342 83.9164L155.181 89.3067H166.022V78.5358C166.022 63.6455 153.885 51.5743 138.914 51.5743Z" fill="#C2F0FC"/>
<path d="M144.342 73.1357C142.367 73.1357 140.517 73.6636 138.922 74.5814L144.342 89.3068H155.181V83.9164C155.181 77.9623 150.328 73.1357 144.342 73.1357Z" fill="#61CE5A"/>
<path d="M138.922 74.5814C135.684 76.4458 133.503 79.9265 133.503 83.9164V89.3068H144.342V83.9164C144.342 79.9268 142.161 76.4458 138.922 74.5814Z" fill="#94E368"/>
<path d="M104.03 70.7995L101.511 68.2945C99.1086 65.9044 95.0814 66.258 93.1983 69.071C85.9627 79.879 85.9627 94.0625 93.1983 104.87C95.0818 107.684 99.1086 108.037 101.511 105.647L104.03 103.142V70.7995Z" fill="#E5FAFF"/>
<path d="M109.45 86.971C109.45 83.887 110.319 81.0049 111.825 78.5527L104.03 70.7999C100.628 75.3045 98.611 80.9032 98.611 86.971C98.611 93.039 100.628 98.6374 104.031 103.142L111.825 95.3896C110.319 92.937 109.45 90.0549 109.45 86.971Z" fill="#C2F0FC"/>
<path d="M117.245 121.647C115.624 121.647 114.169 122.355 113.175 123.477C111.222 125.684 108.382 126.895 105.436 127.025L84.7273 153.989H95.5662C110.532 153.989 122.664 141.922 122.664 127.037C122.664 124.06 120.238 121.647 117.245 121.647Z" fill="#A8CAE0"/>
<path d="M111.013 133.612C111.895 130.115 109.058 126.866 105.436 127.026C105.261 127.034 105.084 127.038 104.908 127.038L90.1449 127.038C77.5041 127.039 66.8856 135.648 63.8918 147.292C63.0185 150.689 65.6268 153.989 69.1521 153.989H84.7274C97.4133 153.989 108.063 145.319 111.013 133.612Z" fill="#B9DFF0"/>
<path d="M166.022 102.714C167.518 102.714 168.731 101.508 168.731 100.019C168.731 98.5306 167.518 97.324 166.022 97.324C164.525 97.324 163.312 98.5306 163.312 100.019C163.312 101.508 164.525 102.714 166.022 102.714Z" fill="black"/>
<path d="M182.932 105.477C183.517 104.814 184.001 104.044 184.36 103.181C185.642 100.103 184.967 96.726 182.599 94.3697L181.952 93.7261C180.416 92.1992 179.571 90.1688 179.571 88.0088V78.5354C179.571 72.6952 177.86 67.0396 174.624 62.1804C173.798 60.9392 172.116 60.6 170.868 61.4218C169.621 62.2436 169.279 63.9161 170.106 65.1573C172.752 69.1307 174.151 73.7563 174.151 78.534C174.147 82.9878 170.5 86.6116 166.022 86.6116H157.891V83.9164C157.891 76.4856 151.813 70.4406 144.342 70.4406C136.871 70.4406 130.793 76.4856 130.793 83.9164V86.1477C127.639 85.0351 125.374 82.0395 125.374 78.5261V67.7454C125.374 62.4693 123.183 57.6953 119.66 54.2695H149.753C154.558 54.2695 159.209 55.6606 163.204 58.2929C164.452 59.1144 166.134 58.7751 166.96 57.5343C167.787 56.2934 167.445 54.6213 166.197 53.7988C161.312 50.5804 155.626 48.8792 149.753 48.8792H106.032L93.9942 36.9069C87.7761 30.7217 79.5071 27.3157 70.7118 27.3157C69.9932 27.3157 69.3038 27.5996 68.7954 28.1052C68.2874 28.6104 68.002 29.2961 68.002 30.0112L68.0027 40.7937C68.0027 43.7494 68.9529 46.5592 70.7093 48.8788L37.859 48.8796C34.5086 48.8796 31.6308 50.792 30.3485 53.871C29.0662 56.9493 29.7415 60.3261 32.1106 62.6828L35.7255 66.2781C37.8807 68.4217 40.5873 69.6899 43.395 70.0844C41.8533 71.6167 39.8123 72.4576 37.6415 72.4576C35.4701 72.4576 33.4287 71.6164 31.8931 70.0891L16.1227 54.4029C12.54 50.8398 7.77646 48.8774 2.70982 48.8774C1.21328 48.8774 0 50.0838 0 51.5726V63.2797C0 72.9561 3.47507 82.1017 9.83664 89.3068C3.47471 96.5115 0 105.657 0 115.333V127.037C0 128.526 1.21328 129.733 2.70982 129.733C7.77646 129.733 12.5403 127.77 16.1227 124.207L31.892 108.523C35.0618 105.37 40.2184 105.37 43.3882 108.522C40.5877 108.924 37.8811 110.192 35.7259 112.336L32.111 115.931C29.7419 118.288 29.0666 121.664 30.3489 124.743C31.6308 127.821 34.509 129.734 37.8594 129.734L72.996 129.734C67.3343 133.69 63.0759 139.587 61.2668 146.624C60.6439 149.046 61.1736 151.571 62.7189 153.55C64.274 155.542 66.6189 156.684 69.1524 156.684H73.8877C75.3842 156.684 76.5975 155.478 76.5975 153.989C76.5975 152.5 75.3842 151.294 73.8877 151.294H69.152C68.3048 151.294 67.52 150.912 66.9994 150.244C66.4877 149.589 66.3121 148.756 66.517 147.96C69.276 137.229 78.9919 129.734 90.1448 129.733C90.1455 129.733 104.908 129.733 104.908 129.733C108.938 129.733 112.693 128.101 115.21 125.258C115.724 124.676 116.467 124.342 117.245 124.342C118.739 124.342 119.955 125.551 119.955 127.037C119.955 140.413 109.014 151.294 95.5663 151.294H84.727C83.2304 151.294 82.0172 152.5 82.0172 153.989C82.0172 155.478 83.2304 156.684 84.727 156.684H95.5663C111.088 156.684 123.871 144.821 125.246 129.733L157.031 129.734C164.994 129.734 172.479 126.65 178.108 121.051L182.598 116.585C184.967 114.228 185.643 110.852 184.36 107.773C184.001 106.912 183.517 106.14 182.932 105.477ZM136.213 83.9164C136.213 79.4582 139.859 75.8309 144.342 75.8309C148.825 75.8309 152.472 79.4582 152.472 83.9164V86.6116H136.213V83.9164ZM90.1622 40.7182L96.8756 47.3951C97.3945 47.9111 97.8916 48.4056 98.3678 48.8792H81.5735C81.5662 48.8792 81.5597 48.8781 81.5525 48.8781C77.0698 48.8785 73.4231 45.2515 73.4227 40.793L73.4223 32.8357C79.7463 33.447 85.6111 36.1921 90.1622 40.7182ZM39.5583 62.4657L35.943 58.8707C34.755 57.6888 35.1929 56.3236 35.3555 55.9334C35.5181 55.5431 36.179 54.2695 37.859 54.2695L61.2451 54.2688C58.2 56.0214 55.3645 58.1793 52.81 60.72L51.0548 62.4657C47.8854 65.6184 42.7277 65.6184 39.5583 62.4657ZM28.0596 104.711L12.2903 120.396C10.3822 122.293 8.00553 123.556 5.41927 124.075V115.334C5.41927 106.222 8.98684 97.656 15.4648 91.2131C15.9731 90.7075 16.2585 90.0222 16.2585 89.3071C16.2585 88.592 15.9731 87.9071 15.4648 87.4011C8.9872 80.9578 5.41964 72.3915 5.41964 63.28V54.5358C8.00553 55.0551 10.3822 56.3171 12.2907 58.2149L28.0614 73.9004C30.2087 76.0357 32.9507 77.3628 35.9156 77.7355C33.3311 81.0315 31.9256 85.0602 31.9256 89.3068C31.9256 93.5558 33.3333 97.5874 35.921 100.884C33.0446 101.247 30.2636 102.519 28.0596 104.711ZM37.8594 124.344C36.1793 124.344 35.5185 123.07 35.3559 122.68C35.1933 122.29 34.7554 120.924 35.9434 119.743L39.5583 116.147C42.7273 112.995 47.8839 112.996 51.0533 116.146L52.81 117.893C55.3638 120.433 58.1989 122.591 61.2433 124.343L37.8594 124.344ZM176.85 108.173C178.53 108.173 179.191 109.446 179.353 109.836C179.516 110.227 179.954 111.592 178.766 112.773L174.276 117.239C169.67 121.821 163.546 124.344 157.031 124.344L124.908 124.343C123.79 121.206 120.778 118.952 117.245 118.952C114.91 118.952 112.685 119.952 111.141 121.697C109.653 123.378 107.381 124.343 104.908 124.343L81.477 124.343C72.0956 124.324 63.2786 120.682 56.6424 114.082L41.3135 98.8354C38.7544 96.2905 37.3453 92.9064 37.3453 89.3068C37.3453 85.7071 38.7544 82.323 41.3135 79.7777L56.6424 64.5317C63.2963 57.9138 72.1426 54.2692 81.5522 54.2692H106.406C113.877 54.2692 119.955 60.3143 119.955 67.745V78.5257C119.955 85.9565 126.033 92.0016 133.504 92.0016H166.022C169.096 92.0016 171.933 90.9756 174.21 89.2518C174.496 92.3821 175.857 95.2879 178.119 97.5374L178.766 98.181C179.954 99.3623 179.516 100.728 179.353 101.118C179.191 101.508 178.53 102.782 176.85 102.782C175.353 102.782 174.14 103.988 174.14 105.477C174.14 106.966 175.353 108.173 176.85 108.173Z" fill="black"/>
<path d="M113.741 76.6466L103.427 66.3884C101.692 64.6632 99.295 63.8097 96.8533 64.0533C94.4368 64.292 92.2823 65.5763 90.9426 67.5776C83.0556 79.3587 83.0556 94.5832 90.9426 106.365C92.2823 108.366 94.4365 109.65 96.8533 109.889C99.2954 110.132 101.693 109.279 103.427 107.553L113.741 97.2952C114.626 96.4152 114.79 95.0467 114.138 93.9845C112.844 91.8783 112.16 89.4534 112.16 86.9709C112.16 84.4892 112.844 82.0643 114.138 79.9577C114.79 78.8955 114.626 77.527 113.741 76.6466ZM108.491 94.8936L99.5949 103.741C99.0132 104.32 98.2093 104.606 97.3884 104.524C96.9219 104.478 96.0501 104.268 95.4535 103.377C88.7816 93.4109 88.7816 80.5309 95.4535 70.5645C96.0501 69.6737 96.9219 69.4631 97.3884 69.4171C98.2089 69.3352 99.0132 69.6209 99.5949 70.2001L108.491 79.0478C107.341 81.5191 106.74 84.2211 106.74 86.9709C106.74 89.7207 107.341 92.4224 108.491 94.8936Z" fill="black"/>
</g>
<defs>
<clipPath id="clip0_2_42484">
<rect width="185" height="184" fill="white"/>
</clipPath>
</defs>
</svg>
