<svg width="184" height="185" viewBox="0 0 184 185" fill="none" xmlns="http://www.w3.org/2000/svg">
<g clip-path="url(#clip0_2_42567)">
<path d="M75.3774 130.842C78.8738 132.831 82.492 134.57 86.2102 136.042L109.794 117.213L75.3774 102.842V130.842Z" fill="#FEB7A0"/>
<path d="M57.4 95.3348L51.6194 117.026L72.8031 129.323C73.6528 129.846 74.5125 130.349 75.3776 130.842L98.4048 112.458L57.4 95.3348Z" fill="#FED4BA"/>
<path d="M84.7853 38.8246C80.3537 35.4145 74.9284 33.5664 69.3477 33.566L87.9631 66.5331H120.803L84.7853 38.8246Z" fill="#FEB7A0"/>
<path d="M69.3476 33.566C69.3462 33.566 69.3462 61.3226 69.3462 61.3226C69.3462 65.9543 74.3329 68.8489 78.3226 66.5334H98.7498L78.1683 38.825C75.6363 35.4145 72.5362 33.5664 69.3476 33.566Z" fill="#FED4BA"/>
<path d="M112.871 119.791V151.135C121.313 148.193 127.366 140.132 127.366 130.637V119.791H112.871Z" fill="#FEB7A0"/>
<path d="M116.579 119.791H105.792V145.984C105.792 149.676 109.401 152.344 112.871 151.135C115.031 148.193 116.579 140.132 116.579 130.637V119.791Z" fill="#FED4BA"/>
<path d="M35.5798 81.6567C34.6773 81.2868 33.7939 80.8538 32.936 80.3559C32.936 80.3559 13.4835 69.0641 13.4835 69.0605C10.204 67.1568 6.48364 66.1543 2.69678 66.1543C2.69678 69.9617 3.69347 73.7023 5.5905 76.9997L14.9322 93.2681C14.9322 93.2681 5.5905 109.536 5.58691 109.536C3.69347 112.833 2.69678 116.574 2.69678 120.382C6.48364 120.382 10.204 119.379 13.4835 117.472L32.936 106.18C33.7935 105.682 34.6773 105.25 35.5798 104.88V81.6567Z" fill="#FEF1D4"/>
<path d="M54.5095 106.18V80.3562C48.6922 83.7331 41.6991 84.1658 35.5798 81.6569C33.4404 85.0512 32.2661 89.0401 32.2661 93.2683C32.2661 97.4966 33.4404 101.486 35.5798 104.88C41.6991 102.371 48.6925 102.804 54.5095 106.18Z" fill="#FED4BA"/>
<path d="M148.939 83.6966C148.939 69.1197 137.946 56.8691 123.581 55.5286C121.7 55.388 119.803 55.3077 117.887 55.3077C103.378 55.3077 89.8295 59.416 78.3225 66.5331L48.4461 83.8759C41.2549 88.0503 41.2549 98.4864 48.4461 102.66L78.3225 120.003C89.8295 127.12 103.378 131.229 117.887 131.229C135.212 131.229 151.168 125.371 163.912 115.526L148.939 83.6966Z" fill="#FEF1D4"/>
<path d="M132.759 78.3386C129.781 78.3386 127.366 80.7665 127.366 83.7613V102.775C127.366 105.77 129.781 108.198 132.759 108.198C135.738 108.198 138.153 105.77 138.153 102.775L143.546 93.2684L138.153 83.7617C138.153 80.7665 135.738 78.3386 132.759 78.3386Z" fill="#FF7D6D"/>
<path d="M138.153 86.5786V102.775C138.153 116.09 153.324 123.673 163.913 115.526C169.392 111.293 174.268 106.317 178.414 100.759L138.153 86.5786Z" fill="#FF9A87"/>
<path d="M179.256 86.9076C172.45 77.4205 163.517 69.5782 153.161 64.0789L148.21 105.518C157.303 111.491 170.45 110.925 178.413 100.759C178.694 100.382 178.982 100.011 179.256 99.6289C181.981 95.8301 181.981 90.7064 179.256 86.9076Z" fill="#FEB7A0"/>
<path d="M153.161 64.0788C144.214 59.3278 134.205 56.3244 123.581 55.5291C131.835 56.2991 138.152 63.3388 138.152 71.715V86.5786C138.152 95.072 142.335 101.66 148.21 105.518C157.723 111.765 170.457 104.855 170.512 93.4311C170.513 93.3769 170.513 93.3223 170.513 93.268C170.513 81.0562 163.828 69.8627 153.161 64.0788Z" fill="#FED4BA"/>
<path d="M77.5483 102.775C86.0332 111.306 98.6433 113.122 108.889 108.233V97.3181C98.6433 92.4283 86.0332 94.2441 77.5483 102.775Z" fill="white"/>
<path d="M108.89 97.3166C104.944 95.4368 100.399 98.3853 100.399 102.775C100.399 107.165 104.944 110.113 108.89 108.234C111.67 106.909 114.277 105.09 116.579 102.775C114.277 100.46 111.67 98.6412 108.89 97.3166Z" fill="#FED4BA"/>
<path d="M79.7032 68.8621C79.6808 68.8761 79.7263 68.8489 79.7032 68.8621V68.8621Z" fill="black"/>
<path d="M181.443 85.3216C174.334 75.4111 164.897 67.1842 154.154 61.5305C143.048 55.6859 130.507 52.5965 117.886 52.5965C114.55 52.5965 111.232 52.8115 107.95 53.2316L86.4241 36.6711C81.5496 32.9201 75.4846 30.8544 69.3462 30.8544C67.8569 30.8544 66.6495 32.068 66.6495 33.5657V61.3219C66.6495 64.0792 67.8886 66.5841 70.0143 68.225L53.1628 78.0068C47.3394 81.3869 40.1062 81.3869 34.2846 78.0075L29.2278 75.072C27.938 74.3233 26.2884 74.7673 25.5441 76.0644C24.7995 77.3611 25.2414 79.0194 26.5311 79.7681L31.5879 82.7036C34.9624 84.6622 38.7054 85.7352 42.485 85.9279C41.1137 88.0673 40.3565 90.5896 40.3565 93.2677C40.3565 95.9461 41.1141 98.4691 42.4858 100.609C38.7061 100.801 34.9627 101.873 31.5883 103.832L12.1337 115.125C10.1201 116.296 7.90884 117.078 5.62277 117.44C5.98197 115.142 6.7597 112.918 7.92287 110.892C8.05626 110.661 8.1911 110.427 8.32485 110.194L17.2681 94.6234C17.75 93.7847 17.75 92.7507 17.2681 91.912L7.92502 75.6429C6.76042 73.618 5.98197 71.3951 5.62241 69.0962C7.90848 69.4574 10.1201 70.2393 12.1355 71.4088V71.3832C12.518 71.6406 17.1901 74.3454 17.1901 74.3454C18.4799 75.0945 20.1292 74.6502 20.8742 73.3538C21.6192 72.057 21.1773 70.3988 19.8875 69.6501C17.129 68.0479 15.0288 66.8281 14.8569 66.7272C14.8487 66.7222 14.8404 66.7175 14.8321 66.7128C11.1474 64.5741 6.95134 63.4436 2.69705 63.4436C1.20776 63.4436 0.000359558 64.6572 0.000359558 66.155C0.000359558 70.4353 1.12614 74.6552 3.25544 78.356L11.8187 93.2684C8.57978 98.9091 3.51253 107.732 3.27018 108.15C3.26407 108.16 3.25796 108.171 3.2522 108.181C1.12434 111.886 0 116.104 0 120.382C0 121.88 1.2074 123.093 2.69669 123.093C6.95422 123.093 11.151 121.961 14.8318 119.82L34.2846 108.528C39.5126 105.493 45.8793 105.184 51.3395 107.6L49.0146 116.324C48.6989 117.509 49.2142 118.76 50.2713 119.374L71.4248 131.654C75.8024 134.348 80.4443 136.673 85.2225 138.565C85.5422 138.692 85.8769 138.753 86.2102 138.753C86.8096 138.753 87.4029 138.552 87.8876 138.165L96.796 131.053C98.8739 131.637 100.974 132.134 103.096 132.541V145.984C103.096 148.62 104.374 151.109 106.514 152.64C107.903 153.634 109.505 154.145 111.132 154.145C112.008 154.145 112.892 153.997 113.754 153.697C122.764 150.557 129.038 142.411 129.945 132.996C138.394 131.674 146.606 128.979 154.154 125.006C164.897 119.353 174.334 111.126 181.443 101.215C184.853 96.4617 184.852 90.0748 181.443 85.3216ZM72.0429 36.4415C76.0581 36.9303 79.9241 38.4982 83.1464 40.9778L100.727 54.5023C92.3554 56.3862 84.325 59.6456 76.9638 64.1905C75.4846 65.0426 74.1794 64.4707 73.6864 64.1844C73.192 63.8977 72.0429 63.0445 72.0429 61.3219V36.4415ZM111.988 148.573C111.194 148.849 110.339 148.722 109.641 148.222C108.909 147.698 108.489 146.883 108.489 145.984V133.38C111.584 133.75 114.717 133.94 117.886 133.94C120.072 133.94 122.254 133.841 124.428 133.658C123.338 140.474 118.613 146.264 111.988 148.573ZM117.886 128.517C106.624 128.517 95.8244 126.004 85.7863 121.047C84.4502 120.387 82.834 120.941 82.177 122.285C81.5205 123.629 82.0721 125.254 83.4089 125.914C85.7816 127.086 88.1961 128.123 90.6443 129.04L85.764 132.936C81.7715 131.268 77.8918 129.278 74.2118 127.011C74.1916 126.999 74.1715 126.986 74.1513 126.974L54.7596 115.718L56.2051 110.295L73.086 120.094C74.3757 120.842 76.025 120.398 76.7696 119.102C77.5143 117.805 77.0724 116.147 75.7827 115.398L49.7949 100.312C47.2621 98.8422 45.7498 96.2086 45.7498 93.2684C45.7498 90.3282 47.2621 87.6946 49.7949 86.2243L79.7036 68.8623C91.1513 61.7818 104.376 58.0199 117.887 58.0199C119.821 58.0199 121.745 58.1052 123.658 58.2592C130.324 59.0509 135.456 64.8409 135.456 71.7158V76.0944C134.613 75.7933 133.705 75.628 132.76 75.628C128.299 75.628 124.67 79.2772 124.67 83.7621V102.776C124.67 107.261 128.299 110.91 132.76 110.91C134.23 110.91 135.61 110.511 136.799 109.819C138.479 114.032 141.657 117.546 145.89 119.642C147.167 120.274 148.488 120.748 149.829 121.072C139.994 125.895 129.085 128.517 117.886 128.517ZM135.456 83.7617V102.775C135.456 104.271 134.246 105.487 132.759 105.487C131.272 105.487 130.063 104.271 130.063 102.775V83.7617C130.063 82.2665 131.272 81.0504 132.759 81.0504C134.246 81.0504 135.456 82.2665 135.456 83.7617ZM161.46 113.953C157.472 116.604 152.614 116.926 148.273 114.777C143.624 112.475 140.849 107.988 140.849 102.775V102.415C143.849 106.215 147.977 109.146 152.921 110.77C155.604 111.651 158.317 112.078 160.981 112.078C162.034 112.078 163.078 112.007 164.11 111.875C163.242 112.589 162.358 113.282 161.46 113.953ZM177.068 98.0429C176.882 98.3028 176.688 98.5559 176.498 98.8129C170.243 107.062 161.118 107.757 154.596 105.615C146.245 102.872 140.849 95.3995 140.849 86.579V71.7154C140.849 67.6271 139.546 63.8145 137.333 60.6943C153.142 65.1138 167.268 74.8316 177.068 88.4943C179.117 91.3495 179.117 95.187 177.068 98.0429Z" fill="black"/>
<path d="M118.486 104.693C119.539 103.633 119.539 101.917 118.486 100.858C106.674 88.9816 87.454 88.9816 75.6418 100.858C75.1359 101.367 74.8518 102.056 74.8518 102.775C74.8518 103.495 75.1359 104.184 75.6418 104.693C81.5479 110.631 89.3057 113.6 97.0639 113.6C104.822 113.6 112.58 110.631 118.486 104.693ZM112.535 102.775C103.508 109.98 90.6195 109.98 81.5932 102.775C90.6195 95.5698 103.508 95.5698 112.535 102.775Z" fill="black"/>
</g>
<defs>
<clipPath id="clip0_2_42567">
<rect width="184" height="185" fill="white"/>
</clipPath>
</defs>
</svg>
