<svg width="184" height="185" viewBox="0 0 184 185" fill="none" xmlns="http://www.w3.org/2000/svg">
<g clip-path="url(#clip0_2_43000)">
<path d="M94.1661 12.2595C91.0748 9.15133 86.8819 7.40503 82.5098 7.40503L96.0816 37.1438H118.916L94.1661 12.2595Z" fill="#C2F0FC"/>
<path d="M82.5098 7.40479V26.6733C82.5098 33.8009 89.234 38.9885 96.0816 37.1439H100.713L88.3381 12.2596C86.7924 9.15108 84.6958 7.40479 82.5098 7.40479Z" fill="#E5FAFF"/>
<path d="M50.7097 44.4369L35.0392 35.3401C31.7613 33.4337 28.0429 32.4321 24.2579 32.4321C24.2579 36.2376 25.2541 39.9763 27.1466 43.272C27.1502 43.272 33.3749 54.1118 33.3749 54.1118L27.1502 64.9517C25.2541 68.2473 24.2579 71.986 24.2579 75.7915C28.0429 75.7915 31.7613 74.7899 35.0392 72.8868C35.0392 72.8843 48.5402 65.0434 50.7033 63.7875C54.4181 61.6307 58.8345 61.045 62.9781 62.1611L62.9817 46.0603C58.8384 47.1772 54.4242 46.5929 50.7097 44.4369Z" fill="#C2F0FC"/>
<path d="M99.1901 56.7419L77.0735 80.1827C79.0982 81.7325 80.5246 83.9232 81.1988 86.3351C82.1227 89.6416 85.7438 91.3474 88.7923 89.7984C95.4541 86.4135 100.988 80.7027 104.073 73.2167L99.1901 56.7419Z" fill="#C2F0FC"/>
<path d="M94.1118 69.0686L99.1901 56.7419H64.422L60.1871 72.6321L74.675 78.7822C75.5475 79.1526 76.3497 79.6256 77.0745 80.1813C78.7172 81.4405 80.9292 81.6479 82.7731 80.711L83.9292 80.1235C88.5195 77.7915 92.1356 73.8653 94.1118 69.0686Z" fill="#E5FAFF"/>
<path d="M121.928 64.323V95.6509C130.366 92.7104 136.416 84.6535 136.416 75.1628V64.323H121.928Z" fill="#C2F0FC"/>
<path d="M125.635 64.323H114.854V90.5019C114.854 94.1922 118.461 96.8591 121.929 95.6509C124.087 92.7104 125.635 84.6535 125.635 75.1628V64.323Z" fill="#E5FAFF"/>
<path d="M76.9984 42.2847L52.5303 48.8764C47.2029 50.3116 47.2029 57.9117 52.5303 59.3469L100.256 72.2044C108.315 74.5365 116.829 75.7913 125.635 75.7913C129.211 75.7913 132.737 75.5818 136.206 75.1811V42.2847H76.9984Z" fill="#FF6053"/>
<path d="M179.063 49.7112C173.429 45.6386 167.317 42.1926 160.828 39.4751V68.7438C167.317 66.0273 173.43 62.5846 179.063 58.5124C182.052 56.352 182.052 51.8719 179.063 49.7112Z" fill="#57DCFF"/>
<path d="M170.524 54.1121C170.524 47.714 166.702 41.9375 160.827 39.4775C149.992 34.9396 138.105 32.4324 125.635 32.4324C116.829 32.4324 108.315 33.6873 100.256 36.0193L76.9983 42.2851C74.1226 43.0598 72.416 46.0317 73.1865 48.923C73.957 51.8144 76.9128 53.5303 79.7885 52.7553L103.238 46.436C106.636 45.4525 110.096 44.6962 113.596 44.1701C119.935 43.2169 125.635 48.1577 125.635 54.602V65.5441C125.635 71.2365 130.598 75.7123 136.206 75.1815C144.847 74.1828 153.121 71.974 160.859 68.731C166.702 66.2411 170.524 60.5003 170.524 54.1121Z" fill="#99EAFF"/>
<path d="M148.961 57.5481C154.915 57.5481 159.742 52.6949 159.742 46.7083C159.742 40.7216 154.915 35.8684 148.961 35.8684C143.007 35.8684 138.18 40.7216 138.18 46.7083C138.18 52.6949 143.007 57.5481 148.961 57.5481Z" fill="#E5FAFF"/>
<path d="M72.604 93.9047C69.5126 90.7966 65.3198 89.0503 60.9476 89.0503L74.5194 118.789H97.3541L72.604 93.9047Z" fill="#C2F0FC"/>
<path d="M60.9476 89.0503V108.318C60.9476 115.446 67.6719 120.634 74.5194 118.789H79.1511L66.776 93.9047C65.2299 90.7962 63.1334 89.0503 60.9476 89.0503Z" fill="#E5FAFF"/>
<path d="M29.1471 126.082L13.4766 116.985C10.1987 115.079 6.48025 114.077 2.69531 114.077C2.69531 117.883 3.6915 121.622 5.58397 124.917C5.58756 124.917 11.8123 135.757 11.8123 135.757L5.58756 146.597C3.6915 149.893 2.69531 153.631 2.69531 157.437C6.48025 157.437 10.1987 156.435 13.4766 154.532C13.4766 154.53 26.9776 146.689 29.1406 145.433C32.8555 143.276 37.2719 142.69 41.4154 143.806L41.419 127.706C37.2758 128.822 32.8616 128.238 29.1471 126.082Z" fill="#C2F0FC"/>
<path d="M77.628 138.387L55.5114 161.828C57.5361 163.378 58.9624 165.568 59.6366 167.98C60.5606 171.287 64.1816 172.993 67.2302 171.444C73.8919 168.059 79.4263 162.348 82.5105 154.862L77.628 138.387Z" fill="#C2F0FC"/>
<path d="M72.5493 150.714L77.6276 138.387H42.8595L38.6246 154.277L53.1125 160.427C53.985 160.798 54.7872 161.271 55.512 161.827C57.1547 163.086 59.3667 163.293 61.2106 162.356L62.3667 161.769C66.957 159.437 70.5731 155.511 72.5493 150.714Z" fill="#E5FAFF"/>
<path d="M100.366 145.968V177.296C108.804 174.356 114.854 166.299 114.854 156.808V145.968H100.366Z" fill="#C2F0FC"/>
<path d="M104.073 145.968H93.2914V172.147C93.2914 175.837 96.8984 178.504 100.366 177.296C102.525 174.356 104.073 166.299 104.073 156.808V145.968Z" fill="#E5FAFF"/>
<path d="M55.4362 123.93L30.9682 130.522C25.6408 131.957 25.6408 139.557 30.9682 140.992L78.6939 153.85C86.7533 156.182 95.2665 157.437 104.073 157.437C107.648 157.437 111.175 157.227 114.644 156.827V123.93H55.4362Z" fill="#FF6053"/>
<path d="M157.501 131.356C151.867 127.284 145.755 123.838 139.265 121.12V150.389C145.754 147.673 151.867 144.23 157.501 140.158C160.489 137.997 160.489 133.517 157.501 131.356Z" fill="#0CC9FA"/>
<path d="M148.961 135.758C148.961 129.36 145.139 123.583 139.265 121.123C128.43 116.585 116.543 114.078 104.072 114.078C95.2661 114.078 86.7529 115.333 78.6935 117.665L55.4358 123.931C52.5601 124.705 50.8535 127.677 51.624 130.569C52.3945 133.46 55.3503 135.176 58.226 134.401L81.6753 128.082C85.0739 127.098 88.5339 126.342 92.0339 125.816C98.3729 124.862 104.072 129.803 104.072 136.248V147.19C104.072 152.882 109.035 157.358 114.644 156.827C123.284 155.828 131.558 153.619 139.296 150.377C145.14 147.887 148.961 142.146 148.961 135.758Z" fill="#57DCFF"/>
<path d="M127.399 139.193C133.353 139.193 138.18 134.34 138.18 128.354C138.18 122.367 133.353 117.514 127.399 117.514C121.445 117.514 116.618 122.367 116.618 128.354C116.618 134.34 121.445 139.193 127.399 139.193Z" fill="#E5FAFF"/>
<path d="M180.637 47.511C164.537 35.8737 145.518 29.7225 125.635 29.7225C122.359 29.7225 119.094 29.893 115.852 30.2305L96.0717 10.343C92.4492 6.7008 87.6329 4.69507 82.5096 4.69507C81.0211 4.69507 79.8143 5.90805 79.8143 7.40503V26.6732C79.8143 30.8708 81.6946 34.7453 84.9739 37.3306L62.2797 43.4446C58.8042 44.3797 55.1738 43.8988 52.0573 42.09L36.3885 32.9943C32.7078 30.8534 28.5128 29.7217 24.2578 29.7217C22.7693 29.7217 21.5625 30.9347 21.5625 32.4317C21.5625 36.7069 22.6863 40.924 24.8123 44.6265C24.8188 44.6374 24.8253 44.6489 24.8317 44.6598C25.0244 44.9907 28.313 50.7167 30.2626 54.1117L24.817 63.5948C22.6877 67.2959 21.5625 71.5133 21.5625 75.7914C21.5625 77.2884 22.7693 78.5014 24.2578 78.5014C28.5099 78.5014 32.7038 77.3715 36.3867 75.2339C36.3997 75.2263 36.4122 75.2191 36.4245 75.2115C36.7637 75.0117 42.0199 71.9585 52.0508 66.1346C54.3375 64.8067 56.9854 64.1921 59.6052 64.3467L57.5841 71.9303C57.2359 73.2372 57.8996 74.6023 59.1391 75.1284L73.6273 81.2786C76.0491 82.3069 77.8633 84.4167 78.6039 87.0674C79.2738 89.4648 80.9449 91.4088 83.1892 92.4017C84.2185 92.857 85.3117 93.0839 86.4042 93.0839C87.639 93.0839 88.8724 92.7937 90.0083 92.2167C96.7912 88.7703 102.257 83.1849 105.609 76.3504C107.777 76.8223 109.961 77.2172 112.159 77.5341V90.5018C112.159 93.1374 113.436 95.6247 115.575 97.1553C116.964 98.149 118.564 98.6595 120.19 98.6595C121.066 98.6592 121.95 98.5114 122.811 98.2111C131.804 95.0773 138.071 86.9529 138.99 77.5591C153.985 75.4297 168.185 69.7139 180.637 60.7128C182.775 59.1674 184 56.7614 184 54.1114C184 51.4614 182.774 49.056 180.637 47.511ZM148.961 38.5783C153.419 38.5783 157.047 42.2255 157.047 46.7081C157.047 51.1908 153.419 54.838 148.961 54.838C144.503 54.838 140.875 51.1908 140.875 46.7081C140.875 42.2255 144.503 38.5783 148.961 38.5783ZM85.2049 10.378C87.8607 10.9041 90.303 12.2074 92.2602 14.1756L109.162 31.1692C105.916 31.7452 102.703 32.4917 99.535 33.4076L95.3835 34.526C92.9362 35.1847 90.3792 34.6737 88.3685 33.1229C86.3582 31.5717 85.2049 29.2209 85.2049 26.6729V10.378ZM49.8719 61.1544C49.6987 61.248 49.5258 61.3419 49.3551 61.4413L34.9675 69.7974C34.4741 70.0839 34.054 70.3282 33.7043 70.5634L33.691 70.5406C31.6768 71.7095 29.4662 72.4911 27.1813 72.852C27.5407 70.5543 28.3191 68.3315 29.4838 66.3069L35.7086 55.4671C36.1901 54.6288 36.1901 53.5954 35.7086 52.7571L29.4723 41.9216C28.318 39.8917 27.5407 37.6688 27.1817 35.3718C29.467 35.7332 31.6775 36.5158 33.6914 37.6869L49.3623 46.7837C49.5327 46.8823 49.7059 46.9726 49.8784 47.0658C47.4012 48.4819 45.8401 51.1095 45.8401 54.1121C45.8397 57.1119 47.3983 59.7373 49.8719 61.1544ZM87.5765 87.38C86.6223 87.8649 85.7785 87.6264 85.3598 87.4414C84.5965 87.1035 84.0258 86.4333 83.7933 85.6022C82.6063 81.3544 79.6652 77.959 75.7239 76.2861L63.3984 71.0541L64.8837 65.4809L99.535 74.8162C99.7665 74.8831 99.9993 74.9456 100.231 75.011C97.3647 80.3127 92.961 84.644 87.5765 87.38ZM121.045 93.09C120.252 93.3657 119.397 93.2382 118.7 92.7392C117.969 92.216 117.549 91.4001 117.549 90.5018V78.1542C120.232 78.3843 122.93 78.5014 125.635 78.5014C128.267 78.5014 130.883 78.3905 133.479 78.1766C132.391 84.9912 127.669 90.7819 121.045 93.09ZM177.49 56.3119C165.168 65.219 151.031 70.7166 136.115 72.4697C134.144 72.6992 132.161 72.0629 130.665 70.7238C129.181 69.3952 128.331 67.5076 128.331 65.5438V54.6021C128.331 50.7402 126.661 47.0789 123.751 44.5575C120.842 42.0369 116.995 40.9197 113.198 41.4898C109.6 42.0307 106.006 42.8166 102.516 43.8251L96.0228 45.5754C94.585 45.9627 93.7318 47.4489 94.1171 48.8945C94.5023 50.3402 95.9794 51.1998 97.4183 50.8106L103.936 49.0542C103.952 49.0499 103.968 49.0456 103.984 49.0409C107.254 48.0949 110.623 47.3582 113.996 46.8509C116.239 46.5141 118.513 47.1746 120.232 48.664C121.954 50.1548 122.94 52.3192 122.94 54.6028V65.5445C122.94 68.2827 123.863 70.9301 125.517 73.0811C117.194 73.0699 108.947 71.8999 101.002 69.6012C100.987 69.5965 100.97 69.5921 100.955 69.5878L53.2285 56.7303C51.3748 56.2306 51.2307 54.5999 51.2307 54.1125C51.2307 53.625 51.3748 51.9944 53.2281 51.4946L70.3401 46.8845C70.269 47.7824 70.3387 48.7059 70.5834 49.6248C71.1426 51.7223 72.4805 53.4754 74.3507 54.5612C75.5967 55.2843 76.9792 55.6539 78.3804 55.6535C79.083 55.6535 79.7899 55.5607 80.4867 55.3731L87.0043 53.6167C88.4422 53.2294 89.2953 51.7432 88.9097 50.2976C88.5245 48.8519 87.0457 47.993 85.6085 48.3814L79.0909 50.1379C78.3948 50.325 77.6692 50.2289 77.0461 49.8672C76.4225 49.5052 75.9765 48.9209 75.79 48.2214C75.4055 46.7782 76.2605 45.2896 77.6962 44.9022C77.6969 44.9019 100.954 38.6364 100.954 38.6364C100.97 38.6321 100.986 38.6278 101.002 38.6231C108.984 36.3131 117.272 35.142 125.635 35.142C130.589 35.142 135.486 35.5503 140.291 36.3496C137.355 38.8359 135.485 42.555 135.485 46.7081C135.485 54.1797 141.53 60.2579 148.961 60.2579C156.392 60.2579 162.438 54.1797 162.438 46.7081C162.438 45.3774 162.243 44.0925 161.885 42.877C167.334 45.3279 172.557 48.346 177.49 51.9116C178.201 52.4258 178.61 53.2276 178.61 54.1114C178.609 54.9959 178.201 55.7977 177.49 56.3119Z" fill="black"/>
<path d="M148.961 49.4182C150.45 49.4182 151.656 48.2049 151.656 46.7083C151.656 45.2116 150.45 43.9983 148.961 43.9983C147.472 43.9983 146.266 45.2116 146.266 46.7083C146.266 48.2049 147.472 49.4182 148.961 49.4182Z" fill="black"/>
<path d="M159.074 129.156C142.975 117.519 123.956 111.368 104.073 111.368C100.797 111.368 97.532 111.538 94.2897 111.876L74.5097 91.9883C70.8868 88.3461 66.0705 86.3403 60.9476 86.3403C59.4591 86.3403 58.2523 87.5533 58.2523 89.0503V108.318C58.2523 112.516 60.1325 116.391 63.4118 118.976L40.7173 125.09C37.2418 126.025 33.6114 125.544 30.4949 123.735L14.8258 114.64C11.1447 112.499 6.95007 111.367 2.69507 111.367C1.20654 111.367 -0.000244141 112.58 -0.000244141 114.077C-0.000244141 118.353 1.12352 122.57 3.24958 126.272C3.25605 126.283 3.26216 126.294 3.26863 126.305C3.45946 126.633 6.74918 132.361 8.69951 135.757L3.25462 145.24C1.12532 148.942 0.000115234 153.159 0.000115234 157.437C0.000115234 158.934 1.2069 160.147 2.69543 160.147C6.94791 160.147 11.1418 159.017 14.8243 156.879L14.8617 156.857C15.1999 156.658 20.4561 153.604 30.4884 147.78C32.7755 146.452 35.4241 145.838 38.0428 145.992L36.0217 153.576C35.6735 154.882 36.3372 156.248 37.5767 156.774L52.0646 162.924C54.4868 163.952 56.3005 166.062 57.0412 168.713C57.7111 171.11 59.3825 173.054 61.6265 174.047C62.6557 174.503 63.7489 174.729 64.8414 174.729C66.0762 174.729 67.3096 174.439 68.4456 173.862C75.2288 170.415 80.6945 164.83 84.0461 157.995C86.2142 158.467 88.3985 158.862 90.596 159.179V172.147C90.596 174.782 91.8733 177.269 94.0123 178.8C95.4012 179.794 97.0015 180.304 98.6281 180.304C99.5039 180.304 100.388 180.156 101.249 179.856C110.242 176.722 116.508 168.598 117.428 159.204C132.423 157.075 146.622 151.359 159.074 142.358C161.212 140.812 162.438 138.406 162.438 135.756C162.438 133.106 161.211 130.701 159.074 129.156ZM127.399 120.224C131.857 120.224 135.484 123.871 135.484 128.353C135.484 132.836 131.857 136.483 127.399 136.483C122.94 136.483 119.313 132.836 119.313 128.353C119.313 123.871 122.94 120.224 127.399 120.224ZM63.6429 92.0233C66.2987 92.5494 68.741 93.8527 70.6982 95.8209L87.5999 112.815C84.3541 113.391 81.1402 114.138 77.9716 115.054L73.8215 116.172C71.3741 116.831 68.8172 116.319 66.8065 114.769C64.7962 113.217 63.6429 110.867 63.6429 108.318V92.0233ZM28.3099 142.8C28.1367 142.893 27.9638 142.987 27.7931 143.087L13.4055 151.443C12.9121 151.729 12.492 151.973 12.1423 152.209L12.129 152.186C10.1151 153.355 7.90457 154.137 5.61966 154.498C5.97904 152.2 6.75744 149.977 7.92218 147.953L14.1469 137.112C14.6285 136.274 14.6285 135.241 14.1469 134.402L7.90996 123.567C6.75565 121.537 5.97832 119.314 5.6193 117.017C7.90457 117.379 10.1151 118.161 12.129 119.332L27.7999 128.429C27.9692 128.527 28.1399 128.621 28.3113 128.714C25.837 130.13 24.2773 132.756 24.2773 135.757C24.2773 138.757 25.8363 141.383 28.3099 142.8ZM66.0141 169.025C65.0599 169.51 64.2161 169.272 63.7974 169.087C63.0341 168.749 62.4631 168.079 62.2309 167.247C61.0443 163 58.1028 159.604 54.1612 157.931L41.836 152.699L43.3213 147.126L77.9712 156.461C78.203 156.528 78.4362 156.591 78.6687 156.656C75.8024 161.958 71.3989 166.289 66.0141 169.025ZM99.483 174.735C98.6913 175.011 97.8356 174.884 97.1381 174.384C96.4064 173.861 95.9867 173.045 95.9867 172.147V159.799C98.6701 160.03 101.368 160.147 104.073 160.147C106.704 160.147 109.32 160.036 111.917 159.822C110.829 166.636 106.107 172.427 99.483 174.735ZM155.928 137.957C143.606 146.864 129.469 152.361 114.553 154.115C112.582 154.345 110.598 153.708 109.102 152.369C107.619 151.04 106.768 149.153 106.768 147.189V136.247C106.768 132.385 105.099 128.724 102.189 126.202C99.2789 123.683 95.4322 122.565 91.6361 123.135C88.0377 123.676 84.4435 124.462 80.954 125.47L74.4608 127.22C73.023 127.608 72.1698 129.094 72.5551 130.539C72.9407 131.985 74.4195 132.844 75.8563 132.456L82.3739 130.7C82.3897 130.695 82.4059 130.691 82.4217 130.686C85.692 129.74 89.0604 129.003 92.4335 128.496C94.6771 128.159 96.9505 128.82 98.6701 130.309C100.391 131.8 101.378 133.964 101.378 136.248V147.19C101.378 149.928 102.3 152.575 103.954 154.726C95.632 154.715 87.3847 153.545 79.4396 151.246C79.4238 151.242 79.4076 151.237 79.3918 151.233L31.6657 138.375C29.8121 137.875 29.668 136.244 29.668 135.757C29.668 135.27 29.8121 133.639 31.6657 133.139L48.7792 128.529C48.708 129.427 48.7763 130.35 49.021 131.269C49.5802 133.367 50.9182 135.12 52.7884 136.206C54.0343 136.929 55.4168 137.298 56.818 137.298C57.5206 137.298 58.2275 137.205 58.9243 137.018L65.4419 135.262C66.8798 134.874 67.733 133.388 67.3477 131.942C66.9625 130.497 65.4836 129.638 64.0465 130.026L57.5289 131.782C56.8335 131.97 56.1072 131.873 55.4837 131.512C54.8602 131.15 54.4142 130.565 54.228 129.866C53.8435 128.423 54.6984 126.934 56.1338 126.547C56.1348 126.546 79.3914 120.281 79.3914 120.281C79.4073 120.277 79.4234 120.272 79.4392 120.268C87.422 117.958 95.7099 116.787 104.073 116.787C109.025 116.787 113.918 117.201 118.72 117.999C115.788 120.487 113.922 124.204 113.922 128.353C113.922 135.825 119.967 141.903 127.399 141.903C134.83 141.903 140.875 135.825 140.875 128.353C140.875 127.024 140.682 125.741 140.325 124.527C145.772 126.977 150.996 129.992 155.928 133.557C156.639 134.071 157.047 134.873 157.047 135.757C157.047 136.641 156.639 137.443 155.928 137.957Z" fill="black"/>
<path d="M127.399 131.063C128.887 131.063 130.094 129.85 130.094 128.354C130.094 126.857 128.887 125.644 127.399 125.644C125.91 125.644 124.703 126.857 124.703 128.354C124.703 129.85 125.91 131.063 127.399 131.063Z" fill="black"/>
</g>
<defs>
<clipPath id="clip0_2_43000">
<rect width="184" height="185" fill="white"/>
</clipPath>
</defs>
</svg>
