<svg width="185" height="184" viewBox="0 0 185 184" fill="none" xmlns="http://www.w3.org/2000/svg">
<g clip-path="url(#clip0_2_43227)">
<path d="M101.591 57.4608C101.953 57.8022 101.852 58.3951 101.4 58.6C93.4254 62.2476 97.7143 72.0011 97.7143 72.0011L82.7734 58.6611C77.5269 46.8251 81.5742 31.3522 91.6513 31.3522C92.8003 33.2497 94.9177 34.5506 97.4723 34.6908C98.0106 34.7195 98.3033 35.3269 98.0034 35.7725C95.5355 39.4489 97.2591 44.4298 101.49 46.1009C102.011 46.3058 102.115 46.9994 101.656 47.3192C98.2961 49.6516 98.278 54.3594 101.591 57.4608Z" fill="#5C85DA"/>
<path d="M82.7734 58.6612L63.4026 41.3681L89.794 25.9688C90.3071 25.6706 90.9502 26.1018 90.8418 26.684C90.5203 28.4054 90.8491 30.0262 91.6512 31.3523C83.7743 36.6566 81.5232 46.7084 82.7734 58.6612Z" fill="#4677D5"/>
<path d="M37.8722 93.7276C33.6888 92.4802 31.3141 88.0961 32.5683 83.9353C33.8225 79.7745 40.3445 70.3984 44.5279 71.6458C48.7114 72.8931 48.9719 84.2914 47.7177 88.4523C46.4635 92.6131 42.0557 94.9746 37.8722 93.7276Z" fill="#4677D5"/>
<path d="M95.0406 142.992C92.8437 142.6 90.3144 142.463 87.6695 142.938C78.5781 137.977 81.0124 120.284 89.0497 114.461L99.1416 121.188C97.6457 127.567 98.437 133.562 99.6294 138.014C100.388 140.843 97.9348 143.509 95.0406 142.992Z" fill="#5C85DA"/>
<path d="M87.6695 142.938C86.3651 143.168 85.0281 143.549 83.6912 144.12C80.2803 145.583 76.4032 143.574 75.7312 139.941C72.9923 125.138 81.9749 109.746 81.9749 109.746L89.0497 114.461C84.0959 124.028 82.759 136.243 87.6695 142.938Z" fill="#4677D5"/>
<path d="M143.032 85.1039C141.294 89.1217 141.308 93.1216 141.897 96.3883C142.417 99.2669 139.736 101.707 136.893 100.952C132.416 99.7664 126.389 98.9794 119.975 100.467L116.218 94.8897C114.624 85.7781 127.545 76.1443 142.273 79.2353C143.534 80.8202 143.924 83.0447 143.032 85.1039Z" fill="#5C85DA"/>
<path d="M142.273 79.2354C127.888 80.3674 120.051 87.7418 116.218 94.8897L108.471 83.3933C108.471 83.3933 123.946 74.4593 138.829 77.1833C140.271 77.4457 141.456 78.204 142.273 79.2354Z" fill="#4677D5"/>
<path d="M162.876 146.989C168.76 145.512 174.82 142.433 180.821 137.307C182.821 135.599 182.767 132.517 180.732 130.851C172.829 124.382 158.796 117.223 137.452 124.441L125.118 136.709C117.86 157.937 125.058 171.895 131.562 179.755C133.236 181.779 136.336 181.833 138.053 179.844C143.207 173.875 146.303 167.848 147.788 161.996C149.668 154.586 155.426 148.86 162.876 146.989Z" fill="#5C85DA"/>
<path d="M140.199 133.54L134.27 139.441C132.094 141.605 128.608 141.727 126.288 139.714C119.694 133.993 112.189 129.371 104.07 126.051C100.496 124.577 97.0419 122.852 93.7322 120.894C62.6608 97.2829 51.5189 48.8592 72.2548 40.728L109.345 77.6143C116.796 85.0282 122.703 93.8257 126.736 103.507C130.075 111.582 134.721 119.047 140.474 125.605C142.497 127.909 142.374 131.38 140.199 133.54Z" fill="#91D4F2"/>
<path d="M93.7324 120.894C88.027 117.516 82.7517 113.444 78.0363 108.754L32.1549 63.117C27.5624 58.5494 23.4216 53.5756 19.7866 48.2569C26.3014 44.7494 28.6428 40.8502 33.1124 39.56C37.2749 38.3597 40.5305 35.1217 41.7228 30.9745C43.0598 26.317 44.1257 23.4205 48.8916 19.2913C52.7145 21.8967 56.2952 24.8544 59.5905 28.1319L72.2551 40.728C57.7622 51.6821 68.5334 95.4072 93.7324 120.894Z" fill="#59C2E8"/>
<path d="M76.9669 76.8312C73.7872 76.1484 70.8857 75.2284 68.2408 74.1538C52.94 64.248 56.7596 50.5357 63.2256 51.6677C71.2073 57.9388 76.8982 67.6851 79.7274 73.2878C80.6705 75.1529 79.0156 77.2732 76.9669 76.8312Z" fill="#5C85DA"/>
<path d="M68.2409 74.1537C54.1165 68.4002 47.4428 58.1652 45.9397 55.5848C45.7663 55.2866 45.9289 54.9128 46.2613 54.823C52.2196 53.2633 53.5818 48.843 53.8817 47.2473C53.9431 46.9419 54.2611 46.7514 54.5574 46.852C57.6829 47.8906 60.5807 49.5869 63.2256 51.6677C58.6548 53.5292 58.4127 65.1334 68.2409 74.1537Z" fill="#4677D5"/>
<path d="M48.8917 19.2916C48.6821 25.3147 46.8104 32.1824 45.4735 36.8399C44.2811 40.9871 41.0256 44.225 36.8631 45.4254C32.3934 46.7155 25.8715 48.3866 19.7867 48.2572C15.9711 42.6905 12.7083 36.75 10.0489 30.5221L3.44381 15.051C0.314713 7.71254 7.75446 0.313012 15.1328 3.4252L35.7285 12.1221C40.3571 14.0771 44.7653 16.4813 48.8917 19.2916Z" fill="#00AEDE"/>
<path d="M77.5143 79.5893C79.1031 79.5893 80.6087 78.8677 81.6147 77.5764C82.8547 75.984 83.0607 73.8767 82.152 72.0776C77.7647 63.3926 68.372 48.2076 54.7586 44.0891C53.9525 43.8462 53.0813 43.9346 52.3962 44.4226C51.7111 44.91 51.2956 45.6334 51.2674 46.4707C51.2255 46.9447 50.6947 51.1379 45.0371 52.3501C44.2161 52.5258 43.5235 53.0706 43.1621 53.8243C42.8004 54.5782 42.8106 55.4562 43.1899 56.2015C43.5661 56.9415 52.6766 74.3744 76.3935 79.47C76.7682 79.5498 77.1436 79.5893 77.5143 79.5893ZM49.7271 56.4193C52.9498 54.8596 54.8146 52.432 55.7887 50.2287C66.3236 54.9875 73.9921 68.0171 77.1111 74.1067C61.5946 70.634 53.0791 61.0948 49.7271 56.4193Z" fill="black"/>
<path d="M30.3223 24.9284C29.264 25.981 29.264 27.6873 30.3223 28.7399C30.8513 29.2661 31.545 29.5291 32.2384 29.5291C32.9318 29.5291 33.6256 29.2661 34.1546 28.7396L37.2204 25.6903C38.2788 24.6377 38.2788 22.9314 37.2204 21.8788C36.1621 20.8265 34.4465 20.8261 33.3882 21.8791L30.3223 24.9284Z" fill="black"/>
<path d="M182.454 128.772C179.723 126.536 176.794 124.64 173.747 123.137C172.407 122.474 170.781 123.019 170.116 124.353C169.45 125.686 169.998 127.304 171.338 127.965C174.016 129.287 176.597 130.958 179.01 132.934C179.499 133.335 179.577 133.845 179.58 134.113C179.583 134.373 179.519 134.869 179.056 135.264C173.682 139.855 168.015 142.922 162.214 144.377C153.816 146.486 147.282 152.984 145.162 161.337C143.698 167.107 140.615 172.743 135.999 178.089C135.602 178.549 135.114 178.611 134.841 178.61C134.572 178.607 134.059 178.529 133.656 178.042C125.429 168.099 122.914 156.277 126.15 142.856C127.394 143.505 128.76 143.836 130.129 143.836C132.33 143.836 134.526 143.001 136.186 141.35L142.119 135.45C144.81 132.773 145.334 128.696 143.632 125.47C149.39 124.103 154.909 123.775 160.08 124.499C161.565 124.707 162.933 123.68 163.141 122.206C163.35 120.732 162.318 119.369 160.836 119.161C154.276 118.243 147.282 118.808 140.021 120.835C135.594 115.245 131.975 109.089 129.241 102.481C129.232 102.459 129.222 102.438 129.213 102.417C132.082 102.44 135.026 103.492 137.943 103.789C139.611 103.789 141.234 103.171 142.5 102.012C144.201 100.454 144.973 98.1755 144.566 95.9161C143.93 92.3885 144.252 89.1099 145.523 86.172C146.558 83.7786 146.449 81.0977 145.222 78.8171C144.009 76.5616 141.858 75.0012 139.32 74.5366C129.506 72.7393 119.526 75.6693 113.524 78.0617C112.786 77.2678 112.035 76.4829 111.263 75.7146L99.6069 64.1222C100.147 62.509 101.361 61.4169 103.35 60.7304C104.3 60.4023 104.99 59.5772 105.14 58.5875C105.291 57.5978 104.877 56.6066 104.067 56.0133C102.51 54.8737 101.665 53.222 101.863 51.7022C101.973 50.857 102.452 49.712 104.108 49.0594C105.238 48.6141 105.932 47.4756 105.805 46.2735C105.679 45.071 104.763 44.0997 103.566 43.8966C101.722 43.5839 100.307 42.4084 99.7785 40.7514C99.2973 39.2416 99.6889 37.715 100.853 36.5625C101.671 35.7532 101.883 34.5176 101.383 33.4837C100.883 32.4498 99.7822 31.8421 98.6331 31.9747C96.8117 32.1835 95.1521 31.5557 94.1993 30.2968C93.3202 29.1353 93.1897 27.65 93.8322 26.1158C94.2799 25.0459 93.9901 23.8108 93.1117 23.0489C92.234 22.287 90.9643 22.1681 89.9591 22.7553L69.8259 34.5018L61.5121 26.233C54.3856 19.145 46.0678 13.5646 36.7911 9.64781L16.1976 0.952008C11.746 -0.927883 6.85651 0.0183516 3.43726 3.41876C0.018012 6.81988 -0.932642 11.6829 0.957104 16.1097L7.5611 31.5819C12.9181 44.1331 20.5498 55.3858 30.2446 65.0282L37.2868 72.0324C33.851 75.2553 30.8559 80.2513 29.9775 83.1644C28.2963 88.7419 31.4911 94.6396 37.0986 96.3118C42.5156 98.0566 48.7984 94.6993 50.3178 89.2296C50.6166 88.2381 50.8316 86.9954 50.9584 85.6305L57.7073 92.3429C58.7656 93.3951 60.4812 93.3951 61.5395 92.3429C62.5979 91.2899 62.5979 89.5839 61.5395 88.531L34.0768 61.2167C30.6781 57.836 27.5483 54.2455 24.6938 50.4627C29.5967 50.0757 34.2347 48.9947 37.6214 48.0179C42.7176 46.5484 46.629 42.6485 48.0837 37.5856C49.1232 33.9678 50.3246 29.0641 50.9082 24.0961C53.2756 25.9297 55.5364 27.9123 57.6795 30.0441L107.43 79.5254C114.617 86.6777 120.348 95.1866 124.231 104.536C127.686 112.889 132.465 120.575 138.433 127.379C139.513 128.611 139.448 130.481 138.286 131.637L132.353 137.538C131.19 138.695 129.309 138.759 128.072 137.685C127.506 137.194 126.932 136.714 126.355 136.24C119.941 130.971 112.807 126.711 105.111 123.561C95.7125 119.702 87.1494 114.008 79.9579 106.849L70.4821 97.4241C69.4237 96.3718 67.7081 96.3718 66.6498 97.4241C65.5915 98.477 65.5915 100.183 66.6498 101.236L76.1256 110.661C76.6499 111.182 77.1811 111.694 77.7173 112.2C75.0879 117.966 71.0042 129.271 73.0692 140.428C73.5364 142.953 75.1049 145.092 77.3729 146.299C79.6753 147.524 82.3741 147.623 84.7679 146.597C87.7221 145.333 91.0189 145.014 94.5649 145.646C96.8359 146.051 99.1281 145.283 100.695 143.591C102.266 141.893 102.848 139.549 102.25 137.321C101.371 134.039 100.97 130.814 101.045 127.69C101.707 127.982 102.372 128.267 103.043 128.544C109.683 131.261 115.871 134.861 121.491 139.263C117.011 155.163 119.753 169.722 129.471 181.467C130.785 183.055 132.722 183.978 134.785 183.999C134.809 184 134.834 184 134.858 184C136.88 184 138.791 183.128 140.111 181.6C145.278 175.615 148.746 169.242 150.417 162.656C152.048 156.227 157.077 151.226 163.54 149.604C170.162 147.941 176.57 144.493 182.588 139.353C184.143 138.025 185.021 136.094 185 134.055C184.978 132.004 184.05 130.078 182.454 128.772ZM45.1266 87.6814C44.3793 90.3598 41.3149 92.0015 38.6552 91.1483C35.9098 90.33 34.346 87.4428 35.1687 84.7119C35.8524 82.4446 38.5085 78.2187 41.1133 75.8382L45.5743 80.275C45.8243 83.2974 45.5522 86.2698 45.1266 87.6814ZM42.8726 36.1046C41.9335 39.3728 39.4067 41.8909 36.1125 42.8408C32.2275 43.9609 26.576 45.2295 21.0014 45.218C17.7354 40.254 14.9076 34.9992 12.5503 29.4756L5.94596 14.0034C4.74057 11.1791 5.83937 8.65305 7.26951 7.23029C8.69964 5.80752 11.2398 4.71502 14.0795 5.91354L34.673 14.609C38.5656 16.2528 42.2746 18.2139 45.7842 20.4733C45.4865 26.0073 44.0672 31.9474 42.8726 36.1046ZM88.2392 30.0071C88.5188 31.2743 89.0644 32.4753 89.8684 33.538C91.055 35.1059 92.6759 36.2405 94.5317 36.8608C94.0088 38.6235 94.0204 40.5242 94.6119 42.38C95.2298 44.3181 96.4232 45.9759 97.9983 47.1899C97.1947 48.3058 96.6708 49.6046 96.4879 51.0104C96.1996 53.2281 96.782 55.494 98.0644 57.4414C96.9815 58.2425 96.1703 59.1531 95.5633 60.0997L73.7857 38.4399L88.2392 30.0071ZM138.339 79.837C139.58 80.0645 140.19 80.8882 140.443 81.3586C140.888 82.1848 140.924 83.1619 140.545 84.0402C138.846 87.9657 138.404 92.2818 139.231 96.8674C139.34 97.4726 139.026 97.865 138.829 98.0454C138.668 98.1928 138.224 98.5184 137.592 98.3509C133.927 97.3795 130.275 96.922 126.709 96.9734C124.089 91.7826 120.937 86.9134 117.287 82.3982C122.732 80.421 130.684 78.4365 138.339 79.837ZM97.0133 138.71C97.182 139.339 96.855 139.78 96.7062 139.941C96.5251 140.137 96.132 140.449 95.5217 140.341C90.9105 139.517 86.5716 139.957 82.6248 141.647C81.7421 142.024 80.7593 141.988 79.9286 141.546C79.4553 141.294 78.6271 140.687 78.3988 139.453C76.7619 130.61 79.658 121.446 81.9795 115.955C86.2584 119.472 90.8646 122.539 95.7664 125.132C95.3562 129.525 95.7736 134.082 97.0133 138.71Z" fill="black"/>
</g>
<defs>
<clipPath id="clip0_2_43227">
<rect width="185" height="184" fill="white"/>
</clipPath>
</defs>
</svg>
