<svg width="185" height="185" viewBox="0 0 185 185" fill="none" xmlns="http://www.w3.org/2000/svg">
<g clip-path="url(#clip0_2_42392)">
<path d="M29.9942 75.1693L14.2074 59.3825C11.1582 56.3333 7.02241 54.6202 2.70996 54.6202V79.4767C2.70996 84.3846 4.65969 89.0913 8.12988 92.5615C4.65969 96.0317 2.70996 100.739 2.70996 105.646V130.499C7.02241 130.499 11.1582 128.786 14.2074 125.737L30.1434 109.801L29.9942 75.1693Z" fill="#C2F0FC"/>
<path d="M45.2819 106.024L45.1327 78.9455C40.8839 81.3986 35.517 80.6922 32.0479 77.2227L29.9942 75.1689L24.4666 78.3602C19.4517 81.2555 16.3367 86.6509 16.3367 92.4415C16.3367 98.2322 19.452 103.628 24.4666 106.523L30.1434 109.8L32.1972 107.747C35.6663 104.278 41.0331 103.571 45.2819 106.024Z" fill="#B9DFF0"/>
<path d="M139.103 78.5947C139.103 66.9224 130.54 56.9764 118.993 55.2703C117.27 55.0791 116.291 54.9693 116.291 54.9693C113.499 54.6585 110.673 54.5013 107.799 54.5013C93.2183 54.5013 79.6034 58.6075 68.0398 65.7209L29.8865 87.7482C26.2732 89.8345 26.2732 95.0496 29.8865 97.1359L68.0398 119.164C79.6034 126.277 93.2186 130.383 107.799 130.383C125.159 130.383 141.15 124.561 153.939 114.773L139.103 78.5947Z" fill="#E5FAFF"/>
<path d="M128.262 85.7887V102.016C128.262 115.265 143.396 122.718 153.938 114.773C159.484 110.528 164.42 105.531 168.612 99.9444L128.262 85.7887Z" fill="#A8CAE0"/>
<path d="M177.475 61.7673C177.475 61.7651 130.838 56.5859 118.993 55.2703C130.54 56.9765 139.103 66.9816 139.103 78.654L138.323 104.657C147.435 110.626 160.62 110.073 168.612 99.9445C168.898 99.5629 169.191 99.1864 169.47 98.7995C172.209 95.0026 172.209 89.8815 169.47 86.0847C165.867 81.0893 161.667 76.5539 156.982 72.571L176.87 72.5714C179.864 72.5714 182.29 70.1447 182.29 67.1515C182.29 64.3627 180.183 62.0683 177.475 61.7673Z" fill="#B9DFF0"/>
<path d="M142.807 63.0291C135.488 59.2225 127.469 56.5219 118.993 55.2703C124.316 56.0569 128.263 60.6685 128.263 66.049V85.7888C128.263 94.2435 132.443 100.804 138.318 104.654C147.849 110.899 160.628 104 160.684 92.6052C160.684 92.551 160.684 92.4968 160.684 92.4423C160.684 80.0693 153.784 68.738 142.807 63.0291Z" fill="#C2F0FC"/>
<path d="M144.522 88.8308C147.516 88.8308 149.942 86.4042 149.942 83.4109C149.942 80.4175 147.516 77.991 144.522 77.991C141.529 77.991 139.102 80.4175 139.102 83.4109C139.102 86.4042 141.529 88.8308 144.522 88.8308Z" fill="#515985"/>
<path d="M102.576 86.6541C100.084 84.1613 95.8925 84.6632 94.0949 87.6958C89.0655 96.1809 89.0655 106.82 94.0949 115.305C95.8925 118.337 100.084 118.839 102.576 116.347L112.66 106.263V96.738L102.576 86.6541Z" fill="#B9DFF0"/>
<path d="M112.66 96.7381C108.418 92.4953 101.163 95.5001 101.163 101.5C101.163 107.501 108.418 110.506 112.66 106.263L117.423 101.5L112.66 96.7381Z" fill="#C2F0FC"/>
<path d="M144.523 75.281C140.04 75.281 136.393 78.9283 136.393 83.4109C136.393 87.8935 140.04 91.5408 144.523 91.5408C149.005 91.5408 152.652 87.8935 152.652 83.4109C152.652 78.9283 149.005 75.281 144.523 75.281ZM144.523 86.1208C143.028 86.1208 141.813 84.9053 141.813 83.4109C141.813 81.9164 143.028 80.7009 144.523 80.7009C146.017 80.7009 147.233 81.9164 147.233 83.4109C147.233 84.9053 146.017 86.1208 144.523 86.1208Z" fill="black"/>
<path d="M97.7154 120.584C98.0626 120.628 98.4084 120.649 98.7521 120.649C100.899 120.649 102.949 119.808 104.493 118.263L119.339 103.417C120.398 102.358 120.398 100.643 119.339 99.5842L104.493 84.738C102.701 82.9465 100.232 82.1017 97.715 82.4168C95.2146 82.7315 93.0456 84.1523 91.7643 86.3141C86.2114 95.6811 86.2114 107.32 91.764 116.687C93.0456 118.849 95.215 120.27 97.7154 120.584ZM96.4265 89.0775C96.8482 88.3661 97.5647 87.8981 98.3918 87.7941C99.2304 87.6897 100.061 87.9708 100.66 88.5702L113.59 101.5L100.66 114.43C100.061 115.029 99.2308 115.311 98.3922 115.206C97.5647 115.102 96.8486 114.634 96.4269 113.922C91.8843 106.26 91.8843 96.7398 96.4265 89.0775Z" fill="black"/>
<path d="M43.436 95.3296C44.9327 95.3296 46.146 94.1163 46.146 92.6196C46.146 91.123 44.9327 89.9097 43.436 89.9097C41.9394 89.9097 40.7261 91.123 40.7261 92.6196C40.7261 94.1163 41.9394 95.3296 43.436 95.3296Z" fill="black"/>
<path d="M54.2759 95.3296C55.7725 95.3296 56.9858 94.1163 56.9858 92.6196C56.9858 91.123 55.7725 89.9097 54.2759 89.9097C52.7792 89.9097 51.5659 91.123 51.5659 92.6196C51.5659 94.1163 52.7792 95.3296 54.2759 95.3296Z" fill="black"/>
<path d="M177.774 59.0736C177.717 59.0682 177.659 59.0606 177.6 59.0541L116.581 52.2756C116.509 52.2676 116.437 52.2625 116.365 52.2604C113.493 51.9489 110.612 51.7906 107.799 51.7906C95.1792 51.7906 82.6289 54.8525 71.5043 60.645C70.1768 61.3362 69.6608 62.9727 70.3524 64.3002C71.044 65.6281 72.6808 66.1437 74.0076 65.4521C84.5103 59.983 95.8791 57.2102 107.799 57.2102C110.489 57.2102 113.247 57.3656 115.999 57.672C116.07 57.6796 116.142 57.685 116.212 57.6872C116.59 57.7291 117.417 57.8209 118.604 57.9527L118.597 58.0004C122.562 58.5865 125.553 62.0462 125.553 66.0479V102.015C125.553 109.193 129.549 115.62 135.982 118.789C137.261 119.419 138.585 119.891 139.928 120.215C130.037 125.046 119.063 127.672 107.799 127.672C95.8788 127.672 84.5099 124.899 74.0072 119.43C72.6801 118.739 71.0432 119.255 70.352 120.582C69.6608 121.909 70.1768 123.546 71.5039 124.237C82.6281 130.03 95.1785 133.092 107.798 133.092C120.481 133.092 133.084 130.004 144.244 124.162C155.04 118.511 164.523 110.289 171.667 100.383C175.094 95.6324 175.094 89.2488 171.667 84.4977C169.316 81.2382 166.708 78.1542 163.876 75.2795H176.87C181.353 75.2795 185 71.6323 185 67.1496C185 63.0041 181.894 59.5314 177.774 59.0736ZM151.573 113.127C147.587 115.756 142.727 116.071 138.377 113.928C133.741 111.644 130.973 107.191 130.973 102.016V101.596C133.98 105.379 138.115 108.297 143.067 109.914C145.757 110.793 148.477 111.219 151.149 111.219C152.199 111.219 153.241 111.152 154.271 111.022C153.387 111.745 152.488 112.446 151.573 113.127ZM176.87 69.8614H156.981C155.845 69.8614 154.829 70.57 154.438 71.6362C154.046 72.7025 154.36 73.9003 155.226 74.6363C159.763 78.4924 163.815 82.8779 167.272 87.6702C169.331 90.5243 169.331 94.3598 167.272 97.2139C167.085 97.4741 166.89 97.727 166.699 97.9843C160.43 106.205 151.284 106.899 144.75 104.762C138.089 102.587 130.973 96.4595 130.973 85.7877V66.049C130.973 63.5396 130.267 61.1588 129.036 59.1122C146.838 61.0894 176.603 64.3952 177.159 64.4588C178.546 64.6131 179.58 65.7697 179.58 67.1514C179.58 68.6455 178.365 69.8614 176.87 69.8614Z" fill="black"/>
<path d="M65.6931 67.0756C64.9451 65.7791 63.2866 65.3362 61.9913 66.0837L43.7781 76.5991C40.5967 78.4354 36.561 77.9039 33.9645 75.307L16.1239 57.4664C12.541 53.8839 7.77723 51.9106 2.71032 51.9106C1.21334 51.9106 0.000361328 53.1236 0.000361328 54.6206V79.4771C0.000361328 84.2817 1.58731 88.8431 4.51227 92.5619C1.58695 96.2803 0 100.842 0 105.646V130.499C0 131.996 1.21298 133.209 2.70996 133.209C7.77686 133.209 12.541 131.236 16.1235 127.653L34.1133 109.664C36.7106 107.066 40.7462 106.535 43.9267 108.371C43.9267 108.371 61.9909 118.8 61.9909 118.8C62.418 119.047 62.8837 119.164 63.3433 119.164C64.2799 119.164 65.1908 118.678 65.6927 117.809C66.441 116.512 65.9969 114.855 64.7009 114.107L31.2411 94.7887C30.0181 94.0827 29.8862 92.9124 29.8862 92.4419C29.8862 91.9715 30.0181 90.8011 31.2411 90.0951L64.7009 70.7774C65.9969 70.0291 66.4414 68.3717 65.6931 67.0756ZM28.5315 85.4014C25.9864 86.8709 24.4666 89.5032 24.4666 92.4419C24.4666 95.3806 25.9864 98.0129 28.5315 99.4824L34.5487 102.957C32.9878 103.62 31.5327 104.579 30.2807 105.831L12.2909 123.821C10.3831 125.729 8.00631 126.998 5.41992 127.52V105.646C5.41992 101.427 7.06288 97.4611 10.0464 94.478C11.1047 93.4193 11.1047 91.7037 10.0464 90.6454C7.06288 87.6619 5.41992 83.6956 5.41992 79.4767V57.5994C8.00595 58.1215 10.3828 59.3905 12.2909 61.2987L30.1315 79.1392C31.3839 80.3912 32.8379 81.3506 34.3988 82.0136L28.5315 85.4014Z" fill="black"/>
</g>
<defs>
<clipPath id="clip0_2_42392">
<rect width="185" height="185" fill="white"/>
</clipPath>
</defs>
</svg>
