<svg width="185" height="185" viewBox="0 0 185 185" fill="none" xmlns="http://www.w3.org/2000/svg">
<path d="M54.7427 119.969C54.7427 119.969 60.3743 129.348 66.8667 134.205C69.2952 136.023 70.2549 139.23 69.2706 142.099C68.4135 144.597 67.1796 147.495 65.5146 149.839C64.0689 151.874 61.1494 152.148 59.3279 150.44C50.6087 142.267 51.3303 130.81 54.7427 119.969Z" fill="#ADC0ED"/>
<path d="M136.167 51.9977L118.938 69.7028C90.4326 64.207 75.9166 39.0755 90.3032 33.4543C106.209 33.6928 122.425 36.7822 133.941 41.4758C138.205 43.2138 139.375 48.6952 136.167 51.9977Z" fill="#C5CFF1"/>
<path d="M118.938 69.7029L115.289 73.4535L51.5723 59.5785L57.2776 46.0359C59.8756 39.868 65.5051 35.5068 72.1246 34.5421C77.9384 33.6966 84.099 33.3569 90.303 33.4545C85.2553 43.4849 96.6219 58.2867 118.938 69.7029Z" fill="#ADC0ED"/>
<path d="M134.078 129.073C130.627 130.76 127.007 132.325 123.137 133.578C106.022 133.578 101.216 114.269 119.733 101.572L135.932 118.226C139.155 121.535 138.226 127.046 134.078 129.073Z" fill="#C5CFF1"/>
<path d="M123.137 133.579C116.434 135.757 108.98 137.011 100.377 136.368C91.6689 135.718 84.063 130.215 80.6701 122.168L75.915 110.883L115.289 97.0049L119.733 101.572C109.329 115.625 112.333 129.351 123.137 133.579Z" fill="#ADC0ED"/>
<path d="M122.528 85.6086C122.528 85.6086 160.273 121.929 172.854 114.664C185.435 107.4 185.435 63.8165 172.854 56.5528C160.273 49.289 122.528 85.6086 122.528 85.6086Z" fill="#C5CFF1"/>
<path d="M150.873 103.288C148.947 104.401 146.056 103.838 142.804 102.367C138.053 100.224 132.503 101.767 129.554 106.067C125.381 112.155 119.061 117.424 111.253 121.416C78.465 118.576 65.8001 62.6769 83.5138 48.623C101.916 50.3177 117.656 57.7213 126.761 68.1312C130.049 71.8962 135.545 72.7959 139.895 70.3389C144.293 67.8493 148.39 66.4907 150.873 67.9252C158.529 72.3479 158.529 98.8693 150.873 103.288Z" fill="#E8ECF9"/>
<path d="M111.253 121.416C101.28 126.514 88.8831 129.539 75.4453 129.539C60.1358 129.539 46.0512 124.809 34.1418 118.576C42.7125 109.648 50.3221 103.137 50.3221 88.8966C50.3221 74.7903 41.1263 66.8339 34.5212 59.3146C45.2057 52.4566 59.6046 48.2544 75.4453 48.2544C78.1805 48.2544 80.876 48.3809 83.5137 48.623C77.0965 73.616 88.9842 110.811 111.253 121.416Z" fill="#C5CFF1"/>
<path d="M96.6156 94.4141C96.5289 99.0102 95.6509 102.775 94.2778 105.814C80.9846 99.9637 76.5757 71.3566 81.7867 64.207C89.0892 68.7562 96.8758 80.0982 96.6156 94.4141Z" fill="#FFB88C"/>
<path d="M94.2778 105.814C89.3854 116.657 78.1951 118.283 74.2819 115.624C69.2775 112.224 75.9151 107.321 75.9151 92.499C75.9151 74.9782 65.4257 66.5123 72.7426 62.6606C75.0732 61.4357 78.3757 62.0788 81.7867 64.207C81.9709 78.559 86.4803 94.1178 94.2778 105.814Z" fill="#FF9A5C"/>
<path d="M117.805 74.5374C125.956 80.5112 125.95 93.9248 118.448 101.642C110.945 109.359 106.444 100.784 104.729 88.9945C103.014 77.2051 107.73 67.1544 117.805 74.5374Z" fill="#FFB88C"/>
<path d="M57.2994 88.8966C57.2994 103.137 47.4171 115.415 34.1419 118.576C22.3554 112.412 12.6971 104.773 6.08117 98.7934C0.896115 94.107 1.83557 85.7206 7.91311 82.2771C13.763 79.0902 18.8469 74.6928 23.0022 69.4825C26.0373 65.6849 29.9397 62.2559 34.5213 59.3147C47.6086 62.6028 57.2994 74.7904 57.2994 88.8966Z" fill="#ADC0ED"/>
<path d="M110.964 87.444C107.864 94.5731 103.026 99.9749 99.0402 103.541C91.3945 99.9099 85.5554 90.2118 91.333 82.7287C96.8686 82.0458 102.628 82.0603 108.138 82.6275C110.455 82.8696 111.893 85.305 110.964 87.444Z" fill="#C5CFF1"/>
<path d="M99.0401 103.541C98.4873 104.036 97.9525 104.499 97.4394 104.922C94.8559 107.061 91.1595 107.194 88.4423 105.225C83.7993 101.861 77.7145 99.6787 72.8257 98.3454C68.7897 97.2433 67.9225 91.939 71.3732 89.5723C76.8509 85.8145 83.8896 83.6429 91.333 82.7288C85.5553 90.2119 91.3944 99.9099 99.0401 103.541Z" fill="#ADC0ED"/>
<path d="M119.407 72.3546C114.213 68.5484 110.412 68.9997 108.136 70.0482C105.025 71.4823 102.926 74.8066 102.086 79.5244C100.291 79.4756 98.5222 79.4872 96.7857 79.5584C93.0395 69.4903 85.9567 62.7284 80.303 60.395C76.9777 59.023 73.9274 58.9779 71.4812 60.2653C65.4441 63.4428 67.486 69.0904 69.4606 74.5515C70.5536 77.5743 71.8812 81.2476 72.6244 85.6236C71.6532 86.1624 70.7235 86.7347 69.84 87.341C67.3559 89.0458 66.1234 91.9454 66.6246 94.9087C67.1228 97.855 69.2261 100.175 72.1135 100.963C72.1977 100.986 72.2797 101.01 72.3635 101.034C71.9115 103.264 71.3486 105.147 70.8731 106.736C69.6135 110.946 68.424 114.921 72.7603 117.868C75.4655 119.736 79.731 119.798 83.1232 118.869C88.3866 117.485 92.935 113.864 95.774 108.852C96.9866 108.469 98.1432 107.86 99.1698 107.01C101.018 105.479 103.15 103.508 105.278 101.118C106.913 104.466 108.989 106.477 111.486 107.1C114.792 107.819 117.383 106.515 120.391 103.533C124.84 98.9566 127.173 92.3646 126.632 85.9001C126.158 80.2319 123.592 75.4215 119.407 72.3546ZM74.5579 72.7083C72.2421 66.3045 72.5323 65.837 74.0058 65.0612C74.9687 64.5542 76.4708 64.6767 78.2358 65.4052C82.3861 67.1179 87.8667 72.308 91.1327 80.0137C86.2638 80.6059 81.7321 81.6975 77.6978 83.2613C76.861 79.0865 75.609 75.6159 74.5579 72.7083ZM81.7447 113.628C78.9802 114.356 76.7291 114.012 75.8074 113.386C74.9572 112.808 74.7552 112.671 76.0657 108.29C76.5354 106.721 77.0821 104.879 77.5518 102.694C81.2732 104.066 84.4337 105.668 86.8546 107.422C87.6268 107.981 88.4596 108.41 89.3232 108.723C86.7025 111.881 83.6124 113.137 81.7447 113.628ZM95.7133 102.836C95.0875 103.354 94.359 103.684 93.6024 103.827C93.5861 103.829 93.5702 103.832 93.554 103.834C92.3479 104.048 91.0749 103.787 90.0343 103.033C85.9256 100.056 80.3763 97.6006 73.5411 95.7343C72.3299 95.4037 72.038 94.4148 71.9686 94.005C71.9137 93.6791 71.8183 92.5564 72.9066 91.8096C79.3932 87.358 89.205 84.923 100.084 84.923C102.627 84.923 105.23 85.056 107.861 85.3277C108.444 85.4766 108.633 85.7884 108.48 86.3647C105.167 93.9837 99.7085 99.5272 95.7133 102.836ZM116.505 99.7552C115.007 101.296 113.657 102.054 112.799 101.842C111.822 101.598 110.393 99.9763 109.134 96.2283C110.732 93.9219 112.219 91.3568 113.451 88.5262C114.24 86.7109 114.118 84.6849 113.114 82.9682C111.978 80.9676 109.797 79.8973 107.545 79.8536C108.096 77.3521 109.118 75.5635 110.405 74.9699C112.223 74.1316 114.818 75.7106 116.203 76.7259C119.104 78.8516 120.89 82.2705 121.231 86.3521C121.644 91.2766 119.877 96.2872 116.505 99.7552Z" fill="black"/>
<path d="M36.9495 82.2124V77.8765C36.9495 76.3795 35.7361 75.1665 34.2395 75.1665C32.7429 75.1665 31.5295 76.3795 31.5295 77.8765V82.2124C31.5295 83.7094 32.7429 84.9224 34.2395 84.9224C35.7361 84.9224 36.9495 83.709 36.9495 82.2124Z" fill="black"/>
<path d="M174.209 54.2083C167.895 49.7763 154.417 56.3821 138.561 67.9811C135.329 69.8094 131.224 69.1232 128.801 66.3515C128.36 65.8478 127.9 65.3531 127.43 64.8632L138.108 53.8893C140.238 51.6992 141.138 48.6077 140.513 45.6192C139.886 42.6162 137.812 40.1299 134.964 38.9689C132.259 37.8654 129.251 36.832 126.025 35.8969C124.587 35.4818 123.084 36.3081 122.668 37.7458C122.251 39.1828 123.079 40.6863 124.516 41.1029C127.561 41.9849 130.387 42.9555 132.918 43.9871C134.111 44.4741 134.946 45.4725 135.208 46.7274C135.467 47.9675 135.108 49.2003 134.223 50.1094L123.464 61.1671C118.688 57.1788 112.898 53.791 106.381 51.2125C97.0131 47.506 86.3163 45.5469 75.4476 45.5469C70.1158 45.5469 64.8845 46.0239 59.8545 46.9232C62.1034 41.7501 66.9369 38.041 72.5186 37.2284C84.5805 35.4724 98.7688 35.8572 112.468 38.3131C113.941 38.5765 115.349 37.597 115.613 36.1235C115.877 34.6503 114.897 33.2419 113.424 32.9778C99.1659 30.4224 84.3619 30.0275 71.7374 31.8649C64.2283 32.9579 57.7317 37.9854 54.7829 44.9851L53.3668 48.3458C40.5556 51.7722 28.9504 57.8823 20.8867 67.7961C16.8333 72.8771 12.0334 76.9492 6.61999 79.8991C6.60698 79.9067 6.59397 79.9136 6.58096 79.9211C2.9124 81.9995 0.54317 85.5951 0.0813925 89.7865C-0.379662 93.9692 1.14514 97.9854 4.26485 100.805C7.10561 103.373 10.0757 105.858 13.0921 108.191C14.2758 109.107 15.9777 108.89 16.8936 107.706C17.8096 106.523 17.5921 104.821 16.4084 103.905C13.5008 101.655 10.6376 99.2598 7.89873 96.784C6.0863 95.1457 5.20033 92.8115 5.46843 90.3801C5.73654 87.9466 7.10922 85.8578 9.23528 84.6462C15.2774 81.3498 20.6229 76.8181 25.1211 71.1792C27.702 67.9521 30.9114 65.0449 34.6099 62.503C46.4304 65.816 54.5895 76.5109 54.5895 88.8983C54.5895 101.349 45.9972 112.358 34.0249 115.448C31.5332 114.098 29.0404 112.631 26.5472 111.044C25.2848 110.24 23.6096 110.612 22.806 111.874C22.0021 113.137 22.3739 114.812 23.6364 115.616C32.4387 121.221 41.2663 125.42 50.056 128.198C48.6432 138.331 51.1316 146.471 57.4758 152.418C58.9193 153.775 60.8965 154.438 62.8524 154.238C64.8115 154.042 66.5874 153.011 67.7249 151.41C69.2873 149.21 70.6701 146.374 71.835 142.979C73.2399 138.899 71.8151 134.435 68.3471 131.924C70.7203 132.138 73.0877 132.249 75.4472 132.249C78.3508 132.249 81.2335 132.108 84.0786 131.836C88.442 136.06 94.1062 138.617 100.178 139.07C113.196 140.371 127.264 135.723 135.268 131.509C138.025 130.161 139.908 127.649 140.435 124.618C140.964 121.57 140.032 118.552 137.876 116.337L130.764 109.027C131.118 108.557 131.461 108.082 131.791 107.601C133.753 104.739 137.29 103.516 140.549 104.432C152.926 113.732 162.274 118.332 168.868 118.332C170.909 118.332 172.687 117.891 174.209 117.013C182.165 112.42 185 97.7798 185 85.611C185 73.4422 182.165 58.8019 174.209 54.2083ZM65.2444 136.377C66.7088 137.473 67.3112 139.465 66.7085 141.221C65.7268 144.083 64.5503 146.521 63.3066 148.271C62.5753 149.027 62.056 149.069 61.1827 148.464C56.2856 143.874 54.3587 137.713 55.3245 129.693C56.6097 130.017 57.8939 130.312 59.1766 130.574C61.256 132.966 63.2947 134.918 65.2444 136.377ZM133.991 120.117C134.921 121.073 135.323 122.375 135.095 123.691C134.869 124.99 134.064 126.065 132.886 126.642C125.096 130.453 114.386 134.698 100.581 133.666C97.3538 133.426 94.271 132.433 91.5476 130.793C97.7057 129.66 103.596 127.88 109.016 125.482C116.282 122.267 122.459 118.069 127.22 113.158L133.991 120.117ZM127.32 104.538C116.989 118.921 97.6707 126.577 75.4476 126.831C63.4703 126.831 51.7571 123.831 40.7427 118.801C45.3334 116.709 49.4345 113.566 52.6525 109.612C57.3967 103.784 60.0095 96.4277 60.0095 88.8991C60.0095 81.4615 57.4527 74.1753 52.8107 68.3829C49.5382 64.2991 45.3171 61.0627 40.5874 58.9356C50.4039 53.8553 62.5908 50.9676 75.4472 50.9676C95.618 50.9676 114.498 58.2295 124.72 69.9196C128.828 74.6176 135.771 75.7861 141.23 72.6993C145.879 70.0699 148.56 69.7245 149.517 70.2766C151.698 71.5351 153.905 77.2069 153.905 85.6113C153.905 94.0158 151.698 99.6876 149.517 100.946C149.179 101.141 147.776 101.643 143.919 99.9011C137.981 97.2194 131 99.1698 127.32 104.538ZM171.499 112.32C169.855 113.27 164.91 114.158 151.928 105.796C157.485 102.861 159.29 93.4493 159.325 85.611C159.288 77.7749 157.488 68.3529 151.925 65.4276C164.902 57.0664 169.85 57.9506 171.499 58.9023C176.257 61.6491 179.58 72.6321 179.58 85.611C179.58 98.5899 176.257 109.572 171.499 112.32Z" fill="black"/>
</svg>
