<svg width="185" height="185" viewBox="0 0 185 185" fill="none" xmlns="http://www.w3.org/2000/svg">
<g clip-path="url(#clip0_2_43637)">
<path d="M74.1408 115.177C69.6116 111.45 51.4715 108.757 48.7669 113.962C46.0624 119.167 59.1421 131.322 64.3474 134.026C84.4889 144.491 79.4964 119.584 74.1408 115.177Z" fill="#6B7D8E"/>
<path d="M136.719 77.9035L111.093 69.6508C107.804 60.804 114.337 48.9282 129.604 48.9282C130.37 49.0366 131.024 49.1486 131.555 49.2462C132.458 49.416 133.105 50.2037 133.094 51.1251C133.037 56.1476 133.149 72.0604 136.719 77.9035Z" fill="#8697A6"/>
<path d="M129.604 48.9282C118.648 52.4403 113.351 60.7039 111.093 69.6507L88.8027 62.4711C102.854 47.1252 121.846 47.8478 129.604 48.9282Z" fill="#6B7D8E"/>
<path d="M136.719 97.8271C134.71 101.115 134.413 109.379 134.395 113.516C127.403 113.787 121.287 107.927 122.677 99.1673L136.719 97.8271Z" fill="#8697A6"/>
<path d="M134.395 113.516V114.416C134.399 115.333 133.738 116.118 132.831 116.266C128.379 116.992 115.484 117.996 106.056 107.702L122.677 99.1672C124.943 105.733 131.064 112.36 134.395 113.516Z" fill="#6B7D8E"/>
<path d="M125.139 86.3621L174.241 117.078C178.457 119.715 183.635 115.557 181.97 110.872L176.165 94.531C174.288 89.2469 174.288 83.4772 176.165 78.1932L181.97 61.8525C183.635 57.1671 178.457 53.0093 174.241 55.6463L125.139 86.3621Z" fill="#8697A6"/>
<path d="M153.307 83.6775V89.0468C153.307 94.4451 148.932 98.8208 143.533 98.8208C133.12 98.7919 122.963 101.769 114.041 107.139C109.655 109.776 104.448 112.027 98.6308 113.787C60.2665 110.101 48.4033 69.6504 73.3559 54.854C89.5615 55.5008 103.968 59.526 114.042 65.5891C122.963 70.9548 133.12 73.9321 143.534 73.9032C148.932 73.9036 153.307 78.2793 153.307 83.6775Z" fill="#73DA8C"/>
<path d="M98.6308 113.787C89.818 116.443 79.6069 117.964 68.7125 117.964C52.8357 117.964 40.0732 114.618 30.0825 110.101L30.1476 62.6984C40.1563 58.1457 52.9148 54.76 68.7125 54.76C70.2734 54.76 71.8235 54.7925 73.3555 54.854C59.6363 69.4588 63.9325 101.249 98.6308 113.787Z" fill="#29CE69"/>
<path d="M42.2523 95.6013L30.0828 110.101C17.3965 104.367 9.17992 96.7467 4.71715 91.7062C2.02526 88.6674 2.04332 84.0821 4.75329 81.0578C9.25543 76.039 17.519 68.4402 30.1478 62.6987L42.2523 77.1266C46.7183 82.4742 46.7183 90.25 42.2523 95.6013Z" fill="#00C140"/>
<path d="M92.015 99.8108C78.4757 101.669 69.3015 86.3622 79.0686 80.8628C82.1471 80.1257 84.9366 79.7137 86.7432 79.7137C106.49 79.7137 99.4294 93.4623 92.015 99.8108Z" fill="#8697A6"/>
<path d="M92.0148 99.8107C90.1359 101.419 88.239 102.553 86.7431 102.871C80.4885 104.197 61.5874 97.6861 61.5874 91.2906C61.5874 86.7017 71.2493 82.738 79.0685 80.8627C75.0396 87.4714 81.3629 97.4079 92.0148 99.8107Z" fill="#6B7D8E"/>
<path d="M84.8562 105.754C85.7661 105.754 86.5935 105.682 87.31 105.53C93.2643 104.264 103.072 93.9172 102.237 85.9644C101.937 83.1066 100.373 80.7858 97.7155 79.2534C95.0999 77.7452 91.5123 77.0121 86.7467 77.0121C82.9278 77.0121 76.2227 78.513 70.8035 80.5816C62.8911 83.6013 58.8789 87.208 58.8789 91.3008C58.8789 93.6339 60.2086 95.894 62.8311 98.0175C68.0187 102.219 78.4781 105.754 84.8562 105.754ZM72.7358 85.6449C78.0058 83.6338 83.9977 82.4316 86.7463 82.4316C90.3575 82.4316 96.4715 82.9642 96.8465 86.5306C97.351 91.3326 89.8986 99.4394 86.1834 100.229C82.341 101.045 71.1771 97.8018 66.2421 93.8055C64.8076 92.6439 64.2988 91.7301 64.2988 91.3004C64.2985 90.623 65.8142 88.2866 72.7358 85.6449Z" fill="black"/>
<path d="M26.4131 75.536C24.9165 75.536 23.7031 76.749 23.7031 78.246V82.5819C23.7031 84.0789 24.9165 85.2919 26.4131 85.2919C27.9097 85.2919 29.123 84.0789 29.123 82.5819V78.246C29.123 76.7494 27.9097 75.536 26.4131 75.536Z" fill="black"/>
<path d="M178.722 93.6332C177.059 88.9504 177.059 83.7928 178.722 79.11L184.527 62.7693C185.677 59.5321 184.689 56.0507 182.011 53.8997C179.332 51.7488 175.72 51.5359 172.807 53.3581L144.246 71.2243C141.884 71.1915 139.521 71.125 137.171 70.8186C135.47 62.2406 135.832 49.8091 135.836 49.6758C135.875 48.4119 135.035 47.2885 133.812 46.9691C132.893 46.7295 111.489 41.358 93.3389 54.7644C85.639 53.0008 77.2717 52.0588 68.7143 52.0588C64.5974 52.0588 60.4967 52.29 56.5264 52.7457C55.0395 52.9166 53.9725 54.26 54.1431 55.7472C54.314 57.2344 55.6585 58.2989 57.1446 58.1305C60.9104 57.698 64.8033 57.4787 68.7143 57.4787C85.6086 57.4787 101.622 61.2838 112.648 67.9189C119.461 72.0189 126.876 74.718 134.466 75.9129C137.47 76.3859 140.502 76.6313 143.535 76.6222C147.43 76.6222 150.6 79.7914 150.6 83.6869V89.0562C150.6 92.9517 147.43 96.1213 143.543 96.1213C140.892 96.1126 138.243 96.2976 135.612 96.6564C127.621 97.7516 119.802 100.519 112.648 104.825C101.622 111.459 85.6093 115.264 68.7147 115.264C56.3403 115.239 45.1872 113.297 34.5255 109.094L44.337 97.3462C49.6478 90.9868 49.6478 81.7563 44.337 75.3973L34.6118 63.7524C37.8258 62.4607 41.3018 61.3005 45.0524 60.3429C46.5028 59.9729 47.3779 58.4973 47.0076 57.0469C46.6376 55.5969 45.1608 54.7218 43.7115 55.0918C28.8281 57.9463 8.51816 71.5354 2.74016 79.2596C-0.894435 83.3122 -0.916477 89.44 2.68922 93.5136C6.85786 98.2221 14.1025 105.014 24.9452 110.632C31.5492 114.053 38.6432 116.602 46.1653 118.281C48.4456 125.331 58.5632 134.082 63.1011 136.44C69.1649 139.522 74.7612 140.744 78.8182 136.836C82.5041 133.036 82.0376 125.718 80.1081 120.124C90.3593 119.107 99.9913 116.734 108.095 113.221C116.467 119.799 128.13 120.28 135.105 118.583C136.329 118.263 137.169 117.14 137.13 115.876C137.047 113.246 137.1 106.208 138.128 101.813C140.162 101.585 142.206 101.556 144.247 101.52L157.791 109.992C159.04 110.779 160.727 110.411 161.525 109.132C162.319 107.863 161.934 106.191 160.665 105.397L150.781 99.2139C153.949 96.9473 156.019 93.2404 156.019 89.0566V83.6873C156.019 79.5038 153.949 75.7973 150.779 73.5307L175.681 57.9535C177.099 57.0661 178.286 57.8613 178.616 58.1266C178.946 58.3918 179.979 59.3786 179.419 60.9554L173.614 77.2961C171.535 83.1489 171.535 89.5953 173.614 95.4481L179.419 111.789C179.979 113.366 178.946 114.353 178.616 114.618C178.286 114.883 177.1 115.679 175.681 114.791L171.393 112.109C170.124 111.315 168.452 111.7 167.659 112.969C166.865 114.238 167.25 115.91 168.519 116.704L172.806 119.386C175.707 121.202 179.323 121.001 182.01 118.844C184.688 116.693 185.676 113.212 184.526 109.975L178.722 93.6332ZM100.362 56.6588C112.416 49.8066 125.434 51.0004 130.38 51.8095C130.354 55.5673 130.452 63.2227 131.491 69.8144C125.924 68.5155 120.504 66.3208 115.443 63.2751C111.054 60.6345 105.952 58.412 100.362 56.6588ZM6.74802 89.9209C4.96703 87.909 4.97895 84.8811 6.77548 82.8783C10.7284 78.4708 18.1418 71.5405 29.4589 66.0375L40.1774 78.8715C43.8065 83.2172 43.8065 89.526 40.1774 93.872L29.3596 106.825C18.455 101.558 11.1248 94.865 6.74802 89.9209ZM74.9281 133.063C73.5287 134.505 70.1289 133.983 65.6004 131.63C62.3112 129.921 55.8305 124.106 52.7798 119.51C57.9164 120.285 63.2305 120.684 68.7147 120.684C70.6453 120.684 72.565 120.633 74.471 120.539C76.3557 124.908 76.9573 130.97 74.9281 133.063ZM131.686 113.707C128.163 114.186 120.67 114.526 113.716 110.461C119.562 106.883 125.888 104.054 132.442 102.711C131.812 106.608 131.692 111.056 131.686 113.707Z" fill="black"/>
</g>
<defs>
<clipPath id="clip0_2_43637">
<rect width="185" height="185" fill="white"/>
</clipPath>
</defs>
</svg>
