<svg width="185" height="185" viewBox="0 0 185 185" fill="none" xmlns="http://www.w3.org/2000/svg">
<g clip-path="url(#clip0_2_43841)">
<path d="M77.9147 142.83C79.829 148.04 76.314 151.521 71.104 153.435C65.894 155.349 60.9619 154.972 59.0479 149.762C57.1336 144.552 56.808 130.619 62.0177 128.704C67.228 126.79 76.0007 137.62 77.9147 142.83Z" fill="#FF9A5C"/>
<path d="M130.591 139.321L123.112 149.134C108.871 150.593 104.257 124.846 112.528 112.449L119.477 111.112C121.706 117.984 126.046 123.372 129.724 126.978C133.088 130.277 133.449 135.574 130.591 139.321Z" fill="#FFB88C"/>
<path d="M123.112 149.134L123.068 149.189C119.52 153.846 112.449 153.806 109.031 149.055C98.2739 134.107 100.044 114.852 100.044 114.852L112.528 112.449C108.778 125.908 110.971 145.655 123.112 149.134Z" fill="#FF9A5C"/>
<path d="M113.345 61.133C104.987 68.2114 97.8836 77.2193 97.8836 77.2193L89.9272 72.4534C80.9905 58.5896 89.2577 36.5042 105.229 30.7236C105.54 30.6767 105.851 30.6333 106.165 30.5936C110.429 29.9829 114.49 32.617 115.675 36.7614L118.118 45.3141C119.762 51.0664 117.908 57.2632 113.345 61.133Z" fill="#FFB88C"/>
<path d="M89.9272 72.4534L74.7153 63.3407C76.2979 47.4134 89.2118 33.1915 105.229 30.7236C90.6752 41.5826 87.4865 61.8969 89.9272 72.4534Z" fill="#FF9A5C"/>
<path d="M126.844 102.076L164.902 125.882C173.265 131.114 183.917 123.908 182.082 114.215C180.499 105.854 180.5 98.2952 182.081 89.9413C183.916 80.2462 173.267 73.0362 164.902 78.2694L126.844 102.076Z" fill="#FFB88C"/>
<path d="M159.006 97.6849V106.191C159.006 110.234 155.826 113.576 151.787 113.735C130.757 114.57 114.14 124.138 94.6137 129.077C48.7482 124.256 44.7327 66.9749 65.2378 53.9498C66.0182 53.91 66.8059 53.8883 67.5972 53.8847C83.4957 53.8016 97.8838 61.2378 108.301 70.766C120.438 81.8732 135.791 88.742 152.036 90.1512C155.967 90.4945 159.006 93.7392 159.006 97.6849Z" fill="#FFEAB7"/>
<path d="M94.6137 129.077C86.3176 131.176 77.5012 132.437 67.5972 131.841C47.3809 131.841 32.0606 124.683 21.2786 116.734C28.8917 111.112 35.2367 106.259 35.2367 95.2567C35.2367 84.3338 27.9053 78.0358 21.5134 73.8047C32.7218 64.1717 47.9121 54.8241 65.2377 53.9497C53.1589 72.5147 59.8868 117.973 94.6137 129.077Z" fill="#FAD989"/>
<path d="M40.7328 95.2567C40.7328 106.259 32.0176 115.646 21.2789 116.734C12.5203 110.277 6.76074 103.3 3.80507 99.2133C2.30556 97.1393 2.34892 94.3317 3.91708 92.3083C7.10038 88.2072 13.2141 80.9301 21.5138 73.8047C32.1368 74.9971 40.7328 84.3338 40.7328 95.2567Z" fill="#F6CA56"/>
<path d="M83.2825 107.564C83.2825 110.064 82.932 112.384 82.1298 114.299C65.5308 117.819 58.6688 102.076 68.4536 96.4926C70.6793 95.9542 72.7281 95.658 74.2746 95.658C80.8507 95.658 83.2825 100.988 83.2825 107.564Z" fill="#FFB88C"/>
<path d="M82.1298 114.299C80.8326 117.421 78.3503 119.466 74.2745 119.466C67.702 119.466 52.0781 114.136 52.0781 107.564C52.0781 102.534 61.2161 98.2343 68.4535 96.4927C63.0484 103.716 68.2082 112.778 82.1298 114.299Z" fill="#FF9A5C"/>
<path d="M85.9873 107.56C85.9873 98.4102 81.607 92.9473 74.2691 92.9473C68.0687 92.9473 49.3606 98.1302 49.3606 107.56C49.3606 116.991 68.0687 122.174 74.2691 122.174C81.607 122.174 85.9873 116.711 85.9873 107.56ZM54.7812 107.56C54.7812 106.197 56.9604 103.828 61.8286 101.61C66.5009 99.4812 71.6235 98.3676 74.2695 98.3676C78.4482 98.3676 80.5674 101.461 80.5674 107.56C80.5674 113.661 78.4486 116.754 74.2695 116.754C71.6238 116.754 66.5009 115.64 61.8286 113.511C56.9604 111.293 54.7812 108.924 54.7812 107.56Z" fill="black"/>
<path d="M24.337 95.942C25.8337 95.942 27.0474 94.7287 27.0474 93.2317V88.8954C27.0474 87.3984 25.834 86.1851 24.337 86.1851C22.84 86.1851 21.6267 87.3984 21.6267 88.8954V93.2317C21.6267 94.729 22.8404 95.942 24.337 95.942Z" fill="black"/>
<path d="M184.746 113.71C184.097 110.282 183.734 107.048 183.636 103.821C183.59 102.325 182.344 101.142 180.845 101.195C179.349 101.241 178.173 102.49 178.219 103.986C178.326 107.499 178.719 111.009 179.42 114.718C180.072 118.159 178.727 121.399 175.823 123.384C173.558 124.932 169.876 125.796 166.339 123.584L154.307 116.058C158.611 114.832 161.716 110.882 161.716 106.19V97.6811C161.716 93.1179 158.778 89.2557 154.587 87.9144L166.339 80.5632C169.876 78.3508 173.556 79.2154 175.82 80.763C178.726 82.7485 180.072 85.99 179.419 89.4342C179.331 89.9014 179.249 90.3649 179.17 90.8278C178.919 92.3031 179.911 93.7036 181.386 93.9555C182.827 94.2116 184.269 93.2238 184.514 91.7398C184.587 91.3091 184.663 90.8777 184.745 90.4426C185.794 84.9013 183.546 79.4774 178.878 76.288C174.184 73.0797 168.278 72.9572 163.465 75.9682L146.352 86.6729C132.772 84.3044 119.875 77.8521 109.587 68.2751C111.48 66.3959 113.325 64.6929 115.093 63.1949C120.449 58.6569 122.659 51.344 120.722 44.5633L118.278 36.01C116.732 30.5998 111.37 27.1163 105.802 27.9003C92.4581 29.5675 80.6026 38.79 75.0276 51.6432C72.6339 51.3263 70.1233 51.1565 67.5763 51.1706C60.5145 51.2074 53.2923 52.6336 46.1109 55.4104C44.7147 55.9499 44.0206 57.5195 44.5605 58.9157C45.1003 60.3118 46.6703 61.007 48.0653 60.4658C54.63 57.9274 61.204 56.6238 67.6045 56.5909C82.1505 55.6977 100.322 66.2886 106.469 72.7617C119.052 84.2668 135.068 91.3741 151.8 92.8494C154.363 93.072 156.295 95.1496 156.295 97.6818V106.19C156.295 108.8 154.267 110.925 151.678 111.028C138.363 111.488 125.426 115.896 113.707 120.119C101.031 124.63 87.9646 129.28 72.4329 129.279C56.9374 129.913 38.4663 125.351 27.5607 117.789C36.8396 114.457 43.4328 105.56 43.4328 95.2537C43.4328 89.1881 41.1596 83.4025 37.0318 78.9625C34.311 76.0361 30.9485 73.8736 27.2463 72.6078C30.2963 70.2231 33.5869 67.9189 37.0849 65.8441C38.3724 65.0806 38.7969 63.4178 38.0334 62.1304C37.2699 60.843 35.6071 60.4188 34.3197 61.1819C18.6959 70.4485 7.21683 83.62 1.76475 90.6468C-0.524259 93.597 -0.593995 97.7718 1.59565 100.799C4.3067 104.978 14.1424 115.711 22.9209 121.202C32.947 127.875 43.948 132.069 55.7454 133.734C54.4377 139.455 55.1289 146.979 56.4958 150.7C57.7106 154.005 60.03 156.153 63.2039 156.909C66.1885 157.563 68.8403 157.11 72.0315 155.981C75.3528 154.762 77.8182 153.076 79.36 150.973C81.2887 148.342 81.6663 145.204 80.4519 141.898C79.6635 139.752 78.0599 137.109 76.1189 134.62C84.1581 134.273 91.5169 132.804 98.5078 130.839C100.034 138.428 102.824 145.078 106.825 150.639C108.948 153.59 112.26 155.311 115.91 155.362C119.584 155.414 122.991 153.764 125.22 150.835L132.744 140.967C136.431 136.131 135.946 129.285 131.617 125.042C130.291 123.743 129.069 122.385 127.958 120.985C133.671 119.2 139.442 117.744 145.555 116.977L163.464 128.18C165.785 129.633 168.36 130.356 170.931 130.356C173.692 130.356 176.449 129.521 178.881 127.86C183.547 124.67 185.795 119.248 184.746 113.71ZM106.495 33.2758C106.511 33.274 106.528 33.2715 106.544 33.2693C109.452 32.8523 112.259 34.672 113.066 37.4987L115.51 46.052C116.863 50.789 115.324 55.8946 111.59 59.0587C109.599 60.7454 107.524 62.6713 105.402 64.7959C99.4867 60.2367 90.998 55.1181 80.5274 52.6538C85.5257 42.2624 95.6103 34.6283 106.495 33.2758ZM5.98796 97.6215C5.1999 96.5317 5.22447 95.03 6.04758 93.9688C8.7261 90.5167 14.3502 83.7436 22.0681 76.9196C31.0948 78.1835 38.0128 86.0261 38.0128 95.253C38.0128 104.68 30.8849 112.588 21.6212 113.649C14.0185 107.8 8.86738 101.602 5.98796 97.6215ZM74.989 147.768C74.1016 148.979 72.433 150.059 70.1631 150.893C67.8932 151.727 65.9215 151.984 64.4617 151.636C63.5934 151.429 62.3501 150.913 61.5848 148.829C60.4441 145.725 59.9783 138.695 61.1801 134.316C63.709 134.533 66.3102 134.51 68.8757 134.614C71.9318 137.58 74.5286 141.49 75.3648 143.766C76.1301 145.85 75.5169 147.048 74.989 147.768ZM127.824 128.913C130.204 131.246 130.467 135.014 128.435 137.68L120.911 147.549C119.731 149.097 117.939 149.96 115.986 149.942C114.071 149.915 112.336 149.015 111.226 147.473C107.593 142.424 105.078 136.308 103.727 129.272C107.737 127.995 111.649 126.605 115.525 125.226C117.873 124.39 120.196 123.565 122.512 122.772C124.067 124.914 125.845 126.974 127.824 128.913Z" fill="black"/>
</g>
<defs>
<clipPath id="clip0_2_43841">
<rect width="185" height="185" fill="white"/>
</clipPath>
</defs>
</svg>
