<svg width="185" height="185" viewBox="0 0 185 185" fill="none" xmlns="http://www.w3.org/2000/svg">
<g clip-path="url(#clip0_2_42164)">
<path d="M91.5364 19.6233C88.1952 20.7329 84.9367 22.068 81.7708 23.6059L90.2045 47.3534L100.447 34.0753C98.9212 28.254 95.7383 23.3117 91.5364 19.6233Z" fill="#7587B3"/>
<path d="M81.7708 23.6058C73.7157 27.5183 66.2814 32.7854 59.7626 39.3041L52.0989 46.9679L73.7786 68.6476L90.2042 47.3534V37.6239C88.7375 32.0259 85.7349 27.2448 81.7708 23.6058Z" fill="#87A1C1"/>
<path d="M40.6018 66.1302L35.2057 71.5263L55.9318 81.4599V66.1302C51.6985 61.8969 44.8351 61.8969 40.6018 66.1302Z" fill="#FF6053"/>
<path d="M35.2057 71.5263C33.089 73.643 33.089 77.0745 35.2057 79.1912V90.031H55.9318V81.4599L48.2669 73.7951C44.0336 69.5618 38.1859 68.5461 35.2057 71.5263Z" fill="#FF7D6D"/>
<path d="M171.451 77.3563C168.13 79.0173 166.031 82.4117 166.031 86.125L160.611 96.79H176.87L176.871 86.1265C176.871 82.4124 174.773 79.017 171.451 77.3563Z" fill="#C2F0FC"/>
<path d="M160.611 77.3563C157.29 79.0173 155.192 82.4117 155.192 86.125L149.772 96.79H166.03L166.031 86.1265C166.031 82.4124 163.933 79.017 160.611 77.3563Z" fill="#E5FAFF"/>
<path d="M60.0813 151.236C61.94 153.475 62.8588 156.372 62.5224 159.262C62.1008 162.886 65.5941 166.531 69.7515 165.028C75.9028 162.804 81.3592 158.957 84.7315 153.116V131.434L60.0813 151.236Z" fill="#FF6053"/>
<path d="M54.3679 125.886C50.1346 121.653 43.2715 121.653 39.0382 125.886L60.0812 151.236C60.3432 151.551 60.5864 151.88 60.81 152.22C62.277 154.45 65.1156 155.307 67.5618 154.239C71.1173 152.686 73.7308 150.49 75.3437 147.696L84.7314 131.434L54.3679 125.886Z" fill="#FF7D6D"/>
<path d="M31.373 75.0847L14.2074 57.919C11.1582 54.8698 7.02241 53.1567 2.70996 53.1567V70.348C2.70996 80.1635 6.60905 89.5772 13.5498 96.5176C6.60905 103.458 2.70996 112.872 2.70996 122.687V139.875C7.02241 139.875 11.1582 138.162 14.2074 135.113L31.373 117.947V75.0847Z" fill="#98B6D1"/>
<path d="M42.8704 114.388V79.1911C40.7538 81.3078 37.3222 81.3078 35.2056 79.1911L31.373 75.3585L29.1038 77.6277C18.5382 88.194 18.5382 105.386 29.1042 115.953L31.3726 118.221L35.2052 114.388C37.3222 112.272 40.7538 112.272 42.8704 114.388Z" fill="#87A1C1"/>
<path d="M156.486 141.66L117.261 161.829C132.59 161.826 146.678 156.518 157.794 147.644L156.486 141.66Z" fill="#A8CAE0"/>
<path d="M155.191 86.1251C155.191 76.883 159.806 68.7293 166.859 63.8394C169.409 62.0711 169.901 58.4723 167.956 56.0543C156.035 41.2348 137.751 31.751 117.251 31.751C99.2904 31.751 83.0303 39.031 71.2604 50.8013L36.7691 85.2926C30.4191 91.6426 30.4191 101.938 36.7691 108.287L42.8705 114.389L71.2586 142.777C83.0285 154.548 99.2893 161.829 117.251 161.829C132.693 161.826 146.617 154.084 156.486 141.661L144.351 86.1254H155.191V86.1251Z" fill="#B9DFF0"/>
<path d="M168.935 116.422L145.452 152.341C149.696 152.143 153.989 150.665 157.794 147.644C167.302 140.054 174.63 129.852 178.702 118.127L168.935 116.422Z" fill="#FF6053"/>
<path d="M168.935 116.422L122.672 108.344V130.633C122.672 143.897 133.883 152.88 145.452 152.341C156.507 144.241 164.955 131.523 168.935 116.422Z" fill="#FF7D6D"/>
<path d="M176.87 91.3701H166.03L160.489 136.008C168.347 133.634 175.282 127.824 178.702 118.128C181.023 111.443 182.29 104.265 182.29 96.79C182.29 93.7968 179.863 91.3701 176.87 91.3701Z" fill="#98B6D1"/>
<path d="M166.03 91.37H155.191V80.7051C155.191 71.7394 147.898 64.4453 138.932 64.4453C129.966 64.4453 122.672 71.7394 122.672 80.7051V80.7502V108.344C122.673 130.44 143.694 141.081 160.489 136.008C167.367 125.104 171.45 111.52 171.45 96.79C171.45 93.7967 169.024 91.37 166.03 91.37Z" fill="#A8CAE0"/>
<path d="M138.932 86.125C141.925 86.125 144.352 83.6984 144.352 80.7051C144.352 77.7117 141.925 75.2852 138.932 75.2852C135.938 75.2852 133.512 77.7117 133.512 80.7051C133.512 83.6984 135.938 86.125 138.932 86.125Z" fill="#515985"/>
<path d="M72.6093 108.343C81.1359 116.869 93.808 118.684 104.104 113.797V102.889C93.808 98.0012 81.1359 99.8165 72.6093 108.343Z" fill="#FF7D6D"/>
<path d="M104.105 102.887C100.14 101.008 95.5724 103.955 95.5724 108.343C95.5724 112.731 100.14 115.677 104.105 113.799C106.899 112.475 109.518 110.657 111.832 108.343C109.518 106.029 106.899 104.211 104.105 102.887Z" fill="#FF6053"/>
<path d="M138.932 72.5752C134.449 72.5752 130.802 76.2224 130.802 80.7051C130.802 85.1877 134.449 88.835 138.932 88.835C143.414 88.835 147.062 85.1877 147.062 80.7051C147.062 76.2224 143.414 72.5752 138.932 72.5752ZM138.932 83.415C137.437 83.415 136.222 82.1995 136.222 80.7051C136.222 79.2106 137.437 77.9951 138.932 77.9951C140.426 77.9951 141.642 79.2106 141.642 80.7051C141.642 82.1995 140.426 83.415 138.932 83.415Z" fill="black"/>
<path d="M70.6928 106.427C69.6345 107.485 69.6345 109.201 70.6928 110.259C76.6283 116.194 84.4243 119.162 92.2204 119.162C100.017 119.162 107.813 116.194 113.748 110.259C114.807 109.2 114.807 107.485 113.748 106.427C101.878 94.5562 82.5642 94.5562 70.6928 106.427ZM76.6735 108.343C85.7446 101.14 98.6964 101.141 107.768 108.343C98.6964 115.545 85.745 115.545 76.6735 108.343Z" fill="black"/>
<path d="M179.58 89.1262L179.581 86.1265C179.581 81.3555 176.93 77.0662 172.663 74.9325C171.9 74.5506 171.002 74.5506 170.239 74.9325C168.565 75.7694 167.145 76.9415 166.031 78.3406C164.917 76.9415 163.497 75.7694 161.823 74.9325C161.492 74.767 161.135 74.6774 160.775 74.6558C162.575 71.2748 165.164 68.3123 168.403 66.0666C170.225 64.8034 171.452 62.8125 171.771 60.6044C172.093 58.3794 171.472 56.1016 170.067 54.3556C164.89 47.9196 158.653 42.533 151.53 38.3466C150.241 37.5882 148.58 38.0193 147.82 39.3099C147.062 40.5999 147.493 42.2609 148.784 43.0193C155.339 46.8722 161.079 51.8296 165.844 57.7528C166.316 58.3393 166.516 59.0764 166.407 59.8287C166.301 60.564 165.913 61.1974 165.314 61.6125C161.309 64.3901 158.111 68.0622 155.909 72.2562C152.796 66.0262 146.357 61.7357 138.932 61.7357C128.472 61.7357 119.962 70.2457 119.962 80.7055V130.633C119.962 140.1 125.267 148.53 133.806 152.632C135.901 153.638 138.077 154.329 140.278 154.712C133.152 157.555 125.379 159.119 117.251 159.119C100.601 159.119 84.9479 152.635 73.1751 140.861L38.686 106.372C36.1263 103.812 34.7171 100.41 34.7171 96.7904C34.7171 93.1709 36.1263 89.7683 38.686 87.2094L73.1769 52.7181C84.9493 40.9449 100.602 34.4613 117.251 34.4613C124.882 34.4613 132.341 35.8282 139.421 38.5237C140.82 39.0573 142.386 38.3542 142.918 36.9555C143.451 35.5568 142.748 33.9912 141.35 33.4586C133.651 30.5275 125.543 29.041 117.251 29.041C112.135 29.041 107.105 29.6054 102.233 30.7027C100.422 25.6427 97.3805 21.1478 93.3246 17.5869C92.6015 16.9517 91.5956 16.7479 90.6825 17.0517C78.2633 21.177 67.2157 28.0195 57.8468 37.388L50.1831 45.0518C49.675 45.5602 49.3896 46.2492 49.3896 46.9683C49.3896 47.687 49.675 48.376 50.1831 48.8848L59.7644 58.4654L55.7392 62.4906C50.4812 59.0128 43.3131 59.5869 38.686 64.2141L33.2892 69.6102C32.6167 70.2826 32.0957 71.0479 31.7087 71.8616L16.1235 56.2772C12.541 52.6939 7.77687 50.7207 2.70996 50.7207C1.21298 50.7207 0 51.9336 0 53.4306V70.6222C0 80.3517 3.47489 89.5475 9.83752 96.7918C3.47489 104.036 0 113.232 0 122.961V140.149C0 141.646 1.21298 142.859 2.70996 142.859C7.77687 142.859 12.5406 140.886 16.1235 137.303L37.1218 116.305C38.1783 115.247 39.8979 115.248 40.954 116.305L44.7855 120.136C41.8938 120.544 39.2229 121.868 37.1214 123.97C36.1321 124.959 36.0587 126.54 36.9527 127.617L57.9953 152.967C59.406 154.666 60.0748 156.846 59.8298 158.949C59.505 161.745 60.7002 164.588 62.9506 166.37C64.3825 167.504 66.0732 168.087 67.8242 168.087C68.7662 168.087 69.7262 167.918 70.6725 167.576C77.0211 165.28 82.1335 161.557 85.6116 156.731C95.2457 161.832 106.04 164.539 117.25 164.539C154.607 164.539 184.999 134.147 184.999 96.79C185 93.2573 182.734 90.2453 179.58 89.1262ZM55.9314 46.9679L61.6791 41.2203C70.0637 32.8353 79.8817 26.6143 90.8802 22.7134C93.5739 25.3735 95.6446 28.5698 96.9805 32.1144C86.662 35.3349 77.2068 41.0222 69.345 48.884C69.3425 48.8866 63.5963 54.6328 63.5963 54.6328L55.9314 46.9679ZM37.1214 73.4428L42.5182 68.0467C45.0146 65.5496 48.7428 65.0282 51.7635 66.4655L40.954 77.275C39.8957 78.3315 38.1772 78.3312 37.1221 77.275C36.066 76.2106 36.0678 74.4968 37.1214 73.4428ZM33.2892 112.472L12.2909 133.471C10.3831 135.379 8.00631 136.648 5.41992 137.17V122.961C5.41992 113.8 8.98768 105.186 15.4663 98.7079C16.5246 97.6492 16.5246 95.9336 15.4663 94.8753C8.98768 88.3971 5.41992 79.7837 5.41992 70.6222V56.4098C8.00595 56.9319 10.3828 58.2012 12.2909 60.1094L33.2895 81.1076C33.9623 81.7801 34.7265 82.304 35.5406 82.6888L34.8533 83.376C31.2701 86.959 29.2968 91.7227 29.2968 96.7896C29.2968 101.857 31.2701 106.62 34.853 110.204L35.5381 110.889C34.7157 111.283 33.9529 111.809 33.2892 112.472ZM68.8301 162.479C67.6598 162.902 66.8172 162.518 66.3164 162.122C65.5384 161.506 65.1059 160.506 65.2143 159.575C65.6291 156.009 64.518 152.338 62.1658 149.506L42.9373 126.341C44.0856 125.74 45.3694 125.421 46.7027 125.421C48.8743 125.421 50.9158 126.267 52.4511 127.803L69.3418 144.693C72.8911 148.243 76.766 151.348 80.897 153.986C78.0624 157.717 73.9436 160.63 68.8301 162.479ZM168.741 86.125C168.741 83.9065 169.752 81.8722 171.451 80.545C173.15 81.8726 174.161 83.9076 174.161 86.1258L174.161 88.6601H168.741C168.741 88.6601 168.741 86.1265 168.741 86.125ZM163.321 86.1258L163.321 88.6601H157.901L157.901 86.125C157.902 83.9065 158.913 81.8722 160.611 80.545C162.31 81.8726 163.321 83.9072 163.321 86.1258ZM155.188 146.213C149.529 150.208 142.501 150.797 136.152 147.746C129.509 144.554 125.382 137.997 125.382 130.633V126.419C128.949 131.629 134.143 135.676 140.571 137.985C140.874 138.094 141.183 138.145 141.487 138.145C142.598 138.145 143.64 137.457 144.038 136.351C144.544 134.943 143.812 133.39 142.404 132.884C131.745 129.055 125.382 119.881 125.382 108.342V80.7048C125.382 73.2332 131.46 67.1549 138.932 67.1549C146.403 67.1549 152.482 73.2332 152.482 80.7044L152.48 91.3697C152.48 92.0884 152.766 92.7778 153.274 93.2862C153.782 93.7946 154.471 94.08 155.19 94.08H176.87C178.365 94.08 179.58 95.2955 179.58 96.79C179.58 104.275 178.252 111.454 175.823 118.109C171.854 128.348 163.094 134.466 152.153 134.547C150.656 134.558 149.452 135.78 149.463 137.277C149.474 138.767 150.686 139.967 152.173 139.967H152.194C156.579 139.934 160.714 139.054 164.455 137.443C161.672 140.67 158.568 143.612 155.188 146.213Z" fill="black"/>
</g>
<defs>
<clipPath id="clip0_2_42164">
<rect width="185" height="185" fill="white"/>
</clipPath>
</defs>
</svg>
