<svg width="184" height="185" viewBox="0 0 184 185" fill="none" xmlns="http://www.w3.org/2000/svg">
<g clip-path="url(#clip0_2_42609)">
<path d="M102.579 60.77C99.9416 56.6032 93.8527 57.9617 92.8008 62.3407C92.1564 65.0225 90.462 67.2511 88.218 68.6943V88.481L110.493 78.9058C108.737 72.3148 106.037 66.2336 102.579 60.77Z" fill="#FFB464"/>
<path d="M100.079 81.7111C99.0676 77.9161 97.6671 74.2699 95.8997 70.8218C94.446 67.9853 90.89 66.978 88.2177 68.6986C86.9771 69.4975 85.5669 70.0543 84.0705 70.3101C78.2777 71.3016 72.5468 72.6197 66.9042 74.2641L64.5776 74.891L70.2568 96.2014L100.285 83.2934L100.079 81.7111Z" fill="#FFD06A"/>
<path d="M111.227 105.554L89.6602 154.333C107.538 154.333 122.008 139.788 122.008 121.813V105.554H111.227Z" fill="#FFB464"/>
<path d="M111.227 121.813V105.554L101.153 121.968C94.9426 121.572 89.681 126.504 89.6681 132.76L89.6602 136.576C89.6602 139.708 88.4383 142.774 86.0998 144.843C84.9775 145.837 84.2695 147.292 84.2695 148.913C84.2695 151.906 86.6831 154.333 89.6602 154.333C101.579 154.333 111.227 139.788 111.227 121.813Z" fill="#FFD06A"/>
<path d="M51.2842 99.8582L45.605 121.168L58.5439 124.654L78.1489 104.943L51.2842 99.8582Z" fill="#FEF1D4"/>
<path d="M26.2419 89.2238L13.4766 81.8137C10.1987 79.9074 6.48025 78.9058 2.69531 78.9058C2.69531 82.7113 3.6915 86.4499 5.58397 89.7456C5.58756 89.7456 11.8123 100.586 11.8123 100.586L5.58756 111.426C3.6915 114.721 2.69531 118.46 2.69531 122.265C6.48025 122.265 10.1987 121.264 13.4766 119.361C13.4766 119.359 21.0946 114.936 26.2419 111.947V89.2238Z" fill="#FFD06A"/>
<path d="M39.0636 108.184V92.9871C36.2914 93.734 33.3374 93.343 30.8519 91.9002L26.2419 89.2242C23.8531 92.3808 22.4835 96.3193 22.4832 100.585C22.4832 104.852 23.8527 108.791 26.2419 111.948C28.8678 110.423 30.8519 109.271 30.8519 109.271C33.3377 107.828 36.2914 107.437 39.0636 108.184Z" fill="#FFB464"/>
<path d="M33.2644 100.585C33.2644 103.864 35.1975 107.142 39.0636 108.184L69.8013 116.465C82.7148 120.239 96.3678 122.265 110.493 122.265C118.563 122.265 126.479 121.598 134.191 120.325L152.291 89.7456L33.2644 100.585Z" fill="#C2F0FC"/>
<path d="M123.025 79.4449C118.892 79.0897 114.718 78.9058 110.493 78.9058C96.3686 78.9058 82.7152 80.9321 69.8022 84.7058L39.0641 92.9867C35.198 94.0284 33.2649 97.3068 33.2649 100.585H143.511C142.761 89.5173 134.135 80.5176 123.025 79.4449Z" fill="#A8CAE0"/>
<path d="M132.789 95.6566C132.789 92.6634 130.375 90.2367 127.398 90.2367C124.421 90.2367 122.008 92.6634 122.008 95.6566V109.578C122.008 116.148 127.767 121.196 134.191 120.33C138.242 119.663 142.237 118.831 146.167 117.836C146.167 117.835 148.762 95.6566 148.762 95.6566H132.789Z" fill="#87A1C1"/>
<path d="M178.452 95.807C175.738 94.3634 172.971 93.0099 170.159 91.7377H156.354V114.848C164.023 112.29 171.409 109.11 178.452 105.364C182.256 103.341 182.256 97.8304 178.452 95.807Z" fill="#87A1C1"/>
<path d="M154.352 78.9061C150.355 78.9061 146.699 80.367 143.876 82.7828C137.096 81.1821 130.134 80.057 123.025 79.4449C128.553 79.9785 132.789 84.64 132.789 90.2366V107.312C132.789 114.356 139.373 119.556 146.167 117.835C149.613 116.962 153.01 115.965 156.354 114.85C164.801 112.031 170.523 104.115 170.523 95.1655C170.523 86.1858 163.283 78.9061 154.352 78.9061Z" fill="#98B6D1"/>
<path d="M154.349 100.585C157.326 100.585 159.74 98.1589 159.74 95.1655C159.74 92.1722 157.326 89.7456 154.349 89.7456C151.372 89.7456 148.958 92.1722 148.958 95.1655C148.958 98.1589 151.372 100.585 154.349 100.585Z" fill="#515985"/>
<path d="M154.352 87.036C149.893 87.036 146.266 90.6833 146.266 95.1659C146.266 99.6485 149.893 103.296 154.352 103.296C158.81 103.296 162.438 99.6485 162.438 95.1659C162.438 90.6833 158.81 87.036 154.352 87.036ZM154.352 97.8758C152.865 97.8758 151.656 96.6603 151.656 95.1659C151.656 93.6714 152.865 92.4559 154.352 92.4559C155.838 92.4559 157.047 93.6714 157.047 95.1659C157.047 96.6603 155.838 97.8758 154.352 97.8758Z" fill="black"/>
<path d="M70.5541 87.3082C70.5349 87.3139 70.5734 87.3033 70.5541 87.3082V87.3082Z" fill="black"/>
<path d="M179.712 93.4113C177.382 92.172 174.943 90.9626 172.449 89.8082C170.109 81.842 162.71 76.1958 154.352 76.1958C150.35 76.1958 146.453 77.4854 143.232 79.8528C133.189 77.5754 122.876 76.3519 112.529 76.2099C107.571 59.6018 96.6913 45.7503 81.7089 37.0532C66.13 28.0098 47.9683 25.6117 30.5695 30.2989C29.1317 30.6862 28.2785 32.1723 28.6638 33.618C29.049 35.0637 30.5271 35.9226 31.965 35.5341C47.9726 31.2224 64.6821 33.4283 79.0136 41.7472C85.4745 45.4978 91.103 50.2933 95.7328 55.9011C92.9811 56.7235 90.8525 58.9099 90.1808 61.7048C89.4488 64.7529 86.8728 67.0821 83.6183 67.6389C77.745 68.6437 71.8782 69.9947 66.1803 71.6539L63.8803 72.2736C62.9499 72.524 62.2236 73.2546 61.9742 74.1897C61.8488 74.6595 61.8538 75.1451 61.9757 75.5982C62.0058 75.7109 63.2507 80.3826 64.0672 83.4452L38.3665 90.3693C36.2706 90.9344 34.0799 90.6446 32.2004 89.5531L27.5899 86.8763C26.3001 86.128 24.652 86.5717 23.9078 87.8678C23.1635 89.1639 23.6048 90.8213 24.8939 91.57L29.505 94.2467C30.2835 94.6984 31.0949 95.0622 31.9272 95.3459C31.0586 96.8934 30.5699 98.6798 30.5699 100.585C30.5699 102.491 31.0586 104.277 31.9276 105.825C31.0956 106.11 30.2835 106.472 29.505 106.924L12.1278 117.011C10.115 118.182 7.90517 118.964 5.61991 119.325C5.97892 117.028 6.75625 114.805 7.91883 112.78L14.1472 101.94C14.6287 101.102 14.6287 100.068 14.1472 99.2301L7.92063 88.3889C6.75661 86.3651 5.97856 84.1433 5.61955 81.8456C7.90409 82.2065 10.115 82.9881 12.1289 84.157L12.139 84.1393L15.5577 86.1497C16.8471 86.8973 18.4952 86.4539 19.2399 85.1582C19.9841 83.8621 19.5428 82.2044 18.2537 81.4561C16.3652 80.3598 15.01 79.5721 14.8544 79.481C14.8447 79.4745 14.8343 79.4691 14.8242 79.463C11.1413 77.3254 6.94744 76.1955 2.69531 76.1955C1.20642 76.1955 0 77.4085 0 78.9054C0 83.1836 1.1252 87.401 3.25342 91.1003L8.70011 100.585C6.74834 103.983 3.45503 109.717 3.26852 110.038C3.26205 110.049 3.25594 110.06 3.24983 110.07C1.12377 113.774 0 117.99 0 122.266C0 123.763 1.20642 124.975 2.69531 124.975C6.95031 124.975 11.1449 123.844 14.8242 121.704L32.1996 111.618C34.0795 110.527 36.2696 110.238 38.3662 110.802L45.0944 112.614L43.0017 120.467C42.8167 121.161 42.9133 121.901 43.2709 122.523C43.6281 123.146 44.2171 123.6 44.9075 123.786L57.8468 127.271C58.0775 127.334 58.3118 127.364 58.5443 127.364C59.2498 127.364 59.938 127.085 60.4505 126.57L68.1522 118.826L69.0773 119.075C76.0998 121.126 83.2683 122.642 90.5248 123.626C88.2363 126.118 86.9799 129.321 86.9727 132.754L86.9652 136.575C86.9652 139.049 86.0006 141.321 84.3194 142.809C82.575 144.352 81.5745 146.578 81.5745 148.913C81.5745 153.395 85.2021 157.043 89.6605 157.043C96.996 157.043 104.019 154.792 109.97 150.533C111.183 149.666 111.467 147.974 110.603 146.754C109.741 145.535 108.057 145.25 106.845 146.118C101.811 149.719 95.8694 151.622 89.6608 151.622C88.1745 151.622 86.9655 150.407 86.9655 148.912C86.9655 148.134 87.2994 147.392 87.8812 146.877C90.7253 144.36 92.3561 140.605 92.3561 136.581L92.3637 132.765C92.3684 130.502 93.2754 128.405 94.9174 126.858C96.5673 125.304 98.7228 124.526 100.982 124.672C101.009 124.673 101.034 124.67 101.061 124.671C104.195 124.869 107.34 124.974 110.493 124.974C113.389 124.974 116.282 124.886 119.168 124.716C118.674 129.899 116.859 134.82 113.836 139.089C112.973 140.308 113.256 142.001 114.468 142.868C114.942 143.208 115.488 143.371 116.029 143.371C116.872 143.371 117.701 142.975 118.227 142.233C121.987 136.924 124.17 130.765 124.615 124.292C143.869 122.437 162.684 116.817 179.713 107.759C182.358 106.352 184.001 103.603 184.001 100.585C184 97.5673 182.357 94.8183 179.712 93.4113ZM84.5225 72.9818C89.9041 72.0608 94.1818 68.1339 95.4202 62.9774C95.7156 61.7485 96.7556 61.1541 97.6303 61.0078C98.1478 60.9211 99.4445 60.8665 100.304 62.2251C103.05 66.5589 105.261 71.2597 106.886 76.245C94.1063 76.5532 81.4714 78.4964 69.2724 82.0403L67.8766 76.8029C73.3186 75.226 78.9177 73.9408 84.5225 72.9818ZM57.7386 121.632L48.9059 119.252L50.301 114.017L62.1395 117.207L57.7386 121.632ZM123.094 118.991C118.909 119.364 114.704 119.556 110.493 119.556C96.917 119.556 83.4796 117.64 70.5539 113.863C70.5539 113.848 39.7612 105.567 39.7612 105.567C36.9585 104.812 35.9598 102.498 35.9598 100.585C35.9598 98.673 36.9585 96.3598 39.7612 95.6046L70.5539 87.3085C83.4785 83.5312 96.9159 81.6161 110.493 81.6161C114.591 81.6161 118.686 81.7932 122.763 82.1437C126.136 82.4667 128.832 84.7781 129.752 87.879C129.007 87.6507 128.217 87.5267 127.398 87.5267C122.94 87.5267 119.312 91.174 119.312 95.6566V109.578C119.312 113.114 120.677 116.475 123.094 118.991ZM133.463 117.681C131.334 117.867 129.216 117.196 127.567 115.791C125.747 114.24 124.703 111.976 124.703 109.579V95.657C124.703 94.1625 125.912 92.947 127.398 92.947C128.885 92.947 130.094 94.1625 130.094 95.657V107.313C130.094 111.245 131.748 114.906 134.657 117.483C134.26 117.551 133.861 117.616 133.463 117.681ZM177.192 102.968C166.983 108.398 156.108 112.547 144.878 115.337C142.662 115.715 140.409 115.15 138.609 113.74C136.623 112.184 135.484 109.842 135.484 107.312V90.2367C135.484 87.7891 134.85 85.4975 133.734 83.5182C136.936 84.0453 140.117 84.6787 143.269 85.4231C144.102 85.6186 144.98 85.4068 145.632 84.8482C148.068 82.7637 151.165 81.6158 154.352 81.6158C160.656 81.6158 166.196 86.1125 167.523 92.3085C167.704 93.1501 168.271 93.8554 169.052 94.2091C171.856 95.4774 174.594 96.8212 177.191 98.2025C178.079 98.6748 178.609 99.5655 178.609 100.585C178.609 101.606 178.079 102.497 177.192 102.968Z" fill="black"/>
<path d="M111.114 100.586C112.603 100.586 113.809 99.3725 113.809 97.8759C113.809 96.3792 112.603 95.1659 111.114 95.1659C109.625 95.1659 108.419 96.3792 108.419 97.8759C108.419 99.3725 109.625 100.586 111.114 100.586Z" fill="black"/>
<path d="M100.333 106.006C101.821 106.006 103.028 104.792 103.028 103.296C103.028 101.799 101.821 100.586 100.333 100.586C98.8442 100.586 97.6375 101.799 97.6375 103.296C97.6375 104.792 98.8442 106.006 100.333 106.006Z" fill="black"/>
<path d="M78.7703 106.006C80.2588 106.006 81.4656 104.792 81.4656 103.296C81.4656 101.799 80.2588 100.586 78.7703 100.586C77.2817 100.586 76.075 101.799 76.075 103.296C76.075 104.792 77.2817 106.006 78.7703 106.006Z" fill="black"/>
<path d="M89.5515 100.586C91.0401 100.586 92.2468 99.3725 92.2468 97.8759C92.2468 96.3792 91.0401 95.1659 89.5515 95.1659C88.0629 95.1659 86.8562 96.3792 86.8562 97.8759C86.8562 99.3725 88.0629 100.586 89.5515 100.586Z" fill="black"/>
<path d="M67.989 100.586C69.4776 100.586 70.6843 99.3725 70.6843 97.8759C70.6843 96.3792 69.4776 95.1659 67.989 95.1659C66.5004 95.1659 65.2937 96.3792 65.2937 97.8759C65.2937 99.3725 66.5004 100.586 67.989 100.586Z" fill="black"/>
</g>
<defs>
<clipPath id="clip0_2_42609">
<rect width="184" height="185" fill="white"/>
</clipPath>
</defs>
</svg>
