<svg width="185" height="185" viewBox="0 0 185 185" fill="none" xmlns="http://www.w3.org/2000/svg">
<g clip-path="url(#clip0_2_43676)">
<path d="M169.397 87.152C169.397 87.152 173.559 74.133 181.663 64.1214C183.254 62.1557 181.607 59.2405 179.1 59.569C164.546 61.4746 153.137 69.202 144.41 81.958V92.3465C153.136 105.102 164.546 112.83 179.1 114.735C181.607 115.064 183.254 112.148 181.663 110.183C173.559 100.171 169.397 87.152 169.397 87.152Z" fill="#8697A6"/>
<path d="M50.754 116.988C49.2859 126.401 56.0145 135.514 60.2865 140.225C61.4724 141.532 63.6425 140.792 63.7925 139.033C64.0617 135.873 64.6882 131.71 66.144 128.805C66.9429 127.21 66.8717 125.306 65.8596 123.838C60.7212 116.382 50.754 116.988 50.754 116.988Z" fill="#6B7D8E"/>
<path d="M89.1215 60.4553L69.7398 58.9414C64.5685 56.1013 64.2437 45.4887 71.8861 44.2317C79.6727 45.1169 86.874 50.909 89.1215 60.4553Z" fill="#8697A6"/>
<path d="M69.7395 58.9413L51.113 57.4888C55.6911 47.3716 64.0811 43.3392 71.8858 44.2317C67.6619 46.8152 68.3665 53.6081 69.7395 58.9413Z" fill="#6B7D8E"/>
<path d="M143.332 78.4458L116.539 70.1389C108.864 64.7663 110.164 49.8207 117.276 49.0626C121.984 60.1409 143.068 63.8735 143.332 78.4458Z" fill="#8697A6"/>
<path d="M116.539 70.1389L95.3616 63.57C99.9468 47.368 111.889 44.929 115.379 44.5605C115.896 44.5063 116.344 44.8929 116.384 45.4132C116.481 46.7176 116.792 47.9281 117.276 49.0626C113.236 53.778 114.071 62.6847 116.539 70.1389Z" fill="#6B7D8E"/>
<path d="M143.331 95.8586C143.071 110.048 123.068 113.961 117.677 124.389C110.272 124.389 107.213 111.352 116.297 104.241L143.331 95.8586Z" fill="#8697A6"/>
<path d="M117.677 124.389C116.998 125.704 116.55 127.124 116.402 128.682C116.34 129.328 115.748 129.791 115.105 129.711C111.3 129.245 99.8348 126.535 95.3616 110.735L116.297 104.241C112.749 112.223 112.012 120.476 117.677 124.389Z" fill="#6B7D8E"/>
<path d="M157.969 84.2163V90.0878C157.969 94.2178 154.833 97.7119 150.717 98.0732C141.569 98.879 132.604 101.21 124.225 105.043C119.112 107.381 113.298 109.502 107.214 111.352C68.6783 114.261 60.2366 62.2753 75.778 56.101C91.3946 58.1822 110.375 62.9301 124.225 69.2605C132.604 73.0942 141.569 75.4248 150.718 76.2305C154.833 76.5922 157.969 80.0863 157.969 84.2163Z" fill="#91D4F2"/>
<path d="M107.213 111.352C90.827 116.339 72.4676 119.363 60.4859 119.363C49.9352 119.363 40.6237 116.996 32.6528 113.542C36.8081 106.149 43.4023 98.648 43.4023 87.1506C43.4023 75.6567 35.9373 66.4645 32.6528 60.7628C40.6237 57.3121 49.9352 54.9418 60.4859 54.9418C64.8688 54.9418 70.1009 55.3465 75.7773 56.1016C67.0946 70.9446 79.2754 106.12 107.213 111.352Z" fill="#59C2E8"/>
<path d="M49.4943 87.1502C49.4943 98.6477 42.4051 108.913 32.6528 113.542C20.2701 108.18 11.1285 100.201 5.61824 94.4202C1.74119 90.3516 1.74119 83.9525 5.61824 79.8839C11.1285 74.1027 20.2701 66.1246 32.6528 60.7625C42.4051 65.3911 49.4943 75.6564 49.4943 87.1502Z" fill="#00AEDE"/>
<path d="M96.536 81.7126C93.2732 85.1235 89.1721 89.8533 87.286 94.2109C87.0836 94.677 86.8379 95.1142 86.5488 95.5225C78.4573 96.5133 74.3634 82.0793 82.9753 77.8753C86.8235 77.1237 90.8848 76.99 95.0726 77.5465C97.0816 77.8099 97.9343 80.2488 96.536 81.7126Z" fill="#8697A6"/>
<path d="M86.5488 95.5225C85.4143 97.1485 83.6582 98.2758 81.6637 98.6227C76.2546 99.5622 71.0009 97.6724 68.5402 96.574C67.7814 96.2343 67.4779 95.3274 67.8609 94.5939C69.7651 90.9589 68.6342 87.8949 67.7778 86.3737C67.4201 85.7414 67.5719 84.9428 68.15 84.502C72.4859 81.2139 77.5156 78.9267 82.9753 77.8752C77.4181 83.8046 80.9844 93.528 86.5488 95.5225Z" fill="#6B7D8E"/>
<path d="M64.8744 94.3013C64.4347 94.926 64.279 95.7079 64.4462 96.4537C64.6132 97.1991 65.0876 97.8398 65.7521 98.2173C66.0318 98.376 71.7783 101.588 78.6439 101.588C79.7832 101.588 80.9539 101.5 82.1351 101.294C85.5514 100.699 88.4092 98.454 89.7797 95.2877C91.1307 92.1655 94.0643 88.2288 98.4982 83.5875C99.8542 82.1682 100.292 80.1379 99.6411 78.2894C98.9863 76.43 97.3622 75.1144 95.403 74.8564C84.4216 73.4078 73.7577 76.3888 65.3745 83.2479C64.7989 83.719 64.4087 84.368 64.3545 85.1098C64.3003 85.8516 64.52 86.5454 65.0215 87.0946C65.2928 87.4248 67.5967 90.4332 64.8744 94.3013ZM94.2638 80.1751C89.4957 85.2081 86.4002 89.4504 84.806 93.1349C84.1632 94.6196 82.8173 95.674 81.2057 95.9547C77.2463 96.6423 73.2782 95.533 70.8389 94.5918C72.1216 91.2842 71.6099 88.2299 70.6517 86.0366C77.4411 81.2205 85.7245 79.1529 94.2638 80.1751Z" fill="black"/>
<path d="M31.9089 82.7836V78.4476C31.9089 76.9506 30.6956 75.7377 29.199 75.7377C27.7024 75.7377 26.489 76.9506 26.489 78.4476V82.7836C26.489 84.2806 27.7024 85.4935 29.199 85.4935C30.6956 85.4935 31.9089 84.2806 31.9089 82.7836Z" fill="black"/>
<path d="M180.594 104.104C179.772 102.853 178.091 102.506 176.841 103.328C175.59 104.15 175.242 105.83 176.064 107.081C177.208 108.824 178.396 110.451 179.583 111.921C169.969 111.159 161.348 106.645 154.273 99.9177C158.046 98.2433 160.681 94.4197 160.681 90.0892V84.2194C160.681 79.8893 158.046 76.0657 154.273 74.391C161.391 67.5228 169.67 63.5396 179.454 62.2586C171.901 72.2454 166.706 85.8816 166.818 86.3289C166.646 86.8662 166.647 87.4436 166.819 87.9805C166.86 88.1095 167.852 91.188 169.792 95.5142C170.405 96.8938 172.04 97.4856 173.373 96.8782C174.739 96.2661 175.349 94.6625 174.737 93.2967C173.499 90.5351 172.667 88.2978 172.263 87.1545C173.31 84.1989 177.237 73.9014 183.772 65.8289C185.196 64.0696 185.399 61.6527 184.29 59.6712C183.177 57.6835 181.004 56.5887 178.751 56.8843C166.699 58.4622 156.321 63.95 147.88 73.1986C146.905 73.0746 145.934 72.9308 144.968 72.7711C142.563 66.3789 136.607 62.3121 130.829 58.3711C124.516 54.0652 119.063 50.3464 119.063 44.4983C119.063 43.7796 118.777 43.0902 118.269 42.5818C117.761 42.0738 117.072 41.7883 116.353 41.7883C115.75 41.7883 102.129 41.9712 94.9936 56.8716C93.4905 56.5236 91.9917 56.1938 90.5009 55.8827C87.1777 47.7033 80.0914 42.2393 71.6713 41.4888C63.1733 40.7296 55.3407 44.9908 50.4751 52.9331C33.1805 54.5324 12.2516 68.0551 3.6636 78.0165C-1.2212 83.1398 -1.2212 91.1667 3.6636 96.2896C6.43534 99.1969 9.43509 101.951 12.5794 104.474C13.7468 105.411 15.4523 105.224 16.3892 104.057C17.3261 102.89 17.1393 101.185 15.9722 100.248C13.0144 97.8737 10.1932 95.2837 7.58654 92.5495C4.70133 89.5234 4.70133 84.7824 7.58654 81.7563C12.6368 76.4592 21.0485 69.0513 32.421 63.8499C41.1879 68.265 46.791 77.282 46.791 87.1527C46.791 97.0278 41.1832 106.049 32.4091 110.462C30.2667 109.481 28.149 108.388 26.0591 107.178C24.7648 106.427 23.1059 106.869 22.3558 108.164C21.6057 109.459 22.0472 111.117 23.3422 111.867C30.959 116.279 39.3325 119.449 47.8923 120.958C48.4444 129.87 54.5017 137.872 58.2856 142.044C59.5513 143.445 61.5386 143.946 63.2972 143.346C65.0821 142.743 66.3388 141.14 66.4989 139.262C66.8415 135.239 67.5587 132.042 68.5729 130.018C69.9427 127.304 69.5872 124.072 67.7119 121.774C75.6647 121.178 85.2576 119.689 94.9947 117.435C102.131 132.335 115.752 132.518 116.354 132.518C117.073 132.518 117.762 132.232 118.27 131.724C118.779 131.216 119.064 130.527 119.064 129.808C119.064 123.96 124.517 120.241 130.83 115.935C136.608 111.994 142.565 107.928 144.969 101.535C145.935 101.375 146.906 101.231 147.882 101.108C156.321 110.356 166.7 115.844 178.752 117.422C180.968 117.722 183.184 116.629 184.291 114.635C185.4 112.654 185.196 110.237 183.773 108.478C182.702 107.158 181.633 105.686 180.594 104.104ZM113.951 47.523C115.392 54.4041 121.675 58.6887 127.775 62.8494C131.728 65.5457 135.528 68.1385 137.956 71.2843C133.632 70.1555 129.421 68.6589 125.355 66.7995C117.893 63.3871 109.204 60.4892 100.401 58.1984C104.478 50.5737 110.594 48.2366 113.951 47.523ZM71.19 46.8881C76.3415 47.347 80.8473 50.1856 83.7325 54.5869C74.9381 53.0556 66.7782 52.2347 60.4926 52.2347C59.5632 52.2347 58.6436 52.2535 57.7331 52.2882C61.3742 48.4079 66.1463 46.4375 71.19 46.8881ZM52.2106 87.1542C52.2106 76.7595 47.0667 67.1489 38.7316 61.3228C45.2149 59.084 52.4866 57.655 60.4926 57.655C75.8009 57.655 104.09 63.0355 123.101 71.7283C131.156 75.4117 139.735 77.7687 148.63 78.7468C151.928 78.638 155.301 80.5494 155.262 84.2194V90.0892C155.262 92.8191 153.163 95.1417 150.483 95.3773C140.971 96.2123 131.705 98.6404 123.101 102.58C104.091 111.272 75.8013 116.653 60.4926 116.653C53.0514 116.653 45.7688 115.424 38.7211 112.992C47.0624 107.167 52.2106 97.5532 52.2106 87.1542ZM63.7264 127.591C62.5402 129.959 61.7106 133.191 61.2546 137.216C58.1833 133.606 54.1711 127.849 53.4 121.724C55.6284 121.944 57.8729 122.056 60.1316 122.067C61.5484 122.948 62.7252 124.058 63.6332 125.376C64.0632 126 64.099 126.849 63.7264 127.591ZM127.775 111.459C121.676 115.619 115.393 119.904 113.951 126.784C110.587 126.069 104.475 123.73 100.401 116.11C109.204 113.818 117.894 110.921 125.355 107.508C129.421 105.649 133.632 104.152 137.956 103.023C135.528 106.169 131.728 108.763 127.775 111.459Z" fill="black"/>
</g>
<defs>
<clipPath id="clip0_2_43676">
<rect width="185" height="185" fill="white"/>
</clipPath>
</defs>
</svg>
