<svg width="185" height="185" viewBox="0 0 185 185" fill="none" xmlns="http://www.w3.org/2000/svg">
<path d="M107.594 54.3293L107.301 54.2968C98.886 37.4867 106.621 7.58681 116.378 2.99902C117.624 3.46152 118.679 4.47686 119.102 5.94385C125.01 26.4781 121.292 40.1038 107.594 54.3293Z" fill="#C5CFF1"/>
<path d="M107.301 54.2968L92.3238 52.6383C91.7746 35.6667 101.14 16.3935 111.431 4.26734C112.735 2.73169 114.723 2.3812 116.377 2.99907C107.72 14.623 105.249 36.8194 107.301 54.2968Z" fill="#ADC0ED"/>
<path d="M119.991 179.056C119.658 180.208 118.936 181.087 118.032 181.632C106.554 173.016 100.464 143.026 105.632 130.985L108.486 130.67C122.18 144.896 125.902 158.522 119.991 179.056Z" fill="#ADC0ED"/>
<path d="M118.032 181.632C116.273 182.698 113.837 182.517 112.32 180.732C102.029 168.606 92.6671 149.333 93.2127 132.361L105.632 130.985C105.53 148.274 109.223 168.895 118.032 181.632Z" fill="#99B2E9"/>
<path d="M151.744 104.236C153.703 106.519 154.891 109.486 154.891 112.73C154.891 119.242 150.122 124.64 143.889 125.619C144.749 127.596 145.143 129.821 144.908 132.159C144.203 139.266 137.573 144.444 130.469 143.707C123.365 142.97 116.421 141.283 109.35 140.253C66.0198 125.128 54.7026 71.2731 85.8054 46.2642C89.6499 45.6716 93.3066 45.4223 96.6416 45.5596C108.276 46.0329 119.174 42.4666 130.469 41.2923C137.573 40.5552 144.203 45.733 144.908 52.8403C145.143 55.1781 144.749 57.4039 143.889 59.3804C150.122 60.3596 154.891 65.7578 154.891 72.269C154.891 75.5137 153.703 78.4802 151.744 80.7638C156.087 82.8812 159.083 87.34 159.083 92.4997C159.083 97.6595 156.087 102.119 151.744 104.236Z" fill="#E8ECF9"/>
<path d="M109.35 140.253C105.176 139.646 100.96 139.263 96.6417 139.44C75.0668 140.318 39.877 125.153 28.7156 105.081C27.534 102.953 28.3145 100.265 30.4211 99.047L33.0551 97.5258C34.3523 96.7778 34.3523 94.9061 33.0551 94.1582L28.17 91.3362C26.3959 90.3137 25.5323 88.2216 26.0815 86.2487C31.6026 66.3685 62.2071 49.8774 85.8054 46.2642C66.5539 79.4272 80.9203 121.923 109.35 140.253Z" fill="#C5CFF1"/>
<path d="M111.705 90.0502C104.696 95.1413 100.389 100.034 98.1989 102.895C85.896 102.895 82.2267 86.1721 91.7275 82.4587C98.2278 82.1118 104.992 83.5463 111.08 85.6745C112.981 86.3394 113.335 88.865 111.705 90.0502Z" fill="#C5CFF1"/>
<path d="M98.199 102.895C97.9244 103.253 97.6859 103.582 97.4764 103.871C96.667 104.998 95.3662 105.66 93.9787 105.696C87.305 105.862 79.7026 102.61 76.7759 101.223C76.1255 100.915 75.8906 100.124 76.2411 99.499C78.7812 94.9896 77.0649 91.1595 76.0243 89.501C75.6883 88.9663 75.8111 88.2617 76.3098 87.8714C80.8733 84.334 86.2065 82.755 91.7276 82.4587C87.0159 89.9924 89.8776 99.658 98.199 102.895Z" fill="#ADC0ED"/>
<path d="M72.8977 101.234C73.0777 101.992 73.5749 102.636 74.2625 103.001C74.6863 103.227 84.5444 108.412 93.4829 108.412C95.9006 108.507 98.2814 107.412 99.6765 105.451C101.54 102.86 105.788 97.6984 113.3 92.2409C114.875 91.0966 115.678 89.191 115.395 87.2672C115.112 85.3446 113.795 83.7512 111.957 83.1094C100.861 79.2342 85.2035 76.6868 73.6319 86.559C73.0791 87.0309 72.7387 87.7048 72.6874 88.4296C72.6361 89.1545 72.8782 89.8692 73.3588 90.414C73.4964 90.5701 76.6917 94.2889 73.3234 99.0415C72.8732 99.6774 72.7181 100.476 72.8977 101.234ZM109.788 88.0943C101.864 93.9113 97.3022 99.4697 95.2762 102.287C94.9709 102.711 94.4603 102.973 93.9104 102.987C88.6683 103.13 82.6189 100.85 79.3026 99.3949C80.9528 95.4517 80.2255 91.7918 79.0031 89.2625C88.329 82.8673 100.678 84.9717 109.788 88.0943Z" fill="black"/>
<path d="M120.836 127.5C121.251 127.73 121.702 127.839 122.145 127.839C123.099 127.839 124.025 127.335 124.519 126.44C129.966 116.591 133.211 104.956 133.656 93.6783C134.171 80.6615 130.976 68.4594 124.418 58.3917C123.601 57.1376 121.922 56.7838 120.668 57.6004C119.414 58.4174 119.06 60.0961 119.877 61.3503C133.627 82.4595 128.416 108.194 119.776 123.817C119.052 125.127 119.526 126.776 120.836 127.5Z" fill="black"/>
<path d="M46.7266 80.2388V84.5747C46.7266 86.0717 47.9399 87.2847 49.4365 87.2847C50.9331 87.2847 52.1465 86.0717 52.1465 84.5747V80.2388C52.1465 78.7418 50.9331 77.5288 49.4365 77.5288C47.9399 77.5288 46.7266 78.7421 46.7266 80.2388Z" fill="black"/>
<path d="M161.794 92.4997C161.794 87.4808 159.478 82.9035 155.593 79.9605C156.901 77.6242 157.601 74.9764 157.601 72.2678C157.601 65.5247 153.43 59.7215 147.33 57.4841C147.674 55.8802 147.769 54.221 147.606 52.5715C147.201 48.4914 145.188 44.7849 141.939 42.1349C138.65 39.452 134.367 38.1639 130.189 38.5968C127.419 38.8847 124.665 39.3151 121.954 39.7881C126.36 29.7663 126.526 18.8516 122.596 5.19198C121.864 2.64751 119.797 0.71982 117.201 0.161568C114.619 -0.394155 111.957 0.50772 110.255 2.51345C102.51 11.6388 93.6313 26.8597 91.1515 42.9479C84.1569 43.4194 76.1792 45.1719 68.1046 48.0567C66.6954 48.5604 65.9608 50.1112 66.4641 51.5204C66.9678 52.9296 68.5186 53.6641 69.9282 53.1605C78.3562 50.1499 86.6042 48.4444 93.5269 48.2525C106.444 49.0478 118.281 45.4916 130.749 43.9878C133.502 43.7002 136.333 44.5569 138.514 46.335C140.638 48.0672 141.951 50.4718 142.212 53.1063C142.391 54.9107 142.119 56.6563 141.404 58.2946C141.068 59.0638 141.108 59.9451 141.512 60.6819C141.915 61.4179 142.637 61.9252 143.466 62.056C148.516 62.8516 152.181 67.1467 152.181 72.2682C152.181 74.7346 151.295 77.1248 149.687 78.9979C149.14 79.635 148.918 80.4899 149.089 81.3123C149.259 82.1343 149.8 82.8316 150.556 83.1995C154.145 84.9483 156.374 88.5117 156.374 92.5001C156.374 96.4884 154.145 100.052 150.556 101.801C149.801 102.168 149.259 102.865 149.089 103.688C148.918 104.51 149.14 105.366 149.687 106.002C151.295 107.876 152.181 110.265 152.181 112.732C152.181 117.853 148.516 122.148 143.466 122.944C142.637 123.075 141.915 123.582 141.512 124.318C141.108 125.055 141.068 125.936 141.404 126.706C142.119 128.343 142.391 130.089 142.212 131.893C141.951 134.528 140.638 136.933 138.514 138.665C136.333 140.443 133.505 141.3 130.749 141.012C119.196 139.778 108.501 136.25 96.5299 136.733C86.2992 137.15 72.6215 133.763 59.9447 127.675C46.4466 121.192 35.9276 112.477 31.084 103.765C30.6262 102.942 30.9365 101.878 31.7752 101.394L34.4107 99.8726C35.868 99.0311 36.7377 97.5243 36.7377 95.8416C36.7377 94.1593 35.8672 92.6529 34.4107 91.8121L29.5227 88.9898C28.8163 88.5818 28.4745 87.7526 28.6909 86.9728C31.5739 76.5926 42.4694 66.0295 58.5843 57.9921C59.9237 57.3237 60.4679 55.6966 59.7998 54.3572C59.1321 53.0177 57.5043 52.4732 56.1652 53.1417C38.6791 61.8634 26.7618 73.6655 23.4686 85.5224C22.591 88.6837 23.9658 92.0394 26.8127 93.6834L30.5517 95.8423L29.066 96.7001C25.6807 98.6546 24.4608 103.005 26.3473 106.399C31.8019 116.21 42.9005 125.501 57.5989 132.56C68.8778 137.977 80.9993 141.368 91.1526 142.055C93.6328 158.141 102.511 173.361 110.255 182.486C111.956 184.501 114.661 185.393 117.201 184.838C119.797 184.28 121.864 182.352 122.597 179.807C123.261 177.499 123.817 175.225 124.247 173.052C124.538 171.583 123.584 170.157 122.116 169.866C120.647 169.577 119.222 170.53 118.931 171.998C118.53 174.023 118.01 176.146 117.388 178.308C117.127 179.218 116.374 179.472 116.062 179.539C115.757 179.604 114.984 179.681 114.388 178.979C107.277 170.6 99.1463 156.776 96.6538 142.151C96.686 142.15 96.7189 142.15 96.7507 142.148C103.031 141.891 109.038 142.856 115.298 143.998C118.149 149.085 119.67 154.348 119.943 160.049C120.012 161.5 121.21 162.63 122.647 162.63C122.691 162.63 122.735 162.628 122.779 162.626C124.274 162.555 125.428 161.285 125.356 159.79C125.111 154.662 123.988 149.851 121.951 145.211C124.663 145.684 127.418 146.115 130.189 146.403C134.37 146.836 138.649 145.547 141.939 142.864C145.189 140.214 147.201 136.507 147.606 132.427C147.769 130.778 147.674 129.119 147.329 127.515C153.43 125.278 157.601 119.475 157.601 112.732C157.601 110.023 156.901 107.375 155.593 105.039C159.478 102.096 161.794 97.5185 161.794 92.4997ZM96.7503 42.8507C96.7185 42.8496 96.6852 42.8496 96.6531 42.8485C99.1455 28.2234 107.276 14.3993 114.387 6.02123C114.983 5.3188 115.756 5.39541 116.061 5.46081C116.373 5.52801 117.126 5.78203 117.388 6.69113C121.448 20.8017 120.834 31.1469 115.298 41.0007C109.037 42.1421 103.028 43.1047 96.7503 42.8507Z" fill="black"/>
</svg>
