<svg width="185" height="184" viewBox="0 0 185 184" fill="none" xmlns="http://www.w3.org/2000/svg">
<g clip-path="url(#clip0_2_42876)">
<path d="M94.0892 58.9382C89.6354 55.5478 84.1826 53.7107 78.5741 53.7107L103.044 84.3816L125.257 82.6634L94.0892 58.9382Z" fill="#7587B3"/>
<path d="M78.5737 53.7107V86.2744L103.044 84.3816L86.3314 58.9382C84.1046 55.5478 81.378 53.7107 78.5737 53.7107Z" fill="#87A1C1"/>
<path d="M111.093 103.336V130.289C120.081 130.289 127.353 123.056 127.353 114.117V103.336H111.093Z" fill="#87A1C1"/>
<path d="M67.6808 119.74C72.0055 120.953 80.0133 122.721 80.0133 122.721L100.253 102.591L67.6808 100.009V119.74Z" fill="#7587B3"/>
<path d="M51.563 92.7212L45.8529 113.916L67.2663 119.623C67.4 119.661 67.5387 119.701 67.6807 119.74L87.5191 100.009L51.563 92.7212Z" fill="#87A1C1"/>
<path d="M26.3845 82.1444L13.5498 74.7743C10.2541 72.8783 6.51547 71.8821 2.70996 71.8821C2.70996 75.667 3.71156 79.3855 5.61432 82.6633C5.61793 82.6633 11.8765 93.4446 11.8765 93.4446L5.61793 104.226C3.71156 107.504 2.70996 111.222 2.70996 115.007C6.51547 115.007 10.2541 114.011 13.5498 112.118C13.5498 112.116 21.2092 107.717 26.3845 104.744V82.1444Z" fill="#87A1C1"/>
<path d="M39.2761 101.002V85.8873C36.4888 86.6301 33.5187 86.2413 31.0197 84.8063L26.3846 82.1448C23.9829 85.2843 22.6058 89.2011 22.6055 93.4446C22.6055 97.6881 23.9825 101.606 26.3846 104.746C29.0248 103.229 31.0197 102.084 31.0197 102.084C33.519 100.648 36.4888 100.259 39.2761 101.002Z" fill="#7587B3"/>
<path d="M33.4456 93.4446C33.4456 96.7052 35.3891 99.9662 39.2763 101.002L70.1811 109.238C83.1647 112.992 96.8919 115.007 111.094 115.007C122.682 115.007 133.952 113.659 144.762 111.125L153.119 82.6633L33.4456 93.4446Z" fill="#C2F0FC"/>
<path d="M133.469 73.5751C126.174 72.4614 118.702 71.8821 111.093 71.8821C96.892 71.8821 83.1644 73.8975 70.1812 77.6508L39.2761 85.8869C35.3889 86.923 33.4453 90.1836 33.4453 93.4446H153.119C151.628 83.4004 143.784 75.23 133.469 73.5751Z" fill="#A8CAE0"/>
<path d="M153.302 94.9949H142.544C142.544 92.0178 140.117 89.6042 137.124 89.6042C134.131 89.6042 131.704 92.0178 131.704 94.9949V100.575C131.704 107.439 138.057 112.52 144.762 111.125C148.792 110.181 152.76 109.077 156.653 107.809L153.302 94.9949Z" fill="#98B6D1"/>
<path d="M179.422 88.6918C175.163 86.4511 170.778 84.4174 166.283 82.5957L156.787 107.764C164.646 105.197 172.213 101.99 179.421 98.1972C183.246 96.1851 183.246 90.7043 179.422 88.6918Z" fill="#B9DFF0"/>
<path d="M166.283 82.5958C155.887 78.3824 144.897 75.3198 133.469 73.5754C138.702 74.4149 142.544 78.933 142.544 84.2137V97.5303C142.544 104.83 149.678 110 156.654 107.81C156.698 107.795 156.742 107.781 156.787 107.766C164.483 105.251 169.644 98.0482 169.644 89.991V87.5785L166.283 82.5958Z" fill="#C2F0FC"/>
<path d="M164.223 92.9688C167.216 92.9688 169.643 90.5553 169.643 87.5781C169.643 84.601 167.216 82.1875 164.223 82.1875C161.23 82.1875 158.803 84.601 158.803 87.5781C158.803 90.5553 161.23 92.9688 164.223 92.9688Z" fill="#515985"/>
<path d="M180.689 86.3092C159.67 75.2506 135.946 69.3428 112.021 69.1936L95.7361 56.7977C90.8379 53.0689 84.743 51.0154 78.5737 51.0154C77.0771 51.0154 75.8637 52.2218 75.8637 53.7107V73.3628C73.7149 73.881 71.5762 74.4412 69.452 75.0547L38.5743 83.2833C36.4656 83.845 34.2644 83.5568 32.3743 82.4715L27.7388 79.8092C26.4431 79.0657 24.7853 79.5063 24.037 80.7954C23.2883 82.0844 23.7324 83.7329 25.0285 84.4775L29.6647 87.1398C30.4473 87.589 31.2632 87.9505 32.0997 88.2333C31.2263 89.7725 30.7353 91.5493 30.7353 93.4443C30.7353 95.3382 31.226 97.1138 32.0986 98.6527C31.2625 98.9362 30.447 99.2992 29.6647 99.7484L12.193 109.782C10.1696 110.946 7.94741 111.724 5.64973 112.083C6.01069 109.798 6.79225 107.587 7.96114 105.574L14.2233 94.7919C14.7075 93.9582 14.7075 92.9304 14.2233 92.0966L7.96367 81.3136C6.79333 79.3007 6.01105 77.0909 5.64973 74.8056C7.94705 75.1647 10.1696 75.9334 12.1948 77.0959L15.6423 79.0869C16.9383 79.8308 18.5958 79.3898 19.3444 78.1008C20.0931 76.8117 19.649 75.1632 18.3529 74.4186C16.4513 73.3265 15.0873 72.5423 14.9344 72.4535C14.9247 72.4478 14.9145 72.442 14.9048 72.4363C11.2019 70.3102 6.9852 69.1865 2.70996 69.1865C1.21334 69.1865 0 70.3929 0 71.8818C0 76.1368 1.13132 80.3318 3.2711 84.0107L8.74739 93.4443C6.78683 96.8213 3.47959 102.517 3.287 102.846C3.2805 102.856 3.27399 102.867 3.26785 102.878C1.12987 106.561 0 110.755 0 115.007C0 116.496 1.21334 117.703 2.70996 117.703C6.98809 117.703 11.2055 116.578 14.9048 114.449L32.3746 104.417C34.2647 103.332 36.4663 103.045 38.5747 103.606C38.575 103.606 41.4631 104.375 45.3391 105.408L43.2351 113.219C42.8477 114.656 43.7059 116.134 45.1516 116.52L66.5389 122.219C70.7849 123.441 79.0741 125.275 79.4261 125.353C79.6212 125.396 79.8177 125.417 80.0132 125.417C80.724 125.417 81.4155 125.139 81.9293 124.628L90.3374 116.266C96.3077 117.095 102.337 117.567 108.383 117.675V130.29C108.383 131.778 109.597 132.985 111.093 132.985C120.737 132.985 128.718 125.788 129.905 116.511C147.651 114.266 164.93 108.871 180.689 100.58C183.348 99.181 185 96.4468 185 93.445C185 90.4428 183.348 87.7086 180.689 86.3092ZM164.224 84.8829C165.718 84.8829 166.934 86.0918 166.934 87.5782C166.934 89.0646 165.718 90.2735 164.224 90.2735C162.729 90.2735 161.514 89.0646 161.514 87.5782C161.514 86.0918 162.729 84.8829 164.224 84.8829ZM81.2837 56.5688C85.319 57.0547 89.2036 58.6133 92.4418 61.0786L103.355 69.3856C95.9189 69.7654 88.5435 70.6958 81.2837 72.1621V56.5688ZM113.803 127.323V117.675C117.312 117.611 120.815 117.424 124.304 117.115C123.129 122.244 119.003 126.269 113.803 127.323ZM111.093 112.312C99.6485 112.312 88.241 110.962 77.1876 108.3C75.7329 107.949 74.2681 108.839 73.9158 110.285C73.5635 111.732 74.4574 113.189 75.9118 113.539C78.5047 114.164 81.1171 114.715 83.7436 115.199L79.1525 119.766C76.5488 119.177 71.0671 117.913 68.0204 117.034C68.0027 117.029 67.985 117.024 67.9673 117.019L49.1713 112.01L50.574 106.804C57.6647 108.693 65.2671 110.719 65.2671 110.719C66.712 111.105 68.1985 110.252 68.5862 108.814C68.9736 107.376 68.1154 105.898 66.6697 105.512L39.977 98.399C37.159 97.6479 36.1549 95.3472 36.1549 93.445C36.1549 91.5425 37.159 89.2417 39.977 88.4907L70.8821 80.2545C70.9005 80.2495 70.919 80.2448 70.937 80.2394C83.9325 76.4825 97.443 74.5774 111.093 74.5774C118.64 74.5774 126.169 75.1787 133.596 76.3492C137.192 77.1962 139.834 80.4683 139.834 84.2137V87.3726C138.986 87.0733 138.074 86.909 137.124 86.909C132.641 86.909 128.994 90.5366 128.994 94.995V100.575C128.994 104.421 130.61 108.012 133.454 110.565C126.073 111.721 118.593 112.312 111.093 112.312ZM143.776 108.566C141.547 108.907 139.293 108.325 137.503 106.918C135.54 105.375 134.414 103.063 134.414 100.575V94.995C134.414 93.5086 135.63 92.2997 137.124 92.2997C138.618 92.2997 139.834 93.5086 139.834 94.995V97.5304C139.834 101.788 141.775 105.668 145.164 108.236C144.702 108.348 144.24 108.459 143.776 108.566ZM178.155 95.8147C170.839 99.664 163.181 102.862 155.298 105.389C152.978 105.952 150.575 105.489 148.615 104.078C146.479 102.539 145.254 100.153 145.254 97.53V84.2134C145.254 82.1178 144.78 80.1323 143.93 78.3595C148.686 79.4671 153.379 80.8216 157.992 82.401C156.81 83.8048 156.094 85.6081 156.094 87.5778C156.094 92.0362 159.741 95.6638 164.224 95.6638C168.5 95.6638 172.014 92.3618 172.328 88.1866C174.292 89.1055 176.236 90.0647 178.155 91.0738C179.047 91.5435 179.58 92.4294 179.58 93.4443C179.58 94.4592 179.047 95.3454 178.155 95.8147Z" fill="black"/>
</g>
<defs>
<clipPath id="clip0_2_42876">
<rect width="185" height="184" fill="white"/>
</clipPath>
</defs>
</svg>
