<svg width="184" height="185" viewBox="0 0 184 185" fill="none" xmlns="http://www.w3.org/2000/svg">
<path d="M117.092 60.7193C112.578 64.2242 106.21 70.0127 103.353 76.5347L97.5452 76.0866C77.252 72.0849 77.5022 42.7938 88.4207 36.6802C102.724 40.5572 112.269 47.567 117.429 52.3004C119.941 54.6057 119.783 58.6272 117.092 60.7193Z" fill="#FFB88C"/>
<path d="M97.5451 76.0865L65.8985 73.6548C65.8985 73.6548 63.8896 53.6842 74.3187 39.8815C76.8559 36.5247 81.1073 34.9529 85.197 35.8779C86.2967 36.1273 87.3712 36.3946 88.4206 36.6801C83.1198 47.0827 83.8314 69.3333 97.5451 76.0865Z" fill="#FF9A5C"/>
<path d="M140.997 71.3496C136.821 73.5898 131.089 77.2176 126.378 82.2147C126.105 75.1118 130.345 66.6603 138.805 61.9551C140.149 61.9948 141.461 62.5838 142.395 63.6642C144.494 66.0851 143.811 69.8356 140.997 71.3496Z" fill="#FFB88C"/>
<path d="M138.805 61.955C132.006 68.4228 128.261 74.9195 126.378 82.2147C126.177 82.4279 125.975 82.6447 125.778 82.8651L116.387 77.8499C123.161 70.009 131.664 64.936 136.376 62.5042C137.098 62.1321 137.878 61.9514 138.65 61.9514C138.701 61.9514 138.755 61.9514 138.805 61.955Z" fill="#FF9A5C"/>
<path d="M84.5237 108.517C82.6571 119.465 85.2981 125.482 88.103 128.696C90.1138 131 90.1633 134.415 88.1508 136.717C85.9615 139.221 83.3471 142.785 81.037 147.496C79.9575 149.697 76.9861 150.044 75.4185 148.162C62.6115 132.793 76.7867 106.5 76.7867 106.5L84.5237 108.517Z" fill="#FF9A5C"/>
<path d="M135.459 117.498C132.401 119.735 128.879 123.424 126.443 129.386C117.178 127.942 113.051 111.768 120.477 102.666L124.355 102.178L135.312 109.762C137.978 111.609 138.079 115.58 135.459 117.498Z" fill="#FFB88C"/>
<path d="M126.443 129.386C126.238 129.877 126.044 130.387 125.857 130.914C124.879 133.682 121.548 134.777 119.176 133.061C99.5469 118.853 103.723 104.772 103.723 104.772L120.477 102.666C117.853 111.872 118.727 123.659 126.443 129.386Z" fill="#FF9A5C"/>
<path d="M134.842 92.2246L170.605 114.718C176.688 118.543 183.83 111.765 180.423 105.417C177.953 100.817 176.224 96.5201 176.224 92.2242C176.224 87.9273 177.951 83.6315 180.42 79.0332C183.827 72.6851 176.685 65.9069 170.603 69.7326L134.842 92.2246Z" fill="#FFB88C"/>
<path d="M162.078 89.116V92.227L95.9245 101.571L71.2785 97.2495C60.7514 88.4797 60.9886 71.296 68.6263 65.2141C89.8618 65.9801 109.437 69.2827 121.835 74.157C132.523 78.3592 143.764 80.9247 155.182 81.6618C159.074 81.9147 162.078 85.1992 162.078 89.116Z" fill="#73DA8C"/>
<path d="M71.2784 97.2496L42.629 92.2271C42.629 92.2271 40.0774 94.3229 36.6023 97.1954C36.861 95.6525 37.0048 94.0049 37.0048 92.2271C37.0048 82.9266 31.3698 75.6386 28.8865 70.9196C37.321 67.4942 47.4482 65.0444 59.1674 65.0444C62.3443 65.0444 65.5032 65.1022 68.6262 65.2143C65.4134 73.9945 65.5643 86.4748 71.2784 97.2496Z" fill="#29CE69"/>
<path d="M162.078 92.2271V94.9948C162.078 99.0778 158.818 102.388 154.761 102.463C144.738 102.651 134.568 104.339 126.094 109.871C120.47 113.26 112.376 115.934 98.6879 117.578C79.108 116.96 67.2393 106.501 69.0466 92.2271H162.078Z" fill="#FFEAB7"/>
<path d="M98.688 117.578C88.816 118.759 76.0331 119.41 59.1676 119.41C47.4448 119.41 37.3176 116.96 28.8831 113.535C32.2756 108.44 35.4956 103.735 36.6024 97.1953C40.0776 94.3228 42.6291 92.2271 42.6291 92.2271H69.0468C73.0754 103.298 82.243 113.506 98.688 117.578Z" fill="#FAD989"/>
<path d="M119.195 98.503H77.1882C73.74 98.503 70.9448 95.6925 70.9448 92.2256C70.9448 88.7587 73.74 85.9482 77.1882 85.9482H119.194C122.642 85.9482 125.438 88.7587 125.438 92.2256C125.438 95.6925 122.643 98.503 119.195 98.503Z" fill="#FF6E80"/>
<path d="M42.6291 92.227C42.6291 101.531 36.7964 109.885 28.883 113.534C18.7773 109.426 11.1011 103.912 6.02672 99.5258C1.58484 95.6813 1.58484 88.769 6.02672 84.9281C11.1011 80.538 18.7773 75.0241 28.8866 70.9194C36.7964 74.5652 42.6291 82.9264 42.6291 92.227Z" fill="#00C140"/>
<path d="M81.2259 101.781C68.7437 102.785 65.5093 90.8078 71.1023 86.1279C75.4795 84.6826 79.5081 84.343 82.7281 84.8777C90.9757 86.2435 85.7612 97.0689 81.2259 101.781Z" fill="#FFB88C"/>
<path d="M81.2259 101.781C80.4101 102.626 79.6194 103.273 78.933 103.634C75.5082 105.437 65.3091 105.697 61.816 105.734C61.1512 105.737 60.5762 105.278 60.4252 104.628C59.4729 100.476 56.7344 98.9695 54.8765 98.4239C54.1182 98.2035 53.8882 97.2388 54.4524 96.6823C59.9796 91.2552 65.7979 87.8804 71.1023 86.1279C67.8571 92.7728 71.5371 99.8078 81.2259 101.781Z" fill="#FF9A5C"/>
<path d="M29.2121 89.8359V85.4996C29.2121 84.0026 28.0054 82.7893 26.5165 82.7893C25.0279 82.7893 23.8208 84.0026 23.8208 85.4996V89.8359C23.8208 91.3329 25.0276 92.5462 26.5165 92.5462C28.0054 92.5462 29.2121 91.3329 29.2121 89.8359Z" fill="black"/>
<path d="M182.807 104.13C182.514 103.584 182.232 103.041 181.968 102.516C181.297 101.179 179.676 100.643 178.347 101.317C177.018 101.992 176.485 103.622 177.155 104.958C177.442 105.528 177.747 106.116 178.063 106.704C179.227 108.871 178.394 110.819 177.228 111.919C176.071 113.01 174.102 113.713 172.047 112.42L158.96 104.19C162.395 102.547 164.787 99.0244 164.787 94.9942V89.1139C164.787 85.1873 162.56 81.7432 159.289 80.0496L172.044 72.0278C174.1 70.7357 176.068 71.4388 177.224 72.5286C178.391 73.6288 179.224 75.5771 178.06 77.7443C176.079 81.4357 173.776 86.3252 173.561 91.4184C173.497 92.914 174.651 94.1779 176.139 94.2415C176.178 94.2433 176.217 94.244 176.255 94.244C177.691 94.244 178.885 93.1051 178.946 91.6493C179.078 88.5372 180.268 85.0428 182.804 80.3188C184.927 76.3641 184.166 71.6444 180.912 68.5753C177.67 65.5188 172.958 65.0592 169.184 67.4331L151.394 78.6227C146.851 78.1552 142.333 77.3884 137.859 76.3348C139.27 75.4286 140.743 74.56 142.275 73.7379C144.344 72.6272 145.775 70.6591 146.199 68.3386C146.624 66.0153 145.981 63.6612 144.437 61.8799C142.117 59.2035 138.299 58.4678 135.153 60.0906C131.18 62.1407 125.414 65.5734 119.843 70.5333C117.577 69.7492 115.137 69.0154 112.551 68.3325C114.748 66.1031 117.007 64.2126 118.748 62.8594C120.661 61.3718 121.814 59.1266 121.913 56.6988C122.011 54.2696 121.041 51.9354 119.253 50.2953C115.774 47.1037 109.888 42.487 101.611 38.6176C100.261 37.9863 98.6581 38.5753 98.0307 39.9324C97.4032 41.2896 97.9886 42.9015 99.3384 43.5327C106.996 47.1128 112.419 51.3638 115.62 54.2999C116.238 54.8665 116.56 55.6405 116.526 56.4787C116.492 57.3156 116.11 58.0585 115.451 58.5716C112.986 60.4877 109.555 63.4079 106.522 66.8893C95.5582 64.5241 82.5542 62.9982 68.8501 62.5053C69.5872 56.0972 71.5505 48.0269 76.4696 41.5169C78.3668 39.006 81.5634 37.8291 84.6127 38.5175C85.6969 38.7625 86.7808 39.0345 87.9254 39.3482C89.3618 39.7427 90.8435 38.8907 91.2352 37.4469C91.627 36.003 90.7803 34.5129 89.3439 34.119C88.1198 33.7834 86.959 33.4925 85.7943 33.2291C80.6933 32.0754 75.3469 34.0424 72.1765 38.2378C66.4139 45.8636 64.2182 55.1592 63.4412 62.3655C62.0224 62.3431 60.5985 62.3304 59.1697 62.3304C38.5818 61.864 16.7868 71.5891 4.26937 82.8716C1.55609 85.217 0 88.6261 0 92.2238C0 95.8216 1.55609 99.2307 4.26973 101.578C16.8152 112.87 38.5498 122.574 59.1704 122.119C62.3853 122.119 65.4724 122.094 68.4412 122.047C66.0366 133.551 67.7127 143.131 73.3574 149.906C74.6806 151.501 76.7233 152.303 78.7477 152.053C80.7893 151.806 82.551 150.551 83.4602 148.697C85.3138 144.917 87.5754 141.489 90.1819 138.508C93.0562 135.22 93.0361 130.233 90.1356 126.91C88.8368 125.422 87.8956 123.546 87.3094 121.324C93.4088 120.923 98.8008 120.368 103.543 119.656C106.339 125.277 111.057 130.519 117.61 135.263C119.424 136.579 121.702 136.935 123.811 136.271C125.971 135.593 127.646 133.973 128.407 131.825C130.25 126.621 133.16 122.538 137.053 119.69C138.975 118.284 140.105 116.01 140.074 113.609C140.044 111.292 138.945 109.121 137.12 107.731C141.125 106.482 145.61 105.689 150.639 105.35L169.187 117.016C172.931 119.375 177.657 118.947 180.915 115.873C184.17 112.804 184.93 108.084 182.807 104.13ZM137.615 64.9121C138.551 64.4298 139.685 64.6466 140.374 65.4408C140.832 65.9697 141.023 66.6686 140.897 67.358C140.823 67.7612 140.574 68.5056 139.736 68.9554C136.606 70.6356 133.684 72.4942 131.031 74.4917C129.228 73.941 127.435 73.3398 125.653 72.6937C130.079 69.1122 134.455 66.5421 137.615 64.9121ZM59.1704 67.7496C83.2179 67.7496 106.857 71.1711 120.862 76.6788C131.92 81.0277 143.413 83.6141 155.021 84.3657C157.632 84.5218 159.578 86.8831 159.396 89.5139H127.727C126.581 85.8786 123.194 83.2362 119.204 83.2362H86.1961C85.3239 82.7415 84.3097 82.3903 83.1716 82.2017C77.3023 81.2297 68.1095 82.8253 58.7736 89.5142H45.1828C44.4313 82.3188 40.7161 75.8438 35.0279 71.5877C42.0505 69.2878 50.1206 67.7496 59.1704 67.7496ZM89.7086 88.6565H119.203C121.16 88.6565 122.752 90.2568 122.752 92.2242C122.752 94.1916 121.16 95.792 119.203 95.792H88.3487C89.3838 93.3541 89.9584 90.8436 89.7086 88.6565ZM77.6886 101.232C75.5277 102.37 68.3043 102.92 62.7871 103.013C61.8481 99.9859 60.0544 98.0694 58.1587 96.9175C65.0483 90.1578 77.0522 86.1322 82.2947 87.5497C83.4188 87.7163 84.2616 88.1817 84.341 89.1493C84.9386 92.5187 80.574 99.5285 77.6886 101.232ZM28.6361 110.459C19.2215 106.439 12.1828 101.272 7.78514 97.4685C6.26355 96.1526 5.39098 94.2411 5.39098 92.2238C5.39098 90.2065 6.26355 88.2951 7.7855 86.9792C12.1828 83.1762 19.2215 78.0088 28.6361 73.9883C35.5354 77.3924 39.9348 84.4282 39.9348 92.2238C39.9348 100.02 35.535 107.055 28.6361 110.459ZM86.1325 134.929C83.214 138.268 80.688 142.094 78.6251 146.3C78.4925 146.57 78.2686 146.651 78.1044 146.671C77.9657 146.688 77.7012 146.678 77.4899 146.424C71.6522 139.418 72.2071 129.577 73.9914 121.927C76.7143 121.852 79.327 121.754 81.8315 121.634C82.5833 125.138 84.0082 128.107 86.0829 130.485C87.2221 131.79 87.2426 133.659 86.1325 134.929ZM133.882 115.307C129.161 118.76 125.512 123.843 123.329 130.006C123.142 130.534 122.733 130.931 122.206 131.096C121.913 131.188 121.335 131.279 120.76 130.864C115.51 127.063 111.615 122.978 109.138 118.683C116.835 117.149 122.745 115.055 127.489 112.196C127.516 112.179 127.543 112.162 127.571 112.144C128.69 111.413 129.871 110.747 131.103 110.132L133.792 111.994C134.35 112.38 134.675 112.994 134.684 113.678C134.688 114.064 134.591 114.788 133.882 115.307ZM154.721 99.7532C153.572 99.7745 152.454 99.8222 151.35 99.8829C140.741 100.559 132.677 102.524 124.676 107.571C119.973 110.396 113.524 112.506 104.754 113.981C91.2345 116.254 74.0057 116.69 59.1704 116.698C50.121 116.698 42.0505 115.16 35.0279 112.861C40.7161 108.605 44.4313 102.13 45.1828 94.9345H52.3843C51.9545 95.3602 51.5257 95.7945 51.0992 96.2451C49.4586 97.866 50.7527 100.901 53.0513 100.825C53.2224 100.825 57.2456 100.885 57.9618 106.106C58.1692 107.685 59.6286 108.613 61.1574 108.448C64.5509 108.448 75.9331 108.275 80.1902 106.033C81.7632 105.205 83.5953 103.432 85.234 101.212H119.204C123.194 101.212 126.581 98.5699 127.727 94.9345H159.396V94.9945C159.396 97.5704 157.299 99.7055 154.721 99.7532Z" fill="black"/>
</svg>
