<svg width="185" height="185" viewBox="0 0 185 185" fill="none" xmlns="http://www.w3.org/2000/svg">
<path d="M117.156 36.441L158.695 92.5072L180.375 86.365C162.053 59.9006 140.075 43.2604 117.156 36.441Z" fill="#C2F0FC"/>
<path d="M117.156 36.4417C77.4247 24.6187 34.8628 42.314 3.60571 89.5292V92.5072H158.695C158.695 66.7145 141.878 43.798 117.156 36.4417Z" fill="#E5FAFF"/>
<path d="M139.342 138.672C139.304 138.695 139.38 138.649 139.342 138.672V138.672Z" fill="#E5FAFF"/>
<path d="M139.341 113.39V138.672C146.034 134.624 150.181 127.255 150.181 119.434V113.39H139.341Z" fill="#E5FAFF"/>
<path d="M108.945 92.5076V150.586C113.065 149.786 117.165 148.68 121.23 147.256C125.582 145.732 128.501 141.629 128.501 137.017V92.5076H108.945Z" fill="#C2F0FC"/>
<path d="M3.60571 92.5076V95.4856C32.7183 139.463 71.6387 157.828 108.945 150.589C114.018 149.604 117.661 145.125 117.661 139.956V92.5076H3.60571Z" fill="#E5FAFF"/>
<path d="M178.364 84.1417C172.149 78.9762 165.574 74.4711 158.733 70.619V114.396C165.574 110.544 172.149 106.039 178.364 100.873C183.6 96.5208 183.6 88.4939 178.364 84.1417Z" fill="#A8CAE0"/>
<path d="M158.733 70.6193C109.89 43.1176 47.3907 49.0766 4.47001 88.5022C2.12246 90.6586 2.12246 94.3561 4.47001 96.5121C47.3907 135.938 109.89 141.897 158.733 114.395C166.619 109.954 171.451 101.558 171.451 92.5068C171.451 83.4559 166.619 75.0601 158.733 70.6193Z" fill="#B9DFF0"/>
<path d="M144.761 108.767C147.754 108.767 150.181 106.341 150.181 103.347C150.181 100.354 147.754 97.9275 144.761 97.9275C141.768 97.9275 139.341 100.354 139.341 103.347C139.341 106.341 141.768 108.767 144.761 108.767Z" fill="#515985"/>
<path d="M144.761 87.0876C147.754 87.0876 150.181 84.6611 150.181 81.6677C150.181 78.6744 147.754 76.2478 144.761 76.2478C141.768 76.2478 139.341 78.6744 139.341 81.6677C139.341 84.6611 141.768 87.0876 144.761 87.0876Z" fill="#515985"/>
<path d="M182.148 84.1786C163.643 57.6965 140.819 40.1132 116.098 33.3184C91.5569 26.5728 66.4305 30.689 43.4338 45.2216C42.1688 46.0213 41.7912 47.6949 42.5908 48.9603C43.3904 50.2257 45.0638 50.6029 46.3295 49.8033C86.2479 24.5779 130.263 32.9831 164.843 71.0924C142.748 57.4334 117.027 50.3731 90.7353 50.9917C65.0358 51.5937 40.2187 59.51 19.0738 73.6079C24.9428 66.8659 31.1555 60.9362 37.6659 55.8906C38.8486 54.9739 39.0646 53.2717 38.1476 52.0887C37.2312 50.906 35.529 50.6903 34.3457 51.607C22.3218 60.9257 11.2911 73.0793 1.5519 87.7283C0.553916 89.1078 0.000361328 90.7819 0 92.5072C0 94.2336 0.554277 95.9084 1.55263 97.2887C11.289 111.933 22.3196 124.085 34.3464 133.406C34.8403 133.789 35.4246 133.974 36.0049 133.974C36.8139 133.974 37.6146 133.613 38.1487 132.924C39.0657 131.741 38.8496 130.039 37.667 129.122C31.1566 124.077 24.945 118.149 19.0778 111.41C40.222 125.506 65.0376 133.421 90.7349 134.023C91.794 134.048 92.8501 134.061 93.9067 134.061C104.723 134.061 115.422 132.765 125.79 130.247V137.018C125.79 140.469 123.597 143.556 120.333 144.699C95.508 153.396 69.9192 150.113 46.3309 135.209C45.0652 134.409 43.3915 134.786 42.5923 136.052C41.7927 137.317 42.1702 138.991 43.4353 139.79C55.8443 147.631 68.9342 152.466 82.3423 154.159C85.9249 154.612 89.5096 154.838 93.0897 154.838C102.853 154.838 112.58 153.158 122.124 149.814C127.559 147.911 131.21 142.769 131.21 137.018V128.809C133.038 128.284 134.853 127.72 136.657 127.118L136.738 138.511C136.704 139.039 136.822 139.583 137.114 140.071C137.62 140.917 138.521 141.385 139.444 141.385C139.93 141.385 140.421 141.252 140.852 140.992C147.973 136.685 152.504 128.911 152.863 120.513C162.549 115.811 171.7 109.935 180.095 102.958C183.212 100.367 184.999 96.5584 184.999 92.5083C185 89.4543 183.983 86.5391 182.148 84.1786ZM142.064 125.184C143.764 124.535 145.449 123.85 147.122 123.132C146.418 126.862 144.614 130.313 142.064 133.043V125.184ZM176.631 98.7893C127.046 140.003 53.8205 138.166 6.30156 94.5162C5.73319 93.9937 5.41992 93.2801 5.41992 92.5068C5.41992 91.734 5.73319 91.0207 6.30156 90.4982C53.8216 46.8476 127.047 45.0106 176.631 86.2255C178.505 87.7836 179.58 90.0729 179.58 92.5072C179.58 94.9415 178.505 97.2312 176.631 98.7893Z" fill="black"/>
<path d="M16.3541 95.2172C17.8508 95.2172 19.0641 94.0039 19.0641 92.5072C19.0641 91.0105 17.8508 89.7972 16.3541 89.7972C14.8575 89.7972 13.6442 91.0105 13.6442 92.5072C13.6442 94.0039 14.8575 95.2172 16.3541 95.2172Z" fill="black"/>
<path d="M72.2317 72.6342C73.7284 72.6342 74.9417 71.4209 74.9417 69.9242C74.9417 68.4275 73.7284 67.2142 72.2317 67.2142C70.735 67.2142 69.5217 68.4275 69.5217 69.9242C69.5217 71.4209 70.735 72.6342 72.2317 72.6342Z" fill="black"/>
<path d="M93.9114 67.2142C95.408 67.2142 96.6213 66.0009 96.6213 64.5043C96.6213 63.0076 95.408 61.7943 93.9114 61.7943C92.4147 61.7943 91.2014 63.0076 91.2014 64.5043C91.2014 66.0009 92.4147 67.2142 93.9114 67.2142Z" fill="black"/>
<path d="M83.0715 78.0541C84.5682 78.0541 85.7815 76.8408 85.7815 75.3441C85.7815 73.8474 84.5682 72.6342 83.0715 72.6342C81.5749 72.6342 80.3616 73.8474 80.3616 75.3441C80.3616 76.8408 81.5749 78.0541 83.0715 78.0541Z" fill="black"/>
<path d="M93.9114 123.22C95.408 123.22 96.6213 122.006 96.6213 120.51C96.6213 119.013 95.408 117.8 93.9114 117.8C92.4147 117.8 91.2014 119.013 91.2014 120.51C91.2014 122.006 92.4147 123.22 93.9114 123.22Z" fill="black"/>
<path d="M83.0715 112.38C84.5682 112.38 85.7815 111.167 85.7815 109.67C85.7815 108.173 84.5682 106.96 83.0715 106.96C81.5749 106.96 80.3616 108.173 80.3616 109.67C80.3616 111.167 81.5749 112.38 83.0715 112.38Z" fill="black"/>
<path d="M72.2317 117.8C73.7284 117.8 74.9417 116.587 74.9417 115.09C74.9417 113.593 73.7284 112.38 72.2317 112.38C70.735 112.38 69.5217 113.593 69.5217 115.09C69.5217 116.587 70.735 117.8 72.2317 117.8Z" fill="black"/>
<path d="M104.751 101.54C106.248 101.54 107.461 100.327 107.461 98.8301C107.461 97.3334 106.248 96.1201 104.751 96.1201C103.255 96.1201 102.041 97.3334 102.041 98.8301C102.041 100.327 103.255 101.54 104.751 101.54Z" fill="black"/>
<path d="M144.76 95.2175C140.278 95.2175 136.63 98.8648 136.63 103.347C136.63 107.83 140.278 111.477 144.76 111.477C149.243 111.477 152.89 107.83 152.89 103.347C152.89 98.8648 149.243 95.2175 144.76 95.2175ZM144.76 106.057C143.266 106.057 142.05 104.842 142.05 103.347C142.05 101.853 143.266 100.637 144.76 100.637C146.255 100.637 147.47 101.853 147.47 103.347C147.47 104.842 146.255 106.057 144.76 106.057Z" fill="black"/>
<path d="M144.76 73.5378C140.278 73.5378 136.63 77.1851 136.63 81.6677C136.63 86.1504 140.278 89.7976 144.76 89.7976C149.243 89.7976 152.89 86.1504 152.89 81.6677C152.89 77.1851 149.243 73.5378 144.76 73.5378ZM144.76 84.3777C143.266 84.3777 142.05 83.1622 142.05 81.6677C142.05 80.1733 143.266 78.9578 144.76 78.9578C146.255 78.9578 147.47 80.1733 147.47 81.6677C147.47 83.1622 146.255 84.3777 144.76 84.3777Z" fill="black"/>
</svg>
