<svg width="185" height="185" viewBox="0 0 185 185" fill="none" xmlns="http://www.w3.org/2000/svg">
<g clip-path="url(#clip0_2_44120)">
<path d="M93.465 137.033C75.095 140.857 71.8135 115.407 83.1418 103.961C83.7958 104.268 84.3776 104.752 84.8184 105.41C88.6521 111.111 94.7549 121.402 95.1668 129.677C95.3222 132.784 94.6574 135.194 93.465 137.033Z" fill="#EAAA83"/>
<path d="M93.4652 137.033C89.9928 142.367 82.0363 142.843 76.5767 141.337C61.3575 137.134 66.9039 118.382 78.1087 105.048C79.3987 103.513 81.4871 103.169 83.142 103.961C75.8287 122.208 79.9804 135.393 93.4652 137.033Z" fill="#DF8A57"/>
<path d="M114.205 33.8486C108.398 42.4121 113.323 51.9295 113.793 59.4342C114.407 69.2407 110.115 82.7218 103.68 84.8681L84.2148 58.437C76.1922 41.3527 89.4573 19.5313 109.735 21.4514C114.928 23.0557 117.305 29.2742 114.205 33.8486Z" fill="#EAAA83"/>
<path d="M84.2149 58.437L62.6147 29.1008C79.4599 18.3802 96.1496 18.1273 109.229 21.3106C109.399 21.3539 109.569 21.4009 109.735 21.4515C89.671 26.492 83.738 41.9858 84.2149 58.437Z" fill="#DF8A57"/>
<path d="M126.001 126.133C117.899 144.265 130.353 169.442 136.484 180.024C138.044 182.717 141.798 183.081 143.838 180.732C147.583 176.42 150.025 171.831 151.309 167.061C153.406 159.271 159.273 152.958 167.072 150.893C172.094 149.563 176.662 147.211 180.634 143.895C183.021 141.904 182.797 138.172 180.158 136.53C170.173 130.313 146.227 117.823 126.001 126.133Z" fill="#EAAA83"/>
<path d="M140.983 134.067L134.081 140.968C131.292 143.758 126.783 143.83 123.914 141.12C113.775 131.537 102.693 122.988 90.8775 115.541C85.3889 112.08 79.6835 108.25 73.9926 104.25C54.8126 83.9824 48.3734 32.7236 75.0947 36.0345C87.4196 50.6394 103.676 72.0408 115.553 90.8664C123.003 102.678 131.552 113.76 141.138 123.899C143.848 126.768 143.776 131.274 140.983 134.067Z" fill="#8697A6"/>
<path d="M73.9932 104.25C52.87 89.4104 31.9274 72.2799 23.0246 63.38C18.1069 58.4623 14.0059 53.1978 10.8081 47.9007C22.3778 44.8475 28.4048 42.5928 36.1228 34.8784C43.7721 27.2291 45.4884 19.5292 48.3284 11.0593C53.4846 14.2209 58.601 18.2317 63.3886 23.0193C66.4599 26.0906 70.5067 30.5891 75.0956 36.0343C53.206 44.3127 61.6141 82.4039 73.9932 104.25Z" fill="#6B7D8E"/>
<path d="M39.5981 39.59C31.8802 47.3044 20.7404 50.0758 10.8075 47.9006C1.39491 32.3129 -0.212999 16.4213 8.10477 8.10355C16.4984 -0.28649 32.6064 1.42621 48.3278 11.0592C50.3766 20.9271 47.2475 31.9407 39.5981 39.59Z" fill="#546370"/>
<path d="M50.5213 92.7708C50.2792 97.5548 48.5629 100.662 46.0661 102.595C19.6534 104.25 24.26 73.4379 39.4213 61.3276C40.1909 61.7648 40.8558 62.4225 41.3147 63.2788C45.1122 70.3753 51.0127 83.0832 50.5213 92.7708Z" fill="#EAAA83"/>
<path d="M46.066 102.595C41.152 106.396 33.2064 105.648 27.4866 104.17C9.58635 99.5455 18.9158 76.2864 33.5388 62.0682C35.1901 60.4603 37.6001 60.2832 39.4212 61.3274C27.841 79.9868 27.6929 98.7795 46.066 102.595Z" fill="#DF8A57"/>
<path d="M29.6947 23.785C30.3881 23.785 31.0819 23.5205 31.6109 22.9915L34.6767 19.9256C35.7351 18.867 35.7351 17.1517 34.6767 16.093C33.6184 15.0351 31.9028 15.0351 30.8445 16.093L27.7786 19.1589C26.7203 20.2172 26.7203 21.9328 27.7786 22.9915C28.3076 23.5201 29.001 23.785 29.6947 23.785Z" fill="black"/>
<path d="M184.983 139.867C184.82 137.526 183.584 135.473 181.591 134.232C173.629 129.276 158.038 121.051 141.84 120.681C132.986 111.143 124.92 100.638 117.85 89.425C115.986 86.469 114 83.432 111.93 80.3549C115.089 74.6416 116.94 66.2765 116.502 59.274C116.36 56.9979 115.872 54.6905 115.357 52.2479C114.149 46.5296 112.9 40.6164 116.451 35.3801C118.454 32.4269 118.86 28.8079 117.565 25.45C116.262 22.0702 113.387 19.542 109.874 18.6867C107.865 18.1978 105.82 17.7993 103.797 17.5037C102.318 17.2869 100.94 18.312 100.723 19.7931C100.507 21.2742 101.532 22.6501 103.013 22.8662C104.87 23.1379 106.747 23.5036 108.592 23.9527C110.38 24.3877 111.844 25.6766 112.508 27.4001C113.155 29.0763 112.957 30.8761 111.965 32.3384C107.121 39.4815 108.748 47.1807 110.054 53.3673C110.528 55.6112 110.976 57.7304 111.094 59.6114C111.406 64.6122 110.324 70.5658 108.404 75.1887C96.0554 57.3593 81.5326 38.9359 71.2672 27.4641C77.5702 24.5417 84.1753 22.8308 90.9502 22.3777C92.4436 22.2779 93.5731 20.9865 93.473 19.4932C93.3733 17.9994 92.0819 16.8634 90.5885 16.97C82.5829 17.5055 74.8036 19.6341 67.4317 23.294C57.7022 12.8361 45.0102 4.5678 33.3722 1.50951C21.9564 -1.57009 12.3061 0.0949149 6.20071 6.19955C0.0953444 12.3042 -1.57038 21.9531 1.51031 33.3682C4.65747 45.443 13.5299 58.6539 24.4127 68.4669C17.8669 77.3458 13.3041 88.0447 15.5255 96.4203C16.4946 100.075 19.2407 104.842 26.8177 106.8C29.2404 107.426 32.6767 108.096 36.2932 108.096C40.1504 108.096 44.2124 107.334 47.464 104.945C51.1402 102.299 53.1427 97.8024 53.2529 92.364C59.9645 97.5115 66.7008 102.451 73.1852 106.988C67.3176 115.179 62.5889 126.1 65.3602 134.581C66.8807 139.234 70.5117 142.473 75.8608 143.951C77.6906 144.456 79.8921 144.789 82.1934 144.789C85.965 144.789 90.0046 143.895 93.1164 141.402C95.4647 139.52 98.1974 135.935 97.879 129.545C97.7728 127.407 97.3251 125.058 96.5436 122.518C105.107 128.399 113.201 134.867 120.697 141.823C120.881 145.803 121.56 150.083 122.733 154.574C123.106 156.033 124.63 156.891 126.04 156.511C127.487 156.133 128.355 154.653 127.977 153.204C127.282 150.547 126.78 147.982 126.462 145.529C127.268 145.735 128.094 145.84 128.92 145.84C131.478 145.84 134.034 144.852 136.001 142.886L142.903 135.985C145.533 133.355 146.411 129.673 145.519 126.34C159.063 127.734 171.878 134.57 178.726 138.833C179.409 139.258 179.551 139.898 179.575 140.242C179.617 140.848 179.37 141.422 178.898 141.817C175.239 144.871 171.027 147.043 166.379 148.274C157.866 150.53 151.089 157.458 148.694 166.357C147.49 170.83 145.168 175.069 141.794 178.955C141.241 179.592 140.528 179.599 140.246 179.571C139.963 179.545 139.258 179.402 138.831 178.665C137.022 175.542 134.361 170.609 131.956 164.841C131.38 163.46 129.794 162.808 128.412 163.383C127.031 163.959 126.378 165.545 126.954 166.927C129.47 172.964 132.252 178.12 134.142 181.382C135.313 183.405 137.403 184.744 139.732 184.966C142.037 185.19 144.36 184.271 145.886 182.508C149.802 177.998 152.508 173.038 153.927 167.766C155.819 160.735 161.123 155.273 167.766 153.513C173.185 152.078 178.099 149.542 182.37 145.978C184.168 144.478 185.144 142.194 184.983 139.867ZM10.0326 10.0322C14.7089 5.35694 22.4955 4.1884 31.9605 6.74227C36.4056 7.94152 40.9478 9.88871 45.4178 12.4758C47.1908 21.6781 44.3465 31.0289 37.6897 37.685C31.0333 44.341 21.6811 47.1857 12.477 45.4123C9.88987 40.9427 7.94231 36.4012 6.7427 31.9568C4.18883 22.4933 5.35737 14.7067 10.0326 10.0322ZM47.8228 92.639C47.6335 96.3563 46.4668 98.9529 44.2558 100.577C39.5914 104.003 31.4554 102.401 28.1738 101.553C24.0702 100.492 21.6464 98.3592 20.764 95.031C19.0784 88.8537 23.164 78.5255 30.2753 69.7084C31.8499 67.7424 33.5771 65.8277 35.4379 64.0182C35.8567 63.611 36.4023 63.3913 36.9732 63.3913C37.7891 63.388 38.5533 63.8401 38.9349 64.5642C42.4271 71.1562 48.229 83.2376 47.8228 92.639ZM89.7275 137.173C86.5485 139.72 81.0592 139.764 77.3036 138.727C73.6889 137.728 71.4674 135.822 70.5117 132.897C68.7296 127.444 71.5783 118.486 77.6418 110.071C81.4393 112.665 85.1184 115.093 88.6258 117.32C91.0037 122.217 92.2969 126.419 92.466 129.814C92.6308 133.109 91.709 135.585 89.7275 137.173ZM139.072 132.152L132.169 139.053C130.171 141.086 127.011 140.717 125.216 138.627C115.21 129.241 104.151 120.705 92.3283 113.252C80.4027 105.73 66.3214 95.7153 52.584 84.9933C51.043 76.97 47.1612 68.4488 43.7131 62.0067C42.5702 59.8712 40.5428 58.4339 38.1504 58.0624C35.7602 57.691 33.3943 58.4462 31.6599 60.1328C30.3559 61.4011 29.0634 62.7738 27.8074 64.2234C23.4758 60.2167 19.5876 55.9118 16.2973 51.3121C25.6221 51.7623 34.7539 48.286 41.522 41.5172C48.294 34.7456 51.7573 25.6368 51.3183 16.2954C54.8297 18.8142 58.246 21.7146 61.4785 24.9467C76.6427 40.5749 97.9004 68.2378 113.267 92.3167C120.861 104.36 129.576 115.614 139.172 125.766C140.885 127.578 140.841 130.383 139.072 132.152Z" fill="black"/>
</g>
<defs>
<clipPath id="clip0_2_44120">
<rect width="185" height="185" fill="white"/>
</clipPath>
</defs>
</svg>
