<svg width="184" height="185" viewBox="0 0 184 185" fill="none" xmlns="http://www.w3.org/2000/svg">
<g clip-path="url(#clip0_2_42252)">
<path d="M70.507 138.637C69.8569 143.602 75.6997 146.75 79.4176 143.417C85.7465 137.744 90.94 130.587 94.4212 122.183L94.9836 118.013L98.4677 92.1816L71.4724 130.899L70.507 138.637Z" fill="#B9DFF0"/>
<path d="M91.8664 28.2586C88.6132 24.4664 82.4118 26.8209 82.4115 31.8289L82.4111 67.1859L103.985 51.2772C101.625 42.4892 97.4047 34.7138 91.8664 28.2586Z" fill="#B9DFF0"/>
<path d="M93.5719 54.1054C92.0747 48.5309 89.6663 43.3963 86.394 38.7899C85.1528 37.0431 82.4115 37.9259 82.4112 40.0726C82.4112 44.0203 80.2934 47.6867 76.8391 49.5637C75.4753 50.3048 74.1298 51.0839 72.8038 51.9005L49.1157 65.651L61.9239 87.9556L49.1161 110.26L66.1092 120.125C69.8568 122.3 72.1569 126.527 71.4831 130.825C71.1646 132.858 73.6311 134.084 75.0233 132.615C79.0231 128.397 82.1904 123.5 84.4632 118.014L90.329 103.855L101.26 61.7694C97.6417 60.8154 94.6171 57.9967 93.5719 54.1054Z" fill="#C2F0FC"/>
<path d="M35.5798 76.3442C34.6773 75.9743 33.7939 75.5416 32.936 75.0434C32.936 75.0434 13.4835 63.7516 13.4835 63.748C10.204 61.8443 6.48364 60.8418 2.69678 60.8418C2.69678 64.6492 3.69347 68.3898 5.5905 71.6872L14.9322 87.9556C14.9322 87.9556 5.5905 104.224 5.58691 104.224C3.69347 107.521 2.69678 111.262 2.69678 115.069C6.48364 115.069 10.204 114.067 13.4835 112.16L32.936 100.868C33.7935 100.37 34.6773 99.9376 35.5795 99.5674L35.5798 76.3442Z" fill="#E5FAFF"/>
<path d="M54.5095 100.868V75.0435C48.6922 78.4203 41.6991 78.8531 35.5798 76.3442C33.4404 79.7384 32.2661 83.7273 32.2661 87.956C32.2661 92.1842 33.4404 96.1731 35.5798 99.5674C41.6991 97.0581 48.6925 97.4908 54.5095 100.868Z" fill="#C2F0FC"/>
<path d="M129.148 115.068V142.023C137.59 139.081 143.643 131.02 143.643 121.524V115.068H129.148Z" fill="#C2F0FC"/>
<path d="M122.07 115.068V136.871C122.07 140.563 125.679 143.232 129.148 142.023C131.308 139.081 132.857 131.02 132.857 121.524V115.068H122.07Z" fill="#E5FAFF"/>
<path d="M127.463 71.2595C127.463 58.779 116.279 49.1002 104.085 51.2617C94.7889 52.9857 86.0901 56.4161 78.3225 61.2206L48.4461 78.5635C41.2549 82.7379 41.2549 93.174 48.4461 97.348L78.3225 114.691C89.8295 121.808 103.378 125.916 117.887 125.916C127.591 125.916 136.864 124.073 145.386 120.726L127.463 71.2595Z" fill="#A8CAE0"/>
<path d="M116.677 81.8826V100.256C116.677 115.295 131.469 125.641 145.386 120.726C153.747 117.443 161.381 112.707 167.987 106.83L116.677 81.8826Z" fill="#E5FAFF"/>
<path d="M179.256 81.5952C172.36 71.9826 163.283 64.055 152.752 58.5433L135.449 110.947C145.615 115.495 158.082 114.825 167.987 106.829C172.186 103.093 175.97 98.8972 179.256 94.3161C181.981 90.5173 181.981 85.3939 179.256 81.5952Z" fill="#A8CAE0"/>
<path d="M152.752 58.5433C142.321 53.0841 130.465 49.9954 117.886 49.9954C113.172 49.9954 108.56 50.4317 104.084 51.2617C110.652 50.0977 116.677 55.2344 116.677 61.9564V81.8826C116.677 95.6912 124.799 106.185 135.448 110.949C151.803 118.264 170.37 106.215 170.511 88.2181C170.512 88.1306 170.513 88.0431 170.513 87.9556C170.513 75.5875 163.658 64.2599 152.752 58.5433Z" fill="#B9DFF0"/>
<path d="M143.644 88.4198C152.58 88.4198 159.824 81.1363 159.824 72.1517C159.824 63.1671 152.58 55.8837 143.644 55.8837C134.707 55.8837 127.463 63.1671 127.463 72.1517C127.463 81.1363 134.707 88.4198 143.644 88.4198Z" fill="white"/>
<path d="M143.644 77.5744C146.622 77.5744 149.037 75.1466 149.037 72.1517C149.037 69.1568 146.622 66.729 143.644 66.729C140.665 66.729 138.25 69.1568 138.25 72.1517C138.25 75.1466 140.665 77.5744 143.644 77.5744Z" fill="#515985"/>
<path d="M66.8596 94.4227C75.3445 102.954 87.9545 104.77 98.2005 99.8801V88.9657C87.9542 84.0759 75.3445 85.8917 66.8596 94.4227Z" fill="#E5FAFF"/>
<path d="M98.2003 88.9642C94.2545 87.0844 89.7097 90.0328 89.7097 94.4227C89.7097 98.8125 94.2549 101.761 98.2003 99.8812C100.981 98.5566 103.587 96.7378 105.89 94.4227C103.588 92.1079 100.981 90.2892 98.2003 88.9642Z" fill="#C2F0FC"/>
<path d="M143.644 80.2861C148.105 80.2861 151.734 76.637 151.734 72.1521C151.734 67.6672 148.105 64.0181 143.644 64.0181C139.182 64.0181 135.553 67.6672 135.553 72.1521C135.553 76.637 139.182 80.2861 143.644 80.2861ZM143.644 69.4408C145.131 69.4408 146.34 70.6569 146.34 72.1521C146.34 73.6473 145.131 74.8634 143.644 74.8634C142.156 74.8634 140.947 73.6473 140.947 72.1521C140.947 70.6569 142.156 69.4408 143.644 69.4408Z" fill="black"/>
<path d="M181.443 80.0088C174.334 70.0983 164.897 61.8714 154.154 56.2177C143.048 50.3731 130.507 47.2836 117.886 47.2836C113.854 47.2836 109.849 47.5953 105.903 48.2069C103.405 40.1593 99.378 32.8625 93.9084 26.4876C91.6899 23.9017 88.1932 23.0009 85.0014 24.1938C81.7902 25.3941 79.7151 28.3906 79.7148 31.829L79.7144 40.0726C79.7144 43.0579 78.082 45.8022 75.454 47.2345C74.0978 47.9738 72.7426 48.7593 71.4252 49.5698L71.1217 49.7459C69.8316 50.4942 69.3894 52.1521 70.1336 53.4492C70.8776 54.746 72.5269 55.1914 73.817 54.4427L74.151 54.2489C74.1715 54.2373 74.192 54.225 74.2118 54.2124C75.458 53.4449 76.7409 52.7005 78.0241 52.0014C82.3928 49.6201 85.1071 45.0495 85.1074 40.0726L85.1078 31.829C85.1078 30.0753 86.4641 29.4322 86.8801 29.2767C87.2882 29.1242 88.7073 28.7272 89.8241 30.029C94.671 35.6784 98.2741 42.1259 100.564 49.2253C92.2429 51.1168 84.261 54.3686 76.9419 58.8904L55.496 71.3394L52.7993 66.643L64.4763 59.8646C65.7661 59.1159 66.208 57.4577 65.4633 56.1609C64.7187 54.8638 63.0694 54.4206 61.7797 55.1686L47.7673 63.3026C47.1478 63.662 46.6962 64.2545 46.5107 64.9489C46.3255 65.6438 46.4226 66.3838 46.7803 67.0063L50.7279 73.8812C45.4079 76.013 39.3184 75.6175 34.2842 72.6954C27.7338 68.8927 15.2845 61.6653 14.8577 61.4152C14.8494 61.4101 14.8408 61.405 14.8321 61.4C11.1477 59.2609 6.95134 58.1305 2.69705 58.1305C1.20776 58.1305 0.000359558 59.3441 0.000359558 60.8418C0.000359558 65.1221 1.12614 69.342 3.25544 73.0429L11.8187 87.9556C8.56935 93.614 3.48016 102.475 3.26803 102.841C3.26263 102.85 3.25724 102.859 3.2522 102.868C1.12434 106.572 0 110.792 0 115.069C0 116.567 1.2074 117.78 2.69669 117.78C6.95386 117.78 11.1506 116.648 14.8318 114.508L34.2846 103.216C39.3188 100.293 45.4083 99.8974 50.7283 102.03L46.7807 108.905C46.036 110.201 46.4779 111.86 47.7677 112.608L64.8151 122.504C67.6401 124.144 69.2031 127.307 68.7968 130.561L67.8328 138.283C67.3866 141.692 69.055 144.935 72.0828 146.546C73.2906 147.189 74.5904 147.504 75.8779 147.504C77.7994 147.503 79.6936 146.802 81.2116 145.441C87.4611 139.838 92.3979 133.129 95.9204 125.476C103.012 127.555 110.403 128.627 117.886 128.627C118.382 128.627 118.878 128.614 119.373 128.604V136.871C119.373 139.507 120.651 141.996 122.791 143.527C124.181 144.521 125.782 145.032 127.409 145.032C128.285 145.032 129.17 144.884 130.031 144.584C139.234 141.377 145.584 132.947 146.274 123.278C148.965 122.229 151.598 121.037 154.153 119.693C158.892 117.199 163.376 114.203 167.519 110.784C164.376 136.182 142.774 155.903 116.676 155.903C115.187 155.903 113.98 157.116 113.98 158.614C113.98 160.112 115.187 161.325 116.676 161.325C131.815 161.325 146.039 155.406 156.729 144.658C167.156 134.175 173.01 120.311 173.293 105.512C176.257 102.531 178.991 99.3194 181.443 95.9016C184.853 91.1488 184.853 84.762 181.443 80.0088ZM143.644 58.5954C151.078 58.5954 157.127 64.6767 157.127 72.1521C157.127 79.6274 151.078 85.7088 143.644 85.7088C136.209 85.7088 130.16 79.6274 130.16 72.1521C130.16 64.6767 136.209 58.5954 143.644 58.5954ZM31.5879 98.5197L12.1337 109.813C10.1201 110.984 7.90884 111.766 5.62241 112.127C5.98161 109.829 6.75934 107.605 7.92251 105.579C8.0559 105.348 8.19074 105.114 8.32449 104.882L17.2678 89.3113C17.7496 88.4726 17.7496 87.4386 17.2678 86.5999L7.92502 70.3297C6.76042 68.3049 5.98197 66.0819 5.62241 63.7831C7.90848 64.1442 10.1201 64.9262 12.1351 66.096L12.1441 66.0801C12.3979 66.2497 12.6762 66.4113 12.97 66.5819L31.5876 77.3915C34.9631 79.3509 38.7075 80.4184 42.4879 80.61C41.1144 82.7509 40.3557 85.2753 40.3561 87.956C40.3561 90.6369 41.1151 93.1621 42.4894 95.303C38.7086 95.4942 34.9634 96.5603 31.5879 98.5197ZM77.6225 141.394C76.3457 142.538 74.9906 141.958 74.6058 141.753C74.2139 141.545 72.9526 140.729 73.1823 138.974L74.1481 131.236C74.8255 125.812 72.2202 120.541 67.5114 117.808L52.7997 109.267L55.4964 104.571L76.9415 117.02C81.3332 119.734 85.9643 121.987 90.7629 123.767C87.5708 130.508 83.1612 136.429 77.6225 141.394ZM79.7353 112.382C79.7137 112.368 79.6925 112.356 79.6706 112.343L49.7941 95C47.2614 93.5298 45.7491 90.8961 45.7491 87.956C45.7491 85.0158 47.2614 82.3818 49.7941 80.9115L79.6706 63.5687C79.6925 63.556 79.7137 63.5434 79.7353 63.53C87.4496 58.7588 95.9564 55.5059 104.818 53.8896C107.046 53.5729 109.298 54.2124 111.047 55.6743C112.911 57.2325 113.98 59.5223 113.98 61.9567V100.256C113.98 108.379 117.978 115.939 124.674 120.48C125.8 121.243 126.977 121.901 128.19 122.457C124.798 122.947 121.357 123.204 117.887 123.204C104.375 123.204 91.1829 119.462 79.7353 112.382ZM128.265 139.461C127.472 139.737 126.617 139.61 125.918 139.11C125.186 138.586 124.766 137.77 124.766 136.871V128.319C130.133 127.842 135.439 126.808 140.58 125.249C139.287 131.758 134.661 137.232 128.265 139.461ZM177.068 92.7297C173.819 97.2598 170.089 101.351 165.985 104.964C159.017 110.431 150.289 112.346 141.609 110.213C140.162 109.86 138.703 110.749 138.35 112.204C137.996 113.658 138.883 115.126 140.329 115.481C142.992 116.135 145.657 116.466 148.289 116.49C146.795 117.18 145.28 117.822 143.742 118.41C138.275 120.099 132.511 119.253 127.69 115.984C122.52 112.478 119.514 106.914 119.386 100.671C121.959 104.666 125.398 108.127 129.599 110.846C130.051 111.139 130.557 111.278 131.056 111.278C131.943 111.278 132.811 110.839 133.326 110.034C134.132 108.775 133.771 107.097 132.519 106.287C124.164 100.879 119.373 91.9839 119.373 81.8825V61.9567C119.373 58.5072 118.08 55.2358 115.783 52.7392C116.483 52.719 117.184 52.7067 117.886 52.7067C123.945 52.7067 129.917 53.48 135.682 54.9492C129.242 57.9739 124.767 64.5459 124.767 72.1521C124.767 82.6171 133.235 91.1315 143.644 91.1315C154.052 91.1315 162.52 82.6171 162.52 72.1521C162.52 70.6091 162.334 69.11 161.986 67.6729C167.69 72.0183 172.793 77.2208 177.068 83.1811C179.117 86.037 179.117 89.8741 177.068 92.7297Z" fill="black"/>
<path d="M64.9528 92.5053C64.4469 93.0139 64.1628 93.7033 64.1628 94.4227C64.1628 95.1421 64.4469 95.8312 64.9528 96.3402C70.8589 102.278 78.6167 105.247 86.3749 105.247C94.1331 105.247 101.891 102.278 107.797 96.3402C108.85 95.2809 108.85 93.5645 107.797 92.5056C95.9848 80.6292 76.7646 80.6292 64.9528 92.5053ZM70.9038 94.4227C79.9302 87.2174 92.8186 87.2174 101.845 94.4227C92.8189 101.628 79.9306 101.628 70.9038 94.4227Z" fill="black"/>
</g>
<defs>
<clipPath id="clip0_2_42252">
<rect width="184" height="185" fill="white"/>
</clipPath>
</defs>
</svg>
