<svg width="185" height="184" viewBox="0 0 185 184" fill="none" xmlns="http://www.w3.org/2000/svg">
<g clip-path="url(#clip0_2_42918)">
<path d="M129.85 106.442V137.616C138.338 134.69 144.424 126.673 144.424 117.228V106.442H129.85Z" fill="#FA3834"/>
<path d="M133.579 106.442H122.733V132.493C122.733 136.165 126.362 138.819 129.85 137.616C132.022 134.69 133.579 126.673 133.579 117.229V106.442Z" fill="#FF6053"/>
<path d="M73.3252 46.0894H118.527V121.594H73.3252V46.0894Z" fill="#FA3834"/>
<path d="M62.2608 83.8416L45.0423 113.504C42.9553 117.099 45.5639 121.594 49.7383 121.594H73.3252C76.32 121.594 78.7479 119.179 78.7479 116.2V99.6456L62.2608 83.8416Z" fill="#FF6053"/>
<path d="M62.2608 83.8415L45.0423 54.1794C42.9553 50.5838 45.5639 46.0894 49.7383 46.0894H73.3252C76.32 46.0894 78.7479 48.5041 78.7479 51.4827V68.0375L62.2608 83.8415Z" fill="#FF6053"/>
<path d="M35.7731 72.2926C34.8657 71.9248 33.9774 71.4944 33.1149 70.9989C33.1149 70.9989 13.5567 59.7681 13.5567 59.7645C10.2593 57.8711 6.51875 56.874 2.7113 56.874C2.7113 60.6609 3.71342 64.3812 5.62076 67.6608L15.0132 83.8413C15.0132 83.8413 5.62076 100.021 5.61714 100.021C3.71342 103.301 2.7113 107.021 2.7113 110.808C6.51875 110.808 10.2593 109.811 13.5567 107.914L33.1149 96.6836C33.9771 96.1885 34.8657 95.7581 35.7731 95.3899V72.2926Z" fill="#FF6053"/>
<path d="M54.8056 96.684V70.9993C48.9567 74.3579 41.9257 74.7883 35.7731 72.293C33.6221 75.6688 32.4414 79.6362 32.4414 83.8416C32.4414 88.0474 33.6221 92.0147 35.7731 95.3903C41.9257 92.8949 48.9571 93.3253 54.8056 96.684Z" fill="#FA3834"/>
<path d="M128.156 67.2334C128.156 54.8204 116.909 45.1936 104.648 47.3459C95.3026 49.0606 86.5572 52.4725 78.7482 57.2507L48.7094 74.4997C41.4792 78.6516 41.4792 89.0313 48.7094 93.1828L78.7482 110.432C90.3177 117.51 103.94 121.596 118.527 121.596C128.285 121.596 137.607 119.763 146.176 116.434L128.156 67.2334Z" fill="#FF7D6D"/>
<path d="M117.311 77.801V96.0756C117.311 111.033 132.183 121.324 146.176 116.434C154.582 113.169 162.258 108.459 168.899 102.613L117.311 77.801Z" fill="#FEB7A0"/>
<path d="M180.23 77.5151C173.297 67.9545 164.17 60.0697 153.582 54.5879L136.185 106.709C146.406 111.232 158.941 110.566 168.899 102.613C173.121 98.8973 176.926 94.7243 180.23 90.1676C182.97 86.3894 182.97 81.2934 180.23 77.5151Z" fill="#FF7D6D"/>
<path d="M153.582 54.5879C143.095 49.1582 131.174 46.0862 118.527 46.0862C113.786 46.0862 109.148 46.5205 104.648 47.3461C111.253 46.1869 117.311 51.2962 117.311 57.9825V77.801C117.311 91.5351 125.477 101.972 136.185 106.71C152.628 113.986 171.297 102.002 171.438 84.1023C171.439 84.0153 171.439 83.9283 171.439 83.8412C171.44 71.54 164.548 60.2736 153.582 54.5879Z" fill="#FF9A87"/>
<path d="M144.424 84.3031C153.409 84.3031 160.692 77.059 160.692 68.123C160.692 59.187 153.409 51.9429 144.424 51.9429C135.44 51.9429 128.156 59.187 128.156 68.123C128.156 77.059 135.44 84.3031 144.424 84.3031Z" fill="white"/>
<path d="M144.424 73.5165C147.419 73.5165 149.847 71.1018 149.847 68.1231C149.847 65.1444 147.419 62.7297 144.424 62.7297C141.429 62.7297 139.001 65.1444 139.001 68.1231C139.001 71.1018 141.429 73.5165 144.424 73.5165Z" fill="#515985"/>
<path d="M67.2229 90.2736C75.7539 98.7584 88.4325 100.564 98.7341 95.7015V84.846C88.4321 79.9823 75.7539 81.7887 67.2229 90.2736Z" fill="#FF6053"/>
<path d="M98.7341 84.8448C94.7669 82.9751 90.1974 85.9076 90.1974 90.2737C90.1974 94.6399 94.7673 97.5721 98.7341 95.7027C101.53 94.3853 104.15 92.5763 106.465 90.2737C104.151 87.9711 101.53 86.1622 98.7341 84.8448Z" fill="#FA3834"/>
<path d="M144.424 76.2131C148.909 76.2131 152.558 72.5837 152.558 68.123C152.558 63.6623 148.909 60.033 144.424 60.033C139.939 60.033 136.29 63.6623 136.29 68.123C136.29 72.5837 139.939 76.2131 144.424 76.2131ZM144.424 65.4263C145.919 65.4263 147.136 66.6359 147.136 68.123C147.136 69.6102 145.919 70.8197 144.424 70.8197C142.929 70.8197 141.713 69.6102 141.713 68.123C141.713 66.6359 142.929 65.4263 144.424 65.4263Z" fill="black"/>
<path d="M182.429 75.9377C175.281 66.0808 165.793 57.8983 154.992 52.2752C143.825 46.4622 131.216 43.3894 118.527 43.3894C118.404 43.3894 118.281 43.3919 118.157 43.3926H72.6456C71.1482 43.3926 69.9342 44.5997 69.9342 46.0893C69.9342 47.579 71.1482 48.786 72.6456 48.786H89.769C85.4738 50.4608 81.3204 52.5136 77.3604 54.9341L55.7984 67.3155L47.3903 52.831C46.6839 51.6139 47.155 50.5399 47.3903 50.1344C47.6256 49.7288 48.3255 48.786 49.7383 48.786H61.8002C63.2976 48.786 64.5115 47.579 64.5115 46.0893C64.5115 44.5997 63.2976 43.3926 61.8002 43.3926H49.7383C46.7978 43.3926 44.1645 44.9046 42.6943 47.4377C41.224 49.9704 41.224 52.9946 42.6943 55.5277L51.004 69.8428C45.6543 71.9628 39.5321 71.5698 34.4706 68.6635C27.895 64.8878 15.4073 57.716 14.9406 57.4456C14.9315 57.4399 14.9221 57.4345 14.9127 57.4291C11.2083 55.3016 6.98912 54.1772 2.7117 54.1772C1.21432 54.1772 0.000361512 55.3843 0.000361512 56.8739C0.000361512 61.1311 1.13226 65.3282 3.27313 69.009L11.8829 83.8411C8.62243 89.4574 3.52005 98.2461 3.28687 98.6438C3.28109 98.6535 3.2753 98.6636 3.26952 98.6733C1.13045 102.358 0 106.554 0 110.808C0 112.298 1.21396 113.505 2.71134 113.505C6.99201 113.505 11.2116 112.379 14.9124 110.25L34.4709 99.0188C39.5321 96.1122 45.655 95.7184 51.004 97.8395L42.6943 112.155C41.224 114.688 41.224 117.712 42.6943 120.245C44.1645 122.778 46.7978 124.29 49.7383 124.29H118.199C118.308 124.29 118.418 124.293 118.527 124.293C119.026 124.293 119.524 124.28 120.022 124.27V132.492C120.022 135.115 121.307 137.59 123.459 139.113C124.856 140.102 126.466 140.61 128.102 140.61C128.983 140.61 129.872 140.463 130.739 140.164C139.988 136.975 146.372 128.596 147.07 118.982C147.439 118.854 147.807 118.716 148.172 118.57L148.162 118.545C150.488 117.608 152.769 116.565 154.992 115.407C165.794 109.784 175.281 101.602 182.429 91.7446C185.857 87.0175 185.857 80.6652 182.429 75.9377ZM31.7596 94.3482L12.1992 105.58C10.1748 106.745 7.95147 107.523 5.65297 107.883C6.01412 105.597 6.79607 103.385 7.96556 101.37L17.3616 85.1895C17.8461 84.3553 17.8461 83.327 17.3616 82.4928L7.9681 66.3105C6.79716 64.2966 6.01448 62.0857 5.65297 59.7993C7.95147 60.1585 10.1751 60.9362 12.201 62.0997L12.2101 62.0839L31.7592 73.3341C35.152 75.2826 38.9157 76.3498 42.7159 76.5403C41.3368 78.6685 40.5754 81.1772 40.5754 83.8411C40.5754 86.5051 41.3368 89.0138 42.7159 91.142C38.9157 91.3329 35.1524 92.4001 31.7596 94.3482ZM157.981 68.1231C157.981 75.558 151.9 81.6065 144.424 81.6065C136.949 81.6065 130.867 75.558 130.867 68.1231C130.867 60.6881 136.949 54.6396 144.424 54.6396C151.9 54.6396 157.981 60.6881 157.981 68.1231ZM49.7383 118.897C48.3255 118.897 47.6256 117.954 47.3903 117.549C47.155 117.143 46.6839 116.069 47.3903 114.852L55.7984 100.368L77.36 112.749C81.3204 115.17 85.4742 117.223 89.7693 118.897H49.7383V118.897ZM118.527 118.9C104.943 118.9 91.6785 115.177 80.1686 108.135C80.1469 108.122 80.1256 108.109 80.1036 108.097L50.0648 90.8471C47.5183 89.3848 45.9978 86.7654 45.9978 83.8411C45.9978 80.9169 47.5183 78.2975 50.0648 76.8352L80.1036 59.5861C80.1256 59.5735 80.1469 59.5609 80.1686 59.5476C87.9289 54.7996 96.4866 51.5632 105.402 49.9567C107.637 49.6461 109.896 50.2832 111.651 51.7344C113.525 53.2841 114.599 55.5612 114.599 57.9824V96.0751C114.599 104.154 118.619 111.673 125.352 116.189C126.485 116.949 127.669 117.602 128.889 118.156C125.478 118.644 122.017 118.9 118.527 118.9ZM128.962 135.068C128.165 135.343 127.305 135.216 126.603 134.719C125.867 134.198 125.445 133.386 125.445 132.493V123.987C130.841 123.512 136.175 122.484 141.345 120.934C140.044 127.407 135.393 132.851 128.962 135.068ZM178.031 88.5902C174.763 93.0958 171.013 97.1642 166.887 100.758C159.881 106.195 151.105 108.1 142.379 105.979C140.924 105.626 139.457 106.512 139.102 107.959C138.746 109.405 139.637 110.865 141.092 111.218C143.77 111.869 146.449 112.197 149.095 112.222C147.593 112.909 146.068 113.547 144.521 114.132C139.025 115.811 133.23 114.969 128.384 111.718C123.185 108.231 120.164 102.698 120.034 96.4897C122.621 100.462 126.08 103.904 130.303 106.608C130.757 106.899 131.266 107.037 131.768 107.037C132.659 107.037 133.532 106.6 134.05 105.8C134.861 104.548 134.497 102.879 133.238 102.073C124.839 96.6946 120.022 87.8477 120.022 77.8009V57.9828C120.022 54.5519 118.722 51.2982 116.413 48.8155C117.117 48.7954 117.821 48.7831 118.527 48.7831C124.62 48.7831 130.627 49.5497 136.425 51.0106C129.947 54.0179 125.445 60.5558 125.445 68.1231C125.445 78.5316 133.959 86.9999 144.424 86.9999C154.89 86.9999 163.404 78.5316 163.404 68.1231C163.404 66.5852 163.212 65.0927 162.86 63.6617C168.597 67.985 173.73 73.1623 178.031 79.0928C180.09 81.933 180.091 85.7497 178.031 88.5902Z" fill="black"/>
<path d="M86.8439 101.039C94.6443 101.039 102.444 98.0864 108.382 92.1803C109.441 91.1268 109.441 89.4196 108.382 88.3665C96.506 76.5546 77.1818 76.5539 65.3054 88.3665C64.7967 88.8724 64.5111 89.5581 64.5111 90.2736C64.5111 90.9891 64.7967 91.6744 65.3054 92.1807C71.2436 98.0864 79.0439 101.039 86.8439 101.039ZM102.399 90.2732C93.3233 97.4396 80.3645 97.4399 71.2891 90.2732C80.3649 83.1069 93.3229 83.1069 102.399 90.2732Z" fill="black"/>
</g>
<defs>
<clipPath id="clip0_2_42918">
<rect width="185" height="184" fill="white"/>
</clipPath>
</defs>
</svg>
