<svg width="185" height="185" viewBox="0 0 185 185" fill="none" xmlns="http://www.w3.org/2000/svg">
<g clip-path="url(#clip0_2_42729)">
<path d="M128.119 58.753V37.9394C122.964 41.651 115.777 40.4814 112.065 35.3265L106.517 61.8147L128.119 58.753Z" fill="#FA3834"/>
<path d="M117.361 61.8151L112.066 35.3269C107.726 39.9656 100.448 40.2089 95.8097 35.8701L96.9728 64.5317L117.361 61.8151Z" fill="#FF6053"/>
<path d="M95.8097 35.8701C92.4505 41.261 85.3572 42.9077 79.9663 39.5485L87.395 67.2577L107.816 64.5317L95.8097 35.8701Z" fill="#FA3834"/>
<path d="M65.1343 46.2233L65.0771 46.2222L77.6412 70.0336L98.2383 67.2577L79.9664 39.5486C77.7135 45.4874 71.0731 48.4758 65.1343 46.2233Z" fill="#FF6053"/>
<path d="M94.6535 76.1731L94.493 76.146L94.5675 76.2219L94.6535 76.1731Z" fill="#FF6053"/>
<path d="M13.554 69.1781C10.2573 67.2747 6.51751 66.2728 2.71082 66.2728V80.2939C2.71082 85.2033 4.66115 89.9114 8.13243 93.3827C4.66115 96.854 2.71082 101.562 2.71082 106.472V120.489C6.51751 120.489 10.2573 119.487 13.554 117.583L28.2499 109.099L28.2502 77.6629L13.554 69.1781Z" fill="#FF6053"/>
<path d="M31.3004 79.4241L28.2502 77.6628C25.0272 82.1433 23.2428 87.5815 23.2424 93.3808C23.2424 99.1798 25.0269 104.618 28.2498 109.099L31.3004 107.338C34.6553 105.401 38.7887 105.401 42.1436 107.338V79.4241C38.7887 81.3611 34.6553 81.3611 31.3004 79.4241Z" fill="#FA3834"/>
<path d="M65.0771 46.2222C61.437 42.5192 55.7591 41.7327 51.2494 44.3069L40.9578 50.1814L73.4025 70.0513L77.8631 59.229L65.0771 46.2222Z" fill="#FA3834"/>
<path d="M58.4085 70.0336C51.6988 73.9075 43.4319 73.9075 36.7221 70.0336L29.7163 65.9887C26.0917 63.8959 26.1044 58.6597 29.7394 56.5847L40.9578 50.1811C45.7939 47.4207 51.8816 48.2567 55.7942 52.2192L73.4026 70.0509L58.4085 70.0336Z" fill="#FF6053"/>
<path d="M73.4025 116.714L40.9578 136.584L51.2494 142.458C55.7591 145.033 61.437 144.246 65.0771 140.543L77.8631 127.536L73.4025 116.714Z" fill="#FA3834"/>
<path d="M58.4085 116.731C51.6988 112.857 43.4319 112.857 36.7221 116.731L29.7163 120.776C26.0917 122.869 26.1044 128.105 29.7394 130.18L40.9578 136.584C45.7939 139.344 51.8816 138.508 55.7942 134.546L73.4026 116.714L58.4085 116.731Z" fill="#FF6053"/>
<path d="M113.155 113.262V158.466C124.875 155.475 133.529 144.858 133.529 132.199V113.262H113.155Z" fill="#FA3834"/>
<path d="M122.685 132.199V113.262H106.421V153.203C106.421 156.729 109.739 159.338 113.155 158.466C118.638 155.475 122.685 144.858 122.685 132.199Z" fill="#FF6053"/>
<path d="M128.131 75.2585C128.131 61.6062 116.281 50.8063 102.717 52.358C90.3567 53.7647 78.8202 57.8743 68.714 64.0839L42.1441 79.4241C31.4002 85.6272 31.4002 101.134 42.1441 107.338L68.6774 122.656C81.3463 130.45 96.2626 134.948 112.237 134.948C124.97 134.948 137.027 132.083 147.814 126.976L128.131 75.2585Z" fill="#FF7D6D"/>
<path d="M117.288 85.7584V107.17C117.288 122.935 133.559 133.399 147.813 126.976C157.646 122.321 166.421 115.799 173.678 107.868L117.288 85.7584Z" fill="#FED4BA"/>
<path d="M180.313 87.1329C173.429 77.3722 164.491 69.1635 154.134 63.1195L139.375 116.578C150.692 120.449 164.074 118.31 173.679 107.868C176.058 105.268 178.276 102.517 180.313 99.6287C182.955 95.8838 182.955 90.8778 180.313 87.1329Z" fill="#FF9A87"/>
<path d="M154.134 63.1195C141.829 55.9395 127.519 51.8169 112.236 51.8169C109.017 51.8169 105.841 52.0027 102.717 52.3583C110.494 51.4699 117.288 57.6245 117.288 65.4519V85.7584C117.288 101.151 127.121 112.389 139.375 116.578C155.003 121.921 171.334 110.148 171.451 93.6316C171.451 93.5485 171.451 93.465 171.451 93.3819C171.451 80.9335 164.857 69.4234 154.134 63.1195Z" fill="#FEB7A0"/>
<path d="M144.396 92.5478C153.379 92.5478 160.661 85.2657 160.661 76.2829C160.661 67.3001 153.379 60.0181 144.396 60.0181C135.413 60.0181 128.131 67.3001 128.131 76.2829C128.131 85.2657 135.413 92.5478 144.396 92.5478Z" fill="white"/>
<path d="M144.396 81.7044C147.39 81.7044 149.817 79.2771 149.817 76.2828C149.817 73.2885 147.39 70.8612 144.396 70.8612C141.401 70.8612 138.974 73.2885 138.974 76.2828C138.974 79.2771 141.401 81.7044 144.396 81.7044Z" fill="#515985"/>
<path d="M91.596 87.9292C89.1024 85.4356 84.9101 85.9377 83.1119 88.9713C78.081 97.459 78.081 108.101 83.1119 116.589C84.9101 119.623 89.1024 120.125 91.596 117.631L101.683 107.544V98.0163L91.596 87.9292Z" fill="#FF6053"/>
<path d="M101.683 98.0163C97.4391 93.7722 90.1821 96.778 90.1821 102.78C90.1821 108.782 97.4391 111.788 101.683 107.544L106.447 102.78L101.683 98.0163Z" fill="#FA3834"/>
<path d="M182.528 85.5705C170.068 67.9043 151.515 55.7527 130.83 51.1551V37.9394C130.83 33.8649 129.491 29.8196 127.061 26.5489C126.168 25.3475 124.471 25.0967 123.268 25.9901C122.067 26.8829 121.816 28.581 122.71 29.7828C124.157 31.7302 125.061 34.0615 125.325 36.4698C121.69 38.2875 117.196 37.3672 114.584 34.1562C113.705 30.4066 111.677 26.9469 108.823 24.3564C107.715 23.3498 106 23.4322 104.994 24.5415C103.988 25.6497 104.07 27.3647 105.179 28.3706C106.975 30.0014 108.313 32.1126 109.04 34.4265C107.589 35.5517 105.829 36.1929 103.959 36.2558C101.781 36.3237 99.7097 35.6117 98.0539 34.2346C96.4657 30.7254 93.807 27.7236 90.5052 25.735C89.2221 24.9622 87.5569 25.3757 86.7845 26.6581C86.0121 27.9405 86.4253 29.6064 87.7076 30.3788C89.7838 31.6294 91.4974 33.4441 92.6605 35.5788C89.9873 38.6344 85.4841 39.4871 81.8516 37.5096C79.615 34.3749 76.4253 31.9445 72.8011 30.6314C71.3937 30.1207 69.8391 30.8494 69.3291 32.2568C68.8191 33.6646 69.5471 35.2188 70.9549 35.7288C73.237 36.5554 75.2777 38.0019 76.8254 39.8633C74.7807 43.4109 70.476 45.123 66.5008 43.8309C61.9937 39.6812 55.2727 38.8889 49.906 41.9525L28.3955 54.2306C25.8351 55.6927 24.3019 58.3254 24.2946 61.2737C24.2874 64.2216 25.8076 66.8623 28.3608 68.3362L35.3666 72.3811C38.0019 73.9024 40.8613 74.8892 43.7871 75.3449L40.7883 77.0762C38.2802 78.5242 35.1639 78.5242 32.6558 77.0762L14.9094 66.8305C11.2054 64.6922 6.98738 63.562 2.71081 63.562C1.21372 63.562 0 64.7753 0 66.2728V80.2934C0 85.0999 1.58709 89.6623 4.51331 93.3827C1.58709 97.103 0 101.665 0 106.472V120.489C0 121.986 1.21372 123.2 2.71081 123.2C6.98774 123.2 11.2058 122.07 14.9094 119.931L32.6562 109.685C35.1639 108.237 38.2802 108.237 40.7886 109.685L43.7897 111.417C40.8627 111.873 38.0026 112.861 35.3666 114.383L28.3608 118.428C25.8076 119.903 24.2874 122.543 24.2946 125.491C24.3022 128.44 25.8351 131.072 28.3955 132.534L34.4421 135.985C34.8661 136.228 35.3276 136.342 35.7834 136.342C36.7246 136.342 37.6401 135.851 38.1403 134.975C38.8824 133.674 38.4302 132.019 37.1298 131.277L31.0832 127.825C29.8532 127.124 29.7177 125.95 29.7162 125.478C29.7152 125.006 29.8449 123.832 31.0716 123.123L38.0775 119.079C43.9299 115.7 51.2014 115.7 57.0531 119.079C57.0723 119.09 57.0918 119.098 57.1109 119.109L67.2891 124.985C69.2427 126.186 71.2404 127.301 73.2746 128.337L63.1438 138.643C60.3693 141.466 56.031 142.067 52.5933 140.104L46.5467 136.653C45.247 135.911 43.5912 136.363 42.8488 137.663C42.1068 138.964 42.559 140.619 43.8594 141.361L49.906 144.812C52.0963 146.063 54.5125 146.671 56.9114 146.671C60.6162 146.671 64.2801 145.221 67.0105 142.444L78.4851 130.771C86.4972 134.19 95.0001 136.372 103.71 137.236V153.203C103.71 155.737 104.858 158.082 106.86 159.637C108.305 160.76 110.039 161.347 111.812 161.347C112.482 161.347 113.158 161.263 113.825 161.093C126.359 157.894 135.297 147.015 136.164 134.241C151.247 129.857 164.959 121.396 175.677 109.692C175.674 109.698 175.671 109.704 175.669 109.711C175.714 109.662 175.759 109.615 175.803 109.567C175.82 109.548 175.831 109.528 175.847 109.51C178.229 106.893 180.464 104.119 182.529 101.191C185.824 96.5196 185.824 90.2421 182.528 85.5705ZM144.396 62.7285C151.87 62.7285 157.95 68.8086 157.95 76.2825C157.95 83.7564 151.87 89.8366 144.396 89.8366C136.922 89.8366 130.842 83.7564 130.842 76.2825C130.842 68.8086 136.922 62.7285 144.396 62.7285ZM125.408 42.2391V50.1283C122.836 49.7282 120.237 49.4426 117.619 49.2778L116.123 41.7949C119.055 42.9623 122.333 43.1402 125.408 42.2391ZM104.14 41.6745C106.307 41.6022 108.382 41.0449 110.248 40.0679L112.055 49.1079C109.505 49.1133 106.965 49.2319 104.441 49.4603L101.085 41.449C102.082 41.6304 103.105 41.7081 104.14 41.6745ZM94.9574 40.8522L98.852 50.1492C96.285 50.5519 93.7415 51.072 91.2284 51.7034L86.1437 43.9924C89.3208 43.9657 92.4414 42.8741 94.9574 40.8522ZM80.0733 44.6354L85.7663 53.2688C83.2999 54.0654 80.8703 54.9748 78.4837 55.9934L72.0001 49.3978C75.1208 48.7678 77.9863 47.1037 80.0733 44.6354ZM57.0531 67.686C51.2007 71.0647 43.9292 71.0647 38.0775 67.686L31.0716 63.6411C29.8449 62.9327 29.7152 61.7587 29.7162 61.2867C29.7173 60.8146 29.8529 59.6414 31.0832 58.9391L52.5933 46.661C56.0313 44.6991 60.3693 45.3001 63.1438 48.1223L73.2735 58.427C71.2523 59.4553 69.2677 60.5631 67.3264 61.7547L57.0531 67.686ZM29.9454 104.99L12.1986 115.236C10.1055 116.444 7.80134 117.239 5.42162 117.583V106.472C5.42162 102.251 7.06509 98.2838 10.0491 95.2994C11.1078 94.2407 11.1078 92.5246 10.0491 91.4663C7.06509 88.4815 5.42162 84.5136 5.42162 80.2934V69.1787C7.80098 69.5228 10.1052 70.3173 12.1986 71.5256L29.945 81.7717C31.2932 82.5499 32.7469 83.0736 34.2375 83.3483C32.3887 86.2843 31.3749 89.7299 31.3749 93.3812C31.3749 97.0307 32.388 100.475 34.2353 103.41C32.7455 103.686 31.2928 104.212 29.9454 104.99ZM70.0325 120.309L43.4991 104.99C39.3024 102.567 36.7969 98.227 36.7965 93.3808C36.7965 88.535 39.3024 84.1948 43.4991 81.7717L70.069 66.4318C70.0903 66.4195 70.1116 66.4069 70.1326 66.3942C80.1814 60.2201 91.4478 56.3639 103.139 55.0428C106.054 54.7406 108.863 55.6518 111.066 57.6166C113.297 59.6074 114.577 62.4632 114.577 65.4523V107.17C114.577 115.623 118.853 123.357 126.016 127.859C127.475 128.776 129.002 129.524 130.574 130.106C124.62 131.503 118.472 132.238 112.236 132.238C97.3133 132.238 82.7418 128.127 70.0972 120.348C70.0758 120.334 70.0541 120.322 70.0325 120.309ZM112.485 155.839C111.683 156.045 110.845 155.868 110.186 155.356C109.516 154.835 109.131 154.051 109.131 153.203V137.602C110.164 137.64 111.2 137.659 112.236 137.659C118.46 137.659 124.601 136.977 130.567 135.67C129.189 145.333 122.143 153.375 112.485 155.839ZM178.098 98.0658C175.937 101.131 173.574 104.012 171.045 106.71C163.805 114.145 153.937 117.161 143.798 114.996C142.334 114.681 140.893 115.616 140.581 117.08C140.268 118.544 141.201 119.985 142.665 120.297C145.132 120.825 147.604 121.083 150.049 121.083C151.165 121.083 152.274 121.022 153.376 120.916C150.933 122.367 148.412 123.683 145.83 124.87C140.267 127.059 134.036 126.496 128.902 123.268C123.327 119.764 119.998 113.746 119.998 107.17V104.675C122.898 109.252 126.877 113.155 131.751 116.036C132.184 116.292 132.66 116.414 133.129 116.414C134.056 116.414 134.959 115.938 135.465 115.082C136.227 113.794 135.8 112.131 134.511 111.369C125.288 105.917 119.998 96.5818 119.998 85.7581V65.4516C119.998 61.4139 118.455 57.5393 115.727 54.6072C123.2 54.934 130.515 56.3057 137.487 58.6145C130.431 61.3839 125.42 68.2567 125.42 76.2825C125.42 86.7455 133.933 95.2582 144.396 95.2582C154.859 95.2582 163.371 86.7459 163.371 76.2825C163.371 75.0084 163.242 73.7644 163.001 72.5604C168.687 77.1702 173.783 82.5785 178.098 88.6955C180.075 91.4977 180.075 95.2636 178.098 98.0658Z" fill="black"/>
<path d="M144.396 84.4149C148.88 84.4149 152.528 80.7665 152.528 76.2824C152.528 71.7984 148.88 68.15 144.396 68.15C139.912 68.15 136.263 71.7984 136.263 76.2824C136.263 80.7665 139.912 84.4149 144.396 84.4149ZM144.396 73.5716C145.891 73.5716 147.107 74.7875 147.107 76.2824C147.107 77.7774 145.891 78.9933 144.396 78.9933C142.901 78.9933 141.685 77.7774 141.685 76.2824C141.685 74.7875 142.901 73.5716 144.396 73.5716Z" fill="black"/>
<path d="M93.4868 86.0126C91.6944 84.2198 89.2225 83.3722 86.7069 83.6903C84.2053 84.0051 82.0356 85.4263 80.7539 87.5888C75.2 96.9588 75.2 108.601 80.7539 117.971C82.036 120.134 84.2057 121.555 86.7072 121.869C87.0542 121.913 87.4001 121.935 87.7442 121.935C89.8922 121.935 91.942 121.093 93.4871 119.548L108.338 104.697C109.397 103.638 109.397 101.922 108.338 100.863L93.4868 86.0126ZM89.653 115.714C89.0537 116.314 88.226 116.598 87.3838 116.49C86.5561 116.386 85.8394 115.918 85.4176 115.207C80.8743 107.541 80.8743 98.0178 85.4176 90.3531C85.8394 89.6414 86.5558 89.1734 87.3835 89.0693C87.4999 89.0548 87.6159 89.0472 87.7312 89.0472C88.4501 89.0472 89.1361 89.3288 89.6526 89.8456L102.587 102.779L89.653 115.714Z" fill="black"/>
</g>
<defs>
<clipPath id="clip0_2_42729">
<rect width="185" height="185" fill="white"/>
</clipPath>
</defs>
</svg>
