<svg width="184" height="185" viewBox="0 0 184 185" fill="none" xmlns="http://www.w3.org/2000/svg">
<g clip-path="url(#clip0_2_43755)">
<path d="M136.683 84.6863L176.584 107.848C179.255 109.399 182.318 106.543 180.971 103.754C178.591 98.8269 176.579 92.3848 176.579 84.686C176.579 76.9889 178.594 70.5443 180.976 65.6154C182.323 62.826 179.26 59.9708 176.589 61.5212L136.683 84.6863Z" fill="#8697A6"/>
<path d="M98.53 67.3743L86.2789 68.274C73.4147 61.8384 73.4485 44.3863 78.9692 41.1022C81.9233 43.9314 84.6078 44.4842 89.1 43.3496C89.4953 43.2521 89.8763 43.5556 89.8691 43.9639C89.79 49.1995 92.0469 52.1877 97.168 54.0052C97.5022 54.1244 97.6675 54.5038 97.5238 54.8326C94.4871 61.8785 98.53 67.3743 98.53 67.3743Z" fill="#8697A6"/>
<path d="M86.279 68.2741L67.2034 69.6724C67.2034 69.6724 70.0388 47.1508 76.3638 39.3317C76.6046 39.0318 77.061 39.0282 77.309 39.3245C77.8804 39.9965 78.4302 40.5891 78.9693 41.1022C75.106 48.5745 78.3081 60.5236 86.279 68.2741Z" fill="#6B7D8E"/>
<path d="M141.644 108.952C137.119 112.378 133.924 117.191 133.03 122.871C132.864 123.922 132.318 124.789 131.567 125.378C121.557 121.182 118.021 107.225 122.619 98.7015L130.234 95.3014L141.568 103.446C143.434 104.786 143.477 107.565 141.644 108.952Z" fill="#8697A6"/>
<path d="M131.567 125.378C130.406 126.303 128.764 126.556 127.309 125.794C121.253 122.607 112.312 115.875 111.546 103.648L122.619 98.7012C122.18 107.677 124.549 118.726 131.567 125.378Z" fill="#6B7D8E"/>
<path d="M141.569 67.1829L130.234 75.3272L126.137 74.4384C117.708 70.1985 120.631 50.0216 131.053 44.8998C132.06 45.4671 132.829 46.4788 133.03 47.7579C133.925 53.438 137.12 58.2545 141.644 61.6762C143.477 63.0637 143.434 65.8424 141.569 67.1829Z" fill="#8697A6"/>
<path d="M126.137 74.4383L111.546 71.2658C112.312 59.0385 121.253 48.0216 127.309 44.8383C128.559 44.1807 129.95 44.2746 131.053 44.8997C122.479 54.6664 121.986 66.695 126.137 74.4383Z" fill="#6B7D8E"/>
<path d="M53.2475 117.828C51.0053 132.941 56.5677 141.533 63.9223 145.246C66.139 146.365 68.789 146.013 70.6703 144.388C72.7238 142.614 75.234 139.68 76.6011 135.229C77.7744 131.409 75.7943 127.322 72.1262 125.778L53.2475 117.828Z" fill="#6B7D8E"/>
<path d="M163.037 84.6856C163.037 89.596 159.383 93.7477 154.531 94.2897C142.783 95.5941 131.452 99.5795 121.336 105.881C114.655 110.04 106.461 113.794 97.4084 116.634C57.7079 114.923 56.8001 74.4383 68.9315 64.4078C86.2822 64.6861 105.764 66.1675 119.794 69.9362C130.917 72.9352 142.352 74.5612 153.848 75.0309C158.987 75.2405 163.037 79.515 163.037 84.6856Z" fill="#E8ECF9"/>
<path d="M97.4089 116.634C86.7067 119.995 74.8006 122.087 62.7723 122.087C46.2303 122.087 33.2533 115.987 23.5286 108.457C28.9551 103.764 37.7886 95.2255 37.7886 83.4209C37.7886 77.5168 37.2459 71.6633 36.9656 67.3888C44.9725 65.6002 53.7664 64.3608 62.7723 64.3608C64.7848 64.3608 66.844 64.3753 68.932 64.4078C62.5279 78.6803 64.314 106.921 97.4089 116.634Z" fill="#C5CFF1"/>
<path d="M42.6653 83.4209C42.6653 95.2255 34.3601 105.502 23.5286 108.457C13.4804 100.671 6.90746 91.3629 3.48261 85.6756C1.79715 82.8789 2.9184 79.2331 5.87965 77.8781C12.122 75.0237 23.4136 70.4167 36.9656 67.3888C40.3293 71.7392 42.6653 77.5168 42.6653 83.4209Z" fill="#ADC0ED"/>
<path d="M84.9708 78.3841C81.7041 86.4995 78.3799 92.9203 74.7502 97.0069C67.9958 97.0069 64.1627 83.7935 71.2068 78.4094C74.8077 76.8954 78.5704 75.927 82.6097 75.3525C84.2916 75.1141 85.6069 76.7978 84.9708 78.3841Z" fill="#8697A6"/>
<path d="M74.7503 97.0069C70.1467 102.192 65.0508 103.623 58.9594 99.995C58.6036 99.7819 58.449 99.341 58.6036 98.9544C60.6664 93.8091 57.8597 90.6077 56.5695 89.4768C56.264 89.2094 56.2533 88.7361 56.5408 88.4542C61.3312 83.7533 66.1073 80.5411 71.2069 78.4093C67.1208 86.803 70.2581 94.4342 74.7503 97.0069Z" fill="#6B7D8E"/>
<path d="M54.4921 91.4405C55.0919 91.8521 57.9776 94.1317 55.8846 98.6198C55.3111 99.8497 55.7319 101.316 56.8683 102.051C59.7975 103.942 62.6729 104.892 65.4584 104.892C66.7198 104.892 67.9625 104.697 69.1833 104.307C75.7958 102.194 81.4369 94.5639 87.4726 79.5651C88.1288 77.9341 87.8672 76.0592 86.7895 74.6724C85.7016 73.2726 84.0079 72.5857 82.2617 72.8318C71.1243 74.4122 62.431 78.8634 54.0752 87.265C53.4908 87.8529 53.1645 88.6504 53.2623 89.4756C53.3597 90.3002 53.7866 91.0077 54.4921 91.4405ZM82.1524 78.3279C77.0407 90.8256 72.261 97.6359 67.5507 99.1408C65.7218 99.7247 63.7754 99.5263 61.6415 98.5291C62.6998 94.5277 61.4783 91.3235 59.8593 89.1989C66.5671 83.031 73.4024 79.7129 82.1524 78.3279Z" fill="black"/>
<path d="M27.7312 87.9292C29.2201 87.9292 30.4265 86.7159 30.4265 85.2192V80.8829C30.4265 79.386 29.2197 78.173 27.7312 78.173C26.2427 78.173 25.0359 79.3863 25.0359 80.8829V85.2192C25.0355 86.7162 26.2423 87.9292 27.7312 87.9292Z" fill="black"/>
<path d="M179.283 84.8539C179.283 78.6503 180.671 72.632 183.409 66.966C184.533 64.6394 184.023 61.8912 182.139 60.1275C180.251 58.3603 177.483 58.0445 175.25 59.3402L152.703 72.4286C148.609 72.2306 144.567 71.8837 140.587 71.3883L143.142 69.5521C144.74 68.4041 145.67 66.613 145.694 64.6384C145.718 62.6688 144.836 60.8607 143.272 59.6777C139.132 56.5446 136.441 52.2188 135.696 47.4977C135.36 45.3698 134.017 43.522 132.104 42.5551C130.176 41.5802 127.976 41.5968 126.067 42.6002C119.89 45.8468 112.522 54.9327 109.853 65.1887C106.528 64.6149 103.104 64.1347 99.6615 63.7358C99.0064 61.8008 98.6247 58.8896 100.232 55.5723C100.574 54.8652 100.594 54.0435 100.287 53.3205C99.9796 52.5975 99.3755 52.0446 98.6305 51.8043C93.904 50.2821 92.3238 48.0989 92.5926 43.4605C92.6433 42.5865 92.2706 41.7414 91.5928 41.1921C90.9143 40.6422 90.0127 40.4561 89.1757 40.6928C84.2206 42.0864 82.4025 41.4689 78.9353 37.2139C78.4415 36.608 77.7113 36.2463 76.9318 36.2228C76.1498 36.1957 75.4023 36.5151 74.8726 37.09C70.3714 41.9755 67.4885 52.8081 65.78 61.8279C64.726 61.82 63.7179 61.8157 62.7728 61.8157C61.9746 61.8157 61.1279 61.8272 60.1835 61.8511C58.6953 61.8886 57.5191 63.1323 57.5564 64.6286C57.5942 66.1252 58.8157 67.2974 60.3189 67.2699C70.5388 67.1687 82.8528 67.4267 97.3403 68.9255C104.757 69.741 112.071 70.8525 119.1 72.7187C130.039 75.6683 141.696 77.4131 153.745 77.9045C157.448 78.0556 160.35 81.1077 160.35 84.8536C160.35 88.4054 157.724 91.3755 154.241 91.7622C142.169 93.1045 130.286 97.2883 119.92 103.745C103.167 114.028 82.7051 119.428 62.7731 119.546C49.0619 119.546 37.8792 115.134 29.0594 109.247C38.8711 104.702 45.36 94.8035 45.36 83.5868C45.36 78.5856 44.0181 73.6687 41.5369 69.3743C43.6752 68.9631 45.8606 68.5974 48.083 68.2899C49.5578 68.0861 50.5889 66.7185 50.3858 65.2356C50.1831 63.7527 48.8215 62.715 47.348 62.9202C33.4161 64.4678 12.4089 71.75 4.76317 75.5783C2.6504 76.5441 1.04615 78.3753 0.361182 80.6026C-0.323068 82.8294 -0.0262244 85.2518 1.17624 87.2474C8.99804 101.496 29.3441 120.684 50.0663 123.756C49.7853 138.931 57.7584 145.336 62.7145 147.838C65.8882 149.443 69.7055 148.967 72.4292 146.614C74.6339 144.71 77.5948 141.357 79.1789 136.198C80.5819 131.631 78.7172 126.815 74.796 124.304C87.5265 122.929 100.318 119.45 111.596 114.307C115.124 121.428 121.269 125.842 126.067 128.363C127.977 129.368 130.178 129.381 132.103 128.408C134.017 127.441 135.36 125.594 135.696 123.465C136.441 118.744 139.132 114.419 143.272 111.285C144.835 110.102 145.718 108.294 145.694 106.325C145.67 104.35 144.74 102.559 143.142 101.411L141.166 99.9911C145.018 98.8146 148.945 97.9391 152.899 97.3927L160.677 101.908C161.943 102.649 163.61 102.224 164.359 100.916C165.103 99.6196 164.661 97.9622 163.372 97.2135L160.068 95.2956C163.502 93.0908 165.741 89.2191 165.741 84.8532C165.741 80.4616 163.494 76.6063 160.072 74.4098L177.945 64.0342C178.212 63.7556 178.819 64.2958 178.56 64.5975C175.463 71.0078 173.893 77.8232 173.893 84.8539C173.893 91.8865 175.461 98.7004 178.554 105.106C178.814 105.408 178.207 105.949 177.94 105.67L174.266 103.537C172.977 102.789 171.328 103.233 170.583 104.529C169.839 105.825 170.281 107.482 171.57 108.231L175.244 110.364C177.462 111.654 180.238 111.352 182.133 109.577C184.017 107.814 184.528 105.066 183.404 102.739C180.67 97.0766 179.283 91.0594 179.283 84.8539ZM5.78739 84.4395C5.37626 83.7573 5.27851 82.9631 5.5121 82.2032C5.74534 81.4434 6.27182 80.8428 6.99453 80.5126C12.8531 77.8344 23.3155 73.5534 35.9224 70.5789C38.5728 74.4054 39.969 78.8675 39.969 83.5864C39.969 93.7173 33.4222 102.519 23.8967 105.437C14.8483 98.0941 8.89382 89.5967 5.78739 84.4395ZM71.0869 128.447C73.4857 129.457 74.7773 132.16 74.028 134.599C72.8227 138.524 70.5834 141.064 68.9166 142.503C67.8497 143.424 66.3654 143.617 65.1339 142.995C58.8696 139.832 55.4875 133.346 55.4498 124.569C57.813 124.826 60.2521 124.966 62.7735 124.966C62.7886 124.966 62.804 124.966 62.8191 124.966L71.0869 128.447ZM140.007 105.821C140.261 106.004 140.302 106.258 140.304 106.392C140.305 106.553 140.259 106.782 140.03 106.956C134.767 110.939 131.337 116.501 130.372 122.616C130.278 123.206 129.858 123.477 129.682 123.566C129.471 123.673 129.046 123.814 128.564 123.56C124.52 121.434 119.359 117.752 116.454 111.941C118.63 110.808 120.737 109.612 122.759 108.352C126.636 105.937 130.725 103.876 134.946 102.184L140.007 105.821ZM77.1133 43.2195C80.2132 46.1691 83.2338 47.1768 87.3163 46.6247C87.8852 50.9162 90.1729 53.9448 94.3306 55.9238C93.5399 58.6334 93.5784 61.0941 93.9514 63.1446C85.859 62.4014 77.9326 62.0549 71.2576 61.9092C72.8906 53.5911 74.938 47.0713 77.1133 43.2195ZM115.161 66.2065C117.615 57.2315 124.24 49.6765 128.565 47.4037C129.047 47.1504 129.472 47.2913 129.683 47.3976C129.859 47.4868 130.279 47.7578 130.372 48.3475C131.338 54.4637 134.768 60.0253 140.03 64.0082C140.417 64.3858 140.423 64.754 140.007 65.1428L132.918 70.2379C128.686 69.4914 124.538 68.5732 120.494 67.4827C118.775 67.0217 116.992 66.5971 115.161 66.2065Z" fill="black"/>
</g>
<defs>
<clipPath id="clip0_2_43755">
<rect width="184" height="185" fill="white"/>
</clipPath>
</defs>
</svg>
