<svg width="185" height="185" viewBox="0 0 185 185" fill="none" xmlns="http://www.w3.org/2000/svg">
<g clip-path="url(#clip0_2_43698)">
<path d="M136.46 75.5537C133.374 78.2275 128.854 79.2465 125.815 79.6367C124.76 70.6114 132.308 63.6429 137.945 67.254C139.498 69.9134 138.898 73.4435 136.46 75.5537Z" fill="#FF6E80"/>
<path d="M137.945 67.2537C132.124 66.755 127.679 72.5905 125.815 79.6364C123.896 79.8857 122.566 79.8785 122.566 79.8785C122.566 79.8785 123 70.5706 127.961 65.8589C130.548 63.3983 134.646 63.5139 137.095 66.1155C137.428 66.4699 137.713 66.8529 137.945 67.2537Z" fill="#F9475E"/>
<path d="M116.142 51.9987C114.61 56.0961 110.917 59.0229 106.567 59.4962C92.2582 61.0608 88.0487 71.9837 88.0487 71.9837L86.7009 71.2033C82.3289 59.9302 93.2988 41.1971 114.917 31.6487C116.695 31.1609 118.538 32.2918 118.837 34.1129C119.781 39.8544 118.104 46.7667 116.142 51.9987Z" fill="#FF6E80"/>
<path d="M86.7009 71.2033L78.0471 66.188C86.8852 41.5382 107.185 33.7661 114.917 31.6487C93.0025 45.8127 86.2023 59.7311 86.7009 71.2033Z" fill="#F9475E"/>
<path d="M93.223 140.415C90.7262 146.391 86.1771 150.106 82.6866 152.201C75.8265 146.65 79.5445 130.98 85.8591 128.372C87.4417 131.01 89.2592 132.542 90.8382 133.43C93.2772 134.804 94.2997 137.832 93.223 140.415Z" fill="#FF6E80"/>
<path d="M82.6866 152.201C82.0976 152.559 81.5375 152.866 81.0245 153.134C79.3949 153.979 77.3859 153.137 76.8692 151.378C71.5577 133.174 82.3433 117.333 82.3433 117.333C83.0262 122.305 84.3342 125.846 85.859 128.372C80.7788 136.607 80.2874 144.491 82.6866 152.201Z" fill="#F9475E"/>
<path d="M137.656 125.29C129.009 126.486 124.738 130.071 120.742 137.734C113.551 136.634 111.441 119.335 119.889 110.371L131.936 106.635L140.915 115.531C144.297 118.877 142.367 124.64 137.656 125.29Z" fill="#FF6E80"/>
<path d="M120.742 137.734C120.594 138.023 120.442 138.316 120.294 138.616C118.147 142.919 111.824 142.327 110.502 137.705L104.081 115.274L119.889 110.371C115.856 121.912 116.879 133.142 120.742 137.734Z" fill="#F9475E"/>
<path d="M138.373 95.3259C144.452 111.226 167.258 118.939 177.39 121.638C179.964 122.324 182.466 120.281 182.28 117.623C181.71 109.51 178.5 103.11 173.316 98.2953C171.544 96.6502 171.439 93.8607 173.133 92.1358C178.517 86.6548 181.631 80.0717 182.259 72.9048C182.489 70.2805 180.062 68.2075 177.496 68.8044C167.674 71.0898 145.594 78.032 138.373 95.3259Z" fill="#FF6E80"/>
<path d="M158.164 92.0371V98.4362C158.164 103.513 154.298 107.795 149.236 108.214C137.97 109.15 126.902 111.834 116.387 116.094C108.507 119.288 99.452 121.843 90.5383 123.52C48.1542 120.179 45.2007 73.7687 59.8038 65.1005C62.6438 64.8403 65.5778 64.703 68.6057 64.703C82.9288 64.703 101.703 68.4247 116.387 74.3794C126.902 78.6394 137.97 81.3241 149.236 82.2599C154.298 82.6787 158.164 86.9604 158.164 92.0371Z" fill="#91D4F2"/>
<path d="M90.5383 123.52C82.8384 124.969 75.2432 125.771 68.6056 125.771C50.2104 125.771 35.2626 120.676 24.0217 114.649C30.7027 109.822 36.3213 104.698 36.3213 95.2349C36.3213 85.7753 27.7109 78.8884 24.0217 75.8243C33.4126 70.791 45.3907 66.4045 59.8041 65.1001C50.807 85.0562 57.6939 112.239 90.5383 123.52Z" fill="#59C2E8"/>
<path d="M41.9834 128.567C35.3064 133.678 23.8552 128.372 27.7832 109.728C31.8048 111.386 38.4315 114.797 41.6221 120.289C43.1469 122.92 43.183 126.005 41.9834 128.567Z" fill="#E8ECF9"/>
<path d="M41.9834 128.567C41.2355 130.172 40.0033 131.574 38.3485 132.524C33.8897 135.086 28.206 133.203 25.8284 128.643C23.5412 124.246 23.74 118.775 24.0218 114.649C24.2639 111.086 24.4554 108.528 24.4554 108.528C24.4554 108.528 25.8031 108.915 27.7832 109.728C28.0795 125.688 35.5373 129.922 41.9834 128.567Z" fill="#C5CFF1"/>
<path d="M40.1189 95.2349C40.1189 104.698 33.0008 112.915 24.0218 114.649C15.9533 110.324 9.78904 105.522 5.62293 101.775C1.73865 98.2809 1.73865 92.1925 5.62293 88.6985C9.78904 84.9515 15.9533 80.1494 24.0218 75.8243C33.0008 77.5587 40.1189 85.7753 40.1189 95.2349Z" fill="#00AEDE"/>
<path d="M26.207 94.6669V90.3309C26.207 88.834 24.9941 87.621 23.4971 87.621C22.0001 87.621 20.7871 88.834 20.7871 90.3309V94.6669C20.7871 96.1639 22.0001 97.3768 23.4971 97.3768C24.9941 97.3768 26.207 96.1639 26.207 94.6669Z" fill="black"/>
<path d="M184.984 117.433C184.386 108.914 181.081 101.807 175.161 96.3091C174.548 95.6594 174.374 94.8565 175.067 94.0342C180.857 88.1391 184.278 80.914 184.959 73.1407C185.145 71.0248 184.328 69.0097 182.719 67.6131C181.122 66.2274 178.94 65.6858 176.883 66.1642C170.103 67.7418 157.455 71.5314 147.566 79.3816C144.301 79.0524 141.049 78.5693 137.817 77.9402C142.077 74.8119 142.812 68.0489 139.07 64.2571C135.758 60.5907 129.609 60.4165 126.093 63.8936C123.4 66.4529 121.855 70.0188 120.969 73.2368C119.776 72.7996 118.588 72.3443 117.406 71.8652C111.196 69.3475 104.217 67.2055 97.1102 65.5658C99.4989 63.9959 102.684 62.6463 106.861 62.1903C112.236 61.6035 116.766 58.0614 118.681 52.9468C120.238 48.7912 122.675 40.761 121.511 33.6725C121.248 32.066 120.305 30.6377 118.927 29.7535C117.528 28.8556 115.803 28.5929 114.2 29.0327C106.028 31.2718 86.3437 38.9519 76.6352 62.3323C73.8613 62.1105 71.1694 61.9927 68.6072 61.9927C64.5274 61.9927 60.4274 62.2427 56.4217 62.737C54.9363 62.9198 53.8805 64.2726 54.0637 65.7577C54.2466 67.2435 55.6051 68.2993 57.0844 68.1157C60.8711 67.6493 64.7482 67.4126 68.6072 67.4126C84.0821 67.5282 101.231 71.2484 115.37 76.8881C126.24 81.2984 137.542 83.9925 149.013 84.9583C152.626 85.2579 155.456 88.3674 155.456 92.0371V98.4341C155.456 102.104 152.626 105.213 149.013 105.512C137.557 106.462 126.238 109.177 115.37 113.583C100.734 119.358 84.3192 122.883 68.6072 123.059C60.3581 123.059 52.2419 121.989 44.4593 119.881C42.7166 116.379 40.0102 113.669 36.1465 111.067C40.4077 106.939 42.8362 101.171 42.8279 95.2352C42.8279 89.9045 40.9038 84.756 37.4101 80.7376C35.5229 78.5668 33.2458 76.8053 30.7245 75.524C35.0488 73.5649 39.814 71.811 45.0251 70.4355C46.4722 70.0532 47.3358 68.5706 46.9539 67.1235C46.5712 65.6764 45.0887 64.8128 43.6419 65.1948C24.9913 70.1182 11.6875 79.598 3.81165 86.6837C1.38895 88.8628 0 91.9797 0 95.2356C0 98.4922 1.38895 101.609 3.81057 103.787C8.86085 108.331 14.7111 112.52 20.8139 115.973C20.6756 120.133 21.1077 125.443 23.4256 129.893C26.3141 135.688 34.0722 138.254 39.6973 134.871C43.0046 132.997 45.1953 129.525 45.4988 125.741C52.988 127.556 60.7421 128.478 68.6065 128.478C70.5211 128.478 72.5084 128.413 74.5478 128.288C72.7003 134.675 71.6373 143.116 74.2688 152.135C74.7396 153.748 75.8973 155.053 77.4456 155.716C79.0037 156.383 80.7626 156.321 82.2715 155.54C85.8779 153.674 92.4209 149.362 95.722 141.458C97.3385 137.587 95.8112 133.121 92.169 131.068C90.5723 130.169 89.1711 128.688 88.0307 126.714C93.2104 125.847 98.4659 124.681 103.551 123.27L107.896 138.448C108.81 141.64 111.537 143.9 114.845 144.205C118.099 144.518 121.249 142.798 122.72 139.825C126.673 131.906 130.392 129.026 138.026 127.973C141.237 127.53 143.868 125.346 144.893 122.272C145.915 119.202 145.123 115.881 142.824 113.604L141.138 111.935C143.321 111.581 145.512 111.295 147.708 111.076C150.606 113.267 153.968 115.326 157.73 117.206C159.04 117.868 160.694 117.345 161.366 115.992C162.034 114.653 161.491 113.026 160.152 112.357C158.185 111.374 156.344 110.342 154.636 109.27C158.367 107.085 160.876 103.007 160.876 98.4341V92.0375C160.876 87.3901 158.286 83.2514 154.454 81.0932C162.861 75.5858 172.573 72.7313 178.111 71.4428C178.645 71.3189 179.028 71.5856 179.166 71.7062C179.333 71.8501 179.604 72.1662 179.56 72.6674C178.99 79.1735 176.099 85.2485 171.201 90.2359C169.877 91.5833 169.172 93.37 169.215 95.2663C169.259 97.1607 170.081 98.988 171.473 100.28C176.352 104.812 179.079 110.711 179.578 117.812C179.614 118.327 179.33 118.642 179.157 118.785C178.98 118.931 178.607 119.156 178.089 119.019C175.895 118.434 173.679 117.765 171.503 117.03C170.084 116.552 168.547 117.312 168.068 118.73C167.589 120.148 168.35 121.686 169.768 122.165C172.055 122.938 174.385 123.641 176.693 124.256C178.737 124.803 180.963 124.325 182.608 122.964C184.244 121.613 185.133 119.545 184.984 117.433ZM82.2863 62.9151C91.2856 42.9037 108.418 36.2368 115.632 34.2604C115.903 34.1769 116.152 34.3894 116.163 34.5516C116.864 38.8225 115.932 44.8346 113.606 51.0462C112.412 54.2335 109.602 56.4394 106.272 56.8029C98.4879 57.6531 93.3961 61.0572 90.2872 64.1541C87.5975 63.6609 84.9197 63.2454 82.2863 62.9151ZM136.088 70.6508C136.032 71.7424 135.522 72.7826 134.687 73.5053C133.468 74.5611 131.803 75.4124 129.738 76.0454C128.527 75.7119 127.319 75.3564 126.115 74.9806C126.742 72.5991 127.863 69.6879 129.826 67.8231C130.552 67.1333 131.51 66.7647 132.505 66.7965C133.506 66.8247 134.436 67.2417 135.123 67.9719C135.797 68.6881 136.139 69.6395 136.088 70.6508ZM24.072 111.584C16.5615 107.409 10.9009 102.876 7.43577 99.7583C6.13571 98.5891 5.41992 96.983 5.41992 95.2356C5.41992 93.4886 6.13571 91.8828 7.43577 90.7132C11.4682 87.0851 17.0124 82.7932 24.0496 78.8826C31.7221 80.4414 37.4072 87.3229 37.4072 95.2356C37.4072 103.141 31.7329 110.016 24.072 111.584ZM39.9076 126.385C39.4769 127.996 38.4428 129.342 36.9964 130.173C33.9764 131.993 29.7752 130.507 28.2324 127.389C26.5237 124.109 26.1471 120.019 26.2172 116.648C28.0568 116.175 29.8229 115.47 31.4728 114.55C35.1016 116.649 37.7862 119.085 39.2767 121.651C40.1146 123.093 40.3387 124.775 39.9076 126.385ZM89.5086 135.791C90.7367 136.483 91.2693 138.055 90.7205 139.369C88.0802 145.691 82.7326 149.199 79.7809 150.727C79.6812 150.802 79.4759 150.71 79.4723 150.617C76.9076 141.827 78.4129 133.582 80.3883 127.783C81.0441 127.71 81.7042 127.63 82.3666 127.547C84.5215 132.203 87.3742 134.589 89.5086 135.791ZM139.751 120.559C139.377 121.679 138.455 122.444 137.285 122.605C126.53 124.088 121.883 129.368 117.871 137.405C117.145 138.858 115.754 138.846 115.343 138.809C114.932 138.771 113.556 138.526 113.107 136.958L108.746 121.724C111.746 120.766 114.652 119.723 117.406 118.606C123.06 116.314 128.841 114.506 134.699 113.186L139.009 117.456C139.845 118.283 140.122 119.443 139.751 120.559Z" fill="black"/>
</g>
<defs>
<clipPath id="clip0_2_43698">
<rect width="185" height="185" fill="white"/>
</clipPath>
</defs>
</svg>
