<svg width="184" height="184" viewBox="0 0 184 184" fill="none" xmlns="http://www.w3.org/2000/svg">
<path d="M111.629 49.5928C111.786 49.5928 111.94 49.5992 112.096 49.6C112.014 49.5989 111.932 49.5931 111.849 49.5931L111.629 49.5928Z" fill="#B9DFF0"/>
<path d="M157.922 118.08C157.877 118.111 157.967 118.049 157.922 118.08V118.08Z" fill="#B9DFF0"/>
<path d="M79.4775 112.914L65.0764 137.512C70.7969 137.512 76.2835 135.239 80.3284 131.194L98.6087 112.914H79.4775Z" fill="#98B6D1"/>
<path d="M71.6264 131.194L79.4773 112.914H55.9427C48.1864 118.335 43.1133 127.331 43.1133 137.512C43.1133 140.49 45.5276 142.904 48.5056 142.904C49.7149 142.904 50.8315 142.506 51.7309 141.834C55.5692 138.964 60.2835 137.512 65.0758 137.512C67.5329 137.512 69.889 135.239 71.6264 131.194Z" fill="#A8CAE0"/>
<path d="M112.567 129.527V155.652C124.224 152.677 132.831 142.117 132.831 129.527H112.567Z" fill="#87A1C1"/>
<path d="M122.046 129.527H105.869V149.691C105.869 153.924 109.169 156.519 112.567 155.652C118.02 152.677 122.046 142.117 122.046 129.527Z" fill="#98B6D1"/>
<path d="M48.0304 73.5204C44.6936 75.4469 40.5825 75.4469 37.2457 73.5204L18.873 62.9126C13.9545 60.073 8.37524 58.5779 2.69604 58.5779V77.9155C2.69604 82.7984 4.63584 87.4811 8.08837 90.9336C4.63584 94.3861 2.69604 99.0692 2.69604 103.952V123.286C8.37524 123.286 13.9545 121.791 18.873 118.951L37.2461 108.343C40.5828 106.417 44.694 106.417 48.0307 108.343L48.0304 73.5204Z" fill="#FF7D6D"/>
<path d="M33.9332 71.6111L32.6768 70.8856C32.5269 70.799 32.3763 70.7159 32.2249 70.6358C20.9018 64.656 9.46969 78.3497 16.9837 88.7187C17.5506 89.501 18.1815 90.2419 18.8732 90.9335C18.1815 91.6252 17.5506 92.3665 16.9837 93.1484C9.46969 103.517 20.9018 117.211 32.2249 111.231C32.3763 111.152 32.5273 111.068 32.6768 110.981L33.935 110.255L33.9332 71.6111Z" fill="#B9DFF0"/>
<path d="M37.2461 73.5239L33.933 71.6111C29.6113 76.9779 27.1934 83.7097 27.1934 90.931C27.193 98.1546 29.6116 104.888 33.9348 110.255L37.2461 108.344C40.5829 106.417 44.694 106.417 48.0307 108.344V73.5239C44.6936 75.4504 40.5829 75.4504 37.2461 73.5239Z" fill="#A8CAE0"/>
<path d="M139.384 43.0473C133.317 36.9795 125.089 33.5708 116.509 33.5708L111.105 38.9743L154.115 73.0296L170.027 73.6904L139.384 43.0473Z" fill="#98B6D1"/>
<path d="M129.176 48.0912C124.253 43.168 117.907 39.9959 111.105 38.9743C107.644 35.5149 102.951 33.5708 98.0569 33.5708H59.4507C54.6584 33.5708 49.9444 32.1188 46.1058 29.249C45.2064 28.5764 44.0898 28.1785 42.8801 28.1785C39.9021 28.1785 37.4878 30.5928 37.4878 33.5708C37.4878 48.2153 44.785 61.1554 55.9421 68.9534L154.114 73.0293L129.176 48.0912Z" fill="#A8CAE0"/>
<path d="M132.809 70.7264C132.81 59.2052 123.585 49.7568 112.097 49.5928C111.941 49.5921 111.786 49.5928 111.63 49.5928C95.7579 49.5928 80.9355 54.057 68.3433 61.7932L48.0311 73.5204C34.6276 81.2587 34.6276 100.605 48.0311 108.344L68.3066 120.05C80.9067 127.801 95.7428 132.275 111.63 132.275C128.785 132.275 144.71 127.053 157.923 118.126L132.809 70.7264Z" fill="#E5FAFF"/>
<path d="M82.9998 101.719C91.483 110.201 104.091 112.007 114.335 107.145V96.292C104.09 91.4292 91.4826 93.2353 82.9998 101.719Z" fill="#B9DFF0"/>
<path d="M114.334 96.2907C110.389 94.4214 105.845 97.3533 105.845 101.719C105.845 106.084 110.39 109.015 114.334 107.147C117.114 105.829 119.72 104.021 122.022 101.719C119.72 99.4164 117.114 97.6079 114.334 96.2907Z" fill="#FF7D6D"/>
<path d="M168.848 101.61L156.219 119.114C156.794 118.823 157.363 118.496 157.922 118.126C163.982 114.032 169.469 109.157 174.243 103.648L168.848 101.61Z" fill="#FF6053"/>
<path d="M168.848 101.61L132.808 87.9934L132.807 104.643C132.807 116.896 145.73 124.413 156.218 119.114C162.218 114.728 166.609 108.575 168.848 101.61Z" fill="#FF7D6D"/>
<path d="M179.339 84.718C172.523 75.0543 163.683 66.9212 153.441 60.9192L164.678 110.274C168.151 108.997 171.438 106.827 174.242 103.649C176.045 101.569 177.749 99.4009 179.339 97.1462C181.966 93.4216 181.966 88.4427 179.339 84.718Z" fill="#A8CAE0"/>
<path d="M153.441 60.9193C141.297 53.8022 127.179 49.6835 112.097 49.6001C123.586 49.764 132.81 59.2053 132.809 70.7265L132.808 87.9934C132.837 105.571 150.349 115.546 164.678 110.274C168.428 104.637 170.525 97.934 170.525 90.9333C170.525 78.6068 164.023 67.2067 153.441 60.9193Z" fill="#B9DFF0"/>
<path d="M154.388 96.3259C157.366 96.3259 159.78 93.9117 159.78 90.9336C159.78 87.9555 157.366 85.5413 154.388 85.5413C151.41 85.5413 148.996 87.9555 148.996 90.9336C148.996 93.9117 151.41 96.3259 154.388 96.3259Z" fill="#515985"/>
<path d="M181.542 83.164C178.678 79.1043 175.487 75.3426 172.025 71.8929C171.993 71.8574 171.968 71.8178 171.933 71.7837L141.291 41.1413C134.671 34.5209 125.87 30.8746 116.508 30.8746C115.793 30.8746 115.108 31.1586 114.602 31.6644L110.984 35.2816C107.299 32.4233 102.797 30.8743 98.0572 30.8743H79.1276C77.6383 30.8743 76.4315 32.0811 76.4315 33.5704C76.4315 35.0598 77.6383 36.2666 79.1276 36.2666H98.0572C102.265 36.2666 106.222 37.9055 109.198 40.8813C110.25 41.9339 111.958 41.9343 113.01 40.881L117.605 36.2864C125.114 36.5581 132.135 39.6113 137.477 44.9536L147.196 54.6724C136.174 49.6252 124.066 46.8959 111.629 46.8959C99.5016 46.8959 87.7794 49.3858 76.7884 54.2956C75.4289 54.9028 74.8188 56.4975 75.4263 57.8567C76.0335 59.217 77.6296 59.8271 78.9874 59.2188C89.2824 54.6199 100.264 52.2883 111.629 52.2883C111.774 52.2883 111.919 52.294 112.065 52.2951C122.037 52.4428 130.112 60.6615 130.112 70.726L130.11 104.643C130.11 111.753 133.86 117.985 140.141 121.312C141.335 121.945 142.565 122.44 143.814 122.804C133.795 127.207 122.854 129.579 111.629 129.579C96.7864 129.579 82.2936 125.489 69.718 117.753C69.6965 117.74 69.6753 117.727 69.6533 117.715L49.3778 106.009C43.9273 102.862 40.6732 97.2257 40.6732 90.9322C40.6732 84.6386 43.9273 79.0022 49.3778 75.8556L69.6904 64.1284C70.9798 63.3839 71.4216 61.7349 70.6771 60.4454C69.933 59.1556 68.283 58.7145 66.9942 59.4586L56.1172 65.7385C46.1112 58.1015 40.1836 46.2039 40.1836 33.5719C40.1836 32.085 41.3929 30.8757 42.8797 30.8757C43.4668 30.8757 44.024 31.0605 44.491 31.4092C48.6815 34.5421 53.9944 36.2677 59.45 36.2677H68.3416C69.8309 36.2677 71.0377 35.0609 71.0377 33.5715C71.0377 32.0822 69.8309 30.8754 68.3416 30.8754H59.45C55.1501 30.8754 50.984 29.5312 47.7192 27.0907C46.3128 26.0392 44.6391 25.4834 42.8794 25.4834C38.4196 25.4834 34.7909 29.1121 34.7909 33.5719C34.7909 47.1404 40.8249 59.9605 51.1077 68.6302L46.681 71.1858C44.1868 72.6256 41.0873 72.6263 38.5925 71.1858L20.2212 60.5777C14.8997 57.5055 8.83981 55.8821 2.69616 55.8821C1.2068 55.8821 0 57.0889 0 58.5782V77.9158C0 82.6963 1.57887 87.2345 4.48893 90.9339C1.57887 94.6334 0 99.1716 0 103.952V123.286C0 124.775 1.2068 125.982 2.69616 125.982C8.84053 125.982 14.9004 124.358 20.2212 121.286L38.5939 110.678C41.0884 109.238 44.1879 109.238 46.6824 110.678L51.1774 113.274C44.3784 119.432 40.4172 128.227 40.4169 137.512C40.4169 141.972 44.0456 145.6 48.5054 145.6C50.2654 145.6 51.9392 145.044 53.3451 143.993C56.6104 141.552 60.7765 140.208 65.076 140.208C71.5575 140.208 77.6512 137.684 82.2343 133.1L84.7022 130.632C90.678 132.612 96.8705 133.929 103.173 134.551V150.417C103.173 152.937 104.315 155.269 106.306 156.817C107.743 157.933 109.467 158.517 111.231 158.517C111.897 158.517 112.569 158.433 113.233 158.264C125.697 155.084 134.585 144.266 135.451 131.564C153.865 126.207 170.228 114.74 181.542 98.6992C184.819 94.0539 184.819 87.8104 181.542 83.164ZM35.8978 106.009L17.525 116.616C13.8036 118.765 9.65513 120.076 5.39232 120.467V103.952C5.39232 99.7547 7.02691 95.8086 9.99521 92.8407C10.5006 92.3345 10.7846 91.649 10.7846 90.9336C10.7846 90.2182 10.5006 89.5327 9.99485 89.0269C7.02691 86.0597 5.39232 82.1132 5.39232 77.9155V61.3973C9.65477 61.7877 13.8033 63.0988 17.525 65.2475L35.8978 75.8552C37.1096 76.5548 38.4073 77.0466 39.7407 77.3367C36.8748 81.1828 35.2816 85.8957 35.2816 90.9318C35.2816 95.9682 36.8748 100.681 39.741 104.528C38.4081 104.818 37.11 105.309 35.8978 106.009ZM142.666 116.547C138.18 114.172 135.503 109.721 135.503 104.643V104.065C138.519 107.961 142.595 110.94 147.333 112.696C150.376 113.823 153.54 114.391 156.693 114.391C157.342 114.391 157.991 114.364 158.639 114.316C157.688 115.004 156.718 115.664 155.74 116.31C151.687 118.67 146.869 118.775 142.666 116.547ZM78.4212 129.288C74.8569 132.853 70.1171 134.816 65.076 134.816C59.6204 134.816 54.3082 136.541 50.1162 139.675C49.6493 140.024 49.0924 140.208 48.5057 140.208C47.0189 140.208 45.8096 138.999 45.8096 137.512C45.8099 129.169 49.6395 121.298 56.1333 116.135L66.9266 122.366C70.8375 124.77 74.9223 126.84 79.1384 128.572L78.4212 129.288ZM111.9 153.039C111.103 153.244 110.27 153.068 109.615 152.559C108.948 152.041 108.565 151.261 108.565 150.418V134.916C109.585 134.952 110.606 134.971 111.629 134.971C117.827 134.971 123.942 134.29 129.884 132.988C128.511 142.594 121.503 150.589 111.9 153.039ZM177.136 95.5918C175.543 97.8491 173.839 100.003 172.043 102.063C165.061 109.808 155.71 110.048 149.206 107.639C142.59 105.188 135.522 98.7402 135.504 87.9919L135.504 70.726C135.505 64.2977 132.948 58.4556 128.807 54.1637C148.143 58.4229 165.492 69.7648 177.135 86.2721C179.102 89.0592 179.102 92.8047 177.136 95.5918Z" fill="black"/>
<path d="M154.388 82.8452C149.928 82.8452 146.3 86.4739 146.3 90.9337C146.3 95.3935 149.928 99.0222 154.388 99.0222C158.848 99.0222 162.477 95.3935 162.477 90.9337C162.477 86.4739 158.848 82.8452 154.388 82.8452ZM154.388 93.6299C152.901 93.6299 151.692 92.4205 151.692 90.9337C151.692 89.4469 152.901 88.2375 154.388 88.2375C155.875 88.2375 157.084 89.4469 157.084 90.9337C157.084 92.4205 155.875 93.6299 154.388 93.6299Z" fill="black"/>
<path d="M123.929 103.625C124.982 102.572 124.982 100.865 123.929 99.8118C112.118 88.0019 92.9032 88.0019 81.0929 99.8118C80.04 100.865 80.04 102.572 81.0929 103.625C86.9982 109.53 94.7546 112.482 102.511 112.482C110.267 112.482 118.024 109.53 123.929 103.625ZM117.979 101.718C108.954 108.883 96.0685 108.883 87.0432 101.718C96.0681 94.5532 108.954 94.5532 117.979 101.718Z" fill="black"/>
</svg>
